<?xml version="1.0" standalone="no"?>
<!DOCTYPE svg PUBLIC "-//W3C//DTD SVG 1.1//EN" "http://www.w3.org/Graphics/SVG/1.1/DTD/svg11.dtd" >
<svg xmlns="http://www.w3.org/2000/svg">
<metadata></metadata>
<defs>
<font id="aracne_regularregular" horiz-adv-x="1013" >
<font-face units-per-em="2048" ascent="1638" descent="-410" />
<missing-glyph horiz-adv-x="507" />
<glyph horiz-adv-x="0" />
<glyph unicode="&#xd;" horiz-adv-x="507" />
<glyph unicode=" "  horiz-adv-x="507" />
<glyph unicode="&#x09;" horiz-adv-x="507" />
<glyph unicode="&#xa0;" horiz-adv-x="507" />
<glyph unicode="!" horiz-adv-x="331" d="M0 809q4 12 4 14q-4 133 -4 187h4l-4 6v78q0 8 4 16q-4 4 -4 12l4 35l-4 6q4 23 6 23q0 4 -2 4q6 47 6 90v90q23 49 76 49q14 -10 25 -37q12 -43 16 -102l-12 -63q0 -4 4 -5q-8 -37 -8 -73v-45q0 -4 -5 -4l5 -7v-26q0 -4 -5 -4l5 -6q0 -4 -5 -5l5 -8q0 -8 -5 -14 q4 -6 5 -14q0 -4 -5 -5l5 -8v-28q0 -12 -5 -13l5 -16v-62q0 -8 4 -14l-4 -6l4 -23h-4l4 -8v-61q0 -10 4 -17q-4 -6 -4 -14q0 -4 4 -4l-4 -14l12 -82q0 -2 -4 -2q18 -170 20 -236h-2q6 -16 6 -65v-45q0 -8 -4 -15q4 -2 9 -69q0 -25 -46 -52l-18 -4q-51 0 -51 70v33 q0 74 -6 223q-4 0 -4 2h4q-8 14 -17 137q-4 0 -4 4t4 4l-8 52h4l-4 8v59q0 18 -2 64h2q-2 10 -6 10zM27 25v12q4 47 43 47q0 2 16 2v-2l6 2q29 0 31 -10q-4 0 -4 -2q4 -2 14 -21v-4q0 -70 -70 -69q-33 0 -36 45z" />
<glyph unicode="&#x22;" horiz-adv-x="438" d="M10 1536v6q0 8 43 14v3q41 0 49 -21q0 -2 4 -2l-4 -14v-43q0 -2 -4 -2l4 -4v-17q0 -4 -4 -8q4 -4 4 -8q0 -2 -4 -6q0 -4 4 -4l-4 -11l4 -10q-4 -4 -4 -6l4 -10q0 -4 -4 -4l4 -25v-10q0 -20 -4 -56q4 -4 4 -10q-4 -4 -4 -6l4 -4q0 -2 -4 -2l8 -41q-12 -41 -36 -41 q-18 0 -41 25q-12 0 -13 4l4 6q0 2 -4 2q0 2 4 6q-6 53 -6 98l2 13q-2 4 -2 6t2 2l-2 10v47q0 2 2 2l-2 4v21l2 12q-2 4 -2 10v2q0 6 2 11l-2 4l2 4q0 2 -2 2l2 8q-2 20 -2 25h2q-6 8 -6 18zM160 1536v6q0 8 45 14v3q39 0 49 -21q0 -2 2 -2l-2 -14v-43q0 -2 -4 -2l4 -4v-17 q0 -4 -4 -8q4 -4 4 -8q0 -2 -4 -6q0 -4 4 -4l-4 -11l4 -10q-4 -4 -4 -6l4 -10q0 -4 -4 -4l4 -25v-10q0 -20 -4 -56q4 -4 4 -10q-4 -4 -4 -6l4 -4q0 -2 -4 -2l6 -41q-10 -41 -37 -41q-16 0 -41 25q-10 0 -10 4l2 6q0 2 -2 2q0 2 2 6q-6 53 -6 98l4 13q-4 4 -4 6t4 2l-4 10v47 q0 2 4 2l-4 4v21l4 12q-4 4 -4 10v2q0 6 4 11l-4 4l4 4q0 2 -4 2l4 8q-4 20 -4 25h4q-8 8 -8 18z" />
<glyph unicode="#" horiz-adv-x="1597" d="M-31 793q2 4 54 45l18 -4h55q20 0 27 -5q18 4 33 5h84q8 0 16 4q4 -4 14 -4l37 4v-4q2 0 2 4l21 -4h28l19 4v-4q6 4 14 4q-8 145 -14 221h4l-4 8q0 2 4 2q-8 41 -8 127v4l-2 23q2 6 2 16v8q0 8 -2 15q2 8 2 12t-2 10l2 19l-2 8q2 6 2 14l-2 14q14 0 20 37q-4 0 -4 4l8 4 q4 0 4 -4l9 4q41 0 55 -61q0 -37 4 -53h-4l4 -8v-2q0 -4 -4 -5l4 -8q0 -29 -4 -51q4 -84 10 -123h-4q2 -8 8 -45q0 -2 -4 -2q8 -29 10 -178q4 -6 4 -10h23q4 0 4 -4l6 4h8q4 0 4 -4l9 4h16q4 0 4 -4l8 4h23q25 0 74 4v-4l8 4q8 0 14 -4q6 4 14 4h5q4 0 4 -4l6 4q12 0 221 6 v6q0 12 -2 12l6 60q-4 8 -4 12q0 2 4 2l-4 18v9q0 4 4 4l-4 8v49q0 4 4 4l-4 8v27q0 8 -2 14l2 9q0 2 -2 2q0 4 2 12q-6 125 -6 199q14 4 26 40l19 5h6q41 -20 41 -82q4 0 4 -6h-4q4 -12 8 -13q0 -8 -4 -8q4 -137 10 -190l-2 -23v-10l2 -25q-2 -6 -2 -12l2 -16l-2 -15 q2 -14 2 -26h-2l2 -7v-12q0 -8 -2 -14q0 -4 2 -4l-2 -19v-14h6q12 0 13 2l18 -2h23l16 2v-2l8 2h8q4 0 5 -2l6 2h22l23 4q8 -4 10 -4q6 4 16 4v-4l7 4h30l37 4v-4l6 4h45l23 4l8 -4l20 4v-4q20 8 27 8v-4l6 4q31 -8 37 -28v-4q-12 -41 -12 -45q-27 -8 -27 -13l-37 4h-22 q-18 0 -55 -4v4l-187 -14l-20 4h-64q-8 -141 -10 -170l2 -8l-2 -18q0 -4 2 -5l-2 -18v-61q0 -4 -4 -5q0 -4 4 -4l-4 -14l4 -22h-4l4 -9v-6q0 -4 -4 -4l4 -6l-4 -21l4 -18l-4 -6q4 -8 4 -12q14 0 14 4q43 -4 64 -4h74q8 0 14 -5q6 4 14 5h47q4 0 4 -5l9 5h45q6 0 6 8 q27 -8 45 -8h4l20 4l9 -4q6 4 16 4q33 -12 33 -27q-4 0 -4 -2h8v-16q-10 0 -17 -37l-8 -2l-6 2q0 -6 -6 -6q-4 0 -12 4q-12 -4 -15 -4l-18 4q-8 -4 -12 -4v4l-7 -4h-8q-4 0 -4 4l-8 -4h-10l-19 4q0 -8 -8 -8l-2 8q-4 0 -4 -4l-18 4h-41q-4 0 -4 2l-7 -2h-59q-4 0 -4 2l-8 -2 q-2 0 -2 2l-9 -2h-106v-41q0 -8 2 -17l-2 -6q2 -8 2 -14q0 -4 -2 -4q2 -8 2 -12q0 -33 8 -134q0 -27 -37 -55q-59 12 -59 31q-4 6 -4 10t4 4q-4 51 -8 64q4 6 4 14l-4 6l4 8q-4 29 -6 37l2 8l-2 7q0 4 2 4l-2 36v54h-8q-8 0 -17 -4q-6 4 -12 4l-27 -4q-14 4 -26 4 q-6 -4 -11 -4v4l-8 -4h-29q-8 0 -8 6q-12 -6 -22 -6h-60q-4 0 -4 4l-6 -4q-4 0 -4 4l-6 -4h-131l-19 -4v4l-8 -4q-6 4 -10 4v-4q0 -4 4 -13l-4 -6q8 -29 8 -37q0 -4 -4 -4q6 -39 6 -119q4 -18 4 -22h-4q12 -25 12 -47h-4q4 -8 4 -13q0 -35 -40 -59q-47 12 -48 21q2 0 2 2 q-4 0 -10 12v45q0 6 -4 14q4 6 4 10q-4 8 -4 13h4l-4 6v18q0 20 -4 64h4l-4 6v31l-2 18h2l-2 6v58h-133q-8 0 -17 -4q-4 0 -4 4l-16 -4h-4q-4 0 -4 4l-8 -4h-19l-37 -5v5l-37 -9l-8 4q-74 -14 -96 -14q-20 6 -37 39q0 49 57 49q4 4 99 14l8 -2l86 7q2 0 2 -5l18 5h50 q8 0 14 4q6 -4 14 -4h17q8 0 12 4q8 -4 16 -4h15q8 0 8 8q-4 8 -4 10h4l-8 41l4 8l-4 6q0 4 4 4q-10 141 -10 197q-4 6 -5 10h5q-4 8 -9 37h4l-4 8v41l-4 19l-18 -4h-10q-4 0 -5 4l-8 -4h-121q-10 0 -16 -4q-6 4 -14 4l-6 -4q-8 4 -17 4q-6 -4 -10 -4v4l-8 -4h-96l-19 -5v5 q-6 -4 -10 -5l-8 5q-6 -4 -15 -5q-45 25 -45 50zM492 618q8 0 8 -10q0 -78 10 -241h63q8 0 15 4l8 -4l14 4q31 -4 52 -4q4 0 4 4l69 -9q6 4 17 5v-5q6 4 10 5q12 0 18 -5q20 4 33 5h14q4 0 4 -5l9 5h82v12q0 10 4 10l-4 19v26q0 35 4 96l-4 7q4 8 4 16v2q0 8 -4 16 q4 10 6 11l-2 18v4q0 4 2 4q-2 6 -2 10l2 9l-2 6q6 31 10 137q-37 -2 -55 -2h-29l-25 -4l-6 4l-141 -12q-6 4 -10 4l-23 -4l-4 8l-18 -8q-4 0 -4 4l-37 -4h-52q-8 0 -14 -4q-6 4 -14 4h-12v-4q0 -43 4 -129q-4 0 -4 -5z" />
<glyph unicode="$" d="M-14 297q12 41 32 51q0 8 15 10l8 -4q6 4 10 4q49 -45 49 -102q33 -96 148 -168q61 -20 100 -29q2 0 29 4l14 -4q6 4 17 4q-4 18 -5 23q0 68 -12 229h4l-4 7v67l-4 23l4 6q-4 8 -4 10q0 4 4 4q-6 49 -6 68h2l-2 8v106q0 4 -4 4l4 7q-4 8 -4 12q0 2 4 2l-4 20v7q0 14 4 32 q-63 78 -147 156q-47 53 -99 156h4q-14 35 -20 104h4q0 2 -4 2l4 21v4q0 8 -4 12q12 102 98 195q86 78 164 92l10 10q-2 63 -8 63q4 6 4 11q0 27 4 100q4 0 31 41q23 10 29 10h8q16 0 37 -53v-4l-4 -8l4 -8q-4 -6 -4 -15q4 -8 4 -10h-4l4 -8q0 -16 -4 -41q4 -33 4 -55h47 q4 0 4 -5l8 5l6 -5q4 0 4 5q96 -14 183 -84q80 -100 79 -232v-14l-6 -2l4 -8q-31 -18 -30 -27h-15q-45 4 -45 37q-8 0 -8 8v47q0 147 -184 191l-6 -5h-9q-4 0 -4 5l-6 -5q-8 4 -14 5l-4 -9v-8q0 -12 6 -51l-2 -14l6 -17q-6 -35 -6 -53l2 -8q-2 -18 -6 -19q0 -4 4 -4 q-16 -168 -23 -215q0 -4 2 -4l-2 -18v-33q0 -4 -4 -4l4 -6q0 -4 -4 -4q0 -4 4 -4l-4 -19v-55q0 -4 -4 -4q4 -6 4 -11q-4 -74 -4 -81q37 -23 178 -150l101 -139l39 -84q12 -47 12 -117q0 -2 -4 -2q4 -8 4 -12q-8 -27 -14 -27l2 -6q-12 -59 -113 -156q-139 -74 -182 -73v-45 q0 -4 -4 -5q4 -6 8 -32h-4l4 -6v-5q0 -4 -4 -4q8 -18 8 -78v-8q0 -2 -4 -2q10 -18 10 -30q-29 -18 -29 -25h-12q-4 0 -4 2l-6 -2h-4q-4 0 -4 2l-6 -2h-17q-14 0 -18 61l4 9q-4 6 -4 14v8q0 2 4 2q-2 8 -6 53h2l-6 33q0 4 4 4l-4 19l4 18h-82q-4 0 -4 4q-4 0 -4 -4 q-72 0 -166 68q0 2 -60 57q-68 74 -82 123q-12 31 -22 45l4 6q-6 0 -10 35zM217 1141q0 -139 121 -256q0 -6 47 -51v59q0 2 2 2q-2 8 -2 12l2 6q0 4 -2 5q6 37 6 118v4q0 2 4 2q0 4 -4 5l4 20q0 6 -4 12q4 41 8 41q0 4 -4 4q2 27 8 27q0 2 -4 2q4 51 9 61q0 2 -5 3l5 20v14 q0 8 -5 15l5 8l-5 6q0 4 5 4l-9 64q-133 -59 -151 -127q-8 -8 -31 -80zM473 610l4 -18v-37l4 -27h-4l4 -6q0 -14 -4 -14l4 -27v-82l4 -18h-4l4 -6v-21q0 -2 -4 -2l4 -8v-74q0 -18 2 -55h-2q2 -31 7 -31q0 -4 -5 -10q4 -51 5 -88q2 -8 8 -8q119 41 166 96q49 59 49 111 q0 98 -117 233q-2 27 -121 115h-4v-4l4 -15q0 -4 -4 -4z" />
<glyph unicode="%" horiz-adv-x="856" d="M-37 950q0 100 72 125q47 21 67 21q111 0 148 -115l4 -31q0 -90 -94 -147q-37 -10 -43 -10q-154 33 -154 157zM33 926q33 -53 80 -54q0 -4 4 -4q66 18 65 86q-18 68 -69 68l-19 2q-61 -12 -61 -63v-19l4 -16h-4zM121 59q10 33 18 33q0 4 -4 4q88 317 115 377q0 4 -4 4 q27 84 26 88q-4 0 -4 4q6 0 15 54q8 14 12 14l-4 6q10 49 18 49l-4 6q23 68 70 242q23 51 63 266q8 0 19 68l37 110q28 17 28 25h27q4 0 4 -2l6 2h4q35 -23 35 -55q0 -16 -55 -170q-23 -66 -45 -178l-256 -873q-14 -70 -23 -70l4 -20q-14 -43 -47 -43v4l-8 -4h-4 q-43 25 -43 59zM444 453q1 18 21 65q25 72 125 72q125 0 158 -152q0 -8 -11 -43q-57 -96 -147 -96l-31 6q-115 37 -115 148zM518 463l2 -21q0 -49 68 -67q68 0 86 65q0 2 -4 2q0 47 -54 80v-2l-16 2h-18q-52 0 -64 -59z" />
<glyph unicode="&#x26;" horiz-adv-x="806" d="M0 131v4q0 8 10 8q0 4 -10 11q0 4 2 4l-2 16v35q0 47 43 168q23 61 86 176q14 29 39 59q10 23 43 66v6q-92 258 -92 442q0 10 -4 11l4 16v10q0 96 31 152q0 37 63 88q45 20 74 20q66 -8 65 -14q8 4 13 4q66 -29 98 -88q51 -61 51 -178v-19q0 -125 -162 -407l-49 -68 q63 -231 133 -342q66 -98 78 -104q31 35 49 119h4l-4 6q2 45 21 45q2 6 8 6q51 -16 51 -35q10 -23 10 -26q-2 -27 -14 -39h4q-2 -14 -6 -15l2 -6q0 -16 -16 -33h8v-2q-16 -37 -29 -43q0 -14 -14 -34v-5l-6 5q0 -10 -9 -19q0 -10 80 -86l4 -18v-2q0 -4 -4 -5l4 -8 q0 -12 -39 -16l-6 4q-6 -4 -14 -4q-66 51 -84 74q-94 -88 -139 -88h-8q0 -23 -125 -39q-4 0 -29 4v-6h-6q-68 0 -133 49q-31 35 -58 90h-2v14q0 25 -12 25l8 10q-6 2 -10 2zM80 170q0 -139 151 -139q88 0 228 104v4q0 2 -74 99l-43 73q-66 129 -94 244q-61 -63 -115 -193 q-53 -112 -53 -192zM199 1094q8 -53 14 -66q0 -4 -2 -4q10 -117 27 -133q-4 -6 -5 -10q14 -37 33 -113h6q4 12 60 102q39 78 78 179q6 0 14 43l-4 6q6 16 10 16l-4 8v31q0 94 -76 166q-27 12 -49 12q-72 0 -94 -133q-6 0 -8 -76v-10l4 -18h-4z" />
<glyph unicode="'" horiz-adv-x="239" d="M10 1536v6q0 8 43 14v3q41 0 49 -21q0 -2 4 -2l-4 -14v-43q0 -2 -4 -2l4 -4v-17q0 -4 -4 -8q4 -4 4 -8q0 -2 -4 -6q0 -4 4 -4l-4 -11l4 -10q-4 -4 -4 -6l4 -10q0 -4 -4 -4l4 -25v-10q0 -20 -4 -56q4 -4 4 -10q-4 -4 -4 -6l4 -4q0 -2 -4 -2l8 -41q-12 -41 -36 -41 q-18 0 -41 25q-12 0 -13 4l4 6q0 2 -4 2q0 2 4 6q-6 53 -6 98l2 13q-2 4 -2 6t2 2l-2 10v47q0 2 2 2l-2 4v21l2 12q-2 4 -2 10v2q0 6 2 11l-2 4l2 4q0 2 -2 2l2 8q-2 20 -2 25h2q-6 8 -6 18z" />
<glyph unicode="(" horiz-adv-x="403" d="M0 702q4 0 4 5l-4 22l4 6q-4 0 -4 4v15q0 98 10 184q-4 0 -4 4l25 141q29 164 162 326q37 47 73 55q27 0 33 -37l-2 -8q2 0 2 -2v-4q-12 -37 -29 -55q-84 -117 -123 -215q-18 -74 -28 -105l4 -16q-8 0 -19 -80q2 0 2 -4q-2 -4 -2 -12v-35l-4 -6h4l-4 -27v-37q0 -8 -4 -14 q4 -6 4 -16v-66l-4 -8q4 0 4 -2v-35l-4 -6q4 0 4 -4v-15l-4 -18q6 0 8 -19v-12l-4 -8h4l-4 -14l4 -19q-4 0 -4 -4q2 0 11 -24h-7q12 -88 25 -134l-2 -8q14 -43 14 -96q55 -170 70 -170q31 -80 47 -86l-2 -16v-4q6 0 6 6l8 -2q0 -8 -12 -9q0 -4 4 -4q-4 -45 -14 -45h-4 q-6 0 -6 8q-4 0 -5 -4q-8 0 -16 4l-6 -4l-6 4l-21 -4q-6 16 -10 17q-16 0 -27 43q-55 113 -69 155q-41 123 -74 410q2 0 2 4q-2 6 -2 16v66z" />
<glyph unicode=")" horiz-adv-x="438" d="M0 1413v4q0 2 4 2l-4 8q6 37 33 37q37 -8 73 -55q133 -162 164 -326l23 -141q0 -4 -4 -4q10 -86 10 -184v-15q0 -4 -2 -4l2 -6l-2 -22q0 -4 2 -5l-2 -18v-66q0 -10 -4 -16q0 -4 4 -4q-35 -287 -76 -410q-12 -43 -69 -155q-10 -43 -25 -43q-4 0 -12 -17l-19 4l-8 -4l-6 4 q-6 -4 -14 -4q0 4 -5 4q0 -8 -8 -8h-4q-8 0 -14 45q4 0 4 4q-10 0 -10 9l6 2q2 -6 6 -6v4l-2 16q16 6 47 86q14 0 72 170q0 53 14 96l-4 8q14 45 27 134h-9q8 25 13 24q0 4 -4 4l4 19l-4 14h4l-4 8v12q0 18 8 19l-4 18v15q0 4 4 4l-4 6v35q0 2 4 2l-4 8v66q0 10 4 16 q-4 6 -4 14v37l-4 27h4l-4 6v35q0 8 -4 12q0 4 4 4q-12 80 -19 80l2 16q-10 31 -28 105q-37 98 -121 215q-18 18 -31 55z" />
<glyph unicode="*" horiz-adv-x="573" d="M0 1237q0 31 74 84l41 37q0 8 -72 55q-43 35 -43 45v27q25 47 43 47t86 -55q0 20 4 20l-4 8v19q0 4 4 4l-4 8q10 25 39 41q0 -4 2 -4q0 6 10 10h4q45 -31 45 -78h-4l4 -8v-43q2 -6 9 -6q88 84 110 84h4q20 -31 29 -31v-10q0 -4 -4 -4l4 -6q-10 -43 -119 -127v-4 q68 -68 123 -133q-18 -57 -31 -60q-6 -4 -10 -4q-49 0 -106 86h-9v-2q8 -55 9 -57l-17 -11l4 -8v-4q-20 -23 -47 -24q0 4 -31 14q-6 23 -24 41l6 10v49q-33 -25 -47 -49q4 0 4 -4l-8 -2h-37q-35 16 -35 29q4 8 4 12q-6 4 -10 4z" />
<glyph unicode="+" horiz-adv-x="700" d="M-14 694v4q0 18 53 64q10 -4 10 -8l6 4l17 -4q4 0 4 4l16 -4h49q4 0 4 -4q6 4 11 4q27 -4 30 -4q4 0 4 4l19 -4h20q0 37 -6 88h4q-4 4 -8 45h4l-4 8v24q0 4 4 5l-4 8v4q0 12 33 51v-8h4q0 22 18 22q33 0 41 -65h-4l4 -8v-4q0 -4 -4 -5l4 -6v-4q0 -8 -4 -14q4 -8 4 -12h-4 l4 -7v-18q0 -20 9 -45h-5q4 -8 7 -55h4l26 4v-4q6 4 11 4q4 0 4 -4q33 6 170 10v-2l53 10q25 -18 33 -37l-4 -8l4 -18q0 -12 -19 -33l-8 4q-2 0 -22 -4l-19 4l-6 -4q-4 0 -4 4l-19 -4h-26q-12 0 -33 -4q-6 4 -10 4l-25 -4v4q-12 -8 -39 -8h-26q-8 0 -15 -2q-8 2 -12 2 q-6 -2 -10 -2l14 -201q0 -6 -22 -35l-7 4h-4l-14 -10q-6 0 -55 33l4 8v14l-4 19h4l-4 8v86q0 53 -13 70l-43 4q-8 -4 -16 -4v4q-4 0 -4 -4l-16 4h-58q-4 0 -4 2q-16 -2 -16 -6q-59 6 -72 18q0 -4 -4 -4z" />
<glyph unicode="," horiz-adv-x="360" d="M0 4q0 4 4 4q0 4 -4 12q0 68 59 97l9 -4l24 8q78 -41 78 -117v-16q0 -4 -2 -4q0 -4 2 -4q-23 -106 -55 -127q0 -23 -33 -25q0 -8 -8 -8q-27 10 -27 14l4 8q-23 0 -24 33q-4 0 -4 4q10 31 28 60l4 18q-27 8 -51 47h-4z" />
<glyph unicode="-" horiz-adv-x="669" d="M0 674q0 16 41 41q0 10 6 10l8 -4q4 0 4 4q4 0 11 -4q94 8 168 8q2 0 20 -4q8 4 12 4t4 -4l19 4h78q4 0 4 -4l6 4h33l22 -4q6 4 19 4h4q8 0 14 -4l8 4l6 -4q4 0 5 4l16 -4q33 4 41 4v-4q13 6 29 6h10q14 0 26 -43h4q0 -41 -32 -49q-4 0 -4 -2l-27 2h-74q-4 0 -4 4l-8 -4 h-25q-8 0 -16 4q-4 -4 -14 -4q-4 0 -11 4q-4 0 -4 -4l-18 4l-19 -4q-8 4 -10 4l-14 -4q-8 0 -8 4l-45 -4h-15q-35 0 -96 4q-6 -4 -14 -4q-8 4 -13 4l-6 -4q-4 0 -4 4l-69 -6q-68 10 -68 37z" />
<glyph unicode="." horiz-adv-x="290" d="M6 59q8 78 74 78q0 4 14 4q43 0 64 -61v-31q-18 -35 -60 -59l-18 4h-27q-47 31 -47 65z" />
<glyph unicode="/" horiz-adv-x="559" d="M0 59q12 33 18 33q0 4 -4 4q90 317 115 377q0 4 -2 4q25 84 25 88q-4 0 -5 4q6 0 17 54q6 14 10 14l-4 6q12 49 18 49l-4 6q23 68 72 242q23 51 61 266q8 0 21 68l37 110q28 17 28 25h25q4 0 4 -2l8 2h4q33 -23 33 -55q0 -16 -55 -170q-23 -66 -45 -178l-254 -873 q-16 -70 -23 -70l4 -20q-16 -43 -49 -43v4l-8 -4h-4q-43 25 -43 59z" />
<glyph unicode="0" horiz-adv-x="862" d="M0 487l4 9q-4 6 -4 14v10q0 4 4 4l-4 8v37q0 4 4 4q0 4 -4 5l6 100l-2 6q2 6 2 10l-2 17q2 6 2 10t-2 4q4 41 10 41q0 2 -4 2q16 123 31 186q-4 0 -4 4l6 5l-2 6q14 41 18 78h4q0 4 -4 4l11 41q-2 0 -2 4q4 0 14 16l-4 8q14 20 33 74q63 133 159 188q10 0 60 25 q61 6 73 6q12 -10 82 -14l56 -31q0 4 4 4q92 -104 133 -211q16 -45 29 -59l49 -174l-4 -6l4 -9q0 -4 -4 -4l8 -45h-4l4 -6v-51q0 -4 -4 -4q0 -4 4 -4l-4 -15l4 -22q-6 -84 -12 -84l4 -8q0 -74 -9 -74q4 -8 5 -12q-14 -188 -37 -295q-23 -82 -56 -142q-57 -76 -123 -114 q-86 -63 -174 -64q-115 0 -231 90q-59 49 -59 111q-4 0 -27 63q0 2 2 3q0 14 -20 40v17q0 4 4 4q-20 78 -27 190zM96 477l4 -8v-25l4 -22q-4 -8 -4 -12q8 -66 19 -107q45 -156 61 -178q90 -70 178 -70q23 0 119 56q84 72 109 137q43 111 43 203l-4 8q8 8 14 78q-2 6 -2 10 q2 41 6 41l-4 8v2q0 20 12 35q-8 0 -8 6v4q0 4 4 4q-4 6 -4 10l12 78q-4 6 -4 17q0 4 4 36l-8 19l4 6q0 4 -4 4l4 19v26q0 2 4 2q-8 25 -18 99h2q-20 84 -41 129q-37 80 -74 133q-55 72 -92 82q-4 0 -4 -4q-43 10 -70 10h-10q-94 -55 -100 -84q-10 -4 -33 -45q2 0 2 -4 q-33 -43 -65 -158q0 -4 4 -4q-4 -45 -13 -45l4 -8q-10 -37 -14 -37l4 -6l-14 -64q0 -4 4 -4q-12 -74 -21 -96l5 -6v-9l-7 -12q6 0 7 -6q-6 -12 -7 -23v-28q0 -82 -8 -82l4 -8v-11q0 -4 -4 -4q0 -4 4 -4l-4 -24v-27l4 -37h-4z" />
<glyph unicode="1" horiz-adv-x="671" d="M-23 805l70 113q14 8 82 112q145 193 289 330q4 0 45 14q6 -2 6 -8l8 4q8 -2 35 -33l-4 -8v-2q16 -2 29 -53v-12q0 -4 -5 -5q6 -12 7 -20l-7 -20q8 0 9 -9q-8 -10 -11 -20l2 -45l-6 -6q4 -8 4 -13h-4q0 -4 4 -4l-6 -16q0 -12 2 -27q-6 -25 -6 -49l-2 -20q0 -4 -4 -4l2 -9 v-6q0 -12 -4 -10q0 -4 2 -12q-2 -94 -4 -138l2 -14h-4l4 -8q0 -10 -10 -29q4 -8 4 -10l-6 -12q4 -20 2 -23l-6 -33l4 -8l-4 -16q-2 -8 2 -17q-6 -18 -6 -20q-2 -80 2 -94q-6 -6 -7 -10l2 -23l-4 -6q4 -8 4 -12h-4l2 -9v-10q-6 -84 5 -196h-3l5 -78q-4 -8 -5 -13 q-2 -23 3 -88h-5l7 -26l-7 -6q0 -20 7 -21q-8 -66 -52 -61l-4 8q-18 -6 -26 -6q-20 2 -21 59q-8 0 -6 27h4q-6 0 0 215q-2 0 -6 78h4l-4 8q0 98 4 147l2 45l-2 19h4l-2 8q0 4 4 10q-2 31 -6 37l6 23v8q2 8 -2 14l4 6q-4 8 -2 17q0 4 4 2l-4 8q0 4 4 4l-2 18v4q0 4 4 3 q0 4 -4 4l17 122q0 33 6 185l4 8q0 2 -2 2l4 18q0 8 -2 17q4 6 4 12q-2 29 -2 31h4l-2 8v33q2 8 6 14q-4 8 -4 12q4 6 4 11q-111 -115 -270 -340q-63 -92 -64 -101q2 -8 2 -12q-8 2 -26 -27q-18 -10 -54 -14q-23 0 -40 51q4 6 4 15q0 8 -7 8z" />
<glyph unicode="2" horiz-adv-x="876" d="M10 74l58 133q53 141 147 280q35 66 96 144q279 406 279 444q10 43 8 105v6q-8 68 -57 133q-41 39 -95 39h-14q-4 0 -4 4l-6 -4h-4q-4 0 -4 4q-4 -4 -47 -10v4q-74 -12 -154 -70q-66 -49 -84 -112q0 -59 -37 -60v4l-6 -4h-14q-35 14 -35 39q2 47 12 61q-4 6 -4 11 q55 127 92 127q4 14 80 57q31 20 129 47q0 -4 4 -4q0 6 6 8h4q4 0 5 -4l8 4q12 0 33 -4q6 4 10 4v-4q4 0 4 4q92 2 133 -26q45 0 121 -144q2 -10 16 -65h-4q4 -8 8 -41h-4l4 -6v-37q2 -53 -28 -142q0 -6 -109 -176q-29 -59 -90 -139q-33 -51 -160 -221l-61 -96 q-41 -96 -64 -136q-51 -119 -49 -131h2q12 2 12 -2q4 0 5 4l18 -4h59q4 0 4 -2l7 2l59 2q4 0 4 -4l6 4h27q4 0 4 -4q6 4 10 4q8 2 8 -2l25 4l90 2q289 -2 289 -20q23 -14 22 -53q0 -12 -28 -41q0 4 -2 4q0 -8 -9 -8l-8 4q-6 -4 -14 -4q0 8 -6 8h-21q-12 -2 -32 2q-4 0 -5 -4 l-59 6l-6 -2q-35 2 -35 4q-4 0 -4 -2l-16 2h-50q-4 0 -4 4q-6 -4 -10 -4q-86 -4 -90 -4l-6 2q-6 -4 -14 -4h-9q-4 0 -4 4q-4 0 -4 -4l-24 4h-41q-8 -2 -15 -4q-8 2 -14 2h-49q-10 0 -10 -4l-21 4l-61 -2q-8 0 -15 -4q-57 0 -86 30z" />
<glyph unicode="3" d="M0 178q0 37 51 41q31 0 60 -69q51 -59 151 -89q80 -12 178 -12q70 0 185 45q88 55 104 121q25 31 47 154v4q-8 238 -147 299q0 12 -56 22q-37 14 -65 19q-35 -20 -100 -31q-4 0 -5 4l-59 -6q-55 4 -55 53q0 33 65 58l8 -5q143 27 179 52q121 117 121 159q31 51 30 84 q0 4 -4 4q4 41 8 50q-4 6 -4 14q0 4 4 4q-18 141 -63 160q-16 29 -193 47l-14 -4q-23 4 -23 8l-73 -8v4q-8 0 -64 -14v4q-61 -25 -166 -113q-14 -2 -26 -2q-39 0 -41 51q20 57 155 137q86 37 142 37h14q4 0 4 2q4 0 4 -2l25 2h18q4 0 4 -2q4 0 4 2q221 -16 263 -47 q119 -59 127 -274q0 -158 -95 -287l-59 -68v-4q109 -39 182 -155q49 -106 49 -181v-26q0 -8 2 -14q-2 -6 -2 -17l2 -6l-2 -6q2 -8 2 -17q0 -4 -2 -4q0 -4 2 -4q-18 -133 -36 -133v-4q0 -2 4 -2q-53 -133 -142 -178q-61 -47 -80 -47q0 4 -4 4q0 -14 -196 -41l-23 4 q-199 0 -225 37q4 0 4 2h-4l-6 -2l-90 51l-47 59q-27 43 -27 76z" />
<glyph unicode="4" horiz-adv-x="833" d="M0 535l4 8q-4 8 -4 12q33 47 78 143q20 41 63 107q12 35 101 156q106 143 161 225q70 124 158 233h8v-8l9 4h20q8 0 12 -22h4l9 4l2 -6q0 -66 12 -191q0 -4 -4 -4l4 -25v-202q0 -8 2 -17q-2 -6 -2 -14v-10q0 -12 2 -19l-2 -22v-8q0 -8 2 -15q-2 -6 -2 -14v-4l2 -27h-2 l2 -6q0 -4 -2 -4q6 -39 10 -82q-4 -6 -4 -14v-11q0 -10 4 -16q-4 -6 -4 -14q0 -6 8 -43l-4 -8l4 -9q0 -4 -4 -4l4 -16v-4l-4 -8q27 0 27 -5l8 5h29l18 4q0 -6 23 -19q10 -25 14 -63l-47 -33q-4 0 -4 2l-8 -2h-9q-2 0 -2 2l-8 -2h-18l-19 2v-16q0 -10 4 -17l-4 -8 q8 -66 8 -113q8 0 11 -45h-4q8 -14 8 -41v-100q0 -8 4 -14l-4 -6l4 -25h-4l10 -47v-6q0 -41 -45 -53q-51 0 -51 40q-6 47 -6 91v24q0 8 -4 15q4 8 4 16q0 4 -4 10l4 8l-4 6l4 9q-12 84 -17 137q4 0 4 4q-8 0 -8 6q0 59 -6 78q4 6 4 14l-4 19q4 0 4 4l-8 4h-23q-8 0 -14 -4 q-6 4 -14 4q-23 0 -27 -4q-139 14 -207 14v4q-4 0 -4 -4l-45 4h-16q-4 0 -4 4l-9 -4h-28q-90 0 -142 27q0 -4 -4 -4q-8 10 -8 14v12q-6 0 -6 7zM127 580h43q12 0 18 -5l19 5q84 -4 104 -5v-4q4 0 4 4l19 -4h28q4 0 5 -4l8 4h6q4 0 4 -4q4 0 4 4l19 -4h41q2 0 2 -2l8 2 q4 0 4 -2l24 2h64q8 0 8 8q0 2 -4 23q4 6 4 10l-4 8q0 4 4 5q-8 33 -8 88v41q0 8 -2 14q2 8 2 12l-2 25h2q-2 8 -2 12q0 23 -4 55l4 27l-4 16q4 8 4 13q-4 6 -4 14h4l-4 8v23l-4 20l4 8q-4 6 -4 15l8 4q-4 8 -4 10q0 18 4 49l-4 23l4 8q-4 6 -4 10h4l-4 6v4q0 4 4 4 q-8 18 -8 27h4l-4 6v13q0 4 4 4l-4 6l4 8l-4 6l4 17q-4 6 -4 10h-4q-61 -117 -207 -295l-152 -242q-45 -82 -51 -110z" />
<glyph unicode="5" horiz-adv-x="925" d="M0 195q4 0 18 18q23 6 23 14h6q4 0 4 -4l8 4q4 0 4 -4l7 4q35 0 59 -92q37 -68 76 -67q33 -16 135 -25q119 0 221 82q100 106 131 289l6 43v53q0 156 -69 260q-12 0 -15 25q-8 0 -32 32q-12 10 -74 37l-8 -4l-41 14l-8 -4l-11 9h-28q-31 0 -72 4q-133 -23 -221 -68 q0 4 -4 4q0 -8 -9 -8h-6q-45 29 -45 59q-4 0 -4 4l4 9q-4 6 -4 14h4l-4 8v37l4 6l-8 4q8 98 12 113q-4 6 -4 10q2 41 8 41q-4 6 -4 10q0 18 4 37q-4 27 -4 41q0 8 9 56l-5 8q4 20 7 20l-2 8q10 59 18 60q2 0 41 22q2 0 2 -4q12 8 23 8v-4q12 8 22 8h111l26 -4q0 6 64 15 q0 4 2 4h22q53 0 93 6l8 -2l59 6l23 -4l24 8q2 -8 8 -8h25q8 0 16 4l7 -4q27 4 40 4h9q23 -6 37 -33v-4h-5l5 -8q0 -6 -13 -6l8 -10q-25 -41 -77 -41q-4 0 -4 4l-15 -4q-8 0 -14 4q-20 -4 -35 -4h-2q-4 0 -4 4q-8 -4 -33 -8l-22 4l-9 -4l-6 4l-8 -4q-6 0 -6 4 q-80 -4 -186 -21l-15 4q-14 -4 -26 -4v4q-12 -6 -19 -6q0 2 -4 2l-2 -6q-8 4 -12 4q-2 0 -2 -4l-17 4q-33 -4 -41 -4q-6 4 -10 4q-4 -70 -4 -100v-4q0 -4 -2 -4l2 -7q0 -12 -2 -18l2 -18q-2 -53 -6 -54q0 -2 4 -2l-4 -45v-10q0 -4 -4 -4l4 -8v-4q0 -2 -4 -2q0 -4 4 -5 l-8 -45q4 -6 4 -14q182 37 198 37v-4l9 4q10 0 10 -4q2 0 14 4q82 0 232 -51q59 -49 75 -86q16 0 62 -88q0 -12 24 -72l19 -74l-4 -8q8 -57 8 -65h-4l4 -9v-10q0 -4 -4 -4l4 -6q-4 -63 -4 -96v-4q-6 -12 -31 -119q-8 -8 -43 -111q-39 -66 -104 -131q-49 -49 -207 -90 q-6 0 -60 -4l-36 4q0 -4 -5 -4l-2 6q-4 0 -4 -2q-84 10 -137 33h-4q-6 -4 -10 -4q0 4 -37 22q0 -4 -4 -4q-63 33 -88 107q-31 82 -31 86z" />
<glyph unicode="6" horiz-adv-x="862" d="M0 571q14 158 55 287q27 115 129 270q41 61 127 146q10 16 47 37q74 65 183 106q29 -14 32 -28v-29q-18 -35 -92 -72q-152 -92 -280 -293q-66 -133 -97 -280q-6 0 -8 -37q49 63 68 63l-4 7l8 4q0 -4 2 -4q41 49 72 49h14q0 8 37 18v-4q20 10 61 14q0 4 4 4h17 q25 -2 24 -8l9 4h4q6 0 6 -8q4 0 4 4l59 -10l6 4q147 -43 209 -141q0 -10 15 -29l-4 -8q6 0 26 -43l-4 -8q6 0 10 -31h-4q16 -59 17 -147h-4q4 -6 4 -11q-2 -55 -9 -55q0 -4 5 -4q-4 -39 -13 -49q0 -2 4 -2q-29 -152 -100 -232q-4 0 -43 -39q-61 -43 -129 -57h-4l-8 4 q-6 -4 -11 -4l-16 4q-6 -4 -10 -4v4q-4 0 -4 -4q-51 6 -52 12q-4 0 -4 -4q-125 39 -125 60q-104 68 -174 178q0 8 -22 78q-23 80 -37 288zM86 471q14 -164 51 -252q127 -174 238 -174h16q4 0 4 -4l8 4q14 -2 15 -6q92 0 170 98q59 106 67 166q-4 8 -4 16q8 0 8 7q0 4 -4 4 l11 73l-7 68h3q0 66 -56 162q-49 59 -94 74v4l-8 -4q-27 14 -105 26l-8 -4l-24 4q-98 -12 -138 -45q-102 -94 -110 -151q-15 -41 -33 -66z" />
<glyph unicode="7" horiz-adv-x="933" d="M-12 1329q4 6 4 10q-4 0 -4 4q35 41 65 52l39 -2q12 0 12 4l19 -4l115 -4q4 0 4 -5l8 5h4q2 0 2 -5l8 5l60 -3l18 3v-3l6 3q41 -2 41 -9l8 4l88 -4l19 4v-4q8 2 41 6v-4l8 4q2 0 2 -4l94 9v-2q23 6 29 6q4 0 4 -4l18 4l9 -2q8 0 14 -4q6 4 10 4v-4q8 4 12 4t5 -4l18 4 l25 -2l22 -5q6 4 19 5q25 -57 24 -62q-2 -18 -143 -317q-72 -199 -88 -228q-98 -254 -160 -450q-20 -78 -74 -205h-4l4 -6q-10 -20 -33 -115q-10 -33 -36 -33q-23 -2 -31 -2q-14 2 -25 27q-8 0 -8 6l4 27l-2 22q23 37 39 111q59 125 102 307q39 90 41 121q23 49 27 51l-2 8 q86 215 160 410l102 219v2l-18 2q-12 0 -19 -4l-22 4l-27 -2v4l-24 -8q-4 0 -5 4q-152 -8 -186 -8q-90 6 -139 6l-8 -2q-4 0 -4 4q-4 0 -11 -4l-252 23z" />
<glyph unicode="8" horiz-adv-x="757" d="M0 244l4 18v27q0 4 2 4q0 4 -2 4q18 119 74 211q27 72 127 190q43 55 53 56v12q-88 76 -129 156q-98 150 -102 206h-4q0 4 4 5l-4 18v6q0 100 96 201q126 78 243 78l19 -4h14q162 0 207 -148q12 -47 16 -86q0 -94 -100 -285q-53 -80 -115 -145v-6q117 -72 195 -205 q47 -76 72 -221q0 -27 4 -27q0 -145 -92 -246q-8 0 -31 -26q-37 -29 -133 -55q0 4 -4 4q0 -10 -70 -17q-4 0 -10 4q-20 -4 -35 -4h-25q-68 0 -151 54q-82 70 -90 100q-4 0 -29 102h2q-2 18 -6 19zM100 281q14 -102 43 -129q63 -78 179 -78l18 4v-4q10 2 45 8v-4 q88 18 133 69q20 18 47 89l8 71q-4 6 -4 10h4q-16 86 -51 156q-31 76 -137 174q-41 35 -55 51q-57 -59 -129 -151l4 -6q-104 -158 -105 -260zM115 1180q0 -61 73 -166q35 -72 105 -137l47 -37q61 66 115 174q20 51 30 51l-4 8v2q33 94 33 109q0 88 -59 129q-27 18 -138 18 q-133 0 -198 -137q0 -8 -4 -14z" />
<glyph unicode="9" horiz-adv-x="870" d="M0 1036q0 168 123 277q66 61 188 94q0 4 107 16q0 -4 4 -4q2 8 6 8h23q86 -4 86 -14l8 4q158 -57 157 -108q27 -29 27 -33t-4 -4l8 -47h-4l4 -8q0 -8 -4 -15q0 -4 4 -4q-8 -43 -8 -102v-21q0 -2 -2 -2q0 -4 2 -4l-2 -18v-9q0 -29 -16 -170q8 -76 8 -124v-13q0 -8 4 -14 l-4 -6l4 -21h-4l4 -6v-10q0 -4 -4 -4q0 -4 4 -4q-4 -51 -4 -74v-14q0 -10 4 -17q-4 -6 -4 -10q0 -12 4 -109l4 -6q-4 -8 -4 -14v-8q0 -8 4 -15q-4 -6 -4 -20q0 -2 4 -29h-4l4 -8v-80q0 -8 2 -14q-2 -8 -2 -12l2 -19l-2 -8l2 -20q0 -4 -2 -5l2 -8v-4q0 -2 -2 -2l2 -8v-27 l4 -37h-4l4 -6v-8q0 -2 -4 -2l4 -8v-64q-12 -29 -37 -37q0 -8 -8 -8h-14q-8 0 -8 8l-7 -4q-37 12 -37 37h-4l4 19v41q0 4 5 4l-5 8v61l-4 23q0 4 4 4l-4 18v11q0 4 4 4l-4 8v102q0 4 4 4q-4 4 -8 45h4l-4 9v2q0 4 4 4q0 4 -4 4q4 20 4 29l-4 16q0 2 4 2l-8 76h4l-4 6 q4 33 4 41l-4 27h4l-4 6q0 4 4 4q0 4 -4 4l4 37v92l-4 22l4 9q-4 6 -4 14h4q-4 8 -8 47h-4q-18 -39 -106 -96q0 -20 -175 -37v4q-2 0 -2 -4q-68 4 -67 12l-6 -4q-92 0 -191 139q0 12 -20 45q-20 66 -27 129h2zM100 1059l6 -37l-2 -8q0 -92 74 -189q74 -53 129 -53 q14 -4 27 -4q47 0 143 57q-4 0 -4 2q4 0 35 17v4h-8q0 -4 -4 -4v4q2 6 8 6l8 -2q68 61 94 190q8 29 17 105q0 4 -5 4q4 33 7 33l-2 8l2 18l-2 7q6 23 6 30q0 68 -101 76q-25 0 -24 8l-8 -4q-4 0 -4 4q-4 0 -5 -4l-20 4q-62 -4 -68 -8l-8 4q-88 -8 -166 -55 q-76 -45 -106 -133q-16 -80 -19 -80z" />
<glyph unicode=":" horiz-adv-x="276" d="M10 694v15q0 41 51 82q9 0 17 4l6 -4q6 4 14 4q59 -49 60 -86v-15q-18 -59 -47 -59q0 -8 -33 -8v4l-8 -4q-31 0 -60 67zM16 59q8 78 74 78q0 4 14 4q43 0 64 -61v-31q-18 -35 -59 -59l-19 4h-27q-47 31 -47 65z" />
<glyph unicode=";" horiz-adv-x="317" d="M0 4q0 4 4 4q0 4 -4 12q0 68 59 97l9 -4l24 8q78 -41 78 -117v-16q0 -4 -2 -4q0 -4 2 -4q-23 -106 -55 -127q0 -23 -33 -25q0 -8 -8 -8q-27 10 -27 14l4 8q-23 0 -24 33q-4 0 -4 4q10 31 28 60l4 18q-27 8 -51 47h-4zM31 676v33q0 59 96 73q51 -33 51 -59q6 0 6 -18v-9 q-25 -66 -57 -65q0 -8 -8 -8h-4q-61 0 -84 53z" />
<glyph unicode="&#x3c;" horiz-adv-x="608" d="M0 641v23q0 4 4 4l-4 6v4q0 31 51 59q4 0 137 121q8 0 123 76q4 0 4 -4l19 4h24q33 -18 33 -60q-23 -29 -147 -104q-37 -39 -111 -88v-4q76 -33 303 -119q23 -23 23 -29l-4 -8q4 -6 4 -14v-4q-33 -35 -41 -37q-23 0 -162 55q-217 78 -252 115q-4 0 -4 4z" />
<glyph unicode="=" horiz-adv-x="720" d="M0 582v4q0 8 10 8l-4 6q0 8 41 31q0 4 4 4l8 -4q0 8 9 8h14q4 0 4 -4q6 4 10 4l15 -4q4 0 4 4q4 0 12 -4q45 4 51 6l6 -2l9 2q6 -2 14 -2l8 2q6 -2 10 -2q8 2 13 2v-2l6 2h14q8 0 16 -2l7 2l8 -2l14 2l19 -2l8 2l8 -2l16 2v-2l8 2h15q4 0 4 -2l8 2q19 0 74 4q37 -2 37 -6 l8 2h29q4 0 4 -2l8 2h12q39 0 49 -41q-4 -10 -8 -10q8 -12 8 -19q-41 -25 -41 -30q-39 4 -61 12q-8 -4 -12 -4v4l-9 -4q-25 0 -24 6l-8 -2h-19q-57 0 -78 -8q-4 0 -4 4q-6 0 -6 -4q-37 4 -55 4h-37q-33 0 -209 -14q0 6 -37 20q-10 14 -10 27zM6 764q0 47 45 55q10 0 27 15 l8 -5q10 9 18 9l2 -9l9 5h12q2 0 2 -5l8 5q8 0 15 -5l8 5q8 0 47 -9l8 4q6 -4 10 -4t4 4l19 -4h14l23 4q6 -4 18 -4q8 4 12 4v-4q4 4 60 9l37 -5q6 4 14 5v-5l6 5h27q8 0 14 4q6 -4 14 -4h27l18 4v-4l9 4q14 -10 41 -15v-12q-10 -74 -37 -74l-8 4q-8 -4 -13 -4q-12 8 -20 8 h-23l-37 -4v4l-8 -4h-14q-4 0 -4 4l-6 -4h-95q-2 0 -2 4q-14 -8 -30 -8v4l-6 -4h-13q-10 0 -10 4l-18 -4h-31q-2 0 -2 4l-8 -4h-19q-8 0 -14 4q-8 -4 -12 -4q-10 0 -29 4l-72 -8q-41 25 -41 31h-4z" />
<glyph unicode="&#x3e;" horiz-adv-x="573" d="M0 846v8q0 2 4 2l-4 8q15 33 68 33q80 -25 294 -111l29 -10q0 2 4 2q0 -4 78 -37q0 -8 12 -16l-4 -8q8 0 11 -35q-186 -152 -359 -240q0 -6 -27 -18q-35 6 -55 31q0 4 -4 10l4 6l-4 8q0 33 80 68q117 68 190 125l23 22q-2 0 -2 4l-8 -4q-16 0 -189 82q-35 4 -35 10 q-2 0 -2 -4q-104 16 -104 64z" />
<glyph unicode="?" horiz-adv-x="841" d="M-59 1192v2l4 16q0 2 -4 2q0 96 106 174q127 74 295 74h41l23 4q63 -8 122 -20l9 2q68 -14 137 -96q66 -113 65 -213q-14 -113 -53 -172q-63 -111 -166 -177q-121 -106 -139 -186q-29 -29 -55 -211l4 -8q-8 -47 -8 -66q0 -8 8 -51q0 -23 -25 -41h-20q0 -20 -19 -26 l-30 18l4 8h-9v19l-10 14q0 8 8 8q0 4 -4 10q4 20 4 33q0 14 -4 21q4 33 6 32l-2 9v12q0 186 125 375q49 66 119 114q139 129 139 183q10 12 21 65q0 4 -4 4q2 27 8 27l-21 59l5 7q-23 72 -78 106q0 4 -23 16q0 -4 -4 -4q0 8 -98 23h-86q-215 0 -289 -111q-4 -18 -14 -30 q4 0 4 -5q-16 -29 -49 -47q-33 0 -33 33h-4v-6h-6zM229 23h2l-2 6v4q8 0 11 22q6 0 18 23l23 10q18 -2 18 -6l6 4q37 -35 37 -57l-2 -23q2 -6 2 -10q-27 -27 -61 -27h-5q-4 0 -4 4l-6 -4q-6 0 -26 17l4 6q-14 18 -15 31z" />
<glyph unicode="@" horiz-adv-x="901" d="M0 379v6q0 4 4 4q0 4 -4 4q2 47 6 47l-2 9v4q0 8 6 8q0 -4 4 -4q0 31 4 32q-8 4 -12 5v6h12v8h-8v41q2 6 8 6q0 -2 5 -2l-5 18v2h13v13l-8 -4h-5v4q37 195 119 284q16 12 41 48q113 73 203 73q6 -2 14 -2q4 0 4 2q119 -10 129 -28l9 4h4q102 -68 147 -156q53 -94 78 -248 h-4l4 -8v-57q-20 -172 -43 -172q-8 -33 -68 -88q-16 -8 -59 -9h-4q-45 0 -92 78q-47 -94 -109 -94q-80 0 -106 131q-8 76 -15 100l4 23l-4 45q12 117 41 160q39 51 74 51h4q111 0 160 -100q16 0 43 -123q0 -18 4 -33q-4 -6 -4 -10l4 -37h-4l-6 4v-8l2 -8q-6 0 -6 -11l4 -8 l-4 -6q16 -57 24 -57q41 0 68 108q2 47 8 47l-4 8v25q0 33 -49 223l-6 -4l-37 68q-74 106 -187 106q-8 0 -14 4q-6 -4 -14 -4h-9q-4 0 -4 4l-6 -4h-22q-57 -6 -123 -55q-96 -127 -115 -322q0 -4 4 -4l-10 -77l2 -9q-2 -31 -2 -47q0 -4 2 -10q-2 -8 -2 -16l2 -37h-2 q2 -6 2 -11l-2 -8q2 -6 2 -14q0 -4 -2 -4l2 -6v-49q0 -8 4 -15q0 -4 -4 -4q4 -33 16 -82q-4 -6 -4 -10q6 0 19 -74q41 -125 82 -184q66 -90 202 -90q6 4 11 4v-4q135 31 155 69q70 57 70 195q12 16 35 16q41 0 55 -32v-15q-6 -8 -18 -86q-6 0 -15 -41q-47 -86 -78 -114 q-47 -49 -155 -70q-49 -6 -49 -10l-6 4l-9 -4l-8 4l-16 -4q-145 0 -242 110q0 8 -18 33q0 8 -27 37q-8 35 -18 45l4 6q-6 0 -23 41l4 8q-33 96 -32 109h8v6q0 18 -13 18l9 13v6l-9 -4q-4 8 -4 10l4 27q-6 0 -12 12v10h8v35h-8l4 16v17l-6 10v27h6v20h-6v23h6v16 q-10 0 -10 37zM4 463v10h6v-10h-6zM14 535q4 -8 4 -13h5v13h-9zM18 86v10h9v-10h-9zM344 494q0 -145 45 -187q43 29 70 117q12 49 18 65l-4 9q4 10 8 10l-4 6q6 20 15 31q0 35 -60 90l-6 -4l-12 6h-15q-23 0 -47 -82q-4 -33 -8 -33q0 -4 4 -4z" />
<glyph unicode="A" horiz-adv-x="1046" d="M0 18v19q6 61 33 100l-2 6l28 64l-4 8q51 139 119 344q10 16 47 137q6 0 53 121q0 8 64 174q-4 0 -4 4q8 8 43 115q92 285 123 285q4 0 12 4q57 0 70 -101q61 -209 88 -372l110 -414l49 -127h-4q20 -51 29 -86l39 -82l-4 -6q12 -18 43 -123q4 0 12 -18q0 -2 -4 -2l4 -9 v-22l-4 -6q4 0 4 -4q-16 -23 -55 -27q-8 0 -8 6l-9 -2h-2q-37 23 -36 59q-4 0 -5 5q0 2 5 2q-12 23 -86 245q-55 145 -82 250h-41q-10 0 -11 -4l-18 4h-45q-8 0 -14 -4q-6 4 -15 4h-30q-12 0 -19 -4l-22 4h-39q-10 0 -17 -4q-14 4 -14 8l-6 -4q-4 0 -4 4l-9 -4q-4 0 -4 4 l-6 -4h-14q-4 0 -4 4l-8 -4q-49 8 -52 8q0 -10 -45 -124l-88 -271q-33 -90 -41 -96l4 -8q-12 -14 -12 -23q4 -6 4 -10q-10 -16 -49 -37h-10q-8 0 -14 2q-8 -2 -13 -2zM307 655h4q4 0 4 4l25 -4q16 0 22 4q25 -4 41 -4h105l16 4v-4l8 4h50q4 0 4 3q37 -2 37 -7q6 4 14 4 q-4 25 -23 97h4q-41 113 -63 239q-4 0 -4 4h4q-23 100 -47 179v6h-8q-35 -106 -74 -203l2 -8q-53 -133 -121 -318z" />
<glyph unicode="B" horiz-adv-x="911" d="M-10 113h4l-4 6q4 37 8 43q0 4 -4 4q4 53 6 59q-2 6 -2 17h2l-2 6q2 70 2 94q-2 6 -2 8q6 0 10 19l-4 8q4 6 4 14q0 2 -4 2q4 41 6 41l-2 6v19q0 29 2 67q0 4 -2 4l2 19q0 20 -2 90q2 6 2 8l-2 8q0 4 2 4l-6 50q4 25 6 32l-6 29l4 23v18l-4 20l4 7q0 4 -4 4l4 14l-4 18 l4 19l-4 31l4 8l-8 59l8 4l-4 19q0 57 6 86q-2 14 -2 24l2 27q-2 4 -2 8t2 4q-2 20 -2 29q0 10 2 27l-6 57q4 0 4 2q-8 0 -8 8v17l4 22q-4 6 -4 18v3q0 8 27 16q-1 25 151 45v-2q6 2 10 2q39 0 148 -14l6 4q115 -18 207 -86l55 -68q0 -27 14 -33l-4 -8q12 -10 17 -51h-4 l4 -8v-15q0 -8 -4 -14l4 -6q-8 -74 -82 -162q-4 0 -33 -33q-25 -18 -37 -28q90 -16 191 -121q72 -86 92 -205q0 -18 6 -29q0 -12 -2 -18l2 -33q0 -188 -72 -280q-61 -121 -200 -189q-10 0 -66 -16q-6 4 -10 4q-27 -8 -33 -8v4q-4 0 -4 -4q-47 4 -70 4h-4q-10 0 -16 -4l-23 4 l-57 -4q-2 0 -2 4l-27 -4h-141q-49 0 -49 80zM96 96q4 -6 4 -16q4 0 4 4q23 -8 41 -8l19 4l6 -4l8 4q14 -2 15 -8q6 4 34 8v-4l9 4q10 0 24 -4l62 8q23 -4 45 -4q123 18 159 67q92 86 92 115q51 68 52 125q-4 6 -4 10q4 0 10 19q0 4 -4 4l4 16q4 84 4 94q-8 0 -8 9l4 6 q-4 8 -4 10h4q-27 109 -88 176q-57 49 -121 64q-4 0 -4 -2q-45 10 -62 10l-18 -4v4q-2 0 -2 -4l-14 4q-52 -8 -70 -8v4q-31 -10 -123 -25h-10l-6 2q0 -8 -54 -16v-101l2 -36h-2l2 -7v-4q0 -12 -2 -16l7 -57l-7 -37q2 -6 2 -10h-2q2 -33 7 -33l-5 -19v-28q0 -2 -2 -2 q0 -4 2 -4l-2 -19v-33q0 -4 -4 -4l4 -6v-6q0 -14 -4 -33l4 -6q0 -8 -4 -8l4 -43v-29q0 -23 -4 -72q6 -2 6 -8q-6 -8 -6 -12q4 -8 4 -12q-8 0 -8 -6q4 -8 4 -13h-4zM96 928l4 -19v-49q90 20 113 21q4 0 4 -2q57 10 57 20h5l6 -4q86 31 172 96q45 47 69 94l19 58 q0 104 -146 153q-8 0 -32 11q-4 0 -5 -4q-23 4 -30 8l-8 -4q-23 10 -88 14q-9 0 -52 -6v4q-70 -23 -88 -23v-4q0 -8 4 -14q0 -2 -4 -2l8 -100q-4 -20 -4 -29q4 -6 4 -14h-4q0 -4 4 -5q-8 -119 -8 -161l4 -6q-4 -6 -4 -15q0 -8 4 -14q0 -4 -4 -4z" />
<glyph unicode="C" horiz-adv-x="1095" d="M0 608l4 8q-4 8 -4 13q0 25 6 24q0 4 -2 4l2 19v49q0 240 168 506q152 166 297 166q33 4 33 8l20 -4h45q106 -8 187 -31q16 -12 78 -39q27 -25 26 -26v-41q-12 -18 -31 -19v4l-8 -4h-4q-92 59 -252 60q0 4 -14 4q-16 -4 -27 -4v4q-55 0 -155 -41q-117 -88 -125 -129 q-96 -156 -97 -207q-27 -86 -34 -137q-4 0 -4 -4v-33q0 -4 -5 -4l5 -9q-8 -78 -9 -92q0 -8 4 -14q-4 -20 -4 -35v-2q0 -41 9 -72h-5q8 -57 17 -84h-4q25 -137 182 -292q141 -96 291 -97q166 0 297 170q8 0 24 17q12 -4 13 -8l6 4h16l6 -4q0 4 4 4l17 -19q-4 -8 -4 -14 q8 0 8 -12l-4 -9q4 -6 4 -10q-92 -111 -148 -137q-68 -39 -98 -39q-14 -12 -92 -20v4l-8 -4h-37q-113 12 -125 20l-8 -4q-158 47 -234 117q0 8 -45 41q-166 197 -166 333q-10 33 -16 121z" />
<glyph unicode="D" horiz-adv-x="1075" d="M0 508q0 14 6 29q-6 0 -6 10l4 35l-4 24l4 19q0 4 -4 4l4 16l-4 27q0 6 4 6l-4 43v166q0 12 4 31l-4 8l4 6l-4 22h4q0 2 -4 2l4 37v25q0 4 2 4q0 2 -2 2l6 113q-4 14 -4 24l4 15l-4 8q0 2 4 10q-4 31 -4 49v10q0 8 -6 9l4 18v6q0 16 -4 37q0 49 37 49q0 17 45 25l18 -4 q4 0 4 4l25 -4h45q14 0 35 4l6 -4q6 4 16 4v-4l7 4l16 -4l6 4l6 -4q4 0 4 4q61 -6 62 -11l6 5q4 0 4 -5q2 0 2 5q158 -18 272 -68q203 -125 261 -252q61 -139 61 -215q2 0 2 -6h-2q10 -57 10 -96v-58q0 -90 -8 -90q0 -4 4 -4l-4 -24q0 -8 4 -15q-39 -262 -82 -356 q-70 -113 -196 -164q-154 -76 -252 -76v4q-20 -4 -21 -8l-18 4q-49 -8 -64 -8h-10l-10 8q0 -8 -8 -8h-17q-8 0 -12 4q-6 0 -6 -4l-27 4h-35q-4 0 -4 4l-8 -4h-18q-6 0 -6 8l-9 -4h-8q-4 0 -4 4q-2 0 -2 -4q-59 4 -59 15l-9 -5q-27 0 -32 95q4 6 4 10l-4 6l4 8l-4 21h6v24 l-2 19h2q-2 14 -10 14l8 10v13q0 6 -8 6l4 8v10h-9v4h9q-4 68 -9 82h5q-4 39 -13 39l4 6v4h-4v-6q-6 0 -6 6q4 0 10 13v2h-8v8h8v35h-10v12l6 -4h4l-4 6h4q-6 25 -10 25l2 8v8q0 2 -6 39zM92 602l8 -2l-4 -6q0 -12 4 -12l-4 -19v-12l4 -37h-4q0 -4 4 -4l-4 -16q0 -8 8 -56 h-4l4 -6q4 -135 7 -158h-2q6 -18 6 -28h-4l4 -6q8 -113 8 -148l4 -14h-4l4 -6l-4 -9q0 -10 192 -20q82 6 91 6l8 -4q6 4 12 4q4 0 4 -4q51 0 232 82q102 68 126 156q23 100 29 100l-4 6l35 205l-4 6q0 16 8 96l-4 9l4 20q0 139 -76 317q-25 47 -74 95q-127 119 -219 129 q-45 18 -108 30q-4 0 -4 -4q-61 12 -138 13h-65q-4 0 -4 4l-8 -4h-27l-25 4l5 -27v-33q0 -8 2 -12q-2 -8 -2 -12l2 -6q0 -4 -2 -5l2 -14l-2 -35q0 -4 2 -4l-2 -18v-35q0 -4 -5 -4l5 -6v-51q0 -4 -5 -5q6 -20 7 -26q-6 -2 -7 -8v-9q0 -8 5 -14l-9 -31l4 -22q0 -4 -4 -10 q0 -4 4 -11q-8 -55 -8 -125l4 -8q-4 -6 -4 -14v-43q0 -8 -4 -14q4 -31 8 -31l-4 -19v-20q0 -8 4 -16z" />
<glyph unicode="E" horiz-adv-x="989" d="M-10 1040l4 23q0 8 -4 14q4 6 4 17v10q0 8 -4 14q4 6 4 15q0 16 -4 41l4 20q-4 6 -4 10h4q0 2 -4 2q4 45 8 45q0 4 -4 4l4 25v25q0 6 -8 6l4 18l-4 14q25 45 33 46l40 14q33 -14 33 -19l27 5q125 4 145 4v-4l6 4q4 0 5 -4l8 4l6 -4q8 4 12 4v-4q2 0 2 4q8 0 8 -4l23 4 q88 -4 139 -4h21l20 4q16 -8 41 -9h53l19 5v-5q6 4 10 5l8 -5q6 4 15 5l8 -5l6 5l8 -5l23 5q37 -12 36 -37q10 0 11 -9q-12 -8 -23 -38q-10 0 -10 -9h-27l-8 -4l-2 8l-8 -4h-37q-2 0 -2 4l-8 -4l-19 4l-8 -4l-6 4l-23 -4q-4 0 -4 4l-18 -8q-33 4 -109 8l-6 -4q-4 0 -4 4 l-18 -4q-4 0 -13 4q-2 0 -2 -4l-90 9q-45 -4 -88 -5q-4 0 -10 -4q-6 4 -16 4q-2 0 -2 -4l-21 4h-6q-8 0 -14 -4l-9 4q-8 0 -24 -8q-8 4 -17 4h-4q-6 0 -10 -36l4 -9q0 -4 -4 -4q0 -4 4 -4l-4 -16v-33l-4 -25q0 -2 4 -2l-4 -18v-12q0 -8 4 -15l-4 -8q4 -6 4 -14q0 -4 -4 -4 l4 -6v-37q0 -12 4 -21l-4 -12q4 -100 4 -160v-8q0 -8 2 -14q-2 -6 -2 -15q0 -23 6 -22l-4 -19v-53h82q8 0 17 -4q14 8 38 8h23q4 0 4 -4l8 4h37q2 0 2 -4q23 8 96 8h17q8 0 14 4l23 -8l20 4q4 0 4 -4l21 4h2q20 0 35 -4q49 4 59 8q4 -4 14 -4l19 4q27 -14 41 -41v-4 q0 -4 -17 -10l4 -8q0 -8 -24 -27q-4 0 -12 4q-37 -2 -37 -6l-19 2h-12q-14 0 -41 -2q-6 2 -10 2q-6 -2 -19 -2v2l-8 -2h-20q-4 0 -4 2q-6 -2 -45 -6l-7 4l-18 -4q-4 0 -12 4q-88 -10 -156 -10q-8 0 -14 -4l-6 4q-8 -4 -13 -4v4l-8 -4q-4 0 -4 4q-51 -8 -70 -8v-4 q6 -119 17 -119v-4h-8v-88l4 -27h-4l4 -6v-31l4 -18h-4l4 -6q0 -4 -4 -4l4 -19v-4q0 -4 -4 -4l4 -6q0 -4 -4 -4l4 -8v-15q0 -16 4 -41q-4 -8 -4 -10l4 -18l-4 -9q0 -4 4 -12q-4 -18 -4 -33v-10q0 -8 4 -14q-4 -8 -4 -17v-6q0 -8 6 -8l8 4l6 -4q8 4 13 4v-4l8 4q2 0 2 -4l8 4 q10 0 10 -4q41 8 86 8q47 0 78 -8q25 4 41 4h37q8 0 14 -4l6 4q8 0 41 -4l33 4l8 -4q4 0 4 4q37 -4 37 -6q20 6 64 6v-4l8 4h41q2 0 2 -4l8 4h23q4 0 4 -4l6 4q6 -4 10 -4t4 4l19 -4h8q12 0 33 4q14 0 36 -31q0 -25 -18 -32q0 -27 -29 -27l-8 4l-18 -6q-25 2 -41 2h-33 q-4 0 -4 4l-6 -4q-23 0 -54 4q-66 -4 -106 -4q-4 0 -10 -2q-37 2 -37 6l-27 -4h-127q-4 0 -4 4l-6 -4h-68q-18 0 -55 -2v2q-18 -6 -24 -6v4l-9 -4h-4q-8 0 -14 4q-6 -4 -37 -8v4l-6 -4q-27 4 -64 55l3 12q-2 6 -3 11h3q0 4 -3 4l3 24v164q0 8 4 14q-6 18 -7 33h3l-7 41 q4 6 4 19l-4 22l4 19q-4 20 -4 22q0 4 4 4l-8 43l4 17l-4 20h4l-4 8v4q0 66 -8 133h4l-4 9q0 4 4 4l-4 6v37q0 4 4 4l-4 6q0 4 4 4q-8 16 -8 23l4 8q-4 6 -4 14t4 8q-6 51 -6 70q2 6 2 10q-2 12 -6 12l4 25v57q0 8 -4 15q4 6 4 14t-4 14q0 4 4 5q-4 29 -8 36z" />
<glyph unicode="F" horiz-adv-x="925" d="M0 1368q14 55 23 55q4 0 4 -4l16 4h12q8 0 15 -4q8 4 16 4v-4l6 4q57 0 129 7v-3q20 6 94 11q2 0 2 -4l21 4q39 0 199 12h69q4 0 4 -4q4 0 4 4q31 -8 82 -8h29q72 0 72 -45l6 -11v-4q-6 -37 -37 -36q-193 8 -225 8q-4 0 -13 -4q-6 4 -14 4l-18 -4v4q-39 -12 -142 -13h-61 q-8 0 -14 -4q-4 0 -5 4q-8 0 -30 -8q-2 0 -2 4q-82 -6 -146 -6v-4q0 -8 4 -14q-4 -6 -4 -17q0 -4 4 -10q-4 -6 -4 -14q4 -27 4 -31h-4q4 -6 4 -10l-4 -8q8 -18 8 -27l-4 -6l4 -6q-4 -8 -4 -17q4 -6 4 -10h-4l4 -8v-33q0 -4 -4 -4l4 -6v-49q0 -10 2 -10l-2 -21v-84 q0 -8 2 -14q-2 -6 -2 -17v-6q0 -10 2 -10l-2 -21v-55l7 4h106q4 0 4 -4l8 4h4q4 0 5 -4l6 4q8 -4 12 -4q6 4 10 4v-4l8 4q4 0 5 -4l6 4l26 -4q4 0 4 4q31 -8 80 -8h4q4 0 4 -2l9 2q2 0 2 -2q4 0 4 2l26 -2h48q12 0 12 2l18 -2h43q20 0 53 2l7 -2l8 2q51 0 59 -61 q-23 -37 -59 -37q0 8 -8 8h-7q-12 0 -12 -4q-4 0 -10 4q-104 -4 -137 -8q-47 4 -56 8q-4 0 -4 -4q-41 6 -106 6v4q-4 0 -4 -4q-37 4 -56 4h-28l-25 -4q-6 4 -16 4h-4q-8 0 -17 -4q-6 4 -14 4l-14 -4q0 4 -4 4q0 -6 -7 -6q25 -240 25 -360q0 -4 4 -11q0 -4 -4 -4l4 -18v-41 l4 -23q-4 -8 -4 -10l4 -8l-4 -6q4 -23 4 -31h-4l4 -6v-121l4 -16h-4l4 -9v-4q0 -4 -4 -4l4 -6v-27q0 -29 -35 -36v-4h-2q0 8 -4 8q-8 -4 -12 -4q0 8 -6 8q0 -6 -12 -12q-29 0 -29 73v74q0 8 -4 16q4 6 4 15q0 4 -4 12l4 6l-4 19l4 8q-4 6 -4 14v6q0 4 4 4l-4 9v40 q0 23 -4 74h4l-4 6q-8 219 -15 219l5 9q-4 6 -5 10h5q-4 6 -5 10q0 39 -12 150h4l-4 8v61q0 8 4 15q0 4 -4 4l4 18v12l-4 19h4q0 4 -4 4l4 16v45q0 8 -4 17q4 10 8 10q-8 18 -8 29l4 26l-4 15l4 8q-4 6 -4 14h4l-4 8v93l-2 20l2 8q-2 43 -6 164z" />
<glyph unicode="G" horiz-adv-x="1064" d="M0 535h4l-4 8q0 4 4 4q0 8 -4 8l4 43v70q0 4 2 4l-2 8v2q0 41 2 82l-2 18q2 25 2 49v11q0 4 4 4l-4 8q4 33 8 33q0 4 -4 4q8 37 13 37l-5 8q0 14 9 29q-4 0 -4 4q6 0 20 80q33 100 80 159q43 90 135 138q82 55 113 55q0 18 180 41v-4l8 4q158 0 254 -60q0 -6 23 -32 q0 -31 -33 -50l-23 5q-6 -4 -10 -5q0 20 -104 50q-57 10 -78 10q-6 0 -6 -4l-23 4q-41 0 -119 -10v4q-154 -55 -192 -113q-119 -152 -121 -217q-12 0 -35 -182v-64q0 -2 -4 -2l4 -8q-4 -6 -4 -10q4 -8 4 -13q-6 0 -6 -6q2 -8 2 -12q-2 0 -2 -2q6 0 6 -12l-4 -8q0 -2 4 -3 q-4 -33 -6 -40q2 -20 2 -33v-35l-2 -23q2 -14 6 -14l-4 -18v-29q0 -14 12 -76l-4 -6q29 -127 82 -229q43 -72 101 -97q14 -10 73 -26q0 -6 37 -6h55q8 0 15 4q4 0 4 -4l51 10v-4q104 27 137 78q4 0 33 36q49 53 76 119l12 56l-2 8l14 73v29q0 4 4 4l-4 8v15q0 4 4 4l-8 37 q0 4 4 4l-4 37v28l-4 9q-39 -8 -47 -9l-22 4l-9 -4q-2 0 -2 4l-18 -4h-53q-8 0 -15 4q-6 -4 -14 -4h-23q-4 0 -4 4q-4 0 -4 -4l-16 4h-62q-2 0 -2 5l-8 -5l-22 5q-6 -4 -11 -5v5l-8 -5h-51q-33 14 -55 46l4 20v16q4 0 28 15q4 0 29 -4l8 4q8 -4 13 -4q0 8 6 8h18q8 -2 8 -8 q6 0 7 4l67 -8l4 8q10 -4 10 -8l9 4q4 0 4 -4q10 8 16 8q2 -8 8 -8q8 4 13 4h10v4h10q8 -2 8 -8l29 8q8 -4 12 -4q39 8 41 8q12 -8 23 -8h4l14 12h23q43 0 57 -8l8 4q41 -6 41 -15l-4 -8q10 0 19 -14h-5l13 -23q-8 -14 -8 -28q4 -8 4 -13h-4l4 -8v-4l-4 -16q8 -2 8 -8 q0 -4 -4 -5q0 -4 4 -4q0 -6 -4 -6q8 -74 8 -96l-12 -45l4 -6q-4 -20 -9 -21l5 -6q-8 -35 -11 -35q0 -2 4 -2q0 -98 -147 -270q-98 -88 -174 -88q-2 -10 -137 -16v4q-4 0 -4 -4q-33 4 -33 8l-8 -4q-131 27 -199 90q-55 57 -80 112q-4 0 -18 35q4 0 4 2q-6 2 -33 82q-4 0 -4 4 t4 4q-18 45 -35 158q-2 0 -2 4t2 4l-2 8l2 7l-2 16l2 6q-6 12 -6 19z" />
<glyph unicode="H" horiz-adv-x="1040" d="M0 1368q0 27 43 33h27q23 -12 22 -55v-33l4 -19q-4 0 -4 -4l8 -4l-4 -6q4 -125 8 -131q0 -2 -4 -2l11 -135q0 -2 -5 -2q6 -57 9 -68q-4 -6 -4 -14v-4l4 -19h-4q4 -23 8 -22l-4 -19v-10q0 -12 4 -18l-4 -21q4 -59 4 -90l8 2h88q8 0 14 -2q8 2 13 2q125 4 157 4q2 0 15 4 q8 -4 18 -4h12q12 0 33 4l8 -4l7 4q20 -4 32 -4t13 4l24 -4h64q4 0 4 -4l8 4h14q4 0 4 -4l7 4h12l22 -4l6 4l17 -4q18 4 29 4q0 4 -5 4l9 88q-4 6 -4 19l4 8q0 4 -4 4l4 18v33q0 33 4 101q4 0 4 4l-8 2q4 18 8 18l-4 8v4q0 10 4 11l-4 18v19q0 4 4 4l-4 8v65q0 68 -8 86 q4 20 4 33v31q0 6 -4 14q4 6 4 15v36q8 18 36 19h9q47 0 47 -82q0 -2 -4 -2l4 -21q0 -16 8 -161h-4l4 -9v-77q0 -94 -8 -170q0 -4 4 -11q-4 -20 -4 -32v-5q0 -12 4 -18q-4 -12 -8 -104h-4l4 -7v-16q0 -4 -4 -4q0 -2 4 -2l-4 -18v-50q0 -8 4 -14l-4 -6q-2 -123 -2 -191v-65 q0 -23 2 -60q-2 -6 -2 -26l2 -6l-2 -8q6 -102 20 -187q-25 -29 -43 -29h-14q-4 0 -4 5l-9 -5h-8q-4 0 -16 19v4l2 6q-6 0 -19 53q0 4 5 4q-8 55 -9 66h4q-8 18 -8 68v315q0 2 4 2q0 4 -4 4l4 37v33q0 8 -6 8q-10 0 -10 -4l-21 4h-65q-4 0 -4 2q-4 0 -4 -2l-43 2h-41l-23 4 q-4 0 -4 -4l-18 4l-27 -4v4l-6 -4h-12q-12 0 -33 4q-6 -4 -14 -4v4l-9 -4l-14 4q-6 -4 -10 -4v4q-41 -4 -41 -6q-8 2 -12 2q-45 -2 -48 -2v2l-8 -2h-106q-4 0 -4 2q-4 0 -4 -2l-19 2h-6l-8 -2l8 -72l-4 -6q4 -6 4 -10h-4q4 -8 4 -12q6 -252 14 -285q0 -4 -4 -4l4 -19v-96 q0 -8 2 -14q0 -4 -2 -4q2 -43 2 -64v-51q-8 -12 -28 -18q-6 4 -15 4q0 -8 -8 -8q-29 23 -45 57l4 6q-4 6 -4 14h4q0 4 -4 4l4 19l-4 6q4 8 4 16l-4 15q0 4 4 4l-4 18v56q0 8 -4 14q0 4 4 4l-4 18v56l-2 18h2l-2 8v27l-4 20q4 8 4 17q-4 18 -4 29h4l-4 8v6q0 18 -4 55h4 q-2 10 -6 45h2l-2 8v7q0 4 2 4l-2 8q-4 98 -4 155l-4 7q4 6 4 18l-4 23q4 14 4 28l-4 17h4l-4 6v41q0 8 4 14q-4 8 -4 12h4l-4 6v17l-5 45h5l-5 6v6q0 4 5 4l-5 9q0 57 -8 129h4l-8 36l4 9l-4 18q0 4 4 4q-4 41 -6 51q2 6 2 15l-2 26h2l-2 8v33q0 29 -4 78z" />
<glyph unicode="I" horiz-adv-x="262" d="M0 74l4 6l-4 108q0 4 2 5q-2 20 -2 46.5t2 61.5q2 -2 4 2q-8 0 -6 8l2 6q-2 8 -2 13l4 6q-4 6 -4 10l4 8q-4 6 -2 15h4l-4 6l4 69q0 14 -2 27q4 14 4 31l2 20q0 8 -2 15l4 8q0 4 -4 4l4 16l-2 19h4l-4 6q0 4 4 4l-4 6l2 23q0 4 4 4q-4 6 -4 10q0 135 2 162l-2 18l4 6 q-2 45 -6 51q2 4 4 3q0 51 2 73l4 101l-2 20q4 6 5 19l-3 18h5l-5 6q0 4 5 4l-2 8v11v13q0 36 -9 58q4 6 6 15l-4 14h4q-6 14 -6 41l2 10q0 6 4 12q-2 10 -4 56l4 6l-2 22l41 17l23 -2q16 0 29 -78l-2 -25l8 -10v-4q-2 -8 -6 -14l4 -8q0 -2 -4 -3l10 -155l-4 -6l2 -23v-6 q0 -4 -4 -4l4 -6l-2 -37q0 -4 -4 -4l2 -6v-11q0 -4 -4 -4l4 -8l-2 -35q-4 -59 -4 -131q0 -48 2 -102h-5l5 -6l-2 -8q0 -4 -3 -5l3 -8l-3 -30l3 -25h-3l3 -8q0 -4 -5 -4l5 -7q0 -4 -5 -4l5 -8l-13 -207l2 -43h-4l2 -8l-2 -47q0 -10 2 -31l-4 -8q4 -135 10 -213q-4 -6 -4 -8 l4 -8q-10 -25 -28 -35l-31 2q-2 0 -2 4l-8 -4q-14 0 -31 35v24q2 8 -2 15z" />
<glyph unicode="J" horiz-adv-x="1095" d="M-10 455v94q23 102 49 102l6 -4q8 4 12 4q29 -23 39 -63l-6 -2l4 -8v-13l-8 -10q4 -6 4 -10h-4q4 -8 4 -13l-4 -32q4 -8 4 -13h-4l8 -14l-4 -6q39 -215 60 -215h-5q41 -92 123 -123q35 -20 176 -37q4 0 5 4q8 0 16 -4q133 0 227 68q68 39 105 133l28 74q-2 6 -2 14 q14 23 23 78q-4 8 -4 10q0 31 6 31q0 4 -2 4q6 23 14 133q-4 18 -4 37q0 2 4 22q0 2 -4 2l4 21q0 2 -4 29q4 8 4 12h-4l4 6l-8 10q6 8 10 41q-2 20 -2 35v33q0 4 2 4q-2 6 -2 10t2 10q0 23 -10 23v8l8 -4v8q-4 10 -8 10l4 9v14q0 8 -4 14l4 8q-4 14 -10 25q2 8 2 12 q-6 0 -6 6t10 13q0 4 -4 4q0 4 4 10q-6 57 -6 129q-10 0 -21 150q-4 0 -6 32q21 29 60 29q18 -16 24 -33q10 0 17 -37q2 0 2 -4l-2 -37l2 -14l-2 -6q8 -27 20 -150l-2 -22q0 -18 6 -70h-4l8 -30q-4 -6 -4 -15q8 -29 8 -37v-61q0 -4 -4 -4l8 -27q-4 -41 -8 -41l4 -8 q0 -2 -4 -2q4 -41 8 -41l-4 -18v-68q0 -8 4 -14q-4 -6 -4 -15v-41q0 -74 -8 -73l4 -9l-4 -8q0 -6 4 -6q0 -8 -10 -86l2 -6q-23 -137 -78 -242q-94 -113 -180 -141q0 -14 -168 -43h-33q-4 0 -4 4q-2 0 -2 -4q-260 33 -260 55q-94 31 -158 150q-35 72 -63 227q4 6 4 17 q-8 0 -8 6z" />
<glyph unicode="K" horiz-adv-x="1075" d="M-31 1311q0 4 4 4l-4 24v15q4 0 21 22q4 0 12 13l8 -5l4 7q29 -2 64 -39v-4q0 -4 -4 -5q4 -12 8 -12l-4 -16l4 -17l-4 -8l10 -51q0 -2 -2 -2q0 -10 6 -49h-4q8 -23 8 -96v-64q0 -8 -4 -14q4 -6 4 -15v-81q0 -8 4 -15q-4 -8 -4 -14v-72q0 -4 -4 -4l4 -6v-72q0 -6 6 -6 q0 6 54 41q109 94 211 170q152 119 354 311q4 0 47 47q14 12 20 13q0 35 84 41q16 0 29 -45q0 -33 -57 -74q-279 -262 -324 -297q-37 -35 -117 -88l-206 -170v-4q88 -59 387 -299q8 0 184 -160q133 -86 182 -141l4 -19q0 -23 -36 -49h-27q-27 0 -96 64q-84 57 -217 182 l-220 176q-113 88 -159 131l-80 51q-8 -4 -13 -4q0 4 -4 4v-24l4 -21h-4q0 -4 4 -4l-4 -16v-4q0 -8 4 -17q-4 -6 -4 -12v-12q0 -12 4 -13l-4 -18q-2 -92 -2 -111l-4 -6q0 -4 4 -4l-4 -14q0 -8 4 -17q-4 -18 -4 -32v-11l4 -18h-4q0 -4 4 -4l-4 -27v-96q0 -8 4 -14 q-4 -6 -4 -15v-12l4 -18h-4l4 -7q-8 -53 -22 -53q0 4 -4 4q0 -10 -8 -10v2q-12 -6 -23 -6q-33 12 -47 33h-4v10q0 4 4 4l-4 8v88l-2 25q2 4 2 12l-2 8q2 6 2 17l-2 12h2q0 4 -2 4l2 21q8 217 8 270v2q0 4 2 4l-2 6v8l2 27l-6 2l4 8v4q0 98 -8 123q4 6 4 15v4q0 8 -4 14 q4 6 4 10q-4 8 -4 13h4l-4 8q4 6 4 10q-4 0 -4 2h4l-4 8v23q0 4 4 4l-4 6q0 4 4 4q-4 18 -6 19l2 26v56q0 4 4 4l-4 8v51l-2 23l2 6q-2 8 -2 12h2l-2 6v8q0 12 2 19l-2 22v2q0 20 2 35q-2 78 -19 176h4z" />
<glyph unicode="L" horiz-adv-x="940" d="M0 627q4 8 4 12q0 2 -4 2l4 18v86q0 8 -4 15q4 6 4 14v23q0 8 -4 14l4 8l-4 6q4 23 4 31q0 4 -4 4l4 19q2 190 2 194l4 8q-4 8 -4 13q0 2 4 2l-4 18v45q0 8 -2 15l6 32l-4 25q0 4 4 49l-4 8q0 96 35 96q18 1 18 9q35 0 60 -64q-8 -68 -8 -96l4 -6q-4 -8 -4 -13 q4 -59 4 -65l-4 -16q4 -10 8 -11l-4 -26v-33l4 -19l-8 -4q-4 -133 -5 -202v-86l5 -27h-5q0 -2 5 -2q-4 -37 -5 -55v-113l5 -16h-5l5 -9q4 -147 4 -170q0 -4 4 -12l-4 -20v-17q0 -82 8 -102l-4 -8l4 -6l-4 -9l10 -63l-2 -6q2 -8 2 -17h27q12 0 12 -4l16 4h90q4 0 5 -4l6 4h14 q4 0 4 -4q4 0 4 4q74 4 111 4h31q2 0 2 -4q4 0 4 4l127 -10l20 2q39 -2 60 -2q29 0 100 6v-4l8 4h14l23 -16q6 2 10 2q20 -27 27 -27q-8 -45 -19 -59l-8 4l-10 -6h-4q-4 0 -4 2q-41 -4 -107 -10l-22 4h-74q-4 0 -4 4l-6 -4h-8q-4 0 -5 4l-8 -4q-18 0 -65 6q-4 0 -4 -2l-19 2 h-45q-6 0 -14 4l-6 -4l-17 4q-6 -4 -10 -4t-4 4l-19 -4h-206q-29 0 -78 -2q-29 0 -45 51q-6 0 -19 27q0 53 -8 162h4q-4 8 -4 12q0 78 -2 350z" />
<glyph unicode="M" horiz-adv-x="1153" d="M-20 47v6q0 4 4 4l-4 9q4 20 4 28q0 4 -4 12q4 10 8 11q0 4 -4 4q4 39 8 49l-4 6q12 14 12 92v4q0 8 2 15q-2 8 -2 14v27q0 4 2 4l-2 8q16 84 29 207v8l-4 16h4q0 4 -4 4q8 29 8 70v27q0 8 4 14q-4 8 -4 12q0 10 6 29q0 4 -2 4l2 19v114q0 25 4 47q-4 14 -4 41v13 q0 8 4 14q0 4 -4 4l4 27v6l-4 22q4 14 8 15q-4 33 -8 32q4 18 10 132l-2 18q0 2 2 2l-2 27v41l2 22q0 4 -2 4l2 19v18q10 0 49 23h4q45 -37 48 -37q14 -39 108 -160q6 -2 55 -82q49 -59 217 -244q143 162 261 344q0 6 32 52q27 59 88 104q14 10 27 10q51 -23 51 -96 q4 0 12 -55h-4q6 -12 13 -105h-4l6 -32l-2 -7q2 -8 2 -12h-2l2 -6v-35q0 -8 4 -14q-4 -6 -4 -15q0 -8 4 -8l-4 -18v-23l4 -16h-4l4 -8q0 -4 -4 -4l4 -9v-10q0 -23 10 -155h-2l6 -29q-4 -35 -6 -35q0 -4 2 -4q0 -2 -2 -10l6 -51h-4l4 -9v-24q0 -10 4 -17q0 -4 -4 -4l4 -16 q0 -82 27 -381q-4 0 -4 -4q12 0 26 -141q-33 -41 -45 -41l-18 -4q-45 25 -45 57l-39 418q0 2 2 2l-2 18l2 27q-2 8 -2 10q0 4 2 4l-2 19v4q0 20 -8 106q0 4 4 12q-4 6 -4 11h4l-4 8v18q0 4 4 4q-4 4 -8 60h4q-4 8 -8 41h4l-4 6v14q0 4 4 4q-8 12 -9 19q-4 131 -4 178 q-2 6 -2 10h2l-2 8q0 4 2 4l-2 7q-4 98 -8 98l4 6q-8 16 -8 33h-6q0 -10 -64 -107l-86 -118q-57 -57 -96 -119q-8 0 -24 -33q-59 -68 -97 -68q-27 0 -133 142q-76 80 -155 174q-70 106 -89 127l-4 -37v-41q0 -16 4 -16l-4 -25v-168q0 -8 -4 -14q4 -6 4 -15h-4l4 -8l-4 -45 q0 -2 4 -2l-4 -14q-4 -84 -4 -127l-4 -15q0 -4 4 -4q-8 -66 -8 -118h-2l2 -7v-18q0 -4 -2 -4q0 -4 2 -4q-2 -68 -16 -166l2 -8l-2 -33q0 -12 2 -27q-2 -33 -2 -55v-27q0 -2 -5 -2l5 -8q-4 -14 -9 -14q0 -4 4 -4q-4 -55 -12 -64q8 0 8 -10l-4 -8l4 -6q-16 -57 -18 -58 q-31 -6 -37 -6h-35q-16 12 -32 41z" />
<glyph unicode="N" horiz-adv-x="933" d="M-20 47q12 113 32 215v86q0 8 4 14q-4 6 -4 15v4q8 8 13 47q0 4 -5 4l5 19v4q0 8 -5 14l13 23q4 141 10 163q-4 20 -4 29h4l-4 8v4q0 2 4 2l-4 9v4q0 4 4 4l-4 8v2q2 8 8 8q0 2 -4 2q6 109 6 201v74q0 8 4 14l-4 8q4 6 4 15l-4 8q12 37 12 119q0 4 5 4q0 2 -5 2 q8 41 9 86v51q0 4 4 4l-4 6v16q0 16 32 41h9q2 0 2 -4l8 4q100 -20 100 -49q6 0 92 -98q70 -96 166 -215q70 -111 189 -242v4q0 4 -2 4l2 19l-2 14h2l-2 8q-12 236 -13 351l4 18q-4 6 -4 19v45q0 8 -4 16l4 6q0 2 -4 23q0 4 4 10q-4 20 -4 35v6q22 59 49 59q59 -10 60 -51 l-4 -8q2 -23 8 -23l-4 -18v-23l4 -37h-4l4 -6l-4 -18q0 -4 4 -4l-4 -27v-24q0 -10 4 -17q-4 -6 -4 -14t4 -14l-4 -9q0 -4 4 -4l-4 -24q10 -174 10 -197q4 -6 4 -10h-4l4 -8q0 -4 -4 -4l4 -19v-55l4 -37h-4q10 -35 23 -170q0 -4 -4 -4l4 -19v-41l4 -36h-4l4 -9q0 -2 -4 -2 l4 -8q0 -4 -4 -4l14 -135l-4 -8l8 -88h-4q0 -4 4 -4l-4 -21q4 -6 4 -10h-4q4 -6 4 -10q2 -61 2 -68h-2q2 -6 6 -33h-4q8 -14 8 -22h-4l4 -6l-8 -13l4 -8q-8 -47 -20 -47h-82q-8 2 -15 18q6 27 7 52v8q0 111 -11 143l7 4q0 4 -3 4l3 19l-3 14h3q-2 10 -7 45l4 8q-8 29 -8 62 h4l-12 63l4 19q0 147 -24 147q-78 119 -78 123q-59 51 -109 129l-233 299q-72 100 -80 100q-8 -131 -19 -194q0 -4 3 -4l-3 -37v-45q0 -4 -4 -4l4 -6v-64q0 -8 3 -14q-10 -84 -11 -160q0 -4 -4 -10q4 -8 4 -17v-20q0 -4 -4 -4l4 -8v-11q0 -119 -14 -178q0 -4 2 -4l-2 -18 l2 -8q-2 -8 -14 -80l8 -4l-4 -19v-51l-4 -45q4 0 4 -4q-6 0 -27 -133q4 -14 4 -27l-4 -6l4 -8l-4 -6q4 -8 4 -13q-29 -45 -57 -45v4l-8 -4h-9q-35 20 -40 37z" />
<glyph unicode="O" horiz-adv-x="1110" d="M0 670l4 22q0 106 6 180q0 4 -4 5l4 18v27q0 4 4 4q0 2 -4 2q25 164 68 246l-4 6q35 109 104 163q51 63 92 66q2 0 23 8v-4q25 14 96 14q6 -4 10 -4q0 6 15 17q4 0 4 -4q14 2 14 8q4 0 12 -4q61 4 97 4h20q59 0 98 -31v4q55 -10 111 -51q66 -33 137 -178q29 -70 29 -76 q-4 -6 -4 -10q6 0 18 -60h-4q12 -35 17 -73h-5l5 -6v-9q0 -4 -5 -4l5 -8v-6q0 -4 -5 -4q4 -4 9 -41h-4l4 -6v-4l-4 -9q6 0 6 -8v-10h-6l4 -18q0 -4 -4 -5l4 -6v-12q0 -2 -4 -2l4 -8v-4q0 -4 -4 -4l4 -7v-4q0 -12 -4 -12l4 -18v-56h-9q0 -12 5 -18q-20 -137 -33 -197 q0 -2 2 -2q-6 -41 -10 -41q0 -4 4 -4q-37 -150 -64 -207q-47 -84 -69 -106q-109 -109 -211 -137q-29 -12 -78 -17q-16 4 -17 8q-2 0 -2 -4q-215 33 -215 56q-158 115 -202 270q-53 201 -64 297h2l-2 6v49q0 12 -4 19zM96 598q41 -233 84 -350q31 -59 90 -115q62 -67 146 -67 h2q0 -4 69 -11q80 0 205 107q68 76 84 137l8 4q-4 6 -4 10q14 45 19 49l-2 9q12 0 28 133q14 0 29 235l4 52q0 4 -4 12q4 25 4 41v41q0 4 4 4l-8 29l4 8q-4 33 -6 39l2 8l-2 22q2 0 2 4q-6 0 -6 7v16l4 6q-6 0 -31 105q-2 0 -59 102q-10 2 -19 22q-47 49 -170 78q-8 0 -8 8 l-6 -4q-23 2 -22 7q-4 0 -5 -3l-45 3h-24q-19 -11 -31 -11l-6 4q-164 -43 -164 -55q-12 0 -69 -72q-51 -125 -87 -276l5 -8q-2 -27 -7 -27q0 -2 2 -2q-2 -41 -6 -41q0 -4 4 -4l-4 -18v-60q0 -8 -4 -14q4 -6 4 -10l-4 -27q0 -4 4 -4l-4 -19v-84l4 -20h-4z" />
<glyph unicode="P" horiz-adv-x="925" d="M0 913q4 33 6 33q-2 6 -2 10l2 19q-2 12 -2 29h2l-2 6v80l-4 20q4 6 4 10l-4 23h4q0 4 -4 4q0 4 4 10l-4 33l4 12l-4 8q4 6 4 15q0 4 -4 12l4 20q0 8 -4 15q4 6 4 14t-4 14q0 4 4 5l-4 18v31q0 18 18 22q0 31 60 35q0 10 80 14q4 0 4 -4l39 9q6 -4 10 -5l22 5v-5l7 5h18 q51 0 90 -9l6 4l56 -10l6 2q162 -25 223 -82q78 -51 121 -139q8 0 24 -96h-4l4 -6v-47q0 -131 -139 -267q-66 -55 -147 -82q-84 -39 -265 -39l-8 5q-6 -4 -10 -5v5q-4 0 -4 -5l-96 11q0 -4 -4 -4l4 -7v-14q0 -10 -4 -10l4 -19v-38q0 -4 -4 -5l4 -8q0 -14 4 -159q0 -18 8 -19 l-4 -18q2 -168 10 -168q0 -4 -4 -11q4 -25 4 -40q0 -2 -4 -3l4 -8v-24q0 -25 6 -25l-2 -18v-31q-12 -25 -71 -41q-33 12 -33 45q-4 0 -4 4t4 4l-4 8v15q0 2 4 2l-4 8v80q0 6 -4 12q0 4 4 4l-4 19v4q0 4 4 4l-4 6q-6 131 -7 182v39l-4 23q0 4 4 4l-4 24v39l-4 19h4q0 4 -4 4 l4 16q0 8 -4 15l4 22q0 2 -4 2l4 19v8q0 10 -4 10l4 18v31q0 8 -4 17q4 6 4 14v2q0 8 -4 14l4 8q-4 6 -4 15q0 4 4 4l-4 6v29q0 55 -6 86l2 8q-2 4 -2 12q2 0 2 4zM100 1085l4 -6v-30q0 -6 2 -15q-2 -6 -2 -10q0 -10 2 -16q-2 -27 -2 -41v-11q0 -8 2 -14l-2 -6l2 -14 q0 -4 -2 -4q6 -37 7 -115v-39q0 -10 122 -19q236 16 236 35q129 49 129 90q41 37 84 154v29q0 8 2 14q-2 8 -2 12h2q-12 88 -53 140q-6 0 -29 24q-51 55 -196 82q-74 4 -119 14l-66 -8v4l-6 -4l-6 4q-8 -4 -14 -4v4l-9 -4h-53l-18 -2v2q-14 -2 -15 -20q0 -6 4 -6l-4 -19v-33 q0 -8 4 -14q-4 -6 -4 -14t4 -15q0 -8 -4 -8q4 -35 4 -51v-43q0 -4 -4 -4l4 -8v-6q0 -4 -4 -5z" />
<glyph unicode="Q" horiz-adv-x="1173" d="M0 760q6 25 14 78h-4q8 47 13 47l-5 8q8 14 45 143l-4 8q72 223 115 244q63 92 148 123q0 8 67 27q2 0 2 -4l8 4h27q8 0 14 2q6 -2 11 -2q0 10 57 16h4l20 -4l9 4q6 -4 10 -4l4 8l100 -20q18 -2 93 -62q100 -82 145 -162q51 -86 84 -202q45 -174 45 -283v-41q0 -6 2 -14 q0 -2 -2 -2l2 -21v-41q0 -184 -20 -184l2 -18q-4 0 -15 -37l4 -6q-72 -201 -137 -256l-14 -17v-6q104 -147 123 -164q0 -6 28 -47q4 -6 4 -10h-4q10 -25 11 -35l-23 -29q-12 -12 -20 -12v4q-8 -4 -13 -4q-47 25 -96 105l-84 124q-6 4 -14 5q-4 -10 -133 -56l-9 4 q-14 -8 -41 -8h-49q-84 0 -98 12l-8 -4q-137 53 -211 121q-6 0 -78 94q-61 102 -78 189q-14 59 -37 184q-2 0 -8 14q0 4 4 5l-6 67h2l-2 6q-4 78 -4 109zM88 696q6 -18 12 -125q14 -59 33 -174q8 0 23 -86q82 -176 182 -221q98 -37 162 -37q8 2 12 2l12 -2q174 33 174 60 q8 0 9 4q-49 96 -138 190q-41 55 -41 64v4q25 45 58 45h12q25 -18 72 -86q80 -78 110 -148q47 45 86 148q47 121 47 192q0 4 -4 4l4 19v33q0 4 5 4l-5 8q4 14 9 14l-4 6v23q0 4 4 4q-8 20 -9 41h5l-5 6v72l-4 24h4q-20 176 -55 275q-74 160 -139 215q-91 65 -136 65h-1 q0 4 -13 4h-92q-160 -27 -207 -83q-80 -94 -106 -205l-60 -217l2 -9q-10 -51 -18 -114l4 -6q-4 -8 -4 -13z" />
<glyph unicode="R" horiz-adv-x="827" d="M0 1257l4 15q0 4 -4 4l4 18v4q0 10 -4 11q0 98 37 98q10 12 129 18l6 -2q4 0 4 2q195 -18 320 -61q92 -41 135 -162l20 -88q-2 -6 -2 -14l2 -6q-41 -188 -123 -265q-98 -92 -249 -129l-9 5q-39 -12 -55 -13v4q-4 -4 -16 -4l127 -123q172 -211 229 -305q145 -186 145 -209 v-16q-10 -31 -34 -39h-11q-4 0 -4 4q-12 -6 -20 -6q-12 2 -133 174q-164 233 -252 328q-86 88 -144 135v4h-8v-125l4 -18h-4l4 -9q0 -2 -4 -2l4 -8v-37q0 -4 -4 -4l4 -6v-27l-4 -43h4q-4 -25 -6 -24q0 -4 2 -4l-2 -27v-4q0 -10 2 -10l-2 -19v-79q0 -10 2 -17l-2 -6 q2 -63 10 -64q0 -4 -4 -10l4 -37q-12 -69 -50 -69h-1q-14 4 -20 18q-16 0 -17 8l4 7q-8 0 -8 8q4 8 4 10q-8 0 -8 6v27q0 12 -2 12l2 18v54l-2 18h2l-2 8v58q0 4 2 4q-2 8 -2 10q0 4 2 4l-2 19v40q0 4 2 5q0 4 -2 4q2 43 6 43q0 4 -4 4l4 18q0 4 -4 4l4 19v88q0 12 -4 33 q4 4 4 18l-4 6l4 8q0 2 -4 2l4 27v8q0 8 -4 15q4 8 4 12l-4 16l4 19q0 4 -4 4l4 24v111q0 14 -4 31q4 12 4 26v58l-4 24h4l-4 6q-6 219 -6 305zM80 1198l4 -6v-78l4 -20q0 -4 -4 -4l8 -56l-4 -8q4 -61 6 -70q0 -4 -2 -4l2 -34v-138q4 0 12 -2q154 0 256 56q111 45 162 159 q0 4 -4 4q23 37 33 88q0 104 -70 164q-129 59 -217 60q-57 14 -108 14l-8 -2q-6 2 -15 2h-14l-27 -2q0 2 -2 2q-8 -18 -8 -78v-8q0 -4 -4 -4l4 -8v-6q0 -4 -4 -5l4 -8v-4q0 -4 -4 -4z" />
<glyph unicode="S" horiz-adv-x="897" d="M0 360q25 29 41 29q59 -10 59 -57h-2q61 -182 152 -226q35 -16 180 -36q109 0 178 57q82 63 82 162q0 158 -90 260q-14 33 -104 90q-12 12 -134 84q-154 125 -192 209q-51 59 -76 180q4 0 4 4q-8 0 -8 6v29q0 8 -4 16q0 10 12 11l-8 10q0 94 94 168q14 31 174 100 q86 14 109 14v-4l6 4q113 -10 150 -32q102 -59 151 -166q4 -35 10 -66q-4 -6 -4 -14q4 0 4 -4q-23 -33 -43 -33q-47 0 -47 51q-23 74 -61 90q-35 47 -105 70q-12 0 -69 2q-109 0 -242 -119q-29 -49 -37 -100q8 -43 15 -66h-2q23 -70 106 -178q66 -70 141 -114q37 -25 95 -60 l112 -90q80 -88 117 -180q25 -102 24 -148v-22q0 -8 5 -15q-23 -121 -68 -165q-86 -96 -211 -123q-8 0 -47 -8v4l-8 -4h-25q-121 10 -141 22l-6 -4q-33 8 -92 33q0 -4 -2 -4q-61 39 -64 47q-78 78 -88 139q-6 0 -37 92v19z" />
<glyph unicode="T" horiz-adv-x="1060" d="M0 1389q20 22 49 24q8 0 14 -4q4 0 5 4l18 -4h31q10 0 16 4l6 -4q4 0 13 4l22 -4l19 4v-4q4 0 4 4q6 0 92 -10q6 4 10 4l18 -4q8 4 13 4v-4l8 4q66 2 84 2q82 -6 108 -6v-4q4 0 5 4l26 -4h14q4 0 31 8h72l22 2l39 -6l6 4q20 -4 23 -4l74 6q49 0 53 -43q2 0 2 -2v-4 q0 -8 -10 -8l4 -6l-8 -17q4 0 4 -4q-18 -2 -31 -12q-4 0 -4 4l-6 -4h-29q-14 0 -51 -23q-8 -4 -12 -4q-96 8 -136 8v2l-8 -2l-8 2q-4 0 -4 -2q-35 4 -45 6q-4 0 -4 -4l-19 4h-18q0 -4 -4 -10q18 -55 18 -73q-8 -23 -8 -29q8 -8 12 -70h-4q8 -12 9 -39q0 -4 -5 -4l5 -8 q0 -2 -5 -2l5 -8q0 -8 -5 -15q4 -25 5 -38q0 -14 -5 -21q8 -68 9 -147l-4 -15q0 -4 4 -4q-12 -49 -13 -178v-51q0 -8 4 -15q-4 -6 -4 -14v-37q0 -4 -4 -4l4 -6v-12l-4 -21q4 -8 4 -10l-4 -20q4 -6 4 -11h-4l4 -8q0 -6 -4 -12q4 -37 4 -60v-47q0 -4 -4 -4l4 -8q-4 -6 -4 -10 l4 -6q-4 -8 -4 -13l4 -16h-4l4 -8v-8q0 -2 -4 -2l4 -9v-37l4 -43h-4l4 -8q0 -53 9 -94q-4 -6 -4 -14h4q0 -31 -66 -47q0 8 -6 8q0 -12 -8 -12h-4q-10 0 -23 83h4l-4 9v100l-4 18h4l-4 9v24q0 8 -4 15l4 8q-4 25 -4 41v10q0 2 4 2q0 4 -4 4l4 37v14q0 25 -4 47q4 16 4 27 l-4 6l4 8q-4 6 -4 15q0 4 4 4l-4 8v39q0 35 4 61q-4 18 -4 52h4l-4 8v6q0 4 4 4l-4 6v84q0 4 4 4l-4 8v2q0 4 4 5q0 4 -4 4q2 20 8 20l-4 8q0 2 4 23q0 4 -4 4q8 37 8 80q-4 0 -4 4h4q-10 53 -22 352q-14 66 -21 66h-28q-10 0 -17 -4q-4 0 -4 4l-22 -4q-8 0 -154 8h-12 q-4 0 -4 4l-9 -4q-4 0 -4 4l-6 -4h-43q-8 0 -14 4q-6 -4 -15 -4q-47 23 -47 33q4 6 4 10l-8 -4q-6 12 -10 37z" />
<glyph unicode="U" horiz-adv-x="1103" d="M0 625q4 8 4 12q-4 6 -4 10h4q0 4 -4 4l4 19v14q0 8 -4 14q4 8 4 17v18q0 8 -4 15q4 6 4 14v22l-4 27q6 0 6 6q-2 8 -2 12h2q0 4 -2 5l2 24v45q0 8 -2 15q2 10 6 51q-4 8 -4 12l8 2l-8 21q8 16 8 32q-4 6 -4 11q4 0 13 12l-9 14q6 16 13 47l-4 8q0 4 4 5q0 4 -4 10 q4 41 4 71h4q-4 6 -4 11q6 70 10 69q0 4 -4 4q0 49 55 74h4q35 0 49 -41l-4 -6l4 -18q-8 -29 -8 -33t4 -4q-6 -68 -10 -68l2 -8v-10q0 -47 -6 -68q4 -10 6 -10q-4 -43 -10 -43q0 -4 4 -4l-4 -19q0 -18 -4 -114h-4l4 -8q0 -4 -4 -5l4 -6q0 -4 -4 -4l4 -8q0 -4 -4 -10 q4 -20 4 -33v-23q0 -4 -4 -4l4 -8q0 -4 -4 -4q0 -2 4 -2l-4 -14q0 -4 4 -13q-4 -20 -4 -32l4 -19h-4l4 -8q0 -2 -4 -2l4 -27v-8l-4 -22q0 -4 4 -4q0 -4 -4 -11q4 -51 8 -69l-4 -9q4 -74 14 -159h-2l14 -47l-4 -9q18 -88 51 -141q88 -113 170 -113q0 -6 45 -8q4 0 5 4l18 -4 h37q100 10 139 37q18 0 117 92q16 18 33 54q-4 0 -4 2q33 55 32 77l-4 9q4 14 8 14l-4 8q16 25 23 107q6 0 10 41q0 4 -2 4q10 57 18 129q-4 8 -4 12h4l-8 25l4 8q-4 6 -4 14h4q0 4 -4 4q4 25 8 33l-8 4q8 41 8 51l-4 8q0 4 4 5l-4 18v84q0 14 -4 41q4 6 4 10l-8 17 q0 4 4 10q-4 20 -4 28q0 4 4 13l-14 133l4 6q-4 8 -4 16q0 4 4 4q-18 72 -18 129v19q12 0 20 27q20 6 27 6q0 -4 4 -4q0 12 4 12q29 -16 47 -35v-2l-2 -8q6 0 6 -6v-4q0 -4 -4 -5q8 -66 14 -65l-2 -8v-27q0 -8 2 -14l-2 -8q2 -6 2 -15q-2 0 -2 -4q6 0 11 -28l-5 -21 q12 -139 17 -166h-4q4 -6 4 -10q-4 -6 -4 -10l6 -4l-2 -9v-10l2 -22q-2 -8 -2 -13l2 -6q-2 -8 -2 -14l6 -4q-8 -74 -14 -78q8 -2 8 -8v-37q0 -25 2 -47l-6 -60l4 -8l-17 -74q0 -4 5 -4q-14 -96 -29 -151q4 -6 4 -10q0 -39 -41 -138q0 -47 -109 -159q-137 -100 -225 -101 q-4 0 -10 -4q-4 0 -4 4q-31 -4 -55 -10l-9 4q-8 -4 -12 -4q-2 0 -2 4l-18 -4l-19 4q-8 -4 -12 -4v4q-2 0 -2 -4q-102 0 -211 78q-104 94 -141 293q0 31 -13 80h4l-4 8v28q0 20 -6 21q0 6 2 6q-2 43 -2 64v24z" />
<glyph unicode="V" horiz-adv-x="1107" d="M0 1319q0 4 4 4l-4 6v12q0 43 43 43q0 5 12 5q8 -2 8 -9l7 4h4q20 0 41 -61q0 -4 -4 -4q10 -16 30 -86q43 -113 92 -270q18 -25 97 -328h-4q41 -115 63 -242q2 0 2 -4h-2q23 -100 47 -176v-8h8q33 106 74 203l-4 8q55 127 145 385q59 133 60 166q8 0 14 37l84 239 q18 63 27 64l-4 8q12 14 12 22q-4 6 -4 11q8 18 47 36h12q8 0 15 -4q6 4 10 4l12 -14v-18q-8 -63 -35 -101l4 -8l-28 -61l4 -8q-53 -139 -119 -345q-10 -16 -47 -137q-6 0 -53 -121q0 -8 -64 -174q4 0 4 -4q-10 -8 -45 -114q-66 -203 -96 -259q-31 -31 -37 -30 q-59 0 -70 100q-63 209 -88 375l-110 414l-49 125h4q-23 51 -31 86l-37 79l4 9q-12 18 -45 122q-2 0 -10 19z" />
<glyph unicode="W" horiz-adv-x="1314" d="M0 1352q4 14 14 14h11q-1 23 24 43l17 -2q6 2 10 2q14 -4 14 -10q-4 0 -4 -4q6 -8 29 -76l-4 -8q8 -12 8 -19h-4q0 -4 18 -84h-4q6 -14 6 -28h-2q10 -29 27 -123l-2 -8q20 -61 30 -119q14 -41 31 -129q4 0 4 -2q0 -4 -4 -4q29 -109 60 -285h-5q6 -49 23 -86l-4 -8 q4 -6 4 -17h-4q27 -119 26 -166h5q29 121 59 207q14 33 25 84h4l-4 8q12 43 20 43v5l-6 10q6 4 10 4v4q0 8 -4 14q4 6 4 15l-4 8q4 0 10 8q0 4 -4 4q29 86 35 148q23 39 29 112q2 0 14 27h14l-4 6v10h6v-10h4q0 10 9 10q2 0 2 -4q29 4 28 12q23 0 45 -96q6 0 11 -28 q-4 0 -4 -5q6 -2 45 -104l82 -186q6 -27 6 -31h-4q43 -100 69 -195h4q20 141 29 142h2q0 4 -2 4q2 25 6 33q-4 6 -4 16v8q0 4 4 4l-4 8q10 31 14 33l-4 8q8 23 8 29q-4 6 -4 10q10 23 25 117h2q0 2 -2 2q6 55 14 74l-4 8q4 29 10 29q-4 8 -4 12l4 12l-4 8q12 37 15 37 q0 2 -2 2q6 33 6 41q-4 6 -4 11q10 4 10 8q-2 18 -2 22q6 12 6 21q0 4 -4 4q4 8 6 49v2h-2v-6h-6v8q0 8 6 8q0 -4 2 -4v8l-6 11q4 0 10 26v10h4v23q0 2 -4 2q8 51 19 78v4h-4v-8h-5v10l9 12l-4 19q6 0 10 10l-2 8v6q0 41 18 64v4q-6 0 -6 6l6 4q4 0 4 -4q35 14 45 14 q2 -8 8 -8q0 4 5 4q2 -6 2 -10h8v6h8q0 -6 8 -16q-8 -2 -8 -8q0 -4 4 -5q-4 -6 -4 -10l4 -8q-4 -6 -4 -10l4 -6l-16 -54l4 -6v-4q-8 -90 -15 -98l5 -6q-8 0 -15 -84h-4q0 -4 4 -4q-4 -55 -24 -158q0 -2 4 -2q-14 -137 -35 -215q0 -4 2 -4l-2 -19q0 -8 2 -8q-4 -37 -10 -43 q0 -4 4 -4q-6 -43 -10 -43q0 -2 4 -2l-29 -158q0 -16 -6 -24q0 -4 2 -4q-2 -27 -6 -27q0 -2 4 -2q-8 -98 -10 -98q0 -4 2 -4q-6 -66 -21 -95q0 -4 4 -4q-6 -39 -8 -45l4 -8q-8 -31 -20 -31q0 -31 -43 -43q0 -8 -11 -8q-41 10 -40 39q-8 0 -29 74h4q-51 207 -104 317 q-39 125 -111 291h-4q-4 -35 -15 -57q4 -8 5 -13q-6 -2 -25 -75l2 -9q-25 -70 -41 -168q-8 0 -39 -112q-6 0 -12 -53q2 0 2 -5q-4 -2 -27 -75q-25 -47 -59 -140q-10 -14 -41 -24h-12l-11 6h-2l-8 -2q0 2 -14 16q0 4 4 4q-8 31 -21 91h5q-14 78 -23 100l4 6q-10 27 -10 29 l4 8l-35 211l2 6q-20 98 -20 106q4 6 4 11q-6 0 -14 49q4 0 4 4q-10 0 -21 82q-10 20 -22 78h4q-25 84 -31 123h2q-27 72 -47 211h2l-16 67h4q-4 6 -9 37h5q-6 14 -25 115z" />
<glyph unicode="X" horiz-adv-x="1081" d="M-20 49q0 4 4 4l-4 6v4q41 53 137 234q55 72 55 88q109 164 205 330q-59 84 -250 393q-106 178 -107 197h5l-5 6l5 8q-10 0 -13 14l4 8q-4 6 -4 11q25 20 25 28h29l8 4l2 -6l8 2q12 -20 18 -20q20 0 101 -146q106 -180 143 -235q0 -8 35 -59q29 -57 61 -97h4 q121 209 179 287q12 12 61 100q6 0 82 95q43 80 88 88h18q53 -35 58 -52h-4l4 -8v-4q-37 -27 -90 -115q-25 -18 -133 -170q4 0 4 -4q-10 -10 -203 -321q133 -170 369 -582q6 0 57 -80q-4 -8 -4 -14q6 -2 6 -8l-6 -4q-8 4 -17 4l9 -12v-3q-4 -10 -50 -30q-49 0 -165 223 q-10 0 -111 180q-18 16 -106 166q-14 10 -37 53h-9q-14 -14 -49 -73q-35 -47 -84 -131l-166 -267q-51 -109 -94 -141l-6 4q-29 -6 -31 -6q-14 0 -24 33h4z" />
<glyph unicode="Y" horiz-adv-x="1107" d="M0 1399q6 27 14 26h4q4 0 5 -4q6 4 10 4l14 -4q8 4 12 4l9 -12l6 4q31 -29 141 -207q27 -31 129 -196q47 -70 137 -221q6 0 51 77q96 137 187 304q27 25 121 202q8 0 41 64q12 22 18 22h4q4 0 4 -4l6 4h17q28 -30 28 -53q0 -10 -32 -66q0 -8 -49 -81q-104 -186 -195 -318 q-37 -74 -131 -205q-23 -43 -23 -77q0 -25 -4 -44l4 -8q-4 -14 -4 -24q0 -4 4 -4l-4 -21v-29q0 -4 -2 -4l2 -6v-14q0 -4 -2 -4q0 -4 2 -4l-2 -19v-73q0 -4 -4 -5l4 -8v-151q0 -8 2 -15q-2 -6 -2 -14v-10l2 -27h-2l2 -8q4 -70 4 -96h-4l4 -6q0 -63 -43 -64q0 -4 -4 -4 q-39 0 -41 70h4l-4 8v4q0 8 4 14q-4 6 -4 15v4q0 4 4 4q-4 8 -4 10q-8 176 -8 209v113q0 4 4 4q-4 8 -4 12q0 6 4 41l-4 6l4 23v4q0 8 -4 14l4 6l-4 25v2q0 4 4 4l-4 6q0 4 4 4l-4 8v41q0 16 4 41q-131 217 -219 340q0 12 -49 88l-121 174q-47 47 -47 105z" />
<glyph unicode="Z" horiz-adv-x="1089" d="M0 66q18 39 51 84q18 39 68 110q0 12 98 150q41 68 145 198q72 96 101 150q16 12 74 110q39 45 174 252q84 100 88 129q37 45 49 68q-4 0 -4 2l-8 -2h-48q-12 0 -12 -4l-16 4h-109q-4 0 -4 2l-8 -2q-25 2 -29 2q-8 0 -8 -2l-37 2h-20q-72 0 -109 8q-35 -4 -65 -4h-23 l-26 -4v4q-8 -4 -41 -6v2l-7 -2q-4 0 -4 2q-4 0 -4 -2l-24 2h-27q-8 0 -14 -2q-70 0 -86 61v4q-1 36 69 52v-4l9 4q29 -6 45 -7q63 2 77 3q6 -2 11 -3l12 3q2 0 2 -3l68 7v-4q4 0 4 4q4 0 10 -4q14 0 65 4q16 0 82 -7q2 0 17 3l16 -3l8 3q23 -2 23 -7l6 4h20q20 0 52 3 q14 -6 28 -7h133q10 0 17 4q6 -4 10 -4l8 4q23 -4 43 -22q18 -6 19 -19q0 -4 -6 -36q6 -12 6 -23l-6 -4q0 -4 4 -4q0 -25 -68 -111q0 -16 -96 -133q0 -6 -64 -92q0 -8 -47 -78q-43 -76 -90 -129q0 -10 -153 -233q-25 -20 -82 -115q-29 -33 -86 -115q4 0 4 -4 q-18 -14 -47 -65q-29 -29 -60 -105q-10 0 -18 -33q6 -4 10 -4q6 4 10 4v-4q4 0 4 4q8 0 9 -4q2 0 49 4q88 -4 102 -4l8 4l6 -4l9 4l8 -4l6 4q14 -4 14 -8q10 2 45 8l9 -4q2 0 2 4q43 -8 81 -8l33 4v-4l8 4h15q8 -2 8 -8l6 4q86 4 86 8q14 -4 14 -8l9 4h24q4 0 4 -4l9 4h88 l45 4v-4q4 0 4 4l24 -4h27q37 -20 41 -36v-5q-6 -55 -31 -55q0 -4 -2 -10l-18 4h-8l-19 -4v4l-6 -4q-4 0 -4 4l-8 -4q-20 4 -23 4q-6 0 -6 -4l-27 4h-45q-8 0 -14 -4l-6 4l-21 -4l-6 4q-8 -4 -10 -4l-8 4q-6 -4 -17 -4h-2q-4 0 -4 4l-8 -4h-2q-4 0 -4 4l-8 -4h-60l-18 -4v4 l-6 -4h-31q-8 0 -14 -4q-12 4 -13 8q-6 -4 -10 -4q-47 0 -143 4l-8 -4l-9 4q-6 0 -6 -4l-141 8q-27 -6 -27 -12q-6 4 -10 4q-6 -4 -10 -4v4q-20 -6 -21 -12q-14 8 -39 8q-4 0 -12 -4q-6 4 -14 4q-4 0 -10 -4q-6 0 -37 26q-10 0 -31 56z" />
<glyph unicode="[" horiz-adv-x="628" d="M0 1004q4 0 4 4q-4 6 -4 14v70l4 26q-4 0 -4 15v14l4 8h-4l4 19v147l-4 27q4 0 4 4h-4q0 4 4 10l-4 22v89q20 27 51 26h49l19 4q0 -4 4 -4q0 4 4 4h16l9 -4q0 4 4 4h65l8 -4q0 4 4 4h29l8 -4v4q115 -8 148 -8q39 0 55 -37l-4 -8q18 0 18 -10v-15l-2 -8l-67 -22h-10l-19 4 q0 -4 -4 -4l-8 4q-8 0 -15 -4q-86 6 -104 12q0 -4 -16 -8q-27 4 -41 4h-41q-23 0 -56 -8l-8 4l4 -19v-32l4 -27q-4 0 -4 -2q0 -10 4 -16l-4 -15l4 -18l-4 -8q4 0 4 -5q0 -8 -4 -14l4 -6q0 -4 -4 -12h4q0 -8 -4 -56q0 -8 4 -14q-4 -6 -4 -14v-37q0 -20 -4 -53q4 -8 8 -37 q-4 0 -4 -4l4 -6l-4 -9q0 -6 6 -18l-2 -19l15 -274q-4 -6 -4 -10l4 -8q0 -4 -4 -11l4 -26q0 -8 -4 -15q4 -6 4 -14v-8l-4 -6q4 0 4 -4v-27q0 -18 -13 -18v-25h5v14h8v-53l4 -18q-4 0 -4 -11v-12h-13v-6h13v-10l4 -21q-6 -2 -17 -2v-8l9 4h4q0 -8 4 -14l-4 -8q4 -20 4 -33 v-35l-4 -6q4 0 4 -4v-23h-8v-8h8v-2h-8v-37l-4 -26q16 -4 16 -23q0 -2 -4 -10q4 0 4 -4v-11h-8v11h-8q0 -18 12 -19v-4h-8v-14q4 0 4 4q6 0 8 -8q0 -6 -8 -6v6h-4v-4q6 -10 12 -11q0 -8 -4 -14l4 -8l-4 -6q4 -8 4 -13l-4 -18q4 0 10 -4q4 0 10 4l9 -4l8 4q6 0 8 -6l25 2 q6 0 8 -6l24 6l23 -2h14l19 2q0 -2 4 -2q47 2 49 2l18 -2l6 2q8 0 17 -2q39 2 47 6l4 -6q6 0 6 6q18 0 19 -6q37 -6 36 -25l-2 -6l7 -4q-12 -45 -117 -63l-8 4q-20 -4 -33 -4h-35q-8 0 -14 -3q-6 2 -15 3h-18q-20 0 -64 -3q0 2 -4 3v-3q-18 0 -55 3q-6 0 -6 -7q-8 0 -31 7 v-3q-27 2 -29 3q-16 0 -49 61q6 6 13 29q-4 0 -9 10l9 4q0 4 -4 4l4 27v84l-4 18q4 0 4 8q0 12 -4 33l4 6l-4 8q0 4 4 13l-9 170q4 6 5 14q-4 6 -5 10l5 8q-4 0 -5 5v14l5 6h-5q0 4 5 12q-4 6 -5 15v67l-4 19q4 0 4 10v14l-4 23q4 8 4 10l-4 39l4 24q0 6 -8 41l4 21 q-4 31 -4 53v8l4 9q-4 0 -8 24q4 8 4 12l-4 7l4 8q-4 6 -4 14v4l4 8h-4q0 45 -6 93zM106 489h5v15h-5v-15zM111 182q4 -8 4 -18h4v18h-8zM119 201v24h8q0 -4 -4 -4q0 -2 4 -2l-4 -18h-4z" />
<glyph unicode="\" horiz-adv-x="569" d="M0 1354q0 33 33 55h4l6 -2q0 2 4 2h27q-1 -9 30 -25l37 -110q10 -68 19 -68q41 -215 61 -266q49 -174 72 -242l-4 -6q6 0 18 -49l-4 -6q4 0 12 -14q8 -53 15 -54q0 -4 -4 -4q0 -4 26 -88q-4 0 -4 -4q27 -59 115 -377q-4 0 -4 -4q6 0 18 -33q0 -35 -45 -59h-4l-6 4v-4 q-33 0 -47 43l2 20q-6 0 -23 70l-254 873q-23 113 -45 178q-55 154 -55 170z" />
<glyph unicode="]" horiz-adv-x="643" d="M0 0l6 4l-2 6q0 18 37 25q0 6 18 6q0 -6 9 -6l2 6q10 -4 49 -6q6 2 14 2l8 -2l19 2q2 0 47 -2q4 0 4 2l18 -2h15l22 2l27 -6q0 6 6 6l27 -2q2 6 8 6l6 -4l8 4q6 -4 10 -4q8 4 13 4l-4 18q0 4 4 13l-4 6l4 8q-4 6 -4 14q6 0 10 11v4h-2v-6q-8 0 -8 6q0 8 8 8q0 -4 2 -4v14 h-6v4q10 0 10 19h-6v-11h-8v11q0 4 4 4q-4 8 -4 10q0 18 14 23l-4 26v37h-6v2h6v8h-6v23q0 4 4 4l-4 6v35q0 12 4 33l-4 8q4 6 4 14h2l8 -4v8q-8 0 -14 2l4 21v10h10v6h-10v12q0 10 -4 11l4 18v53h6v-14h4v25q-10 0 -10 18v27q0 4 2 4l-2 6v8q0 8 2 14q-2 6 -2 15l2 26 q-2 6 -2 11l2 8q0 4 -2 10l14 274l-4 19q6 12 6 18l-2 9l2 6q0 4 -2 4q2 29 6 37q-4 33 -4 53v37q0 8 -2 14q2 6 2 14q-2 47 -2 56h2q-2 8 -2 12l2 6q-2 6 -2 14q0 4 2 5l-2 8l2 18l-2 15q2 6 2 16q0 2 -2 2l2 27v32l4 19l-6 -4q-35 8 -55 8h-41q-16 0 -41 -4q-18 4 -19 8 q-18 -6 -104 -12q-6 4 -14 4l-9 -4q-2 0 -2 4l-18 -4h-12l-68 22l-2 8v15q0 10 19 10l-5 8q16 37 56 37q32 0 147 8v-4l8 4h29q4 0 4 -4l8 4h68q2 0 2 -4l8 4h19q4 0 4 -4q4 0 4 4l16 -4h49q31 0 52 -26v-89l-5 -22q4 -6 5 -10h-5q0 -4 5 -4l-5 -27v-147l5 -19h-5l5 -8v-14 q0 -14 -5 -15l5 -26v-70q0 -8 -5 -14q0 -4 5 -4q-6 -47 -7 -93h-4l4 -8v-4q0 -8 -4 -14l4 -8l-4 -7q0 -4 4 -12q-4 -25 -8 -24l4 -9v-8q0 -23 -4 -53l4 -21q-8 -35 -8 -41l4 -24l-4 -39q0 -2 4 -10l-4 -23v-14q0 -10 4 -10l-4 -19v-67q0 -8 -4 -15q4 -8 4 -12h-4l4 -6v-14 q0 -4 -4 -5l4 -8q0 -4 -4 -10q0 -8 4 -14l-6 -170q2 -8 2 -13l-2 -8l2 -6q-2 -20 -2 -33q0 -8 2 -8l-2 -18v-84l2 -27q-2 0 -2 -4l6 -4q-4 -10 -6 -10q4 -23 10 -29q-33 -61 -49 -61q-2 0 -29 -3v3q-23 -6 -28 -7q0 6 -9 7q-37 -2 -55 -3v3q-4 0 -4 -3q-43 2 -61 3h-21 q-8 0 -14 -3q-6 2 -14 3h-33q-14 0 -33 4l-8 -4q-106 18 -119 63zM367 219q4 0 4 2q-4 0 -4 4h8v-24h-4zM375 164h2q0 10 4 18h-6v-18zM381 489h4v15h-4v-15z" />
<glyph unicode="^" horiz-adv-x="559" d="M0 1262v14q31 55 74 174q10 0 30 59q25 15 43 15h5q4 0 4 -2l8 2q63 -39 139 -144q51 -70 51 -77q0 -10 8 -19v-27q-16 -20 -32 -28q-4 0 -4 4l-9 -4h-6q-4 0 -4 4l-8 -4q-2 0 -2 4l-8 -4q-10 0 -10 18l-9 -4q-47 86 -110 148q-12 -16 -49 -134q-16 -31 -37 -47l-6 2 l-13 -6q-55 6 -55 56z" />
<glyph unicode="_" horiz-adv-x="1067" d="M0 -68q0 37 23 41q0 4 32 27q20 -4 31 -4q6 4 10 4v-4l8 4q10 0 11 -4q41 4 53 8q2 0 2 -4l86 6v-2q6 2 10 2q8 0 8 -2l25 2h86l23 4q4 0 4 -4l16 4h4l23 -4l8 4q4 0 10 -4q8 0 41 4q51 -4 64 -4l24 4l8 -4q8 4 13 4q4 0 32 -6q6 2 15 2v-2l8 2h24q8 0 17 -2l6 2 q27 -2 27 -6l18 4h74q4 0 4 -4l18 6q4 0 4 -2l19 2h10q20 0 33 -2l86 6q37 -6 37 -37q2 -6 8 -6q0 -23 -21 -35q0 4 -2 5l-4 -7q4 0 4 -4q-23 -12 -36 -12l-27 4q-6 -4 -10 -4q-20 4 -21 8q-12 -8 -28 -8h-46q-2 0 -2 4l-8 -4h-45q-4 0 -4 4l-37 -6q-10 2 -10 6l-6 -4h-27 q-8 0 -14 -2l-8 2l-9 -2q-14 2 -14 6q-4 0 -4 -4l-25 4h-12q-8 0 -14 -4q-6 4 -15 4h-20q-6 0 -12 -4q-25 4 -25 8l-6 -4q-4 0 -4 4l-19 -4h-63q-2 0 -2 4q-8 -4 -12 -4q-18 0 -64 -4l-16 4q-4 0 -4 -4l-19 4h-4q-8 0 -14 -4q-4 0 -4 4l-23 -4l-33 4q-8 -4 -12 -4v4 q-4 -4 -55 -6q-12 2 -14 2l-41 -6l-9 4q-27 -8 -51 -8l-6 4q0 -8 -8 -8l-8 4q-2 0 -2 -4q-43 0 -68 32z" />
<glyph unicode="`" horiz-adv-x="403" d="M0 1417v4q0 29 43 64q0 2 4 2h27q84 -86 233 -207q14 -29 15 -33q0 -39 -52 -49q0 4 -4 4q0 -8 -8 -8h-6q-23 0 -35 27q-6 0 -98 77q-82 57 -119 119z" />
<glyph unicode="a" horiz-adv-x="1046" d="M0 18v19q6 61 33 100l-2 6l28 64l-4 8q51 139 119 344q10 16 47 137q6 0 53 121q0 8 64 174q-4 0 -4 4q8 8 43 115q92 285 123 285q4 0 12 4q57 0 70 -101q61 -209 88 -372l110 -414l49 -127h-4q20 -51 29 -86l39 -82l-4 -6q12 -18 43 -123q4 0 12 -18q0 -2 -4 -2l4 -9 v-22l-4 -6q4 0 4 -4q-16 -23 -55 -27q-8 0 -8 6l-9 -2h-2q-37 23 -36 59q-4 0 -5 5q0 2 5 2q-12 23 -86 245q-55 145 -82 250h-41q-10 0 -11 -4l-18 4h-45q-8 0 -14 -4q-6 4 -15 4h-30q-12 0 -19 -4l-22 4h-39q-10 0 -17 -4q-14 4 -14 8l-6 -4q-4 0 -4 4l-9 -4q-4 0 -4 4 l-6 -4h-14q-4 0 -4 4l-8 -4q-49 8 -52 8q0 -10 -45 -124l-88 -271q-33 -90 -41 -96l4 -8q-12 -14 -12 -23q4 -6 4 -10q-10 -16 -49 -37h-10q-8 0 -14 2q-8 -2 -13 -2zM307 655h4q4 0 4 4l25 -4q16 0 22 4q25 -4 41 -4h105l16 4v-4l8 4h50q4 0 4 3q37 -2 37 -7q6 4 14 4 q-4 25 -23 97h4q-41 113 -63 239q-4 0 -4 4h4q-23 100 -47 179v6h-8q-35 -106 -74 -203l2 -8q-53 -133 -121 -318z" />
<glyph unicode="b" horiz-adv-x="911" d="M-10 113h4l-4 6q4 37 8 43q0 4 -4 4q4 53 6 59q-2 6 -2 17h2l-2 6q2 70 2 94q-2 6 -2 8q6 0 10 19l-4 8q4 6 4 14q0 2 -4 2q4 41 6 41l-2 6v19q0 29 2 67q0 4 -2 4l2 19q0 20 -2 90q2 6 2 8l-2 8q0 4 2 4l-6 50q4 25 6 32l-6 29l4 23v18l-4 20l4 7q0 4 -4 4l4 14l-4 18 l4 19l-4 31l4 8l-8 59l8 4l-4 19q0 57 6 86q-2 14 -2 24l2 27q-2 4 -2 8t2 4q-2 20 -2 29q0 10 2 27l-6 57q4 0 4 2q-8 0 -8 8v17l4 22q-4 6 -4 18v3q0 8 27 16q-1 25 151 45v-2q6 2 10 2q39 0 148 -14l6 4q115 -18 207 -86l55 -68q0 -27 14 -33l-4 -8q12 -10 17 -51h-4 l4 -8v-15q0 -8 -4 -14l4 -6q-8 -74 -82 -162q-4 0 -33 -33q-25 -18 -37 -28q90 -16 191 -121q72 -86 92 -205q0 -18 6 -29q0 -12 -2 -18l2 -33q0 -188 -72 -280q-61 -121 -200 -189q-10 0 -66 -16q-6 4 -10 4q-27 -8 -33 -8v4q-4 0 -4 -4q-47 4 -70 4h-4q-10 0 -16 -4l-23 4 l-57 -4q-2 0 -2 4l-27 -4h-141q-49 0 -49 80zM96 96q4 -6 4 -16q4 0 4 4q23 -8 41 -8l19 4l6 -4l8 4q14 -2 15 -8q6 4 34 8v-4l9 4q10 0 24 -4l62 8q23 -4 45 -4q123 18 159 67q92 86 92 115q51 68 52 125q-4 6 -4 10q4 0 10 19q0 4 -4 4l4 16q4 84 4 94q-8 0 -8 9l4 6 q-4 8 -4 10h4q-27 109 -88 176q-57 49 -121 64q-4 0 -4 -2q-45 10 -62 10l-18 -4v4q-2 0 -2 -4l-14 4q-52 -8 -70 -8v4q-31 -10 -123 -25h-10l-6 2q0 -8 -54 -16v-101l2 -36h-2l2 -7v-4q0 -12 -2 -16l7 -57l-7 -37q2 -6 2 -10h-2q2 -33 7 -33l-5 -19v-28q0 -2 -2 -2 q0 -4 2 -4l-2 -19v-33q0 -4 -4 -4l4 -6v-6q0 -14 -4 -33l4 -6q0 -8 -4 -8l4 -43v-29q0 -23 -4 -72q6 -2 6 -8q-6 -8 -6 -12q4 -8 4 -12q-8 0 -8 -6q4 -8 4 -13h-4zM96 928l4 -19v-49q90 20 113 21q4 0 4 -2q57 10 57 20h5l6 -4q86 31 172 96q45 47 69 94l19 58 q0 104 -146 153q-8 0 -32 11q-4 0 -5 -4q-23 4 -30 8l-8 -4q-23 10 -88 14q-9 0 -52 -6v4q-70 -23 -88 -23v-4q0 -8 4 -14q0 -2 -4 -2l8 -100q-4 -20 -4 -29q4 -6 4 -14h-4q0 -4 4 -5q-8 -119 -8 -161l4 -6q-4 -6 -4 -15q0 -8 4 -14q0 -4 -4 -4z" />
<glyph unicode="c" horiz-adv-x="1095" d="M0 608l4 8q-4 8 -4 13q0 25 6 24q0 4 -2 4l2 19v49q0 240 168 506q152 166 297 166q33 4 33 8l20 -4h45q106 -8 187 -31q16 -12 78 -39q27 -25 26 -26v-41q-12 -18 -31 -19v4l-8 -4h-4q-92 59 -252 60q0 4 -14 4q-16 -4 -27 -4v4q-55 0 -155 -41q-117 -88 -125 -129 q-96 -156 -97 -207q-27 -86 -34 -137q-4 0 -4 -4v-33q0 -4 -5 -4l5 -9q-8 -78 -9 -92q0 -8 4 -14q-4 -20 -4 -35v-2q0 -41 9 -72h-5q8 -57 17 -84h-4q25 -137 182 -292q141 -96 291 -97q166 0 297 170q8 0 24 17q12 -4 13 -8l6 4h16l6 -4q0 4 4 4l17 -19q-4 -8 -4 -14 q8 0 8 -12l-4 -9q4 -6 4 -10q-92 -111 -148 -137q-68 -39 -98 -39q-14 -12 -92 -20v4l-8 -4h-37q-113 12 -125 20l-8 -4q-158 47 -234 117q0 8 -45 41q-166 197 -166 333q-10 33 -16 121z" />
<glyph unicode="d" horiz-adv-x="1075" d="M0 508q0 14 6 29q-6 0 -6 10l4 35l-4 24l4 19q0 4 -4 4l4 16l-4 27q0 6 4 6l-4 43v166q0 12 4 31l-4 8l4 6l-4 22h4q0 2 -4 2l4 37v25q0 4 2 4q0 2 -2 2l6 113q-4 14 -4 24l4 15l-4 8q0 2 4 10q-4 31 -4 49v10q0 8 -6 9l4 18v6q0 16 -4 37q0 49 37 49q0 17 45 25l18 -4 q4 0 4 4l25 -4h45q14 0 35 4l6 -4q6 4 16 4v-4l7 4l16 -4l6 4l6 -4q4 0 4 4q61 -6 62 -11l6 5q4 0 4 -5q2 0 2 5q158 -18 272 -68q203 -125 261 -252q61 -139 61 -215q2 0 2 -6h-2q10 -57 10 -96v-58q0 -90 -8 -90q0 -4 4 -4l-4 -24q0 -8 4 -15q-39 -262 -82 -356 q-70 -113 -196 -164q-154 -76 -252 -76v4q-20 -4 -21 -8l-18 4q-49 -8 -64 -8h-10l-10 8q0 -8 -8 -8h-17q-8 0 -12 4q-6 0 -6 -4l-27 4h-35q-4 0 -4 4l-8 -4h-18q-6 0 -6 8l-9 -4h-8q-4 0 -4 4q-2 0 -2 -4q-59 4 -59 15l-9 -5q-27 0 -32 95q4 6 4 10l-4 6l4 8l-4 21h6v24 l-2 19h2q-2 14 -10 14l8 10v13q0 6 -8 6l4 8v10h-9v4h9q-4 68 -9 82h5q-4 39 -13 39l4 6v4h-4v-6q-6 0 -6 6q4 0 10 13v2h-8v8h8v35h-10v12l6 -4h4l-4 6h4q-6 25 -10 25l2 8v8q0 2 -6 39zM92 602l8 -2l-4 -6q0 -12 4 -12l-4 -19v-12l4 -37h-4q0 -4 4 -4l-4 -16q0 -8 8 -56 h-4l4 -6q4 -135 7 -158h-2q6 -18 6 -28h-4l4 -6q8 -113 8 -148l4 -14h-4l4 -6l-4 -9q0 -10 192 -20q82 6 91 6l8 -4q6 4 12 4q4 0 4 -4q51 0 232 82q102 68 126 156q23 100 29 100l-4 6l35 205l-4 6q0 16 8 96l-4 9l4 20q0 139 -76 317q-25 47 -74 95q-127 119 -219 129 q-45 18 -108 30q-4 0 -4 -4q-61 12 -138 13h-65q-4 0 -4 4l-8 -4h-27l-25 4l5 -27v-33q0 -8 2 -12q-2 -8 -2 -12l2 -6q0 -4 -2 -5l2 -14l-2 -35q0 -4 2 -4l-2 -18v-35q0 -4 -5 -4l5 -6v-51q0 -4 -5 -5q6 -20 7 -26q-6 -2 -7 -8v-9q0 -8 5 -14l-9 -31l4 -22q0 -4 -4 -10 q0 -4 4 -11q-8 -55 -8 -125l4 -8q-4 -6 -4 -14v-43q0 -8 -4 -14q4 -31 8 -31l-4 -19v-20q0 -8 4 -16z" />
<glyph unicode="e" horiz-adv-x="989" d="M-10 1040l4 23q0 8 -4 14q4 6 4 17v10q0 8 -4 14q4 6 4 15q0 16 -4 41l4 20q-4 6 -4 10h4q0 2 -4 2q4 45 8 45q0 4 -4 4l4 25v25q0 6 -8 6l4 18l-4 14q25 45 33 46l40 14q33 -14 33 -19l27 5q125 4 145 4v-4l6 4q4 0 5 -4l8 4l6 -4q8 4 12 4v-4q2 0 2 4q8 0 8 -4l23 4 q88 -4 139 -4h21l20 4q16 -8 41 -9h53l19 5v-5q6 4 10 5l8 -5q6 4 15 5l8 -5l6 5l8 -5l23 5q37 -12 36 -37q10 0 11 -9q-12 -8 -23 -38q-10 0 -10 -9h-27l-8 -4l-2 8l-8 -4h-37q-2 0 -2 4l-8 -4l-19 4l-8 -4l-6 4l-23 -4q-4 0 -4 4l-18 -8q-33 4 -109 8l-6 -4q-4 0 -4 4 l-18 -4q-4 0 -13 4q-2 0 -2 -4l-90 9q-45 -4 -88 -5q-4 0 -10 -4q-6 4 -16 4q-2 0 -2 -4l-21 4h-6q-8 0 -14 -4l-9 4q-8 0 -24 -8q-8 4 -17 4h-4q-6 0 -10 -36l4 -9q0 -4 -4 -4q0 -4 4 -4l-4 -16v-33l-4 -25q0 -2 4 -2l-4 -18v-12q0 -8 4 -15l-4 -8q4 -6 4 -14q0 -4 -4 -4 l4 -6v-37q0 -12 4 -21l-4 -12q4 -100 4 -160v-8q0 -8 2 -14q-2 -6 -2 -15q0 -23 6 -22l-4 -19v-53h82q8 0 17 -4q14 8 38 8h23q4 0 4 -4l8 4h37q2 0 2 -4q23 8 96 8h17q8 0 14 4l23 -8l20 4q4 0 4 -4l21 4h2q20 0 35 -4q49 4 59 8q4 -4 14 -4l19 4q27 -14 41 -41v-4 q0 -4 -17 -10l4 -8q0 -8 -24 -27q-4 0 -12 4q-37 -2 -37 -6l-19 2h-12q-14 0 -41 -2q-6 2 -10 2q-6 -2 -19 -2v2l-8 -2h-20q-4 0 -4 2q-6 -2 -45 -6l-7 4l-18 -4q-4 0 -12 4q-88 -10 -156 -10q-8 0 -14 -4l-6 4q-8 -4 -13 -4v4l-8 -4q-4 0 -4 4q-51 -8 -70 -8v-4 q6 -119 17 -119v-4h-8v-88l4 -27h-4l4 -6v-31l4 -18h-4l4 -6q0 -4 -4 -4l4 -19v-4q0 -4 -4 -4l4 -6q0 -4 -4 -4l4 -8v-15q0 -16 4 -41q-4 -8 -4 -10l4 -18l-4 -9q0 -4 4 -12q-4 -18 -4 -33v-10q0 -8 4 -14q-4 -8 -4 -17v-6q0 -8 6 -8l8 4l6 -4q8 4 13 4v-4l8 4q2 0 2 -4l8 4 q10 0 10 -4q41 8 86 8q47 0 78 -8q25 4 41 4h37q8 0 14 -4l6 4q8 0 41 -4l33 4l8 -4q4 0 4 4q37 -4 37 -6q20 6 64 6v-4l8 4h41q2 0 2 -4l8 4h23q4 0 4 -4l6 4q6 -4 10 -4t4 4l19 -4h8q12 0 33 4q14 0 36 -31q0 -25 -18 -32q0 -27 -29 -27l-8 4l-18 -6q-25 2 -41 2h-33 q-4 0 -4 4l-6 -4q-23 0 -54 4q-66 -4 -106 -4q-4 0 -10 -2q-37 2 -37 6l-27 -4h-127q-4 0 -4 4l-6 -4h-68q-18 0 -55 -2v2q-18 -6 -24 -6v4l-9 -4h-4q-8 0 -14 4q-6 -4 -37 -8v4l-6 -4q-27 4 -64 55l3 12q-2 6 -3 11h3q0 4 -3 4l3 24v164q0 8 4 14q-6 18 -7 33h3l-7 41 q4 6 4 19l-4 22l4 19q-4 20 -4 22q0 4 4 4l-8 43l4 17l-4 20h4l-4 8v4q0 66 -8 133h4l-4 9q0 4 4 4l-4 6v37q0 4 4 4l-4 6q0 4 4 4q-8 16 -8 23l4 8q-4 6 -4 14t4 8q-6 51 -6 70q2 6 2 10q-2 12 -6 12l4 25v57q0 8 -4 15q4 6 4 14t-4 14q0 4 4 5q-4 29 -8 36z" />
<glyph unicode="f" horiz-adv-x="925" d="M0 1368q14 55 23 55q4 0 4 -4l16 4h12q8 0 15 -4q8 4 16 4v-4l6 4q57 0 129 7v-3q20 6 94 11q2 0 2 -4l21 4q39 0 199 12h69q4 0 4 -4q4 0 4 4q31 -8 82 -8h29q72 0 72 -45l6 -11v-4q-6 -37 -37 -36q-193 8 -225 8q-4 0 -13 -4q-6 4 -14 4l-18 -4v4q-39 -12 -142 -13h-61 q-8 0 -14 -4q-4 0 -5 4q-8 0 -30 -8q-2 0 -2 4q-82 -6 -146 -6v-4q0 -8 4 -14q-4 -6 -4 -17q0 -4 4 -10q-4 -6 -4 -14q4 -27 4 -31h-4q4 -6 4 -10l-4 -8q8 -18 8 -27l-4 -6l4 -6q-4 -8 -4 -17q4 -6 4 -10h-4l4 -8v-33q0 -4 -4 -4l4 -6v-49q0 -10 2 -10l-2 -21v-84 q0 -8 2 -14q-2 -6 -2 -17v-6q0 -10 2 -10l-2 -21v-55l7 4h106q4 0 4 -4l8 4h4q4 0 5 -4l6 4q8 -4 12 -4q6 4 10 4v-4l8 4q4 0 5 -4l6 4l26 -4q4 0 4 4q31 -8 80 -8h4q4 0 4 -2l9 2q2 0 2 -2q4 0 4 2l26 -2h48q12 0 12 2l18 -2h43q20 0 53 2l7 -2l8 2q51 0 59 -61 q-23 -37 -59 -37q0 8 -8 8h-7q-12 0 -12 -4q-4 0 -10 4q-104 -4 -137 -8q-47 4 -56 8q-4 0 -4 -4q-41 6 -106 6v4q-4 0 -4 -4q-37 4 -56 4h-28l-25 -4q-6 4 -16 4h-4q-8 0 -17 -4q-6 4 -14 4l-14 -4q0 4 -4 4q0 -6 -7 -6q25 -240 25 -360q0 -4 4 -11q0 -4 -4 -4l4 -18v-41 l4 -23q-4 -8 -4 -10l4 -8l-4 -6q4 -23 4 -31h-4l4 -6v-121l4 -16h-4l4 -9v-4q0 -4 -4 -4l4 -6v-27q0 -29 -35 -36v-4h-2q0 8 -4 8q-8 -4 -12 -4q0 8 -6 8q0 -6 -12 -12q-29 0 -29 73v74q0 8 -4 16q4 6 4 15q0 4 -4 12l4 6l-4 19l4 8q-4 6 -4 14v6q0 4 4 4l-4 9v40 q0 23 -4 74h4l-4 6q-8 219 -15 219l5 9q-4 6 -5 10h5q-4 6 -5 10q0 39 -12 150h4l-4 8v61q0 8 4 15q0 4 -4 4l4 18v12l-4 19h4q0 4 -4 4l4 16v45q0 8 -4 17q4 10 8 10q-8 18 -8 29l4 26l-4 15l4 8q-4 6 -4 14h4l-4 8v93l-2 20l2 8q-2 43 -6 164z" />
<glyph unicode="g" horiz-adv-x="1064" d="M0 535h4l-4 8q0 4 4 4q0 8 -4 8l4 43v70q0 4 2 4l-2 8v2q0 41 2 82l-2 18q2 25 2 49v11q0 4 4 4l-4 8q4 33 8 33q0 4 -4 4q8 37 13 37l-5 8q0 14 9 29q-4 0 -4 4q6 0 20 80q33 100 80 159q43 90 135 138q82 55 113 55q0 18 180 41v-4l8 4q158 0 254 -60q0 -6 23 -32 q0 -31 -33 -50l-23 5q-6 -4 -10 -5q0 20 -104 50q-57 10 -78 10q-6 0 -6 -4l-23 4q-41 0 -119 -10v4q-154 -55 -192 -113q-119 -152 -121 -217q-12 0 -35 -182v-64q0 -2 -4 -2l4 -8q-4 -6 -4 -10q4 -8 4 -13q-6 0 -6 -6q2 -8 2 -12q-2 0 -2 -2q6 0 6 -12l-4 -8q0 -2 4 -3 q-4 -33 -6 -40q2 -20 2 -33v-35l-2 -23q2 -14 6 -14l-4 -18v-29q0 -14 12 -76l-4 -6q29 -127 82 -229q43 -72 101 -97q14 -10 73 -26q0 -6 37 -6h55q8 0 15 4q4 0 4 -4l51 10v-4q104 27 137 78q4 0 33 36q49 53 76 119l12 56l-2 8l14 73v29q0 4 4 4l-4 8v15q0 4 4 4l-8 37 q0 4 4 4l-4 37v28l-4 9q-39 -8 -47 -9l-22 4l-9 -4q-2 0 -2 4l-18 -4h-53q-8 0 -15 4q-6 -4 -14 -4h-23q-4 0 -4 4q-4 0 -4 -4l-16 4h-62q-2 0 -2 5l-8 -5l-22 5q-6 -4 -11 -5v5l-8 -5h-51q-33 14 -55 46l4 20v16q4 0 28 15q4 0 29 -4l8 4q8 -4 13 -4q0 8 6 8h18q8 -2 8 -8 q6 0 7 4l67 -8l4 8q10 -4 10 -8l9 4q4 0 4 -4q10 8 16 8q2 -8 8 -8q8 4 13 4h10v4h10q8 -2 8 -8l29 8q8 -4 12 -4q39 8 41 8q12 -8 23 -8h4l14 12h23q43 0 57 -8l8 4q41 -6 41 -15l-4 -8q10 0 19 -14h-5l13 -23q-8 -14 -8 -28q4 -8 4 -13h-4l4 -8v-4l-4 -16q8 -2 8 -8 q0 -4 -4 -5q0 -4 4 -4q0 -6 -4 -6q8 -74 8 -96l-12 -45l4 -6q-4 -20 -9 -21l5 -6q-8 -35 -11 -35q0 -2 4 -2q0 -98 -147 -270q-98 -88 -174 -88q-2 -10 -137 -16v4q-4 0 -4 -4q-33 4 -33 8l-8 -4q-131 27 -199 90q-55 57 -80 112q-4 0 -18 35q4 0 4 2q-6 2 -33 82q-4 0 -4 4 t4 4q-18 45 -35 158q-2 0 -2 4t2 4l-2 8l2 7l-2 16l2 6q-6 12 -6 19z" />
<glyph unicode="h" horiz-adv-x="1040" d="M0 1368q0 27 43 33h27q23 -12 22 -55v-33l4 -19q-4 0 -4 -4l8 -4l-4 -6q4 -125 8 -131q0 -2 -4 -2l11 -135q0 -2 -5 -2q6 -57 9 -68q-4 -6 -4 -14v-4l4 -19h-4q4 -23 8 -22l-4 -19v-10q0 -12 4 -18l-4 -21q4 -59 4 -90l8 2h88q8 0 14 -2q8 2 13 2q125 4 157 4q2 0 15 4 q8 -4 18 -4h12q12 0 33 4l8 -4l7 4q20 -4 32 -4t13 4l24 -4h64q4 0 4 -4l8 4h14q4 0 4 -4l7 4h12l22 -4l6 4l17 -4q18 4 29 4q0 4 -5 4l9 88q-4 6 -4 19l4 8q0 4 -4 4l4 18v33q0 33 4 101q4 0 4 4l-8 2q4 18 8 18l-4 8v4q0 10 4 11l-4 18v19q0 4 4 4l-4 8v65q0 68 -8 86 q4 20 4 33v31q0 6 -4 14q4 6 4 15v36q8 18 36 19h9q47 0 47 -82q0 -2 -4 -2l4 -21q0 -16 8 -161h-4l4 -9v-77q0 -94 -8 -170q0 -4 4 -11q-4 -20 -4 -32v-5q0 -12 4 -18q-4 -12 -8 -104h-4l4 -7v-16q0 -4 -4 -4q0 -2 4 -2l-4 -18v-50q0 -8 4 -14l-4 -6q-2 -123 -2 -191v-65 q0 -23 2 -60q-2 -6 -2 -26l2 -6l-2 -8q6 -102 20 -187q-25 -29 -43 -29h-14q-4 0 -4 5l-9 -5h-8q-4 0 -16 19v4l2 6q-6 0 -19 53q0 4 5 4q-8 55 -9 66h4q-8 18 -8 68v315q0 2 4 2q0 4 -4 4l4 37v33q0 8 -6 8q-10 0 -10 -4l-21 4h-65q-4 0 -4 2q-4 0 -4 -2l-43 2h-41l-23 4 q-4 0 -4 -4l-18 4l-27 -4v4l-6 -4h-12q-12 0 -33 4q-6 -4 -14 -4v4l-9 -4l-14 4q-6 -4 -10 -4v4q-41 -4 -41 -6q-8 2 -12 2q-45 -2 -48 -2v2l-8 -2h-106q-4 0 -4 2q-4 0 -4 -2l-19 2h-6l-8 -2l8 -72l-4 -6q4 -6 4 -10h-4q4 -8 4 -12q6 -252 14 -285q0 -4 -4 -4l4 -19v-96 q0 -8 2 -14q0 -4 -2 -4q2 -43 2 -64v-51q-8 -12 -28 -18q-6 4 -15 4q0 -8 -8 -8q-29 23 -45 57l4 6q-4 6 -4 14h4q0 4 -4 4l4 19l-4 6q4 8 4 16l-4 15q0 4 4 4l-4 18v56q0 8 -4 14q0 4 4 4l-4 18v56l-2 18h2l-2 8v27l-4 20q4 8 4 17q-4 18 -4 29h4l-4 8v6q0 18 -4 55h4 q-2 10 -6 45h2l-2 8v7q0 4 2 4l-2 8q-4 98 -4 155l-4 7q4 6 4 18l-4 23q4 14 4 28l-4 17h4l-4 6v41q0 8 4 14q-4 8 -4 12h4l-4 6v17l-5 45h5l-5 6v6q0 4 5 4l-5 9q0 57 -8 129h4l-8 36l4 9l-4 18q0 4 4 4q-4 41 -6 51q2 6 2 15l-2 26h2l-2 8v33q0 29 -4 78z" />
<glyph unicode="i" horiz-adv-x="262" d="M0 74l4 6l-4 108q0 4 2 5q-2 20 -2 46.5t2 61.5q2 -2 4 2q-8 0 -6 8l2 6q-2 8 -2 13l4 6q-4 6 -4 10l4 8q-4 6 -2 15h4l-4 6l4 69q0 14 -2 27q4 14 4 31l2 20q0 8 -2 15l4 8q0 4 -4 4l4 16l-2 19h4l-4 6q0 4 4 4l-4 6l2 23q0 4 4 4q-4 6 -4 10q0 135 2 162l-2 18l4 6 q-2 45 -6 51q2 4 4 3q0 51 2 73l4 101l-2 20q4 6 5 19l-3 18h5l-5 6q0 4 5 4l-2 8v11v13q0 36 -9 58q4 6 6 15l-4 14h4q-6 14 -6 41l2 10q0 6 4 12q-2 10 -4 56l4 6l-2 22l41 17l23 -2q16 0 29 -78l-2 -25l8 -10v-4q-2 -8 -6 -14l4 -8q0 -2 -4 -3l10 -155l-4 -6l2 -23v-6 q0 -4 -4 -4l4 -6l-2 -37q0 -4 -4 -4l2 -6v-11q0 -4 -4 -4l4 -8l-2 -35q-4 -59 -4 -131q0 -48 2 -102h-5l5 -6l-2 -8q0 -4 -3 -5l3 -8l-3 -30l3 -25h-3l3 -8q0 -4 -5 -4l5 -7q0 -4 -5 -4l5 -8l-13 -207l2 -43h-4l2 -8l-2 -47q0 -10 2 -31l-4 -8q4 -135 10 -213q-4 -6 -4 -8 l4 -8q-10 -25 -28 -35l-31 2q-2 0 -2 4l-8 -4q-14 0 -31 35v24q2 8 -2 15z" />
<glyph unicode="j" horiz-adv-x="1095" d="M-10 455v94q23 102 49 102l6 -4q8 4 12 4q29 -23 39 -63l-6 -2l4 -8v-13l-8 -10q4 -6 4 -10h-4q4 -8 4 -13l-4 -32q4 -8 4 -13h-4l8 -14l-4 -6q39 -215 60 -215h-5q41 -92 123 -123q35 -20 176 -37q4 0 5 4q8 0 16 -4q133 0 227 68q68 39 105 133l28 74q-2 6 -2 14 q14 23 23 78q-4 8 -4 10q0 31 6 31q0 4 -2 4q6 23 14 133q-4 18 -4 37q0 2 4 22q0 2 -4 2l4 21q0 2 -4 29q4 8 4 12h-4l4 6l-8 10q6 8 10 41q-2 20 -2 35v33q0 4 2 4q-2 6 -2 10t2 10q0 23 -10 23v8l8 -4v8q-4 10 -8 10l4 9v14q0 8 -4 14l4 8q-4 14 -10 25q2 8 2 12 q-6 0 -6 6t10 13q0 4 -4 4q0 4 4 10q-6 57 -6 129q-10 0 -21 150q-4 0 -6 32q21 29 60 29q18 -16 24 -33q10 0 17 -37q2 0 2 -4l-2 -37l2 -14l-2 -6q8 -27 20 -150l-2 -22q0 -18 6 -70h-4l8 -30q-4 -6 -4 -15q8 -29 8 -37v-61q0 -4 -4 -4l8 -27q-4 -41 -8 -41l4 -8 q0 -2 -4 -2q4 -41 8 -41l-4 -18v-68q0 -8 4 -14q-4 -6 -4 -15v-41q0 -74 -8 -73l4 -9l-4 -8q0 -6 4 -6q0 -8 -10 -86l2 -6q-23 -137 -78 -242q-94 -113 -180 -141q0 -14 -168 -43h-33q-4 0 -4 4q-2 0 -2 -4q-260 33 -260 55q-94 31 -158 150q-35 72 -63 227q4 6 4 17 q-8 0 -8 6z" />
<glyph unicode="k" horiz-adv-x="1075" d="M-31 1311q0 4 4 4l-4 24v15q4 0 21 22q4 0 12 13l8 -5l4 7q29 -2 64 -39v-4q0 -4 -4 -5q4 -12 8 -12l-4 -16l4 -17l-4 -8l10 -51q0 -2 -2 -2q0 -10 6 -49h-4q8 -23 8 -96v-64q0 -8 -4 -14q4 -6 4 -15v-81q0 -8 4 -15q-4 -8 -4 -14v-72q0 -4 -4 -4l4 -6v-72q0 -6 6 -6 q0 6 54 41q109 94 211 170q152 119 354 311q4 0 47 47q14 12 20 13q0 35 84 41q16 0 29 -45q0 -33 -57 -74q-279 -262 -324 -297q-37 -35 -117 -88l-206 -170v-4q88 -59 387 -299q8 0 184 -160q133 -86 182 -141l4 -19q0 -23 -36 -49h-27q-27 0 -96 64q-84 57 -217 182 l-220 176q-113 88 -159 131l-80 51q-8 -4 -13 -4q0 4 -4 4v-24l4 -21h-4q0 -4 4 -4l-4 -16v-4q0 -8 4 -17q-4 -6 -4 -12v-12q0 -12 4 -13l-4 -18q-2 -92 -2 -111l-4 -6q0 -4 4 -4l-4 -14q0 -8 4 -17q-4 -18 -4 -32v-11l4 -18h-4q0 -4 4 -4l-4 -27v-96q0 -8 4 -14 q-4 -6 -4 -15v-12l4 -18h-4l4 -7q-8 -53 -22 -53q0 4 -4 4q0 -10 -8 -10v2q-12 -6 -23 -6q-33 12 -47 33h-4v10q0 4 4 4l-4 8v88l-2 25q2 4 2 12l-2 8q2 6 2 17l-2 12h2q0 4 -2 4l2 21q8 217 8 270v2q0 4 2 4l-2 6v8l2 27l-6 2l4 8v4q0 98 -8 123q4 6 4 15v4q0 8 -4 14 q4 6 4 10q-4 8 -4 13h4l-4 8q4 6 4 10q-4 0 -4 2h4l-4 8v23q0 4 4 4l-4 6q0 4 4 4q-4 18 -6 19l2 26v56q0 4 4 4l-4 8v51l-2 23l2 6q-2 8 -2 12h2l-2 6v8q0 12 2 19l-2 22v2q0 20 2 35q-2 78 -19 176h4z" />
<glyph unicode="l" horiz-adv-x="940" d="M0 627q4 8 4 12q0 2 -4 2l4 18v86q0 8 -4 15q4 6 4 14v23q0 8 -4 14l4 8l-4 6q4 23 4 31q0 4 -4 4l4 19q2 190 2 194l4 8q-4 8 -4 13q0 2 4 2l-4 18v45q0 8 -2 15l6 32l-4 25q0 4 4 49l-4 8q0 96 35 96q18 1 18 9q35 0 60 -64q-8 -68 -8 -96l4 -6q-4 -8 -4 -13 q4 -59 4 -65l-4 -16q4 -10 8 -11l-4 -26v-33l4 -19l-8 -4q-4 -133 -5 -202v-86l5 -27h-5q0 -2 5 -2q-4 -37 -5 -55v-113l5 -16h-5l5 -9q4 -147 4 -170q0 -4 4 -12l-4 -20v-17q0 -82 8 -102l-4 -8l4 -6l-4 -9l10 -63l-2 -6q2 -8 2 -17h27q12 0 12 -4l16 4h90q4 0 5 -4l6 4h14 q4 0 4 -4q4 0 4 4q74 4 111 4h31q2 0 2 -4q4 0 4 4l127 -10l20 2q39 -2 60 -2q29 0 100 6v-4l8 4h14l23 -16q6 2 10 2q20 -27 27 -27q-8 -45 -19 -59l-8 4l-10 -6h-4q-4 0 -4 2q-41 -4 -107 -10l-22 4h-74q-4 0 -4 4l-6 -4h-8q-4 0 -5 4l-8 -4q-18 0 -65 6q-4 0 -4 -2l-19 2 h-45q-6 0 -14 4l-6 -4l-17 4q-6 -4 -10 -4t-4 4l-19 -4h-206q-29 0 -78 -2q-29 0 -45 51q-6 0 -19 27q0 53 -8 162h4q-4 8 -4 12q0 78 -2 350z" />
<glyph unicode="m" horiz-adv-x="1153" d="M-20 47v6q0 4 4 4l-4 9q4 20 4 28q0 4 -4 12q4 10 8 11q0 4 -4 4q4 39 8 49l-4 6q12 14 12 92v4q0 8 2 15q-2 8 -2 14v27q0 4 2 4l-2 8q16 84 29 207v8l-4 16h4q0 4 -4 4q8 29 8 70v27q0 8 4 14q-4 8 -4 12q0 10 6 29q0 4 -2 4l2 19v114q0 25 4 47q-4 14 -4 41v13 q0 8 4 14q0 4 -4 4l4 27v6l-4 22q4 14 8 15q-4 33 -8 32q4 18 10 132l-2 18q0 2 2 2l-2 27v41l2 22q0 4 -2 4l2 19v18q10 0 49 23h4q45 -37 48 -37q14 -39 108 -160q6 -2 55 -82q49 -59 217 -244q143 162 261 344q0 6 32 52q27 59 88 104q14 10 27 10q51 -23 51 -96 q4 0 12 -55h-4q6 -12 13 -105h-4l6 -32l-2 -7q2 -8 2 -12h-2l2 -6v-35q0 -8 4 -14q-4 -6 -4 -15q0 -8 4 -8l-4 -18v-23l4 -16h-4l4 -8q0 -4 -4 -4l4 -9v-10q0 -23 10 -155h-2l6 -29q-4 -35 -6 -35q0 -4 2 -4q0 -2 -2 -10l6 -51h-4l4 -9v-24q0 -10 4 -17q0 -4 -4 -4l4 -16 q0 -82 27 -381q-4 0 -4 -4q12 0 26 -141q-33 -41 -45 -41l-18 -4q-45 25 -45 57l-39 418q0 2 2 2l-2 18l2 27q-2 8 -2 10q0 4 2 4l-2 19v4q0 20 -8 106q0 4 4 12q-4 6 -4 11h4l-4 8v18q0 4 4 4q-4 4 -8 60h4q-4 8 -8 41h4l-4 6v14q0 4 4 4q-8 12 -9 19q-4 131 -4 178 q-2 6 -2 10h2l-2 8q0 4 2 4l-2 7q-4 98 -8 98l4 6q-8 16 -8 33h-6q0 -10 -64 -107l-86 -118q-57 -57 -96 -119q-8 0 -24 -33q-59 -68 -97 -68q-27 0 -133 142q-76 80 -155 174q-70 106 -89 127l-4 -37v-41q0 -16 4 -16l-4 -25v-168q0 -8 -4 -14q4 -6 4 -15h-4l4 -8l-4 -45 q0 -2 4 -2l-4 -14q-4 -84 -4 -127l-4 -15q0 -4 4 -4q-8 -66 -8 -118h-2l2 -7v-18q0 -4 -2 -4q0 -4 2 -4q-2 -68 -16 -166l2 -8l-2 -33q0 -12 2 -27q-2 -33 -2 -55v-27q0 -2 -5 -2l5 -8q-4 -14 -9 -14q0 -4 4 -4q-4 -55 -12 -64q8 0 8 -10l-4 -8l4 -6q-16 -57 -18 -58 q-31 -6 -37 -6h-35q-16 12 -32 41z" />
<glyph unicode="n" horiz-adv-x="933" d="M-20 47q12 113 32 215v86q0 8 4 14q-4 6 -4 15v4q8 8 13 47q0 4 -5 4l5 19v4q0 8 -5 14l13 23q4 141 10 163q-4 20 -4 29h4l-4 8v4q0 2 4 2l-4 9v4q0 4 4 4l-4 8v2q2 8 8 8q0 2 -4 2q6 109 6 201v74q0 8 4 14l-4 8q4 6 4 15l-4 8q12 37 12 119q0 4 5 4q0 2 -5 2 q8 41 9 86v51q0 4 4 4l-4 6v16q0 16 32 41h9q2 0 2 -4l8 4q100 -20 100 -49q6 0 92 -98q70 -96 166 -215q70 -111 189 -242v4q0 4 -2 4l2 19l-2 14h2l-2 8q-12 236 -13 351l4 18q-4 6 -4 19v45q0 8 -4 16l4 6q0 2 -4 23q0 4 4 10q-4 20 -4 35v6q22 59 49 59q59 -10 60 -51 l-4 -8q2 -23 8 -23l-4 -18v-23l4 -37h-4l4 -6l-4 -18q0 -4 4 -4l-4 -27v-24q0 -10 4 -17q-4 -6 -4 -14t4 -14l-4 -9q0 -4 4 -4l-4 -24q10 -174 10 -197q4 -6 4 -10h-4l4 -8q0 -4 -4 -4l4 -19v-55l4 -37h-4q10 -35 23 -170q0 -4 -4 -4l4 -19v-41l4 -36h-4l4 -9q0 -2 -4 -2 l4 -8q0 -4 -4 -4l14 -135l-4 -8l8 -88h-4q0 -4 4 -4l-4 -21q4 -6 4 -10h-4q4 -6 4 -10q2 -61 2 -68h-2q2 -6 6 -33h-4q8 -14 8 -22h-4l4 -6l-8 -13l4 -8q-8 -47 -20 -47h-82q-8 2 -15 18q6 27 7 52v8q0 111 -11 143l7 4q0 4 -3 4l3 19l-3 14h3q-2 10 -7 45l4 8q-8 29 -8 62 h4l-12 63l4 19q0 147 -24 147q-78 119 -78 123q-59 51 -109 129l-233 299q-72 100 -80 100q-8 -131 -19 -194q0 -4 3 -4l-3 -37v-45q0 -4 -4 -4l4 -6v-64q0 -8 3 -14q-10 -84 -11 -160q0 -4 -4 -10q4 -8 4 -17v-20q0 -4 -4 -4l4 -8v-11q0 -119 -14 -178q0 -4 2 -4l-2 -18 l2 -8q-2 -8 -14 -80l8 -4l-4 -19v-51l-4 -45q4 0 4 -4q-6 0 -27 -133q4 -14 4 -27l-4 -6l4 -8l-4 -6q4 -8 4 -13q-29 -45 -57 -45v4l-8 -4h-9q-35 20 -40 37z" />
<glyph unicode="o" horiz-adv-x="1110" d="M0 670l4 22q0 106 6 180q0 4 -4 5l4 18v27q0 4 4 4q0 2 -4 2q25 164 68 246l-4 6q35 109 104 163q51 63 92 66q2 0 23 8v-4q25 14 96 14q6 -4 10 -4q0 6 15 17q4 0 4 -4q14 2 14 8q4 0 12 -4q61 4 97 4h20q59 0 98 -31v4q55 -10 111 -51q66 -33 137 -178q29 -70 29 -76 q-4 -6 -4 -10q6 0 18 -60h-4q12 -35 17 -73h-5l5 -6v-9q0 -4 -5 -4l5 -8v-6q0 -4 -5 -4q4 -4 9 -41h-4l4 -6v-4l-4 -9q6 0 6 -8v-10h-6l4 -18q0 -4 -4 -5l4 -6v-12q0 -2 -4 -2l4 -8v-4q0 -4 -4 -4l4 -7v-4q0 -12 -4 -12l4 -18v-56h-9q0 -12 5 -18q-20 -137 -33 -197 q0 -2 2 -2q-6 -41 -10 -41q0 -4 4 -4q-37 -150 -64 -207q-47 -84 -69 -106q-109 -109 -211 -137q-29 -12 -78 -17q-16 4 -17 8q-2 0 -2 -4q-215 33 -215 56q-158 115 -202 270q-53 201 -64 297h2l-2 6v49q0 12 -4 19zM96 598q41 -233 84 -350q31 -59 90 -115q62 -67 146 -67 h2q0 -4 69 -11q80 0 205 107q68 76 84 137l8 4q-4 6 -4 10q14 45 19 49l-2 9q12 0 28 133q14 0 29 235l4 52q0 4 -4 12q4 25 4 41v41q0 4 4 4l-8 29l4 8q-4 33 -6 39l2 8l-2 22q2 0 2 4q-6 0 -6 7v16l4 6q-6 0 -31 105q-2 0 -59 102q-10 2 -19 22q-47 49 -170 78q-8 0 -8 8 l-6 -4q-23 2 -22 7q-4 0 -5 -3l-45 3h-24q-19 -11 -31 -11l-6 4q-164 -43 -164 -55q-12 0 -69 -72q-51 -125 -87 -276l5 -8q-2 -27 -7 -27q0 -2 2 -2q-2 -41 -6 -41q0 -4 4 -4l-4 -18v-60q0 -8 -4 -14q4 -6 4 -10l-4 -27q0 -4 4 -4l-4 -19v-84l4 -20h-4z" />
<glyph unicode="p" horiz-adv-x="925" d="M0 913q4 33 6 33q-2 6 -2 10l2 19q-2 12 -2 29h2l-2 6v80l-4 20q4 6 4 10l-4 23h4q0 4 -4 4q0 4 4 10l-4 33l4 12l-4 8q4 6 4 15q0 4 -4 12l4 20q0 8 -4 15q4 6 4 14t-4 14q0 4 4 5l-4 18v31q0 18 18 22q0 31 60 35q0 10 80 14q4 0 4 -4l39 9q6 -4 10 -5l22 5v-5l7 5h18 q51 0 90 -9l6 4l56 -10l6 2q162 -25 223 -82q78 -51 121 -139q8 0 24 -96h-4l4 -6v-47q0 -131 -139 -267q-66 -55 -147 -82q-84 -39 -265 -39l-8 5q-6 -4 -10 -5v5q-4 0 -4 -5l-96 11q0 -4 -4 -4l4 -7v-14q0 -10 -4 -10l4 -19v-38q0 -4 -4 -5l4 -8q0 -14 4 -159q0 -18 8 -19 l-4 -18q2 -168 10 -168q0 -4 -4 -11q4 -25 4 -40q0 -2 -4 -3l4 -8v-24q0 -25 6 -25l-2 -18v-31q-12 -25 -71 -41q-33 12 -33 45q-4 0 -4 4t4 4l-4 8v15q0 2 4 2l-4 8v80q0 6 -4 12q0 4 4 4l-4 19v4q0 4 4 4l-4 6q-6 131 -7 182v39l-4 23q0 4 4 4l-4 24v39l-4 19h4q0 4 -4 4 l4 16q0 8 -4 15l4 22q0 2 -4 2l4 19v8q0 10 -4 10l4 18v31q0 8 -4 17q4 6 4 14v2q0 8 -4 14l4 8q-4 6 -4 15q0 4 4 4l-4 6v29q0 55 -6 86l2 8q-2 4 -2 12q2 0 2 4zM100 1085l4 -6v-30q0 -6 2 -15q-2 -6 -2 -10q0 -10 2 -16q-2 -27 -2 -41v-11q0 -8 2 -14l-2 -6l2 -14 q0 -4 -2 -4q6 -37 7 -115v-39q0 -10 122 -19q236 16 236 35q129 49 129 90q41 37 84 154v29q0 8 2 14q-2 8 -2 12h2q-12 88 -53 140q-6 0 -29 24q-51 55 -196 82q-74 4 -119 14l-66 -8v4l-6 -4l-6 4q-8 -4 -14 -4v4l-9 -4h-53l-18 -2v2q-14 -2 -15 -20q0 -6 4 -6l-4 -19v-33 q0 -8 4 -14q-4 -6 -4 -14t4 -15q0 -8 -4 -8q4 -35 4 -51v-43q0 -4 -4 -4l4 -8v-6q0 -4 -4 -5z" />
<glyph unicode="q" horiz-adv-x="1173" d="M0 760q6 25 14 78h-4q8 47 13 47l-5 8q8 14 45 143l-4 8q72 223 115 244q63 92 148 123q0 8 67 27q2 0 2 -4l8 4h27q8 0 14 2q6 -2 11 -2q0 10 57 16h4l20 -4l9 4q6 -4 10 -4l4 8l100 -20q18 -2 93 -62q100 -82 145 -162q51 -86 84 -202q45 -174 45 -283v-41q0 -6 2 -14 q0 -2 -2 -2l2 -21v-41q0 -184 -20 -184l2 -18q-4 0 -15 -37l4 -6q-72 -201 -137 -256l-14 -17v-6q104 -147 123 -164q0 -6 28 -47q4 -6 4 -10h-4q10 -25 11 -35l-23 -29q-12 -12 -20 -12v4q-8 -4 -13 -4q-47 25 -96 105l-84 124q-6 4 -14 5q-4 -10 -133 -56l-9 4 q-14 -8 -41 -8h-49q-84 0 -98 12l-8 -4q-137 53 -211 121q-6 0 -78 94q-61 102 -78 189q-14 59 -37 184q-2 0 -8 14q0 4 4 5l-6 67h2l-2 6q-4 78 -4 109zM88 696q6 -18 12 -125q14 -59 33 -174q8 0 23 -86q82 -176 182 -221q98 -37 162 -37q8 2 12 2l12 -2q174 33 174 60 q8 0 9 4q-49 96 -138 190q-41 55 -41 64v4q25 45 58 45h12q25 -18 72 -86q80 -78 110 -148q47 45 86 148q47 121 47 192q0 4 -4 4l4 19v33q0 4 5 4l-5 8q4 14 9 14l-4 6v23q0 4 4 4q-8 20 -9 41h5l-5 6v72l-4 24h4q-20 176 -55 275q-74 160 -139 215q-91 65 -136 65h-1 q0 4 -13 4h-92q-160 -27 -207 -83q-80 -94 -106 -205l-60 -217l2 -9q-10 -51 -18 -114l4 -6q-4 -8 -4 -13z" />
<glyph unicode="r" horiz-adv-x="827" d="M0 1257l4 15q0 4 -4 4l4 18v4q0 10 -4 11q0 98 37 98q10 12 129 18l6 -2q4 0 4 2q195 -18 320 -61q92 -41 135 -162l20 -88q-2 -6 -2 -14l2 -6q-41 -188 -123 -265q-98 -92 -249 -129l-9 5q-39 -12 -55 -13v4q-4 -4 -16 -4l127 -123q172 -211 229 -305q145 -186 145 -209 v-16q-10 -31 -34 -39h-11q-4 0 -4 4q-12 -6 -20 -6q-12 2 -133 174q-164 233 -252 328q-86 88 -144 135v4h-8v-125l4 -18h-4l4 -9q0 -2 -4 -2l4 -8v-37q0 -4 -4 -4l4 -6v-27l-4 -43h4q-4 -25 -6 -24q0 -4 2 -4l-2 -27v-4q0 -10 2 -10l-2 -19v-79q0 -10 2 -17l-2 -6 q2 -63 10 -64q0 -4 -4 -10l4 -37q-12 -69 -50 -69h-1q-14 4 -20 18q-16 0 -17 8l4 7q-8 0 -8 8q4 8 4 10q-8 0 -8 6v27q0 12 -2 12l2 18v54l-2 18h2l-2 8v58q0 4 2 4q-2 8 -2 10q0 4 2 4l-2 19v40q0 4 2 5q0 4 -2 4q2 43 6 43q0 4 -4 4l4 18q0 4 -4 4l4 19v88q0 12 -4 33 q4 4 4 18l-4 6l4 8q0 2 -4 2l4 27v8q0 8 -4 15q4 8 4 12l-4 16l4 19q0 4 -4 4l4 24v111q0 14 -4 31q4 12 4 26v58l-4 24h4l-4 6q-6 219 -6 305zM80 1198l4 -6v-78l4 -20q0 -4 -4 -4l8 -56l-4 -8q4 -61 6 -70q0 -4 -2 -4l2 -34v-138q4 0 12 -2q154 0 256 56q111 45 162 159 q0 4 -4 4q23 37 33 88q0 104 -70 164q-129 59 -217 60q-57 14 -108 14l-8 -2q-6 2 -15 2h-14l-27 -2q0 2 -2 2q-8 -18 -8 -78v-8q0 -4 -4 -4l4 -8v-6q0 -4 -4 -5l4 -8v-4q0 -4 -4 -4z" />
<glyph unicode="s" horiz-adv-x="897" d="M0 360q25 29 41 29q59 -10 59 -57h-2q61 -182 152 -226q35 -16 180 -36q109 0 178 57q82 63 82 162q0 158 -90 260q-14 33 -104 90q-12 12 -134 84q-154 125 -192 209q-51 59 -76 180q4 0 4 4q-8 0 -8 6v29q0 8 -4 16q0 10 12 11l-8 10q0 94 94 168q14 31 174 100 q86 14 109 14v-4l6 4q113 -10 150 -32q102 -59 151 -166q4 -35 10 -66q-4 -6 -4 -14q4 0 4 -4q-23 -33 -43 -33q-47 0 -47 51q-23 74 -61 90q-35 47 -105 70q-12 0 -69 2q-109 0 -242 -119q-29 -49 -37 -100q8 -43 15 -66h-2q23 -70 106 -178q66 -70 141 -114q37 -25 95 -60 l112 -90q80 -88 117 -180q25 -102 24 -148v-22q0 -8 5 -15q-23 -121 -68 -165q-86 -96 -211 -123q-8 0 -47 -8v4l-8 -4h-25q-121 10 -141 22l-6 -4q-33 8 -92 33q0 -4 -2 -4q-61 39 -64 47q-78 78 -88 139q-6 0 -37 92v19z" />
<glyph unicode="t" horiz-adv-x="1060" d="M0 1389q20 22 49 24q8 0 14 -4q4 0 5 4l18 -4h31q10 0 16 4l6 -4q4 0 13 4l22 -4l19 4v-4q4 0 4 4q6 0 92 -10q6 4 10 4l18 -4q8 4 13 4v-4l8 4q66 2 84 2q82 -6 108 -6v-4q4 0 5 4l26 -4h14q4 0 31 8h72l22 2l39 -6l6 4q20 -4 23 -4l74 6q49 0 53 -43q2 0 2 -2v-4 q0 -8 -10 -8l4 -6l-8 -17q4 0 4 -4q-18 -2 -31 -12q-4 0 -4 4l-6 -4h-29q-14 0 -51 -23q-8 -4 -12 -4q-96 8 -136 8v2l-8 -2l-8 2q-4 0 -4 -2q-35 4 -45 6q-4 0 -4 -4l-19 4h-18q0 -4 -4 -10q18 -55 18 -73q-8 -23 -8 -29q8 -8 12 -70h-4q8 -12 9 -39q0 -4 -5 -4l5 -8 q0 -2 -5 -2l5 -8q0 -8 -5 -15q4 -25 5 -38q0 -14 -5 -21q8 -68 9 -147l-4 -15q0 -4 4 -4q-12 -49 -13 -178v-51q0 -8 4 -15q-4 -6 -4 -14v-37q0 -4 -4 -4l4 -6v-12l-4 -21q4 -8 4 -10l-4 -20q4 -6 4 -11h-4l4 -8q0 -6 -4 -12q4 -37 4 -60v-47q0 -4 -4 -4l4 -8q-4 -6 -4 -10 l4 -6q-4 -8 -4 -13l4 -16h-4l4 -8v-8q0 -2 -4 -2l4 -9v-37l4 -43h-4l4 -8q0 -53 9 -94q-4 -6 -4 -14h4q0 -31 -66 -47q0 8 -6 8q0 -12 -8 -12h-4q-10 0 -23 83h4l-4 9v100l-4 18h4l-4 9v24q0 8 -4 15l4 8q-4 25 -4 41v10q0 2 4 2q0 4 -4 4l4 37v14q0 25 -4 47q4 16 4 27 l-4 6l4 8q-4 6 -4 15q0 4 4 4l-4 8v39q0 35 4 61q-4 18 -4 52h4l-4 8v6q0 4 4 4l-4 6v84q0 4 4 4l-4 8v2q0 4 4 5q0 4 -4 4q2 20 8 20l-4 8q0 2 4 23q0 4 -4 4q8 37 8 80q-4 0 -4 4h4q-10 53 -22 352q-14 66 -21 66h-28q-10 0 -17 -4q-4 0 -4 4l-22 -4q-8 0 -154 8h-12 q-4 0 -4 4l-9 -4q-4 0 -4 4l-6 -4h-43q-8 0 -14 4q-6 -4 -15 -4q-47 23 -47 33q4 6 4 10l-8 -4q-6 12 -10 37z" />
<glyph unicode="u" horiz-adv-x="1103" d="M0 625q4 8 4 12q-4 6 -4 10h4q0 4 -4 4l4 19v14q0 8 -4 14q4 8 4 17v18q0 8 -4 15q4 6 4 14v22l-4 27q6 0 6 6q-2 8 -2 12h2q0 4 -2 5l2 24v45q0 8 -2 15q2 10 6 51q-4 8 -4 12l8 2l-8 21q8 16 8 32q-4 6 -4 11q4 0 13 12l-9 14q6 16 13 47l-4 8q0 4 4 5q0 4 -4 10 q4 41 4 71h4q-4 6 -4 11q6 70 10 69q0 4 -4 4q0 49 55 74h4q35 0 49 -41l-4 -6l4 -18q-8 -29 -8 -33t4 -4q-6 -68 -10 -68l2 -8v-10q0 -47 -6 -68q4 -10 6 -10q-4 -43 -10 -43q0 -4 4 -4l-4 -19q0 -18 -4 -114h-4l4 -8q0 -4 -4 -5l4 -6q0 -4 -4 -4l4 -8q0 -4 -4 -10 q4 -20 4 -33v-23q0 -4 -4 -4l4 -8q0 -4 -4 -4q0 -2 4 -2l-4 -14q0 -4 4 -13q-4 -20 -4 -32l4 -19h-4l4 -8q0 -2 -4 -2l4 -27v-8l-4 -22q0 -4 4 -4q0 -4 -4 -11q4 -51 8 -69l-4 -9q4 -74 14 -159h-2l14 -47l-4 -9q18 -88 51 -141q88 -113 170 -113q0 -6 45 -8q4 0 5 4l18 -4 h37q100 10 139 37q18 0 117 92q16 18 33 54q-4 0 -4 2q33 55 32 77l-4 9q4 14 8 14l-4 8q16 25 23 107q6 0 10 41q0 4 -2 4q10 57 18 129q-4 8 -4 12h4l-8 25l4 8q-4 6 -4 14h4q0 4 -4 4q4 25 8 33l-8 4q8 41 8 51l-4 8q0 4 4 5l-4 18v84q0 14 -4 41q4 6 4 10l-8 17 q0 4 4 10q-4 20 -4 28q0 4 4 13l-14 133l4 6q-4 8 -4 16q0 4 4 4q-18 72 -18 129v19q12 0 20 27q20 6 27 6q0 -4 4 -4q0 12 4 12q29 -16 47 -35v-2l-2 -8q6 0 6 -6v-4q0 -4 -4 -5q8 -66 14 -65l-2 -8v-27q0 -8 2 -14l-2 -8q2 -6 2 -15q-2 0 -2 -4q6 0 11 -28l-5 -21 q12 -139 17 -166h-4q4 -6 4 -10q-4 -6 -4 -10l6 -4l-2 -9v-10l2 -22q-2 -8 -2 -13l2 -6q-2 -8 -2 -14l6 -4q-8 -74 -14 -78q8 -2 8 -8v-37q0 -25 2 -47l-6 -60l4 -8l-17 -74q0 -4 5 -4q-14 -96 -29 -151q4 -6 4 -10q0 -39 -41 -138q0 -47 -109 -159q-137 -100 -225 -101 q-4 0 -10 -4q-4 0 -4 4q-31 -4 -55 -10l-9 4q-8 -4 -12 -4q-2 0 -2 4l-18 -4l-19 4q-8 -4 -12 -4v4q-2 0 -2 -4q-102 0 -211 78q-104 94 -141 293q0 31 -13 80h4l-4 8v28q0 20 -6 21q0 6 2 6q-2 43 -2 64v24z" />
<glyph unicode="v" horiz-adv-x="1107" d="M0 1319q0 4 4 4l-4 6v12q0 43 43 43q0 5 12 5q8 -2 8 -9l7 4h4q20 0 41 -61q0 -4 -4 -4q10 -16 30 -86q43 -113 92 -270q18 -25 97 -328h-4q41 -115 63 -242q2 0 2 -4h-2q23 -100 47 -176v-8h8q33 106 74 203l-4 8q55 127 145 385q59 133 60 166q8 0 14 37l84 239 q18 63 27 64l-4 8q12 14 12 22q-4 6 -4 11q8 18 47 36h12q8 0 15 -4q6 4 10 4l12 -14v-18q-8 -63 -35 -101l4 -8l-28 -61l4 -8q-53 -139 -119 -345q-10 -16 -47 -137q-6 0 -53 -121q0 -8 -64 -174q4 0 4 -4q-10 -8 -45 -114q-66 -203 -96 -259q-31 -31 -37 -30 q-59 0 -70 100q-63 209 -88 375l-110 414l-49 125h4q-23 51 -31 86l-37 79l4 9q-12 18 -45 122q-2 0 -10 19z" />
<glyph unicode="w" horiz-adv-x="1314" d="M0 1352q4 14 14 14h11q-1 23 24 43l17 -2q6 2 10 2q14 -4 14 -10q-4 0 -4 -4q6 -8 29 -76l-4 -8q8 -12 8 -19h-4q0 -4 18 -84h-4q6 -14 6 -28h-2q10 -29 27 -123l-2 -8q20 -61 30 -119q14 -41 31 -129q4 0 4 -2q0 -4 -4 -4q29 -109 60 -285h-5q6 -49 23 -86l-4 -8 q4 -6 4 -17h-4q27 -119 26 -166h5q29 121 59 207q14 33 25 84h4l-4 8q12 43 20 43v5l-6 10q6 4 10 4v4q0 8 -4 14q4 6 4 15l-4 8q4 0 10 8q0 4 -4 4q29 86 35 148q23 39 29 112q2 0 14 27h14l-4 6v10h6v-10h4q0 10 9 10q2 0 2 -4q29 4 28 12q23 0 45 -96q6 0 11 -28 q-4 0 -4 -5q6 -2 45 -104l82 -186q6 -27 6 -31h-4q43 -100 69 -195h4q20 141 29 142h2q0 4 -2 4q2 25 6 33q-4 6 -4 16v8q0 4 4 4l-4 8q10 31 14 33l-4 8q8 23 8 29q-4 6 -4 10q10 23 25 117h2q0 2 -2 2q6 55 14 74l-4 8q4 29 10 29q-4 8 -4 12l4 12l-4 8q12 37 15 37 q0 2 -2 2q6 33 6 41q-4 6 -4 11q10 4 10 8q-2 18 -2 22q6 12 6 21q0 4 -4 4q4 8 6 49v2h-2v-6h-6v8q0 8 6 8q0 -4 2 -4v8l-6 11q4 0 10 26v10h4v23q0 2 -4 2q8 51 19 78v4h-4v-8h-5v10l9 12l-4 19q6 0 10 10l-2 8v6q0 41 18 64v4q-6 0 -6 6l6 4q4 0 4 -4q35 14 45 14 q2 -8 8 -8q0 4 5 4q2 -6 2 -10h8v6h8q0 -6 8 -16q-8 -2 -8 -8q0 -4 4 -5q-4 -6 -4 -10l4 -8q-4 -6 -4 -10l4 -6l-16 -54l4 -6v-4q-8 -90 -15 -98l5 -6q-8 0 -15 -84h-4q0 -4 4 -4q-4 -55 -24 -158q0 -2 4 -2q-14 -137 -35 -215q0 -4 2 -4l-2 -19q0 -8 2 -8q-4 -37 -10 -43 q0 -4 4 -4q-6 -43 -10 -43q0 -2 4 -2l-29 -158q0 -16 -6 -24q0 -4 2 -4q-2 -27 -6 -27q0 -2 4 -2q-8 -98 -10 -98q0 -4 2 -4q-6 -66 -21 -95q0 -4 4 -4q-6 -39 -8 -45l4 -8q-8 -31 -20 -31q0 -31 -43 -43q0 -8 -11 -8q-41 10 -40 39q-8 0 -29 74h4q-51 207 -104 317 q-39 125 -111 291h-4q-4 -35 -15 -57q4 -8 5 -13q-6 -2 -25 -75l2 -9q-25 -70 -41 -168q-8 0 -39 -112q-6 0 -12 -53q2 0 2 -5q-4 -2 -27 -75q-25 -47 -59 -140q-10 -14 -41 -24h-12l-11 6h-2l-8 -2q0 2 -14 16q0 4 4 4q-8 31 -21 91h5q-14 78 -23 100l4 6q-10 27 -10 29 l4 8l-35 211l2 6q-20 98 -20 106q4 6 4 11q-6 0 -14 49q4 0 4 4q-10 0 -21 82q-10 20 -22 78h4q-25 84 -31 123h2q-27 72 -47 211h2l-16 67h4q-4 6 -9 37h5q-6 14 -25 115z" />
<glyph unicode="x" horiz-adv-x="1081" d="M-20 49q0 4 4 4l-4 6v4q41 53 137 234q55 72 55 88q109 164 205 330q-59 84 -250 393q-106 178 -107 197h5l-5 6l5 8q-10 0 -13 14l4 8q-4 6 -4 11q25 20 25 28h29l8 4l2 -6l8 2q12 -20 18 -20q20 0 101 -146q106 -180 143 -235q0 -8 35 -59q29 -57 61 -97h4 q121 209 179 287q12 12 61 100q6 0 82 95q43 80 88 88h18q53 -35 58 -52h-4l4 -8v-4q-37 -27 -90 -115q-25 -18 -133 -170q4 0 4 -4q-10 -10 -203 -321q133 -170 369 -582q6 0 57 -80q-4 -8 -4 -14q6 -2 6 -8l-6 -4q-8 4 -17 4l9 -12v-3q-4 -10 -50 -30q-49 0 -165 223 q-10 0 -111 180q-18 16 -106 166q-14 10 -37 53h-9q-14 -14 -49 -73q-35 -47 -84 -131l-166 -267q-51 -109 -94 -141l-6 4q-29 -6 -31 -6q-14 0 -24 33h4z" />
<glyph unicode="y" horiz-adv-x="1107" d="M0 1399q6 27 14 26h4q4 0 5 -4q6 4 10 4l14 -4q8 4 12 4l9 -12l6 4q31 -29 141 -207q27 -31 129 -196q47 -70 137 -221q6 0 51 77q96 137 187 304q27 25 121 202q8 0 41 64q12 22 18 22h4q4 0 4 -4l6 4h17q28 -30 28 -53q0 -10 -32 -66q0 -8 -49 -81q-104 -186 -195 -318 q-37 -74 -131 -205q-23 -43 -23 -77q0 -25 -4 -44l4 -8q-4 -14 -4 -24q0 -4 4 -4l-4 -21v-29q0 -4 -2 -4l2 -6v-14q0 -4 -2 -4q0 -4 2 -4l-2 -19v-73q0 -4 -4 -5l4 -8v-151q0 -8 2 -15q-2 -6 -2 -14v-10l2 -27h-2l2 -8q4 -70 4 -96h-4l4 -6q0 -63 -43 -64q0 -4 -4 -4 q-39 0 -41 70h4l-4 8v4q0 8 4 14q-4 6 -4 15v4q0 4 4 4q-4 8 -4 10q-8 176 -8 209v113q0 4 4 4q-4 8 -4 12q0 6 4 41l-4 6l4 23v4q0 8 -4 14l4 6l-4 25v2q0 4 4 4l-4 6q0 4 4 4l-4 8v41q0 16 4 41q-131 217 -219 340q0 12 -49 88l-121 174q-47 47 -47 105z" />
<glyph unicode="z" horiz-adv-x="1089" d="M0 66q18 39 51 84q18 39 68 110q0 12 98 150q41 68 145 198q72 96 101 150q16 12 74 110q39 45 174 252q84 100 88 129q37 45 49 68q-4 0 -4 2l-8 -2h-48q-12 0 -12 -4l-16 4h-109q-4 0 -4 2l-8 -2q-25 2 -29 2q-8 0 -8 -2l-37 2h-20q-72 0 -109 8q-35 -4 -65 -4h-23 l-26 -4v4q-8 -4 -41 -6v2l-7 -2q-4 0 -4 2q-4 0 -4 -2l-24 2h-27q-8 0 -14 -2q-70 0 -86 61v4q-1 36 69 52v-4l9 4q29 -6 45 -7q63 2 77 3q6 -2 11 -3l12 3q2 0 2 -3l68 7v-4q4 0 4 4q4 0 10 -4q14 0 65 4q16 0 82 -7q2 0 17 3l16 -3l8 3q23 -2 23 -7l6 4h20q20 0 52 3 q14 -6 28 -7h133q10 0 17 4q6 -4 10 -4l8 4q23 -4 43 -22q18 -6 19 -19q0 -4 -6 -36q6 -12 6 -23l-6 -4q0 -4 4 -4q0 -25 -68 -111q0 -16 -96 -133q0 -6 -64 -92q0 -8 -47 -78q-43 -76 -90 -129q0 -10 -153 -233q-25 -20 -82 -115q-29 -33 -86 -115q4 0 4 -4 q-18 -14 -47 -65q-29 -29 -60 -105q-10 0 -18 -33q6 -4 10 -4q6 4 10 4v-4q4 0 4 4q8 0 9 -4q2 0 49 4q88 -4 102 -4l8 4l6 -4l9 4l8 -4l6 4q14 -4 14 -8q10 2 45 8l9 -4q2 0 2 4q43 -8 81 -8l33 4v-4l8 4h15q8 -2 8 -8l6 4q86 4 86 8q14 -4 14 -8l9 4h24q4 0 4 -4l9 4h88 l45 4v-4q4 0 4 4l24 -4h27q37 -20 41 -36v-5q-6 -55 -31 -55q0 -4 -2 -10l-18 4h-8l-19 -4v4l-6 -4q-4 0 -4 4l-8 -4q-20 4 -23 4q-6 0 -6 -4l-27 4h-45q-8 0 -14 -4l-6 4l-21 -4l-6 4q-8 -4 -10 -4l-8 4q-6 -4 -17 -4h-2q-4 0 -4 4l-8 -4h-2q-4 0 -4 4l-8 -4h-60l-18 -4v4 l-6 -4h-31q-8 0 -14 -4q-12 4 -13 8q-6 -4 -10 -4q-47 0 -143 4l-8 -4l-9 4q-6 0 -6 -4l-141 8q-27 -6 -27 -12q-6 4 -10 4q-6 -4 -10 -4v4q-20 -6 -21 -12q-14 8 -39 8q-4 0 -12 -4q-6 4 -14 4q-4 0 -10 -4q-6 0 -37 26q-10 0 -31 56z" />
<glyph unicode="{" horiz-adv-x="544" d="M0 723v8l4 6h-4q0 20 18 37q111 51 111 60q29 0 45 110q-4 0 -4 4q4 6 4 17q0 8 -4 14l8 27h-4q0 6 6 24q0 4 -2 12q2 37 2 60v69q0 84 35 162q31 94 125 142h18q27 0 82 4l52 -54q0 -39 -93 -39q0 2 -4 3q-29 -12 -47 -29q-31 -25 -51 -141h2q-2 -43 -6 -48h4 q0 -8 -4 -16q0 -4 4 -10q-4 -68 -4 -115v-4l-4 -18q4 0 4 -2q-8 -88 -23 -150q-41 -94 -106 -129q23 -31 51 -115l-4 -8q6 0 10 -37q-4 0 -4 -4q4 0 8 -33q-4 -6 -4 -10l4 -8l-4 -6q4 0 4 -4q0 -25 -4 -56q0 -4 4 -12l-4 -20v-41l4 -27q-4 0 -4 -4t4 -10q0 -4 -4 -13 q29 -225 49 -225q0 -37 119 -55q0 4 2 4q0 -8 12 -8q16 -29 23 -29q0 -4 -4 -4q0 -6 6 -18q-35 -33 -57 -33q-68 8 -68 14q-76 0 -102 43q-45 47 -72 195q4 0 4 2q-4 0 -4 4v4q0 33 -6 63l4 7q-8 33 -8 73q0 4 4 13l-8 4l4 16v37l4 8h-4q0 12 4 19l-8 53q4 0 4 4 q-8 90 -15 90l2 8h-2q-12 49 -61 88l-6 -2h-4q-14 6 -33 29z" />
<glyph unicode="|" horiz-adv-x="204" d="M2 80l4 10q-2 10 -2 14l4 11q-4 10 -4 16l4 10q-4 8 -2 21h4l-4 8l2 98q2 20 -2 41q4 18 6 39v31q0 12 -2 20l4 11q0 6 -4 6l4 24l-2 27h2l-2 8q0 6 4 6l-4 11v30q0 4 4 4q-2 10 -2 17q-2 190 0 227l-4 27l4 10q-2 61 -4 70q0 6 2 6v100l4 143l-2 31q4 8 4 25l-2 24h4 l-4 11q0 6 4 6l-4 10v14q2 66 -8 103q4 10 6 20l-4 21h4q-6 18 -6 55v14q2 12 4 23q-2 10 -4 76l4 10l-2 30l41 23h23q16 0 28 -109v-34l7 -17v-4q0 -10 -5 -20l5 -11q0 -4 -5 -4l13 -219l-4 -10l2 -31v-10q0 -4 -4 -4l4 -10l-2 -52q0 -6 -4 -4l4 -12l-2 -14q0 -4 -2 -4 l2 -11l-2 -51q-4 -137 2 -329h-5l5 -11v-10q-2 -4 -5 -4l3 -12v-45l2 -35h-5l5 -10q0 -6 -5 -7l3 -10q0 -4 -3 -4l3 -10l-9 -295l2 -62h-4l2 -10l-2 -65q0 -18 4 -45l-4 -11q4 -195 13 -301q-4 -10 -5 -14l5 -10q-10 -35 -29 -49h-29q-4 0 -4 6l-6 -6q-16 2 -33 47v35 q0 12 -2 20l4 10l-8 154q2 4 4 4q-4 55 -2 154q4 0 4 4q-8 0 -8 10z" />
<glyph unicode="}" horiz-adv-x="593" d="M0 1425l51 54q55 -4 82 -4h19q96 -47 127 -142q33 -78 32 -162v-69q0 -23 4 -60q-4 -8 -4 -12q6 -18 6 -24h-2l7 -27q-4 -6 -5 -14q0 -10 5 -17q0 -4 -5 -4q18 -111 45 -110q0 -8 111 -60q18 -16 19 -37h-5l5 -6v-8q-18 -23 -33 -29h-4l-6 2q-49 -39 -60 -88h-4l4 -8 q-8 0 -14 -90q0 -4 2 -4l-6 -53q4 -6 4 -19h-4l4 -8v-37l2 -16l-6 -4q4 -8 4 -13q0 -41 -8 -73l4 -7q-8 -31 -9 -63v-4q0 -4 -4 -4q0 -2 4 -2q-27 -147 -69 -195q-29 -43 -105 -43q0 -6 -65 -14q-25 0 -60 33q6 12 7 18q-2 0 -2 4q4 0 20 29q12 0 12 8q4 0 4 -4 q117 18 117 55q20 0 49 225q-4 8 -4 13q4 6 4 10t-4 4l4 27v41l-4 20q4 8 4 12q-4 31 -4 56q0 4 4 4l-4 6l4 8q0 4 -4 10q4 33 8 33q0 4 -4 4q4 37 11 37l-2 8q27 84 51 115q-68 35 -109 129q-14 61 -20 150q0 2 4 2l-4 18v4q0 47 -4 115q4 6 4 10q-4 8 -4 16h4q-4 4 -8 48 h4q-23 117 -54 141q-18 16 -47 29q-4 0 -4 -3q-92 0 -92 39z" />
<glyph unicode="~" horiz-adv-x="778" d="M0 588h4l-4 6v41q6 12 14 59q43 78 90 101q29 16 43 16q4 0 5 -2l8 2h18q78 0 221 -172q39 -23 50 -23h10q49 25 49 33q8 23 14 23l-4 8v2q0 4 4 4q-4 8 -8 49q4 0 4 2q-6 0 -6 8h2l-2 9v4l39 51q6 2 10 2q49 -4 49 -25q4 -8 4 -12q-4 -6 -4 -10q6 0 13 -10v-4 q0 -10 -9 -23l4 -18q0 -115 -110 -185v4q-33 -18 -49 -18q-6 2 -15 2q-8 -2 -12 -2v2l-6 -2q-106 45 -123 84q-8 0 -86 92q-31 31 -76 31q-63 -43 -63 -119q4 -14 4 -33q-2 0 -23 -22h-32l-9 4q0 -4 -4 -4q0 4 -4 4l4 6q-14 16 -14 35z" />
<glyph unicode="&#xa1;" horiz-adv-x="276" d="M0 1294v4q0 4 4 5l-4 6v4q0 42 55 69q8 -2 13 -2l6 2q37 -16 49 -55v-6h-4l8 -18q-10 -33 -31 -46h-10q-63 0 -86 37zM6 987h4l-4 8v6q0 4 4 5l-4 8v8q0 2 4 2q0 4 -4 4l4 19v36l4 9l-8 4q8 8 12 73q23 33 70 33l41 -33l-2 -8l6 -10l-4 -8l4 -6q-10 -59 -10 -72l4 -14 q-4 -6 -4 -15q0 -4 4 -4l-4 -18q0 -98 33 -363l-4 -8l8 -47q0 -4 -4 -4l12 -84h-4l4 -8v-117q0 -2 -4 -2l4 -8q-4 -70 -4 -97q0 -4 4 -10q-4 -6 -4 -14v-39l4 -20l-4 -9l4 -8q0 -6 -4 -14q6 -70 10 -152q-16 -41 -51 -41q0 8 -8 8l-11 -8h-8q-29 4 -28 33v31q0 20 -5 59 q0 4 5 4l-5 19v28q0 20 -4 54q0 2 4 2l-4 18v23q0 8 4 16q-4 41 -8 41l4 16v105q0 8 -4 14q0 4 4 4l-12 121h4q-4 8 -8 41l4 8l-6 49h2l-12 97h2l-2 6v26l-21 158h4q-2 10 -8 45z" />
<glyph unicode="&#xa2;" horiz-adv-x="1138" d="M0 598l4 8q-4 8 -4 12q0 25 6 25q0 4 -2 4l2 19v49q0 240 162 506q143 166 283 165q31 4 30 9l19 -4h45h10v2l41 127q35 18 35 28h28q4 0 5 -4l8 4h6q37 -27 37 -63q0 -12 -35 -113q23 -6 43 -10q14 -14 74 -41q25 -25 24 -27v-41q-12 -18 -28 -18v4l-9 -4h-4 q-53 37 -131 51q-25 -74 -49 -199l-281 -964q119 -76 242 -76q162 0 287 170q8 0 22 16q10 -4 11 -8l8 4h14l6 -4q0 4 4 4l17 -18q-4 -6 -4 -14q6 0 6 -13l-2 -8q2 -6 2 -10q-86 -111 -139 -137q-66 -39 -95 -39q-14 -12 -88 -21v4l-8 -4h-37q-106 12 -116 21l-9 -4 q-84 25 -141 57q-10 -35 -16 -35l4 -20q-16 -51 -56 -51v4l-8 -4h-4q-49 29 -49 67q12 39 20 39q0 4 -4 4q11 37 21 72q-12 8 -33 24q-160 197 -160 334q-8 33 -14 121zM96 592q0 -41 8 -72h-4q6 -55 15 -84h-4q20 -109 120 -231q63 221 86 272q0 6 -4 6q29 94 29 101 q-4 0 -4 4q6 0 16 59q10 18 15 19l-4 8q14 53 20 53l-4 8q25 76 80 277q24 55 69 286h-6q-12 -4 -24 -4v4q-53 0 -148 -41q-111 -88 -119 -129q-92 -154 -92 -206q-27 -86 -35 -138q-2 0 -2 -4v-32q0 -4 -4 -5l4 -8q-8 -78 -8 -92q0 -8 4 -14q-4 -20 -4 -33v-4z" />
<glyph unicode="&#xa3;" horiz-adv-x="911" d="M-90 659v9q4 0 18 18q14 0 45 19l37 -5q29 0 105 5l-4 18v27q0 10 4 10l-4 18v45q0 29 4 70q-4 6 -4 10h4q0 4 -4 4q4 74 6 78l-2 8l2 6q0 4 -2 5q2 41 6 40l-4 9q18 152 26 151q0 2 -4 2q6 37 23 62q-4 0 -4 2q10 0 18 35q86 135 270 135q12 0 25 -6l8 4 q68 -12 160 -101h4l-4 -18q14 -6 14 -27v-12q-23 -33 -45 -33l-16 -4q-80 98 -191 98h-10q-29 -8 -31 -8v4q-80 -27 -116 -77q-23 -33 -41 -156h-4q0 -4 4 -4q-8 -47 -8 -78l4 -6q-4 -8 -9 -35q0 -8 5 -14q-4 -31 -5 -52v-18q0 -8 -2 -14q2 -8 2 -17v-28q0 -4 -2 -4 q2 -25 7 -25l-5 -21v-28l5 -19h-5q0 -4 5 -4l-5 -18v-4q78 -6 109 -6q2 0 2 4l21 -4h24q20 0 51 -4q8 4 17 4v-4q4 0 4 4q31 -4 47 -4q4 0 10 4q29 -4 37 -9l20 5q31 -4 37 -5l27 9q53 -14 53 -31v-6q-12 -12 -16 -45l-37 -13l-8 4l-8 -4q-20 4 -29 4q-12 0 -19 -4 q-27 4 -40 4h-33q-4 0 -4 5q-8 -4 -13 -5l-8 5q-6 -4 -10 -5v5l-6 -5q-35 4 -41 5l-23 -5q-20 4 -32 5l-23 -5q-14 4 -27 5q-14 0 -32 -5q-20 4 -41 5v-15q0 -43 8 -59l-4 -8q8 -41 8 -60h-4q4 -6 6 -43l-2 -14q6 -35 6 -49h-4l4 -8v-15l4 -37h-4q0 -4 4 -4 q-10 -129 -41 -194q-4 0 -4 -4v-4q37 -4 37 -9q4 0 4 4q41 -8 164 -14q18 4 29 4l14 -4q14 4 27 4v-4l8 4l24 -4l33 4q12 0 19 -4q39 4 61 4h113q10 0 16 2q41 0 41 -69q-14 -27 -41 -33q0 -4 -4 -4l-35 4l-16 -4l-8 4l-19 -4q-39 4 -45 8q-6 -4 -43 -8l-8 4l-23 -4h-26 q-2 0 -2 4l-9 -4l-26 4l-6 -4q-8 4 -17 4h-4q-8 0 -12 -4q-8 4 -16 4q-6 -4 -11 -4v4l-8 -4h-4q-2 0 -2 4q-8 -4 -12 -4q-47 2 -47 8l-9 -4q-8 0 -14 4q-6 -4 -14 -4q-61 8 -90 14q-4 0 -5 -4l-18 4h-55q-8 0 -15 -4q-8 4 -12 4l-24 -4q-41 0 -41 64q31 53 55 53 q23 37 45 92q0 2 -4 2l10 45q0 4 -4 4l8 37q-4 18 -4 37q0 12 4 18l-8 47l4 9q-6 43 -6 53l2 6q-2 6 -2 10h2q-2 6 -6 45h4q-2 6 -8 52h4q-6 18 -6 45h-4q-33 -8 -74 -11v2q-6 -4 -37 -6v4l-57 -12q-33 25 -33 59z" />
<glyph unicode="&#xa4;" horiz-adv-x="714" d="M0 918q0 4 4 4l-4 18q0 41 18 41q5 0 13 4q18 -4 28 -10l9 4q63 -74 75 -105h4q0 10 115 41v-4l8 4q33 0 82 -26h6q0 16 86 86q6 4 19 4q45 -20 45 -39v-6q0 -39 -82 -119h-4v-4q29 -47 29 -66v-12q0 -4 -2 -4q0 -4 2 -4l-2 -16q0 -14 2 -21q-2 -31 -19 -61l76 -101 l4 -18q-8 -27 -27 -51v-4h-12q-39 0 -70 61l-22 23q-59 -55 -123 -56v4l-6 -4q-29 0 -100 31q-66 -82 -89 -82q-27 0 -49 51v17l9 10h-9v6q82 78 82 86q-14 27 -33 115q12 55 29 92q-12 0 -65 74q-6 0 -17 14v4l4 8q-14 0 -14 11zM147 705q35 -119 78 -119q80 0 129 92 q12 41 13 47q-4 8 -5 12q4 0 5 4q-12 0 -13 7v8l4 8q-6 0 -28 33q-41 14 -68 14q-102 -27 -102 -78q-9 1 -13 -28z" />
<glyph unicode="&#xa5;" horiz-adv-x="1032" d="M0 1399q6 27 14 26h4q4 0 5 -4q6 4 10 4l14 -4q8 4 12 4l9 -12l6 4q31 -29 141 -207q27 -31 129 -196q47 -70 137 -221q6 0 51 77q96 137 187 304q27 25 121 202q8 0 41 64q12 23 18 22h4q4 0 4 -4l6 4h17q29 -31 28 -55q0 -8 -32 -64q0 -8 -49 -81q-104 -186 -195 -318 q-25 -47 -72 -119q2 2 4 2t2 -4l9 4h37v-4l4 4h16l8 -4q4 4 10 4h2q2 0 7 -4l4 4l2 -4q2 0 2 4l8 -4q14 4 18 4v-4q6 8 13 8h6q6 0 10 -45h2q0 -39 -14 -47q-2 0 -2 -4l-13 4h-32q-2 0 -2 2l-4 -2h-13q-4 0 -6 2q-4 -2 -6 -2t-6 2q-2 0 -2 -2l-8 2l-9 -2q-4 2 -6 2l-6 -2 q-4 0 -4 2l-20 -2h-7q-16 0 -45 2q-2 -2 -6 -2q-4 2 -6 2l-2 -2q-2 0 -2 2l-2 -2q-23 -43 -23 -77q0 -25 -4 -44l2 -2h35q4 0 4 -4l6 4h33l25 -4q6 4 16 4h4q8 0 17 -4l6 4l8 -4q2 0 2 4l16 -4q33 4 41 4v-4q12 6 29 6h10q16 0 27 -43h4q0 -41 -33 -49q-4 0 -4 -4l-27 4h-73 q-4 0 -4 4l-6 -4h-27q-8 0 -14 4q-6 -4 -17 -4q-4 0 -10 4q-2 0 -2 -4l-21 4l-16 -4q-8 4 -12 4l-15 -4q-4 0 -6 2l2 -6v-14q0 -4 -2 -4q0 -4 2 -4l-2 -19v-73q0 -4 -4 -5l4 -8v-151q0 -8 2 -15q-2 -6 -2 -14v-10l2 -27h-2l2 -8q4 -70 4 -96h-4l4 -6q0 -63 -43 -64 q0 -4 -4 -4q-39 0 -41 70h4l-4 8v4q0 8 4 14q-4 6 -4 15v4q0 4 4 4q-4 8 -4 10q-8 176 -8 209v113q0 4 4 4q-4 8 -4 12q0 6 4 41l-4 6l2 12q-29 2 -69 4q-6 -4 -15 -4q-8 4 -10 4l-8 -4q-4 0 -4 4l-70 -8q-68 12 -68 37q0 18 41 41q0 12 9 12l8 -4q2 0 2 4q4 0 10 -4 q94 8 168 8l4 -2v37q0 16 4 41q-14 25 -28 47h-13q-2 0 -2 2l-4 -2h-12q-4 0 -6 2q-4 -2 -9 -2q-2 0 -6 2v-2l-10 2l-8 -2q-4 2 -6 2l-6 -2q-4 0 -4 2l-23 -2h-6q-16 0 -45 2q-4 -2 -8 -2q-4 2 -7 2l-2 -2q-2 0 -2 2l-34 -6q-31 10 -31 37q0 16 18 41q0 10 4 10l4 -4 q2 0 3 4l4 -4q45 8 79 8q2 0 13 -4q2 4 4 4t2 -4l8 4h39v-4l4 4h6q-76 123 -135 205q0 12 -49 88l-121 174q-47 47 -47 105z" />
<glyph unicode="&#xa6;" horiz-adv-x="247" d="M0 -47l4 27v73q0 4 2 4l-2 6v27q0 8 2 14q-2 6 -2 17q0 4 2 10q0 2 -2 2l2 21l-2 16q2 8 2 12l-2 15q0 8 2 8l-2 45v14q0 35 2 96q-2 6 -2 15q2 8 2 10l-2 8q0 4 2 4l-6 70q10 68 37 68q16 0 41 -41q10 0 10 -9l-2 -6q0 -4 2 -4q0 -4 -2 -10q6 -94 6 -168q0 -2 -4 -23 q4 -6 4 -10t-4 -4l4 -18v-78q0 -4 -4 -4l4 -6v-33l-4 -25q4 -6 4 -16v-4q0 -8 -4 -17l4 -6l-4 -8q0 -2 4 -2l-4 -16q4 -33 4 -41h-4q8 -13 8 -29v-10q0 -16 -45 -27v-4q-39 0 -47 33q0 4 -4 4zM0 948l4 27v74q0 4 2 4l-2 6v26q0 8 2 15q-2 6 -2 14q0 4 2 12q0 2 -2 2l2 21 l-2 16q2 8 2 13l-2 14q0 8 2 8l-2 43v17q0 33 2 96q-2 6 -2 14q2 6 2 10l-2 9q0 4 2 4l-6 69q10 68 37 68q16 0 41 -41q10 0 10 -8l-2 -6q0 -4 2 -5q0 -4 -2 -12q6 -92 6 -166q0 -4 -4 -22q4 -6 4 -10t-4 -5l4 -18v-78q0 -4 -4 -4l4 -6v-35l-4 -22q4 -6 4 -19v-4 q0 -6 -4 -14l4 -6l-4 -9q0 -4 4 -4l-4 -14q4 -33 4 -41h-4q8 -13 8 -29v-12q0 -14 -45 -25v-4q-39 0 -47 33q0 4 -4 4z" />
<glyph unicode="&#xa7;" horiz-adv-x="667" d="M-35 -47q16 23 29 22q47 -6 49 -43h-2q53 -135 123 -163q29 -10 139 -23q82 4 133 51q61 49 58 123q-6 123 -78 197q-12 25 -82 65q-10 8 -107 58q-94 70 -133 122h-2v3q-10 16 -16 28q-43 43 -66 135q2 0 2 4q-4 -2 -6 5v22q0 6 -4 10v11l2 6q-2 72 68 131q8 25 129 82 q63 14 82 16v-4l4 4q36 -2 63 -6q-18 14 -47 31q-8 10 -104 57q-121 90 -154 154q-43 45 -63 135q2 0 2 4q-6 0 -7 4l-2 23q0 6 -2 12q0 8 9 8l-7 6q-4 74 66 131q8 25 129 82q66 16 82 17v-3l4 3q86 -4 117 -21q80 -41 121 -121q4 -27 10 -49q-2 -4 -2 -10q2 0 4 -4 q-18 -27 -33 -27q-37 -2 -39 39q-20 55 -49 66q-31 35 -82 49h-53q-82 -4 -180 -101q-20 -39 -25 -77q6 -33 14 -50h-4q20 -53 90 -131q51 -51 111 -84q29 -16 74 -41l90 -63q63 -66 92 -133q23 -78 25 -113l2 -16q0 -6 2 -13q-10 -92 -45 -129q-61 -76 -156 -102 q-6 0 -37 -4v2l-4 -4h-20q-33 0 -58 2q33 -25 66 -41q29 -18 73 -41l89 -66q63 -66 94 -135q23 -78 24 -110v-19q0 -6 4 -10q-12 -92 -47 -129q-59 -76 -153 -100q-8 0 -37 -9v5l-6 -5h-19q-92 2 -108 11l-6 -2q-25 6 -70 20q0 -2 -2 -2q-47 29 -49 35q-61 55 -74 100 q-4 0 -31 72v12zM76 559q6 -33 12 -49h-2q14 -37 51 -86q33 -8 135 -21q84 4 136 52q59 49 57 123q-2 35 -10 65q-18 37 -39 45q-31 35 -82 49h-53q-84 -4 -181 -98q-20 -41 -24 -80z" />
<glyph unicode="&#xa8;" horiz-adv-x="614" d="M-8 1317l4 6q-4 6 -4 16q49 59 86 60h14q59 -18 60 -49q8 0 8 -33h-4l4 -8q0 -31 -68 -60h-14q-41 0 -82 54q0 8 -4 14zM295 1335q0 41 61 64h29q37 -18 61 -62l-4 -16v-27q-31 -49 -67 -49q-76 10 -76 76q-4 0 -4 14z" />
<glyph unicode="&#xa9;" horiz-adv-x="1673" />
<glyph unicode="&#xaa;" horiz-adv-x="647" />
<glyph unicode="&#xab;" horiz-adv-x="911" d="M0 641v23q0 4 4 4l-4 6v4q0 31 51 59q4 0 137 121q8 0 123 76q4 0 4 -4l19 4h24q33 -18 33 -60q-23 -29 -147 -104q-37 -39 -111 -88v-4q76 -33 303 -119q23 -23 23 -29l-4 -8q4 -6 4 -14v-4q-33 -35 -41 -37q-23 0 -162 55q-217 78 -252 115q-4 0 -4 4zM346 672v20 q0 4 4 4l-4 9v4q0 31 53 59q4 0 138 121q5 0 120 74q4 0 5 -2l18 2h27q33 -18 32 -60q-23 -29 -147 -102q-39 -39 -113 -88v-4q76 -33 305 -119q23 -25 23 -31l-4 -6q4 -6 4 -14v-4q-35 -37 -41 -37q-23 0 -164 55q-217 78 -252 115q-4 0 -4 4z" />
<glyph unicode="&#xac;" horiz-adv-x="1116" d="M0 655v7q0 41 27 49q18 18 32 18h4q4 0 5 -4l6 4q45 -4 45 -8l8 4l14 -4l6 4l9 -4q8 4 12 4l12 -4q8 4 13 4v-4q4 0 4 4l18 -4q2 0 2 4l21 -4h143q25 0 74 4v-4l8 4q2 0 22 -4l7 4q4 0 4 -4l36 4h29l21 4v-4q6 4 10 4q45 0 67 6q2 0 3 -4q68 6 73 8l8 -4q20 4 29 4v-4 l8 4q4 0 4 -4q8 4 13 4q23 0 121 4q39 0 49 -125h-4q4 -8 4 -12l-4 -24q0 -4 4 -4q-10 -86 -13 -97q0 -4 4 -4l-4 -26v-25l4 -23q-4 -8 -4 -12q4 -18 4 -37q-43 -37 -86 -37q-25 20 -24 41l4 9q0 4 -4 4q4 25 6 32q-2 6 -2 15v8q0 2 2 2q0 4 -2 4l2 17q0 45 8 133q0 2 -4 2 l4 22q0 4 -4 37l-414 -18h-49l-37 -4v4l-6 -4h-18q-4 0 -4 4l-8 -4h-125q-4 0 -4 4q-4 0 -5 -4l-36 4h-60q-8 0 -14 -4q-6 4 -15 4q-4 0 -12 -4q-47 4 -47 30q-4 0 -4 4z" />
<glyph unicode="&#xad;" horiz-adv-x="669" d="M0 674q0 16 41 41q0 10 6 10l8 -4q4 0 4 4q4 0 11 -4q94 8 168 8q2 0 20 -4q8 4 12 4t4 -4l19 4h78q4 0 4 -4l6 4h33l22 -4q6 4 19 4h4q8 0 14 -4l8 4l6 -4q4 0 5 4l16 -4q33 4 41 4v-4q13 6 29 6h10q14 0 26 -43h4q0 -41 -32 -49q-4 0 -4 -2l-27 2h-74q-4 0 -4 4l-8 -4 h-25q-8 0 -16 4q-4 -4 -14 -4q-4 0 -11 4q-4 0 -4 -4l-18 4l-19 -4q-8 4 -10 4l-14 -4q-8 0 -8 4l-45 -4h-15q-35 0 -96 4q-6 -4 -14 -4q-8 4 -13 4l-6 -4q-4 0 -4 4l-69 -6q-68 10 -68 37z" />
<glyph unicode="&#xae;" horiz-adv-x="1673" />
<glyph unicode="&#xaf;" horiz-adv-x="1187" d="M0 1333q0 35 23 41q0 4 32 27q20 -4 31 -4q6 4 10 4v-4l8 4q10 0 11 -4q41 4 53 8q2 0 2 -4l86 6v-2q6 2 10 2q8 0 8 -2l25 2h86l23 4q4 0 4 -4l16 4h4l23 -4l8 4q4 0 10 -4q8 0 41 4q51 -4 64 -4l24 4l8 -4q8 4 13 4q4 0 32 -6q6 2 15 2v-2l8 2h24q8 0 17 -2l6 2 q27 -2 27 -6l18 4h74q4 0 4 -4l18 6q4 0 4 -2l19 2h10q20 0 33 -2l86 6q37 -6 37 -37q2 -8 8 -8q0 -23 -21 -33q0 4 -2 4l-4 -8q4 0 4 -4q-23 -10 -36 -10l-27 4q-6 -4 -10 -4q-20 4 -21 8q-12 -8 -28 -8h-46q-2 0 -2 4l-8 -4h-45q-4 0 -4 4l-37 -8q-10 4 -10 8l-6 -4h-27 q-8 0 -14 -4l-8 4l-9 -4q-14 4 -14 8q-4 0 -4 -4l-25 4h-12q-8 0 -14 -4q-6 4 -15 4h-20q-6 0 -12 -4q-25 4 -25 8l-6 -4q-4 0 -4 4l-19 -4h-63q-2 0 -2 4q-8 -4 -12 -4q-18 0 -64 -4l-16 4q-4 0 -4 -4l-19 4h-4q-8 0 -14 -4q-4 0 -4 4l-23 -4l-33 4q-8 -4 -12 -4v4 q-4 -4 -55 -8q-12 4 -14 4l-41 -8l-9 4q-27 -6 -51 -6l-6 2q0 -6 -8 -7l-8 5q-2 0 -2 -5q-43 0 -68 33z" />
<glyph unicode="&#xb0;" horiz-adv-x="417" d="M0 1325v10q18 55 37 64q74 70 137 69q0 5 4 5q53 0 115 -82q0 -12 4 -33q0 -80 -76 -137q-14 -6 -24 -7l-17 3l-6 -3q-4 0 -4 3l-18 -3h-11l-8 3q0 -6 -6 -7h-8q-119 35 -119 115zM100 1321q33 -27 47 -27q39 0 46 64q0 18 -19 31q-11 -1 -27 -13q0 4 -4 4 q-39 -45 -43 -45v-14z" />
<glyph unicode="&#xb1;" d="M-14 764v4q0 18 53 63q10 -4 10 -8l6 4l17 -4q4 0 4 4l16 -4h49q4 0 4 -4q6 4 11 4q27 -4 30 -4q4 0 4 4l19 -4h20q0 37 -6 88h4q-4 4 -8 45h4l-4 9v24q0 4 4 4l-4 8v4q0 14 33 52v-9h4q0 23 18 23q33 0 41 -66h-4l4 -8v-4q0 -4 -4 -4l4 -6v-4q0 -8 -4 -14q4 -8 4 -13h-4 l4 -6v-18q0 -20 9 -45h-5q4 -8 7 -56h4l26 4v-4q6 4 11 4q4 0 4 -4q33 6 170 11v-3l53 11q25 -18 33 -37l-4 -8l4 -19q0 -12 -19 -33l-8 5q-2 0 -22 -5l-19 5l-6 -5q-4 0 -4 5l-19 -5h-26q-12 0 -33 -4q-6 4 -10 4l-25 -4v4q-12 -8 -39 -8h-26q-8 0 -15 -2q-8 2 -12 2 q-6 -2 -10 -2l14 -200q0 -6 -22 -33l-7 4h-4l-14 -12q-6 0 -55 32l4 9v16l-4 16h4l-4 8v87q0 55 -13 69l-43 4q-8 -4 -16 -4v4q-4 0 -4 -4l-16 4h-58q-4 0 -4 2q-16 -2 -16 -6q-59 6 -72 19q0 -4 -4 -5zM0 373q0 16 41 41q0 12 6 12l8 -4q4 0 4 4q4 0 11 -4q94 6 168 6 q2 0 20 -2q8 2 12 2t4 -2l19 2h78q4 0 4 -2l6 2h33l22 -2q6 2 19 2h4q8 0 14 -2l8 2l6 -2q4 0 5 2l16 -2q33 2 41 2v-2q13 6 29 6h10q14 0 26 -45h4q0 -39 -32 -47q-4 0 -4 -4l-27 4h-74q-4 0 -4 2l-8 -2h-25q-8 0 -16 2q-4 -2 -14 -2q-4 0 -11 2q-4 0 -4 -2l-18 2l-19 -2 q-8 2 -10 2l-14 -2q-8 0 -8 2l-45 -2h-15q-35 0 -96 2q-6 -2 -14 -2q-8 2 -13 2l-6 -2q-4 0 -4 2l-69 -6q-68 10 -68 37z" />
<glyph unicode="&#xb2;" />
<glyph unicode="&#xb3;" />
<glyph unicode="&#xb4;" horiz-adv-x="466" d="M0 1417v4q0 29 43 64q0 2 4 2h27q84 -86 233 -207q14 -29 15 -33q0 -39 -52 -49q0 4 -4 4q0 -8 -8 -8h-6q-23 0 -35 27q-6 0 -98 77q-82 57 -119 119z" />
<glyph unicode="&#xb5;" horiz-adv-x="1179" />
<glyph unicode="&#xb6;" horiz-adv-x="940" d="M0 983h2l-2 6q0 4 2 4l-2 25v6q0 8 2 14q-2 6 -2 15q0 86 90 227q4 0 66 66q100 61 192 71q55 18 107 21q8 -2 10 -2q25 2 31 6l8 -4q71 4 71 14q20 -2 21 -6l6 4q8 -2 8 -8l6 4h50q137 -8 137 -41q8 0 10 -29l-14 -151q4 -6 4 -15q-4 -10 -6 -10q0 -4 2 -4 q-2 -51 -2 -76v-2l2 -24h-2l2 -7v-10q0 -18 -2 -49q0 -4 2 -4q-2 -14 -6 -78q0 -4 4 -4l-4 -16v-41l4 -23q0 -4 -4 -4l4 -33v-39q0 -8 2 -14l-2 -6l2 -21q0 -6 -2 -6l2 -24v-60q0 -2 -2 -2l2 -8l-2 -6q0 -4 2 -4l-2 -17v-24q0 -14 -4 -39q0 -2 4 -2l-4 -16v-35q0 -4 -5 -4 l9 -31l-9 -61l5 -23l-5 -12l5 -19l-5 -6l5 -16l-5 -8q4 -6 5 -15v-2q0 -4 -5 -4l5 -6v-45q0 -4 -5 -4l5 -6q0 -4 -5 -4l5 -7v-8q0 -2 -5 -2l5 -6l-5 -14l5 -9l-5 -16q4 -6 5 -10l-5 -6q4 -8 5 -15v-4q0 -4 -5 -4l5 -6v-86q0 -14 -5 -39q4 -4 5 -20l-15 -17h-6l-6 2 q0 -2 -4 -10q-25 0 -45 33q-4 0 -10 12l4 14q0 4 -4 5l4 16q0 57 6 96q-6 0 -6 8v93l2 20q-2 6 -2 14l2 21l-6 65q0 4 4 4q0 2 -4 11q4 49 4 82v34q0 4 2 5l-2 6v10q0 8 2 14q-2 6 -2 10q2 6 2 11l-6 4l4 6v45q0 2 2 2l-2 8v6q0 14 2 39q0 2 -2 2l2 19v22l-31 -6q-6 4 -14 4 h-11l-10 -8l-10 8h-10v-4q0 -10 4 -10l-6 -121l2 -6l-2 -21q0 -12 2 -18q-2 -29 -6 -131h-5l5 -6v-2q0 -4 -5 -4q4 -8 5 -11q0 -25 -9 -24l4 -6v-45q0 -4 -4 -4q0 -4 4 -5l-6 -57q2 -14 2 -29q0 -8 -2 -26q0 -4 2 -4l-2 -17v-24q0 -18 2 -51h-2q2 -6 6 -35q-6 -2 -6 -6 q2 -8 2 -13l-16 -14h-25q-2 0 -2 4l-8 -4q-10 2 -26 49l4 25v24q0 2 2 2l-2 9v10q0 4 2 4q0 4 -2 4l2 16q0 12 -2 31l2 6l-2 15l2 41q0 4 -2 4l6 67l-4 8q10 94 10 168l4 9q-4 6 -4 14v12q0 8 4 14l-4 7q0 4 4 4q0 4 -4 10l4 35l-4 6l4 6l-4 8q4 6 4 15l-4 6q4 6 4 10l-4 6 q4 6 4 14l-4 15q4 6 4 16h-14q-10 0 -11 -4l-18 4h-33q-8 0 -14 -4q-6 4 -47 8q-4 0 -4 -4q-63 0 -213 45q-127 55 -176 137q-10 27 -11 35h2q-10 33 -16 76zM76 993q27 -123 55 -123q72 -66 207 -86l16 -8l23 4h2q6 -2 6 -8q8 4 10 4q31 -2 31 -6l8 2h31q4 0 4 -2l6 2 l14 -2l7 2q14 -2 14 -6l31 6q8 -2 10 -2l4 6q0 2 -4 21q4 8 4 12l-4 6q4 6 4 12q0 4 -4 13l4 18q0 4 -4 4l4 19v37q0 16 -4 34q4 14 4 29l-4 16q4 14 4 25q0 2 -4 10q4 6 4 10q-4 6 -4 11h4l-4 6v14q0 8 4 14q-4 6 -4 15v16q0 2 4 2l-4 8v17q0 29 -10 131h4q-4 8 -6 35h2 q0 4 -2 4l2 16v10q0 8 -2 15q2 6 2 10h-2l-15 -2q-4 0 -12 2q-121 -8 -203 -31q-100 -31 -172 -125q-57 -90 -57 -163q-4 -15 -4 -33q4 -6 4 -10q-4 -6 -4 -11zM616 1372q2 -6 9 -6q0 -2 -4 -14l4 -15q0 -2 -4 -10l14 -137l-4 -6l4 -8q0 -2 -4 -2q4 -59 6 -66l-2 -21v-14 l2 -20l-2 -6l2 -9q-2 -25 -2 -41q0 -4 2 -4l-2 -16v-137q0 -14 -4 -31q4 -6 4 -14h-4l4 -9v-2l-4 -8h4q6 0 12 4q6 -4 10 -4q8 4 11 4v-4l8 4h37q0 8 -2 15l2 6q-2 8 -2 10q0 4 2 4q-4 47 -6 57q4 6 4 19l-4 20l4 17q0 4 -4 10q4 35 6 35l-2 8v6q0 10 2 10l-2 15q2 41 2 61 h4q-2 14 -6 14l2 17v35q0 14 4 37q-4 6 -4 14q4 10 8 10l-4 6q8 78 8 113h2q0 2 -2 2q2 10 2 47q-2 0 -29 4q-6 0 -12 -4q-18 4 -31 4h-39z" />
<glyph unicode="&#xb7;" horiz-adv-x="256" d="M-8 694l4 8q-4 6 -4 15q49 59 86 59h14q59 -18 60 -49q8 0 8 -33h-4l4 -8q0 -31 -68 -57h-14q-41 0 -82 51q0 8 -4 14z" />
<glyph unicode="&#xb8;" horiz-adv-x="1024" />
<glyph unicode="&#xb9;" />
<glyph unicode="&#xba;" horiz-adv-x="466" d="M-14 1309v12q16 61 34 72q70 80 132 80q0 4 4 4q51 0 108 -93q0 -16 4 -38q0 -92 -69 -154q-16 -10 -27 -10l-12 4l-8 -4q-4 0 -5 4l-16 -4h-10l-8 4q0 -8 -7 -8h-8q-113 41 -112 131zM82 1305q33 -29 45 -29q37 0 43 70q0 23 -18 34q-9 0 -25 -14q0 6 -4 6 q-37 -51 -41 -51v-16z" />
<glyph unicode="&#xbb;" horiz-adv-x="940" d="M0 807v6q0 4 4 4l-4 6q15 35 68 35q80 -27 294 -110l29 -13q0 4 4 4q0 -4 78 -37q0 -10 12 -18l-4 -8q8 0 11 -33q-186 -152 -359 -240q0 -6 -27 -20q-35 8 -55 31q0 4 -4 12l4 6l-4 8q0 33 80 66q117 70 190 127l23 20q-2 0 -2 4l-8 -4q-16 0 -189 82q-35 4 -35 13 q-2 0 -2 -5q-104 14 -104 64zM360 846v8q0 2 5 2l-5 8q17 33 68 33q82 -25 297 -111l29 -10q0 2 4 2q0 -4 78 -37q0 -8 10 -16l-4 -8q8 0 12 -35q-186 -152 -360 -240q0 -6 -25 -18q-37 6 -55 31q0 4 -4 10l4 6l-4 8q0 33 77 68q117 68 193 125l20 22q-2 0 -2 4l-8 -4 q-14 0 -188 82q-33 4 -33 10q-4 0 -4 -4q-104 16 -105 64z" />
<glyph unicode="&#xbc;" horiz-adv-x="1708" />
<glyph unicode="&#xbd;" horiz-adv-x="1964" />
<glyph unicode="&#xbe;" horiz-adv-x="1708" />
<glyph unicode="&#xbf;" horiz-adv-x="933" d="M-20 258h4l-4 8v8q0 2 4 2q0 4 -4 5l4 18q0 8 -4 14q8 57 12 58l-4 6q12 45 22 67q-4 0 -4 5q4 0 41 96q49 78 88 110q0 4 64 60q16 14 41 28q37 39 129 93q100 70 100 77q70 96 70 160q-4 6 -4 10h4q-10 33 -11 50h2l-10 20l4 8h-4l4 8q-12 14 -12 23q4 6 4 10l-6 4 q4 14 10 15l-4 8q8 18 12 18l-4 6q0 15 37 31q70 -20 70 -82q6 0 10 -41l-6 -18q10 0 14 -70h-4q4 -6 4 -10q-4 -41 -10 -41l2 -8v-8q-23 -45 -33 -70q-53 -104 -137 -148l-190 -133q-145 -125 -160 -206q-14 -18 -41 -127q0 -4 4 -5l-4 -18v-61q12 -82 51 -127 q94 -111 242 -111l8 4q2 0 2 -4q33 4 41 6l6 -2q117 20 154 55q80 86 98 197q4 0 4 2q0 4 -4 12q4 27 8 27l-4 6q4 10 8 10q6 -2 11 -2v23q2 6 8 6q8 -2 12 -2q2 10 20 10q45 -41 54 -67q-12 -12 -41 -138l-37 -65q-72 -109 -160 -146q-68 -18 -207 -32l-8 4q-4 0 -4 -4 q-27 4 -37 8q-6 -4 -10 -4q-127 29 -170 78q-59 41 -92 104q-53 80 -53 172zM502 1386q0 35 22 68l6 -4l35 8q66 -47 66 -72q0 -6 -6 -6l4 -8v-4q-35 -33 -74 -47h-8q-6 0 -35 29q4 0 4 4q-10 0 -14 32z" />
<glyph unicode="&#xc0;" horiz-adv-x="1071" d="M0 18v19q6 61 33 100l-2 6l28 64l-4 8q51 139 119 344q10 16 47 137q6 0 53 121q0 8 64 174q-4 0 -4 4q8 8 43 115q92 285 123 285q4 0 12 4q57 0 70 -101q61 -209 88 -372l110 -414l49 -127h-4q20 -51 29 -86l39 -82l-4 -6q12 -18 43 -123q4 0 12 -18q0 -2 -4 -2l4 -9 v-22l-4 -6q4 0 4 -4q-16 -23 -55 -27q-8 0 -8 6l-9 -2h-2q-37 23 -36 59q-4 0 -5 5q0 2 5 2q-12 23 -86 245q-55 145 -82 250h-41q-10 0 -11 -4l-18 4h-45q-8 0 -14 -4q-6 4 -15 4h-30q-12 0 -19 -4l-22 4h-39q-10 0 -17 -4q-14 4 -14 8l-6 -4q-4 0 -4 4l-9 -4q-4 0 -4 4 l-6 -4h-14q-4 0 -4 4l-8 -4q-49 8 -52 8q0 -10 -45 -124l-88 -271q-33 -90 -41 -96l4 -8q-12 -14 -12 -23q4 -6 4 -10q-10 -16 -49 -37h-10q-8 0 -14 2q-8 -2 -13 -2zM219 1706v4q0 31 45 64q0 4 4 4h27q84 -88 231 -207q16 -29 17 -35q0 -37 -54 -47q0 4 -4 4q0 -8 -6 -8 h-8q-20 0 -33 26q-8 0 -100 78q-82 55 -119 117zM307 655h4q4 0 4 4l25 -4q16 0 22 4q25 -4 41 -4h105l16 4v-4l8 4h50q4 0 4 3q37 -2 37 -7q6 4 14 4q-4 25 -23 97h4q-41 113 -63 239q-4 0 -4 4h4q-23 100 -47 179v6h-8q-35 -106 -74 -203l2 -8q-53 -133 -121 -318z" />
<glyph unicode="&#xc1;" horiz-adv-x="1050" d="M0 18v19q6 61 33 100l-2 6l28 64l-4 8q51 139 119 344q10 16 47 137q6 0 53 121q0 8 64 174q-4 0 -4 4q8 8 43 115q92 285 123 285q4 0 12 4q57 0 70 -101q61 -209 88 -372l110 -414l49 -127h-4q20 -51 29 -86l39 -82l-4 -6q12 -18 43 -123q4 0 12 -18q0 -2 -4 -2l4 -9 v-22l-4 -6q4 0 4 -4q-16 -23 -55 -27q-8 0 -8 6l-9 -2h-2q-37 23 -36 59q-4 0 -5 5q0 2 5 2q-12 23 -86 245q-55 145 -82 250h-41q-10 0 -11 -4l-18 4h-45q-8 0 -14 -4q-6 4 -15 4h-30q-12 0 -19 -4l-22 4h-39q-10 0 -17 -4q-14 4 -14 8l-6 -4q-4 0 -4 4l-9 -4q-4 0 -4 4 l-6 -4h-14q-4 0 -4 4l-8 -4q-49 8 -52 8q0 -10 -45 -124l-88 -271q-33 -90 -41 -96l4 -8q-12 -14 -12 -23q4 -6 4 -10q-10 -16 -49 -37h-10q-8 0 -14 2q-8 -2 -13 -2zM307 655h4q4 0 4 4l25 -4q16 0 22 4q25 -4 41 -4h105l16 4v-4l8 4h50q4 0 4 3q37 -2 37 -7q6 4 14 4 q-4 25 -23 97h4q-41 113 -63 239q-4 0 -4 4h4q-23 100 -47 179v6h-8q-35 -106 -74 -203l2 -8q-53 -133 -121 -318zM520 1536q0 6 15 35q150 119 233 207h27q4 0 4 -4q43 -33 43 -64v-4q-35 -61 -117 -117q-94 -78 -100 -78q-12 -27 -35 -26h-6q-8 0 -9 8q-4 0 -4 -4 q-51 10 -51 47z" />
<glyph unicode="&#xc2;" horiz-adv-x="1058" d="M0 18v19q6 61 33 100l-2 6l28 64l-4 8q51 139 119 344q10 16 47 137q6 0 53 121q0 8 64 174q-4 0 -4 4q8 8 43 115q92 285 123 285q4 0 12 4q57 0 70 -101q61 -209 88 -372l110 -414l49 -127h-4q20 -51 29 -86l39 -82l-4 -6q12 -18 43 -123q4 0 12 -18q0 -2 -4 -2l4 -9 v-22l-4 -6q4 0 4 -4q-16 -23 -55 -27q-8 0 -8 6l-9 -2h-2q-37 23 -36 59q-4 0 -5 5q0 2 5 2q-12 23 -86 245q-55 145 -82 250h-41q-10 0 -11 -4l-18 4h-45q-8 0 -14 -4q-6 4 -15 4h-30q-12 0 -19 -4l-22 4h-39q-10 0 -17 -4q-14 4 -14 8l-6 -4q-4 0 -4 4l-9 -4q-4 0 -4 4 l-6 -4h-14q-4 0 -4 4l-8 -4q-49 8 -52 8q0 -10 -45 -124l-88 -271q-33 -90 -41 -96l4 -8q-12 -14 -12 -23q4 -6 4 -10q-10 -16 -49 -37h-10q-8 0 -14 2q-8 -2 -13 -2zM307 655h4q4 0 4 4l25 -4q16 0 22 4q25 -4 41 -4h105l16 4v-4l8 4h50q4 0 4 3q37 -2 37 -7q6 4 14 4 q-4 25 -23 97h4q-41 113 -63 239q-4 0 -4 4h4q-23 100 -47 179v6h-8q-35 -106 -74 -203l2 -8q-53 -133 -121 -318zM319 1501v15q31 55 74 174q10 0 31 59q25 14 45 14h2q4 0 4 -2l8 2q66 -39 140 -143q53 -70 53 -78t6 -18v-27q-14 -20 -33 -29q-4 0 -4 5l-6 -5h-8 q-4 0 -4 5l-6 -5q-4 0 -5 5l-8 -5q-10 0 -10 19l-8 -4q-47 88 -111 147q-10 -14 -49 -133q-14 -31 -37 -47l-6 2l-10 -6q-57 6 -58 55z" />
<glyph unicode="&#xc3;" horiz-adv-x="1064" d="M0 18v19q6 61 33 100l-2 6l28 64l-4 8q51 139 119 344q10 16 47 137q6 0 53 121q0 8 64 174q-4 0 -4 4q8 8 43 115q92 285 123 285q4 0 12 4q57 0 70 -101q61 -209 88 -372l110 -414l49 -127h-4q20 -51 29 -86l39 -82l-4 -6q12 -18 43 -123q4 0 12 -18q0 -2 -4 -2l4 -9 v-22l-4 -6q4 0 4 -4q-16 -23 -55 -27q-8 0 -8 6l-9 -2h-2q-37 23 -36 59q-4 0 -5 5q0 2 5 2q-12 23 -86 245q-55 145 -82 250h-41q-10 0 -11 -4l-18 4h-45q-8 0 -14 -4q-6 4 -15 4h-30q-12 0 -19 -4l-22 4h-39q-10 0 -17 -4q-14 4 -14 8l-6 -4q-4 0 -4 4l-9 -4q-4 0 -4 4 l-6 -4h-14q-4 0 -4 4l-8 -4q-49 8 -52 8q0 -10 -45 -124l-88 -271q-33 -90 -41 -96l4 -8q-12 -14 -12 -23q4 -6 4 -10q-10 -16 -49 -37h-10q-8 0 -14 2q-8 -2 -13 -2zM238 1538h4l-4 8v39q6 14 14 57q41 76 86 99q29 16 43 16q4 0 4 -4l6 4h19q76 0 215 -168q37 -20 47 -20 h10q45 23 45 30q10 23 14 23l-2 6v4q0 4 2 4q-2 8 -6 45q4 0 4 5q-8 0 -8 8h4l-4 6v4l39 49q8 4 12 4q45 -6 45 -24q4 -8 4 -11q-4 -8 -4 -12q6 0 13 -10v-2q0 -10 -9 -23l5 -18q0 -111 -109 -178v4q-31 -18 -45 -19q-6 4 -14 4q-8 -4 -11 -4v4l-8 -4q-102 45 -119 82 q-8 0 -81 90q-29 27 -74 27q-61 -39 -62 -113q4 -14 4 -32q-2 0 -22 -23h-33l-6 4q0 -4 -4 -4q0 4 -2 4l2 8q-14 16 -14 31zM307 655h4q4 0 4 4l25 -4q16 0 22 4q25 -4 41 -4h105l16 4v-4l8 4h50q4 0 4 3q37 -2 37 -7q6 4 14 4q-4 25 -23 97h4q-41 113 -63 239q-4 0 -4 4h4 q-23 100 -47 179v6h-8q-35 -106 -74 -203l2 -8q-53 -133 -121 -318z" />
<glyph unicode="&#xc4;" horiz-adv-x="1024" d="M0 18v19q6 61 33 100l-2 6l28 64l-4 8q51 139 119 344q10 16 47 137q6 0 53 121q0 8 64 174q-4 0 -4 4q8 8 43 115q92 285 123 285q4 0 12 4q57 0 70 -101q61 -209 88 -372l110 -414l49 -127h-4q20 -51 29 -86l39 -82l-4 -6q12 -18 43 -123q4 0 12 -18q0 -2 -4 -2l4 -9 v-22l-4 -6q4 0 4 -4q-16 -23 -55 -27q-8 0 -8 6l-9 -2h-2q-37 23 -36 59q-4 0 -5 5q0 2 5 2q-12 23 -86 245q-55 145 -82 250h-41q-10 0 -11 -4l-18 4h-45q-8 0 -14 -4q-6 4 -15 4h-30q-12 0 -19 -4l-22 4h-39q-10 0 -17 -4q-14 4 -14 8l-6 -4q-4 0 -4 4l-9 -4q-4 0 -4 4 l-6 -4h-14q-4 0 -4 4l-8 -4q-49 8 -52 8q0 -10 -45 -124l-88 -271q-33 -90 -41 -96l4 -8q-12 -14 -12 -23q4 -6 4 -10q-10 -16 -49 -37h-10q-8 0 -14 2q-8 -2 -13 -2zM274 1550l5 6q-4 6 -5 17q49 57 86 57h15q59 -16 59 -47q8 0 8 -33h-4l4 -8q0 -31 -67 -59h-15 q-41 0 -81 53q-1 6 -5 14zM307 655h4q4 0 4 4l25 -4q16 0 22 4q25 -4 41 -4h105l16 4v-4l8 4h50q4 0 4 3q37 -2 37 -7q6 4 14 4q-4 25 -23 97h4q-41 113 -63 239q-4 0 -4 4h4q-23 100 -47 179v6h-8q-35 -106 -74 -203l2 -8q-53 -133 -121 -318zM578 1569q0 41 61 61h31 q35 -16 59 -59l-4 -19v-24q-31 -49 -68 -49q-76 10 -75 73q-4 1 -4 17z" />
<glyph unicode="&#xc5;" horiz-adv-x="1077" d="M0 18v19q6 61 33 100l-2 6l28 64l-4 8q51 139 119 344q10 16 47 137q6 0 53 121q0 8 64 174q-4 0 -4 4q8 8 43 115q92 285 123 285q4 0 12 4q57 0 70 -101q61 -209 88 -372l110 -414l49 -127h-4q20 -51 29 -86l39 -82l-4 -6q12 -18 43 -123q4 0 12 -18q0 -2 -4 -2l4 -9 v-22l-4 -6q4 0 4 -4q-16 -23 -55 -27q-8 0 -8 6l-9 -2h-2q-37 23 -36 59q-4 0 -5 5q0 2 5 2q-12 23 -86 245q-55 145 -82 250h-41q-10 0 -11 -4l-18 4h-45q-8 0 -14 -4q-6 4 -15 4h-30q-12 0 -19 -4l-22 4h-39q-10 0 -17 -4q-14 4 -14 8l-6 -4q-4 0 -4 4l-9 -4q-4 0 -4 4 l-6 -4h-14q-4 0 -4 4l-8 -4q-49 8 -52 8q0 -10 -45 -124l-88 -271q-33 -90 -41 -96l4 -8q-12 -14 -12 -23q4 -6 4 -10q-10 -16 -49 -37h-10q-8 0 -14 2q-8 -2 -13 -2zM307 655h4q4 0 4 4l25 -4q16 0 22 4q25 -4 41 -4h105l16 4v-4l8 4h50q4 0 4 3q37 -2 37 -7q6 4 14 4 q-4 25 -23 97h4q-41 113 -63 239q-4 0 -4 4h4q-23 100 -47 179v6h-8q-35 -106 -74 -203l2 -8q-53 -133 -121 -318zM356 1587v15q16 61 35 71q70 78 131 78q0 6 2 6q53 0 111 -94q0 -14 4 -37q0 -92 -72 -156q-14 -8 -24 -8l-15 4l-6 -4q-4 0 -4 4l-16 -4h-13l-6 4 q0 -8 -8 -8h-6q-113 41 -113 129zM451 1583q33 -29 47 -29q37 0 41 72q0 23 -17 35q-10 0 -24 -14q0 6 -4 6q-39 -51 -43 -51v-19z" />
<glyph unicode="&#xc6;" horiz-adv-x="1351" d="M0 35v14q78 197 184 526q10 12 113 291q172 403 195 441l-5 8q10 29 41 41q16 18 60 18h4q6 -2 6 -8l39 8l6 -4l8 4q6 -4 11 -4l8 4q4 0 4 -4q49 8 139 8h45q4 0 4 -4l8 4q2 0 2 -4l9 4h37q12 0 12 2l16 -2h45l23 2q37 -2 37 -6l8 4h37q51 -20 51 -37v-18l-47 -45l-21 2 l-16 -2q-39 2 -39 6l-6 -4h-60q-8 0 -14 4q-6 -4 -14 -4q-4 0 -4 4l-8 -4q-4 0 -5 4l-18 -4h-66l-18 -2v2l-8 -2h-31q-66 0 -129 -8l-6 4q-8 -4 -12 -4q14 -106 14 -185l4 -8l-4 -8q0 -14 4 -20q-4 -49 -4 -78v-115q0 -14 4 -31q-4 -14 -4 -28v-29q0 -16 4 -31 q-4 -14 -4 -28v-41q0 -8 4 -17q-4 -6 -4 -12q14 -8 31 -8h8q6 0 14 4l6 -4q8 4 17 4v-4l8 4q6 0 12 -4l8 4l19 -4l26 4l15 -4l22 4q2 0 15 -4q6 4 14 4v-4l8 4q2 0 23 -4l8 4q4 -4 14 -4q18 0 19 8l18 -4q20 0 25 4q20 -4 35 -4h28l8 -4q0 4 2 4q37 -25 37 -45v-8 q-25 -43 -75 -43h-31q-8 0 -15 -4q-37 4 -36 6l-9 -2h-6q-4 0 -4 2l-8 -2h-18q-8 0 -15 2q-6 -2 -14 -2h-4q-4 0 -4 2l-6 -2h-68q-8 0 -14 -4q-6 4 -17 4h-24l-37 -4v4q-31 -6 -31 -17v-10q0 -18 4 -37l-4 -22q0 -4 4 -4l-4 -19v-37q0 -8 4 -14q-4 -6 -4 -14v-5q2 -8 8 -8 l-4 -8q0 -6 4 -14q-4 -6 -4 -11l8 -4q0 -8 -4 -8l8 -88q-4 -12 -4 -33l4 -8l-4 -8q4 -6 4 -10l-4 -6q6 -16 7 -41l-3 -9l80 -14l9 4l14 -4q4 0 10 4q20 -4 35 -4h14q12 0 13 4l18 -4h51q8 0 15 4l8 -4q6 4 14 4q4 0 4 -4l6 4h33l21 2v-2l6 2h4q70 0 123 13l4 -9l6 4h22 q39 -31 41 -45q-23 -43 -41 -43q0 -8 -22 -8q-63 0 -170 -14q-6 4 -10 4t-31 -4q-4 0 -4 4l-25 -4h-100q-8 0 -14 -4q-8 4 -17 4h-6l-18 -4v4q-4 0 -4 -4l-142 14l-8 -4q-39 20 -39 35q-4 0 -4 4v14q0 27 -6 41q0 43 12 43v21q0 72 -6 96q0 2 4 2l-4 37v72l-4 24h4l-4 8v11 q0 4 4 4l-4 8v10q0 4 4 4l-4 6v35q0 14 -2 39q2 8 2 12q-8 6 -33 13l-6 -4h-12q-14 0 -33 4q-8 -4 -12 -4l-6 4q-8 -4 -17 -4q-4 0 -4 4q-166 -10 -166 -21q0 -14 -55 -162q-4 0 -23 -55l-92 -270q-4 -4 -18 -33q-14 0 -15 -4q-59 0 -59 41zM307 627h4q39 0 117 8l8 -4 q27 4 41 4h55q4 0 5 -4q8 4 12 4v6q0 8 -4 14q4 6 4 17q0 10 -4 10l4 27v88l-4 26h4l-4 6v19q0 4 4 4l-4 8v6q0 39 4 82l-4 27l4 18q0 2 -4 2l4 27v27q0 18 -4 55h4l-4 6v23q0 16 -4 41q4 6 4 16l-8 4q-43 -113 -152 -356q-78 -205 -78 -211z" />
<glyph unicode="&#xc7;" horiz-adv-x="1398" />
<glyph unicode="&#xc8;" horiz-adv-x="956" d="M-10 1040l4 23q0 8 -4 14q4 6 4 17v10q0 8 -4 14q4 6 4 15q0 16 -4 41l4 20q-4 6 -4 10h4q0 2 -4 2q4 45 8 45q0 4 -4 4l4 25v25q0 6 -8 6l4 18l-4 14q25 45 33 46l40 14q33 -14 33 -19l27 5q125 4 145 4v-4l6 4q4 0 5 -4l8 4l6 -4q8 4 12 4v-4q2 0 2 4q8 0 8 -4l23 4 q88 -4 139 -4h21l20 4q16 -8 41 -9h53l19 5v-5q6 4 10 5l8 -5q6 4 15 5l8 -5l6 5l8 -5l23 5q37 -12 36 -37q10 0 11 -9q-12 -8 -23 -38q-10 0 -10 -9h-27l-8 -4l-2 8l-8 -4h-37q-2 0 -2 4l-8 -4l-19 4l-8 -4l-6 4l-23 -4q-4 0 -4 4l-18 -8q-33 4 -109 8l-6 -4q-4 0 -4 4 l-18 -4q-4 0 -13 4q-2 0 -2 -4l-90 9q-45 -4 -88 -5q-4 0 -10 -4q-6 4 -16 4q-2 0 -2 -4l-21 4h-6q-8 0 -14 -4l-9 4q-8 0 -24 -8q-8 4 -17 4h-4q-6 0 -10 -36l4 -9q0 -4 -4 -4q0 -4 4 -4l-4 -16v-33l-4 -25q0 -2 4 -2l-4 -18v-12q0 -8 4 -15l-4 -8q4 -6 4 -14q0 -4 -4 -4 l4 -6v-37q0 -12 4 -21l-4 -12q4 -100 4 -160v-8q0 -8 2 -14q-2 -6 -2 -15q0 -23 6 -22l-4 -19v-53h82q8 0 17 -4q14 8 38 8h23q4 0 4 -4l8 4h37q2 0 2 -4q23 8 96 8h17q8 0 14 4l23 -8l20 4q4 0 4 -4l21 4h2q20 0 35 -4q49 4 59 8q4 -4 14 -4l19 4q27 -14 41 -41v-4 q0 -4 -17 -10l4 -8q0 -8 -24 -27q-4 0 -12 4q-37 -2 -37 -6l-19 2h-12q-14 0 -41 -2q-6 2 -10 2q-6 -2 -19 -2v2l-8 -2h-20q-4 0 -4 2q-6 -2 -45 -6l-7 4l-18 -4q-4 0 -12 4q-88 -10 -156 -10q-8 0 -14 -4l-6 4q-8 -4 -13 -4v4l-8 -4q-4 0 -4 4q-51 -8 -70 -8v-4 q6 -119 17 -119v-4h-8v-88l4 -27h-4l4 -6v-31l4 -18h-4l4 -6q0 -4 -4 -4l4 -19v-4q0 -4 -4 -4l4 -6q0 -4 -4 -4l4 -8v-15q0 -16 4 -41q-4 -8 -4 -10l4 -18l-4 -9q0 -4 4 -12q-4 -18 -4 -33v-10q0 -8 4 -14q-4 -8 -4 -17v-6q0 -8 6 -8l8 4l6 -4q8 4 13 4v-4l8 4q2 0 2 -4l8 4 q10 0 10 -4q41 8 86 8q47 0 78 -8q25 4 41 4h37q8 0 14 -4l6 4q8 0 41 -4l33 4l8 -4q4 0 4 4q37 -4 37 -6q20 6 64 6v-4l8 4h41q2 0 2 -4l8 4h23q4 0 4 -4l6 4q6 -4 10 -4t4 4l19 -4h8q12 0 33 4q14 0 36 -31q0 -25 -18 -32q0 -27 -29 -27l-8 4l-18 -6q-25 2 -41 2h-33 q-4 0 -4 4l-6 -4q-23 0 -54 4q-66 -4 -106 -4q-4 0 -10 -2q-37 2 -37 6l-27 -4h-127q-4 0 -4 4l-6 -4h-68q-18 0 -55 -2v2q-18 -6 -24 -6v4l-9 -4h-4q-8 0 -14 4q-6 -4 -37 -8v4l-6 -4q-27 4 -64 55l3 12q-2 6 -3 11h3q0 4 -3 4l3 24v164q0 8 4 14q-6 18 -7 33h3l-7 41 q4 6 4 19l-4 22l4 19q-4 20 -4 22q0 4 4 4l-8 43l4 17l-4 20h4l-4 8v4q0 66 -8 133h4l-4 9q0 4 4 4l-4 6v37q0 4 4 4l-4 6q0 4 4 4q-8 16 -8 23l4 8q-4 6 -4 14t4 8q-6 51 -6 70q2 6 2 10q-2 12 -6 12l4 25v57q0 8 -4 15q4 6 4 14t-4 14q0 4 4 5q-4 29 -8 36zM139 1706v4 q0 31 45 64q0 4 4 4h25q86 -88 233 -207q16 -29 17 -35q0 -37 -53 -47q0 4 -4 4q0 -8 -7 -8h-8q-20 0 -33 26q-8 0 -100 78q-82 55 -119 117z" />
<glyph unicode="&#xc9;" horiz-adv-x="948" d="M-10 1040l4 23q0 8 -4 14q4 6 4 17v10q0 8 -4 14q4 6 4 15q0 16 -4 41l4 20q-4 6 -4 10h4q0 2 -4 2q4 45 8 45q0 4 -4 4l4 25v25q0 6 -8 6l4 18l-4 14q25 45 33 46l40 14q33 -14 33 -19l27 5q125 4 145 4v-4l6 4q4 0 5 -4l8 4l6 -4q8 4 12 4v-4q2 0 2 4q8 0 8 -4l23 4 q88 -4 139 -4h21l20 4q16 -8 41 -9h53l19 5v-5q6 4 10 5l8 -5q6 4 15 5l8 -5l6 5l8 -5l23 5q37 -12 36 -37q10 0 11 -9q-12 -8 -23 -38q-10 0 -10 -9h-27l-8 -4l-2 8l-8 -4h-37q-2 0 -2 4l-8 -4l-19 4l-8 -4l-6 4l-23 -4q-4 0 -4 4l-18 -8q-33 4 -109 8l-6 -4q-4 0 -4 4 l-18 -4q-4 0 -13 4q-2 0 -2 -4l-90 9q-45 -4 -88 -5q-4 0 -10 -4q-6 4 -16 4q-2 0 -2 -4l-21 4h-6q-8 0 -14 -4l-9 4q-8 0 -24 -8q-8 4 -17 4h-4q-6 0 -10 -36l4 -9q0 -4 -4 -4q0 -4 4 -4l-4 -16v-33l-4 -25q0 -2 4 -2l-4 -18v-12q0 -8 4 -15l-4 -8q4 -6 4 -14q0 -4 -4 -4 l4 -6v-37q0 -12 4 -21l-4 -12q4 -100 4 -160v-8q0 -8 2 -14q-2 -6 -2 -15q0 -23 6 -22l-4 -19v-53h82q8 0 17 -4q14 8 38 8h23q4 0 4 -4l8 4h37q2 0 2 -4q23 8 96 8h17q8 0 14 4l23 -8l20 4q4 0 4 -4l21 4h2q20 0 35 -4q49 4 59 8q4 -4 14 -4l19 4q27 -14 41 -41v-4 q0 -4 -17 -10l4 -8q0 -8 -24 -27q-4 0 -12 4q-37 -2 -37 -6l-19 2h-12q-14 0 -41 -2q-6 2 -10 2q-6 -2 -19 -2v2l-8 -2h-20q-4 0 -4 2q-6 -2 -45 -6l-7 4l-18 -4q-4 0 -12 4q-88 -10 -156 -10q-8 0 -14 -4l-6 4q-8 -4 -13 -4v4l-8 -4q-4 0 -4 4q-51 -8 -70 -8v-4 q6 -119 17 -119v-4h-8v-88l4 -27h-4l4 -6v-31l4 -18h-4l4 -6q0 -4 -4 -4l4 -19v-4q0 -4 -4 -4l4 -6q0 -4 -4 -4l4 -8v-15q0 -16 4 -41q-4 -8 -4 -10l4 -18l-4 -9q0 -4 4 -12q-4 -18 -4 -33v-10q0 -8 4 -14q-4 -8 -4 -17v-6q0 -8 6 -8l8 4l6 -4q8 4 13 4v-4l8 4q2 0 2 -4l8 4 q10 0 10 -4q41 8 86 8q47 0 78 -8q25 4 41 4h37q8 0 14 -4l6 4q8 0 41 -4l33 4l8 -4q4 0 4 4q37 -4 37 -6q20 6 64 6v-4l8 4h41q2 0 2 -4l8 4h23q4 0 4 -4l6 4q6 -4 10 -4t4 4l19 -4h8q12 0 33 4q14 0 36 -31q0 -25 -18 -32q0 -27 -29 -27l-8 4l-18 -6q-25 2 -41 2h-33 q-4 0 -4 4l-6 -4q-23 0 -54 4q-66 -4 -106 -4q-4 0 -10 -2q-37 2 -37 6l-27 -4h-127q-4 0 -4 4l-6 -4h-68q-18 0 -55 -2v2q-18 -6 -24 -6v4l-9 -4h-4q-8 0 -14 4q-6 -4 -37 -8v4l-6 -4q-27 4 -64 55l3 12q-2 6 -3 11h3q0 4 -3 4l3 24v164q0 8 4 14q-6 18 -7 33h3l-7 41 q4 6 4 19l-4 22l4 19q-4 20 -4 22q0 4 4 4l-8 43l4 17l-4 20h4l-4 8v4q0 66 -8 133h4l-4 9q0 4 4 4l-4 6v37q0 4 4 4l-4 6q0 4 4 4q-8 16 -8 23l4 8q-4 6 -4 14t4 8q-6 51 -6 70q2 6 2 10q-2 12 -6 12l4 25v57q0 8 -4 15q4 6 4 14t-4 14q0 4 4 5q-4 29 -8 36zM360 1536 q0 6 15 35q150 119 233 207h27q4 0 4 -4q43 -33 43 -64v-4q-37 -61 -119 -117q-92 -78 -98 -78q-12 -27 -35 -26h-6q-8 0 -8 8q-4 0 -4 -4q-51 10 -52 47z" />
<glyph unicode="&#xca;" horiz-adv-x="929" d="M-10 1040l4 23q0 8 -4 14q4 6 4 17v10q0 8 -4 14q4 6 4 15q0 16 -4 41l4 20q-4 6 -4 10h4q0 2 -4 2q4 45 8 45q0 4 -4 4l4 25v25q0 6 -8 6l4 18l-4 14q25 45 33 46l40 14q33 -14 33 -19l27 5q125 4 145 4v-4l6 4q4 0 5 -4l8 4l6 -4q8 4 12 4v-4q2 0 2 4q8 0 8 -4l23 4 q88 -4 139 -4h21l20 4q16 -8 41 -9h53l19 5v-5q6 4 10 5l8 -5q6 4 15 5l8 -5l6 5l8 -5l23 5q37 -12 36 -37q10 0 11 -9q-12 -8 -23 -38q-10 0 -10 -9h-27l-8 -4l-2 8l-8 -4h-37q-2 0 -2 4l-8 -4l-19 4l-8 -4l-6 4l-23 -4q-4 0 -4 4l-18 -8q-33 4 -109 8l-6 -4q-4 0 -4 4 l-18 -4q-4 0 -13 4q-2 0 -2 -4l-90 9q-45 -4 -88 -5q-4 0 -10 -4q-6 4 -16 4q-2 0 -2 -4l-21 4h-6q-8 0 -14 -4l-9 4q-8 0 -24 -8q-8 4 -17 4h-4q-6 0 -10 -36l4 -9q0 -4 -4 -4q0 -4 4 -4l-4 -16v-33l-4 -25q0 -2 4 -2l-4 -18v-12q0 -8 4 -15l-4 -8q4 -6 4 -14q0 -4 -4 -4 l4 -6v-37q0 -12 4 -21l-4 -12q4 -100 4 -160v-8q0 -8 2 -14q-2 -6 -2 -15q0 -23 6 -22l-4 -19v-53h82q8 0 17 -4q14 8 38 8h23q4 0 4 -4l8 4h37q2 0 2 -4q23 8 96 8h17q8 0 14 4l23 -8l20 4q4 0 4 -4l21 4h2q20 0 35 -4q49 4 59 8q4 -4 14 -4l19 4q27 -14 41 -41v-4 q0 -4 -17 -10l4 -8q0 -8 -24 -27q-4 0 -12 4q-37 -2 -37 -6l-19 2h-12q-14 0 -41 -2q-6 2 -10 2q-6 -2 -19 -2v2l-8 -2h-20q-4 0 -4 2q-6 -2 -45 -6l-7 4l-18 -4q-4 0 -12 4q-88 -10 -156 -10q-8 0 -14 -4l-6 4q-8 -4 -13 -4v4l-8 -4q-4 0 -4 4q-51 -8 -70 -8v-4 q6 -119 17 -119v-4h-8v-88l4 -27h-4l4 -6v-31l4 -18h-4l4 -6q0 -4 -4 -4l4 -19v-4q0 -4 -4 -4l4 -6q0 -4 -4 -4l4 -8v-15q0 -16 4 -41q-4 -8 -4 -10l4 -18l-4 -9q0 -4 4 -12q-4 -18 -4 -33v-10q0 -8 4 -14q-4 -8 -4 -17v-6q0 -8 6 -8l8 4l6 -4q8 4 13 4v-4l8 4q2 0 2 -4l8 4 q10 0 10 -4q41 8 86 8q47 0 78 -8q25 4 41 4h37q8 0 14 -4l6 4q8 0 41 -4l33 4l8 -4q4 0 4 4q37 -4 37 -6q20 6 64 6v-4l8 4h41q2 0 2 -4l8 4h23q4 0 4 -4l6 4q6 -4 10 -4t4 4l19 -4h8q12 0 33 4q14 0 36 -31q0 -25 -18 -32q0 -27 -29 -27l-8 4l-18 -6q-25 2 -41 2h-33 q-4 0 -4 4l-6 -4q-23 0 -54 4q-66 -4 -106 -4q-4 0 -10 -2q-37 2 -37 6l-27 -4h-127q-4 0 -4 4l-6 -4h-68q-18 0 -55 -2v2q-18 -6 -24 -6v4l-9 -4h-4q-8 0 -14 4q-6 -4 -37 -8v4l-6 -4q-27 4 -64 55l3 12q-2 6 -3 11h3q0 4 -3 4l3 24v164q0 8 4 14q-6 18 -7 33h3l-7 41 q4 6 4 19l-4 22l4 19q-4 20 -4 22q0 4 4 4l-8 43l4 17l-4 20h4l-4 8v4q0 66 -8 133h4l-4 9q0 4 4 4l-4 6v37q0 4 4 4l-4 6q0 4 4 4q-8 16 -8 23l4 8q-4 6 -4 14t4 8q-6 51 -6 70q2 6 2 10q-2 12 -6 12l4 25v57q0 8 -4 15q4 6 4 14t-4 14q0 4 4 5q-4 29 -8 36zM211 1501v15 q29 55 74 174q10 0 28 59q27 14 45 14h4q2 0 3 -2l8 2q66 -39 139 -143q53 -70 53 -78t8 -18v-27q-16 -20 -34 -29q-2 0 -2 5l-9 -5h-8q-4 0 -4 5l-6 -5q-4 0 -4 5l-6 -5q-10 0 -13 19l-8 -4q-47 88 -110 147q-10 -14 -47 -133q-16 -31 -37 -47l-9 2l-10 -6q-55 6 -55 55z " />
<glyph unicode="&#xcb;" horiz-adv-x="954" d="M-10 1040l4 23q0 8 -4 14q4 6 4 17v10q0 8 -4 14q4 6 4 15q0 16 -4 41l4 20q-4 6 -4 10h4q0 2 -4 2q4 45 8 45q0 4 -4 4l4 25v25q0 6 -8 6l4 18l-4 14q25 45 33 46l40 14q33 -14 33 -19l27 5q125 4 145 4v-4l6 4q4 0 5 -4l8 4l6 -4q8 4 12 4v-4q2 0 2 4q8 0 8 -4l23 4 q88 -4 139 -4h21l20 4q16 -8 41 -9h53l19 5v-5q6 4 10 5l8 -5q6 4 15 5l8 -5l6 5l8 -5l23 5q37 -12 36 -37q10 0 11 -9q-12 -8 -23 -38q-10 0 -10 -9h-27l-8 -4l-2 8l-8 -4h-37q-2 0 -2 4l-8 -4l-19 4l-8 -4l-6 4l-23 -4q-4 0 -4 4l-18 -8q-33 4 -109 8l-6 -4q-4 0 -4 4 l-18 -4q-4 0 -13 4q-2 0 -2 -4l-90 9q-45 -4 -88 -5q-4 0 -10 -4q-6 4 -16 4q-2 0 -2 -4l-21 4h-6q-8 0 -14 -4l-9 4q-8 0 -24 -8q-8 4 -17 4h-4q-6 0 -10 -36l4 -9q0 -4 -4 -4q0 -4 4 -4l-4 -16v-33l-4 -25q0 -2 4 -2l-4 -18v-12q0 -8 4 -15l-4 -8q4 -6 4 -14q0 -4 -4 -4 l4 -6v-37q0 -12 4 -21l-4 -12q4 -100 4 -160v-8q0 -8 2 -14q-2 -6 -2 -15q0 -23 6 -22l-4 -19v-53h82q8 0 17 -4q14 8 38 8h23q4 0 4 -4l8 4h37q2 0 2 -4q23 8 96 8h17q8 0 14 4l23 -8l20 4q4 0 4 -4l21 4h2q20 0 35 -4q49 4 59 8q4 -4 14 -4l19 4q27 -14 41 -41v-4 q0 -4 -17 -10l4 -8q0 -8 -24 -27q-4 0 -12 4q-37 -2 -37 -6l-19 2h-12q-14 0 -41 -2q-6 2 -10 2q-6 -2 -19 -2v2l-8 -2h-20q-4 0 -4 2q-6 -2 -45 -6l-7 4l-18 -4q-4 0 -12 4q-88 -10 -156 -10q-8 0 -14 -4l-6 4q-8 -4 -13 -4v4l-8 -4q-4 0 -4 4q-51 -8 -70 -8v-4 q6 -119 17 -119v-4h-8v-88l4 -27h-4l4 -6v-31l4 -18h-4l4 -6q0 -4 -4 -4l4 -19v-4q0 -4 -4 -4l4 -6q0 -4 -4 -4l4 -8v-15q0 -16 4 -41q-4 -8 -4 -10l4 -18l-4 -9q0 -4 4 -12q-4 -18 -4 -33v-10q0 -8 4 -14q-4 -8 -4 -17v-6q0 -8 6 -8l8 4l6 -4q8 4 13 4v-4l8 4q2 0 2 -4l8 4 q10 0 10 -4q41 8 86 8q47 0 78 -8q25 4 41 4h37q8 0 14 -4l6 4q8 0 41 -4l33 4l8 -4q4 0 4 4q37 -4 37 -6q20 6 64 6v-4l8 4h41q2 0 2 -4l8 4h23q4 0 4 -4l6 4q6 -4 10 -4t4 4l19 -4h8q12 0 33 4q14 0 36 -31q0 -25 -18 -32q0 -27 -29 -27l-8 4l-18 -6q-25 2 -41 2h-33 q-4 0 -4 4l-6 -4q-23 0 -54 4q-66 -4 -106 -4q-4 0 -10 -2q-37 2 -37 6l-27 -4h-127q-4 0 -4 4l-6 -4h-68q-18 0 -55 -2v2q-18 -6 -24 -6v4l-9 -4h-4q-8 0 -14 4q-6 -4 -37 -8v4l-6 -4q-27 4 -64 55l3 12q-2 6 -3 11h3q0 4 -3 4l3 24v164q0 8 4 14q-6 18 -7 33h3l-7 41 q4 6 4 19l-4 22l4 19q-4 20 -4 22q0 4 4 4l-8 43l4 17l-4 20h4l-4 8v4q0 66 -8 133h4l-4 9q0 4 4 4l-4 6v37q0 4 4 4l-4 6q0 4 4 4q-8 16 -8 23l4 8q-4 6 -4 14t4 8q-6 51 -6 70q2 6 2 10q-2 12 -6 12l4 25v57q0 8 -4 15q4 6 4 14t-4 14q0 4 4 5q-4 29 -8 36zM166 1550l4 6 q-4 6 -4 17q47 57 84 57h14q59 -16 60 -47q8 0 8 -33h-4l4 -8q0 -31 -68 -59h-14q-39 0 -80 53q0 6 -4 14zM467 1569q0 41 63 61h29q35 -16 59 -59l-4 -19v-24q-31 -49 -65 -49q-78 10 -78 73q-4 1 -4 17z" />
<glyph unicode="&#xcc;" horiz-adv-x="294" d="M-201 1706v4q0 31 45 64q0 4 4 4h25q84 -88 233 -207q16 -29 17 -35q0 -37 -53 -47q0 4 -4 4q0 -8 -7 -8h-8q-20 0 -33 26q-8 0 -100 78q-82 55 -119 117zM0 74l4 6l-4 108q0 4 2 5q-4 39 0 108q2 -2 4 2q-8 0 -6 8l2 6q-2 8 -2 13l4 6q-4 6 -4 10l4 8q-4 6 -2 15h4l-4 6 l4 69q0 14 -2 27q4 14 4 31l2 20q0 8 -2 15l4 8q0 4 -4 4l4 16l-2 19h4l-4 6q0 4 4 4l-4 6l2 23q0 4 4 4q-4 6 -4 10q0 135 2 162l-2 18l4 6q-2 45 -6 51q2 4 4 3q0 51 2 73l4 101l-2 20q4 6 5 19l-3 18h5l-5 6q0 4 5 4l-2 8v11q2 45 -9 71q4 6 6 15l-4 14h4q-6 14 -6 41 l2 10q0 6 4 12q-2 10 -4 56l4 6l-2 22l41 17l23 -2q16 0 29 -78l-2 -25l8 -10v-4q-2 -8 -6 -14l4 -8q0 -2 -4 -3l10 -155l-4 -6l2 -23v-6q0 -4 -4 -4l4 -6l-2 -37q0 -4 -4 -4l2 -6v-11q0 -4 -4 -4l4 -8l-2 -35q-6 -98 -2 -233h-5l5 -6l-2 -8q0 -4 -3 -5l3 -8l-3 -30l3 -25 h-3l3 -8q0 -4 -5 -4l5 -7q0 -4 -5 -4l5 -8l-13 -207l2 -43h-4l2 -8l-2 -47q0 -10 2 -31l-4 -8q4 -135 10 -213q-4 -6 -4 -8l4 -8q-10 -25 -28 -35l-31 2q-2 0 -2 4l-8 -4q-14 0 -31 35v24q2 8 -2 15z" />
<glyph unicode="&#xcd;" horiz-adv-x="276" d="M0 74l4 6l-4 108q0 4 2 5q-4 39 0 108q2 -2 4 2q-8 0 -6 8l2 6q-2 8 -2 13l4 6q-4 6 -4 10l4 8q-4 6 -2 15h4l-4 6l4 69q0 14 -2 27q4 14 4 31l2 20q0 8 -2 15l4 8q0 4 -4 4l4 16l-2 19h4l-4 6q0 4 4 4l-4 6l2 23q0 4 4 4q-4 6 -4 10q0 135 2 162l-2 18l4 6q-2 45 -6 51 q2 4 4 3q0 51 2 73l4 101l-2 20q4 6 5 19l-3 18h5l-5 6q0 4 5 4l-2 8v11q2 45 -9 71q4 6 6 15l-4 14h4q-6 14 -6 41l2 10q0 6 4 12q-2 10 -4 56l4 6l-2 22l41 17l23 -2q16 0 29 -78l-2 -25l8 -10v-4q-2 -8 -6 -14l4 -8q0 -2 -4 -3l10 -155l-4 -6l2 -23v-6q0 -4 -4 -4l4 -6 l-2 -37q0 -4 -4 -4l2 -6v-11q0 -4 -4 -4l4 -8l-2 -35q-6 -98 -2 -233h-5l5 -6l-2 -8q0 -4 -3 -5l3 -8l-3 -30l3 -25h-3l3 -8q0 -4 -5 -4l5 -7q0 -4 -5 -4l5 -8l-13 -207l2 -43h-4l2 -8l-2 -47q0 -10 2 -31l-4 -8q4 -135 10 -213q-4 -6 -4 -8l4 -8q-10 -25 -28 -35l-31 2 q-2 0 -2 4l-8 -4q-14 0 -31 35v24q2 8 -2 15zM31 1536q0 6 14 35q150 119 234 207h24q4 0 4 -4q45 -33 45 -64v-4q-37 -61 -119 -117q-92 -78 -100 -78q-10 -27 -33 -26h-8q-6 0 -6 8q-4 0 -4 -4q-51 10 -51 47z" />
<glyph unicode="&#xce;" horiz-adv-x="333" d="M-80 1501v15q31 55 74 174q10 0 31 59q25 14 43 14h4q4 0 4 -2l8 2q63 -39 139 -143q51 -70 51 -78t9 -18v-27q-16 -20 -33 -29q-4 0 -4 5l-8 -5h-7q-4 0 -4 5l-8 -5q-4 0 -4 5l-6 -5q-10 0 -10 19l-9 -4q-47 88 -110 147q-12 -14 -49 -133q-16 -31 -37 -47l-6 2l-13 -6 q-55 6 -55 55zM39 188q2 4 4 5q-4 39 0 108q2 -2 2 2q-6 0 -6 8l4 6q-4 8 -2 13l2 6q-2 6 -2 10l4 8q-4 6 -2 15h2l-2 6l2 69q2 14 -2 27q4 14 6 31v20q2 8 -2 15l4 8q0 4 -4 4l6 16l-4 19h4l-2 6q0 4 2 4l-2 6v23q2 4 4 4q-2 6 -2 10q0 135 2 162l-4 18l4 6q-2 45 -4 51 q0 4 4 3q-2 51 0 73l6 101l-2 20q4 6 4 19l-2 18h2l-2 6q0 4 5 4l-5 8v11q4 45 -6 71q4 6 4 15l-2 14h4q-8 14 -6 41v10q0 6 4 12q-2 10 -4 56l4 6l-2 22l41 17l23 -2q18 0 29 -78v-25l6 -10v-4q0 -8 -4 -14l2 -8q0 -2 -2 -3l8 -155l-4 -6l4 -23v-6q-2 -4 -4 -4l2 -6l-2 -37 q0 -4 -4 -4l4 -6v-11q0 -4 -4 -4l2 -8l-2 -35q-4 -98 -2 -233h-3l3 -6v-8q0 -4 -5 -5l5 -8l-3 -30l3 -25h-5l5 -8q0 -4 -5 -4l2 -7q0 -4 -4 -4l4 -8l-12 -207l2 -43h-4l4 -8l-2 -47q-2 -10 0 -31l-4 -8q4 -135 12 -213q-4 -6 -4 -8l2 -8q-8 -25 -26 -35l-31 2q-2 0 -2 4 l-8 -4q-14 0 -31 35v24q0 8 -2 15l2 6z" />
<glyph unicode="&#xcf;" horiz-adv-x="325" d="M-135 1550l4 6q-4 6 -4 17q49 57 86 57h14q59 -16 60 -47q8 0 8 -33h-4l4 -8q0 -31 -68 -59h-14q-41 0 -82 53q0 6 -4 14zM39 188q2 4 4 5q-4 39 0 108q2 -2 2 2q-6 0 -6 8l4 6q-4 8 -2 13l2 6q-2 6 -2 10l4 8q-4 6 -2 15h2l-2 6l2 69q2 14 -2 27q4 14 6 31v20q2 8 -2 15 l4 8q0 4 -4 4l6 16l-4 19h4l-2 6q0 4 2 4l-2 6v23q2 4 4 4q-2 6 -2 10q0 135 2 162l-4 18l4 6q-2 45 -4 51q0 4 4 3q-2 51 0 73l6 101l-2 20q4 6 4 19l-2 18h2l-2 6q0 4 5 4l-5 8v11q4 45 -6 71q4 6 4 15l-2 14h4q-8 14 -6 41v10q0 6 4 12q-2 10 -4 56l4 6l-2 22l41 17 l23 -2q18 0 29 -78v-25l6 -10v-4q0 -8 -4 -14l2 -8q0 -2 -2 -3l8 -155l-4 -6l4 -23v-6q-2 -4 -4 -4l2 -6l-2 -37q0 -4 -4 -4l4 -6v-11q0 -4 -4 -4l2 -8l-2 -35q-4 -98 -2 -233h-3l3 -6v-8q0 -4 -5 -5l5 -8l-3 -30l3 -25h-5l5 -8q0 -4 -5 -4l2 -7q0 -4 -4 -4l4 -8l-12 -207 l2 -43h-4l4 -8l-2 -47q-2 -10 0 -31l-4 -8q4 -135 12 -213q-4 -6 -4 -8l2 -8q-8 -25 -26 -35l-31 2q-2 0 -2 4l-8 -4q-14 0 -31 35v24q0 8 -2 15l2 6zM168 1569q0 41 61 61h29q37 -16 61 -59l-4 -19v-24q-31 -49 -67 -49q-78 10 -78 73q-2 1 -2 17z" />
<glyph unicode="&#xd0;" horiz-adv-x="1024" d="M-193 664q0 47 46 55q8 0 24 14l8 -4q12 8 19 8l4 -8l6 4h12q4 0 4 -4l7 4q8 0 16 -4l6 4q8 0 41 -6v160q0 12 4 31l-4 8l4 6l-4 22h4q0 2 -4 2l4 37v25q0 4 2 4q0 2 -2 2l6 113q-4 14 -4 24l4 15l-4 8q0 2 4 10q-4 31 -4 49v10q0 8 -6 9l4 18v6q0 16 -4 37q0 49 37 49 q0 16 43 25l16 -4q4 0 4 4l25 -4h43q12 0 33 4l6 -4q6 4 14 4v-4l8 4l15 -4l6 4l6 -4q4 0 4 4q57 -6 57 -11l9 5q4 0 4 -5q2 0 2 5q152 -18 262 -68q195 -125 250 -252q57 -139 57 -215q2 0 2 -6h-2q10 -57 10 -96v-58q0 -90 -8 -90q0 -4 4 -4l-4 -24q0 -8 4 -15 q-35 -262 -78 -356q-66 -113 -190 -164q-147 -76 -242 -76v4q-18 -4 -18 -8l-19 4q-47 -8 -61 -8h-8l-12 8q0 -8 -7 -8h-16q-6 0 -12 4q-4 0 -4 -4l-27 4h-35q-4 0 -4 4l-6 -4h-18q-6 0 -7 8l-8 -4h-6q-4 0 -4 4q-2 0 -2 -4q-59 4 -60 15l-6 -5q-25 0 -32 95q4 6 4 10l-4 6 l4 8l-4 21h8v24l-4 19h4q-2 14 -13 14l9 10v13q0 6 -9 6l5 8v10h-7v4h7q-4 68 -7 82h2q-2 39 -10 39l4 6v4h-4v-6q-6 0 -6 6q4 0 10 13v2h-8v8h8v35h-10v12l6 -4h4l-4 6h4q-6 25 -10 25l2 8v8q0 2 -6 39q0 14 6 29q-6 0 -6 10l4 35l-4 24l4 19q0 4 -4 4l2 12l-6 -2h-19 q-8 0 -14 2q-6 -2 -10 -2q-10 0 -31 2l-69 -6q-41 23 -41 29h-5zM88 602l8 -2l-4 -6q0 -12 4 -12l-4 -19v-12l4 -37h-4q0 -4 4 -4l-4 -16q0 -8 8 -56h-4l4 -6q4 -135 6 -158h-2q6 -18 7 -28h-5l5 -6q8 -113 8 -148l4 -14h-4l4 -6l-4 -9q0 -10 184 -20q80 6 86 6l8 -4 q6 4 15 4q4 0 4 -4q47 0 221 82q96 68 121 156q23 100 28 100l-4 6l33 205l-4 6q0 16 8 96l-4 9l4 20q0 139 -71 317q-25 47 -72 95q-123 119 -211 129q-43 18 -105 30q-4 0 -4 -4q-57 12 -131 13h-63q-4 0 -4 4l-8 -4h-25l-25 4l4 -27v-33q0 -8 2 -12q-2 -8 -2 -12l2 -6 q0 -4 -2 -5l2 -14l-2 -35q0 -4 2 -4l-2 -18v-35q0 -4 -4 -4l4 -6v-51q0 -4 -4 -5q6 -20 6 -26q-6 -2 -6 -8v-9q0 -8 4 -14l-8 -31l4 -22q0 -4 -4 -10q0 -4 4 -11q-8 -55 -8 -125l4 -8q-4 -6 -4 -14v-37q4 -2 10 -2q8 4 13 4v-4q6 4 59 8l37 -4q6 4 14 4v-4l8 4h25q8 0 16 4 q6 -4 15 -4h24l21 4v-4l6 4q16 -10 41 -14v-10q-8 -74 -37 -74l-6 2q-8 -2 -12 -2q-12 6 -23 6h-22l-37 -4v4l-6 -4h-17q-4 0 -4 4l-6 -4h-92q-4 0 -4 4q-11 -6 -23 -6v-2q0 -8 4 -16z" />
<glyph unicode="&#xd1;" horiz-adv-x="952" d="M-20 47q12 113 32 215v86q0 8 4 14q-4 6 -4 15v4q8 8 13 47q0 4 -5 4l5 19v4q0 8 -5 14l13 23q4 141 10 163q-4 20 -4 29h4l-4 8v4q0 2 4 2l-4 9v4q0 4 4 4l-4 8v2q2 8 8 8q0 2 -4 2q6 109 6 201v74q0 8 4 14l-4 8q4 6 4 15l-4 8q12 37 12 119q0 4 5 4q0 2 -5 2 q8 41 9 86v51q0 4 4 4l-4 6v16q0 16 32 41h9q2 0 2 -4l8 4q100 -20 100 -49q6 0 92 -98q70 -96 166 -215q70 -111 189 -242v4q0 4 -2 4l2 19l-2 14h2l-2 8q-12 236 -13 351l4 18q-4 6 -4 19v45q0 8 -4 16l4 6q0 2 -4 23q0 4 4 10q-4 20 -4 35v6q22 59 49 59q59 -10 60 -51 l-4 -8q2 -23 8 -23l-4 -18v-23l4 -37h-4l4 -6l-4 -18q0 -4 4 -4l-4 -27v-24q0 -10 4 -17q-4 -6 -4 -14t4 -14l-4 -9q0 -4 4 -4l-4 -24q10 -174 10 -197q4 -6 4 -10h-4l4 -8q0 -4 -4 -4l4 -19v-55l4 -37h-4q10 -35 23 -170q0 -4 -4 -4l4 -19v-41l4 -36h-4l4 -9q0 -2 -4 -2 l4 -8q0 -4 -4 -4l14 -135l-4 -8l8 -88h-4q0 -4 4 -4l-4 -21q4 -6 4 -10h-4q4 -6 4 -10q2 -61 2 -68h-2q2 -6 6 -33h-4q8 -14 8 -22h-4l4 -6l-8 -13l4 -8q-8 -47 -20 -47h-82q-8 2 -15 18q6 27 7 52v8q0 111 -11 143l7 4q0 4 -3 4l3 19l-3 14h3q-2 10 -7 45l4 8q-8 29 -8 62 h4l-12 63l4 19q0 147 -24 147q-78 119 -78 123q-59 51 -109 129l-233 299q-72 100 -80 100q-8 -131 -19 -194q0 -4 3 -4l-3 -37v-45q0 -4 -4 -4l4 -6v-64q0 -8 3 -14q-10 -84 -11 -160q0 -4 -4 -10q4 -8 4 -17v-20q0 -4 -4 -4l4 -8v-11q0 -119 -14 -178q0 -4 2 -4l-2 -18 l2 -8q-2 -8 -14 -80l8 -4l-4 -19v-51l-4 -45q4 0 4 -4q-6 0 -27 -133q4 -14 4 -27l-4 -6l4 -8l-4 -6q4 -8 4 -13q-29 -45 -57 -45v4l-8 -4h-9q-35 20 -40 37zM109 1538h4l-4 8v39q6 14 14 57q41 76 86 99q29 16 43 16q4 0 4 -4l6 4h19q76 0 213 -168q37 -20 47 -20h12 q45 23 45 30q8 23 14 23l-4 6v4q0 4 4 4q-2 8 -8 45q4 0 4 5q-6 0 -6 8h2l-2 6v4l39 49q6 4 10 4q47 -6 47 -24q4 -8 4 -11q-4 -8 -4 -12q4 0 11 -10v-2q0 -10 -7 -23l5 -18q0 -111 -109 -178v4q-31 -18 -45 -19q-8 4 -16 4q-6 -4 -11 -4v4l-8 -4q-100 45 -117 82 q-10 0 -82 90q-31 27 -75 27q-61 -39 -62 -113q4 -14 4 -32q-2 0 -20 -23h-33l-6 4q0 -4 -4 -4q0 4 -4 4l4 8q-14 16 -14 31z" />
<glyph unicode="&#xd2;" horiz-adv-x="1064" d="M0 670l4 22q0 106 6 180q0 4 -4 5l4 18v27q0 4 4 4q0 2 -4 2q25 164 68 246l-4 6q35 109 104 163q51 63 92 66q2 0 23 8v-4q25 14 96 14q6 -4 10 -4q0 6 15 17q4 0 4 -4q14 2 14 8q4 0 12 -4q61 4 97 4h20q59 0 98 -31v4q55 -10 111 -51q66 -33 137 -178q29 -70 29 -76 q-4 -6 -4 -10q6 0 18 -60h-4q12 -35 17 -73h-5l5 -6v-9q0 -4 -5 -4l5 -8v-6q0 -4 -5 -4q4 -4 9 -41h-4l4 -6v-4l-4 -9q6 0 6 -8v-10h-6l4 -18q0 -4 -4 -5l4 -6v-12q0 -2 -4 -2l4 -8v-4q0 -4 -4 -4l4 -7v-4q0 -12 -4 -12l4 -18v-56h-9q0 -12 5 -18q-20 -137 -33 -197 q0 -2 2 -2q-6 -41 -10 -41q0 -4 4 -4q-37 -150 -64 -207q-47 -84 -69 -106q-109 -109 -211 -137q-29 -12 -78 -17q-16 4 -17 8q-2 0 -2 -4q-215 33 -215 56q-158 115 -202 270q-53 201 -64 297h2l-2 6v49q0 12 -4 19zM96 598q41 -233 84 -350q31 -59 90 -115q63 -68 148 -67 q0 -4 69 -11q80 0 205 107q68 76 84 137l8 4q-4 6 -4 10q14 45 19 49l-2 9q12 0 28 133q14 0 29 235l4 52q0 4 -4 12q4 25 4 41v41q0 4 4 4l-8 29l4 8q-4 33 -6 39l2 8l-2 22q2 0 2 4q-6 0 -6 7v16l4 6q-6 0 -31 105q-2 0 -59 102q-10 2 -19 22q-47 49 -170 78q-8 0 -8 8 l-6 -4q-23 2 -22 7q-4 0 -5 -3l-45 3h-24q-19 -11 -31 -11l-6 4q-164 -43 -164 -55q-12 0 -69 -72q-51 -125 -87 -276l5 -8q-2 -27 -7 -27q0 -2 2 -2q-2 -41 -6 -41q0 -4 4 -4l-4 -18v-60q0 -8 -4 -14q4 -6 4 -10l-4 -27q0 -4 4 -4l-4 -19v-84l4 -20h-4zM219 1706v4 q0 31 45 64q0 4 4 4h27q84 -88 231 -207q16 -29 17 -35q0 -37 -54 -47q0 4 -4 4q0 -8 -6 -8h-8q-20 0 -33 26q-8 0 -100 78q-82 55 -119 117z" />
<glyph unicode="&#xd3;" horiz-adv-x="1056" d="M0 670l4 22q0 106 6 180q0 4 -4 5l4 18v27q0 4 4 4q0 2 -4 2q25 164 68 246l-4 6q35 109 104 163q51 63 92 66q2 0 23 8v-4q25 14 96 14q6 -4 10 -4q0 6 15 17q4 0 4 -4q14 2 14 8q4 0 12 -4q61 4 97 4h20q59 0 98 -31v4q55 -10 111 -51q66 -33 137 -178q29 -70 29 -76 q-4 -6 -4 -10q6 0 18 -60h-4q12 -35 17 -73h-5l5 -6v-9q0 -4 -5 -4l5 -8v-6q0 -4 -5 -4q4 -4 9 -41h-4l4 -6v-4l-4 -9q6 0 6 -8v-10h-6l4 -18q0 -4 -4 -5l4 -6v-12q0 -2 -4 -2l4 -8v-4q0 -4 -4 -4l4 -7v-4q0 -12 -4 -12l4 -18v-56h-9q0 -12 5 -18q-20 -137 -33 -197 q0 -2 2 -2q-6 -41 -10 -41q0 -4 4 -4q-37 -150 -64 -207q-47 -84 -69 -106q-109 -109 -211 -137q-29 -12 -78 -17q-16 4 -17 8q-2 0 -2 -4q-215 33 -215 56q-158 115 -202 270q-53 201 -64 297h2l-2 6v49q0 12 -4 19zM96 598q41 -233 84 -350q31 -59 90 -115q63 -68 148 -67 q0 -4 69 -11q80 0 205 107q68 76 84 137l8 4q-4 6 -4 10q14 45 19 49l-2 9q12 0 28 133q14 0 29 235l4 52q0 4 -4 12q4 25 4 41v41q0 4 4 4l-8 29l4 8q-4 33 -6 39l2 8l-2 22q2 0 2 4q-6 0 -6 7v16l4 6q-6 0 -31 105q-2 0 -59 102q-10 2 -19 22q-47 49 -170 78q-8 0 -8 8 l-6 -4q-23 2 -22 7q-4 0 -5 -3l-45 3h-24q-19 -11 -31 -11l-6 4q-164 -43 -164 -55q-12 0 -69 -72q-51 -125 -87 -276l5 -8q-2 -27 -7 -27q0 -2 2 -2q-2 -41 -6 -41q0 -4 4 -4l-4 -18v-60q0 -8 -4 -14q4 -6 4 -10l-4 -27q0 -4 4 -4l-4 -19v-84l4 -20h-4zM430 1536q0 6 14 35 q150 119 234 207h27q4 0 4 -4q43 -33 43 -64v-4q-35 -61 -117 -117q-94 -78 -100 -78q-12 -27 -35 -26h-6q-8 0 -9 8q-4 0 -4 -4q-51 10 -51 47z" />
<glyph unicode="&#xd4;" horiz-adv-x="1067" d="M0 670l4 22q0 106 6 180q0 4 -4 5l4 18v27q0 4 4 4q0 2 -4 2q25 164 68 246l-4 6q35 109 104 163q51 63 92 66q2 0 23 8v-4q25 14 96 14q6 -4 10 -4q0 6 15 17q4 0 4 -4q14 2 14 8q4 0 12 -4q61 4 97 4h20q59 0 98 -31v4q55 -10 111 -51q66 -33 137 -178q29 -70 29 -76 q-4 -6 -4 -10q6 0 18 -60h-4q12 -35 17 -73h-5l5 -6v-9q0 -4 -5 -4l5 -8v-6q0 -4 -5 -4q4 -4 9 -41h-4l4 -6v-4l-4 -9q6 0 6 -8v-10h-6l4 -18q0 -4 -4 -5l4 -6v-12q0 -2 -4 -2l4 -8v-4q0 -4 -4 -4l4 -7v-4q0 -12 -4 -12l4 -18v-56h-9q0 -12 5 -18q-20 -137 -33 -197 q0 -2 2 -2q-6 -41 -10 -41q0 -4 4 -4q-37 -150 -64 -207q-47 -84 -69 -106q-109 -109 -211 -137q-29 -12 -78 -17q-16 4 -17 8q-2 0 -2 -4q-215 33 -215 56q-158 115 -202 270q-53 201 -64 297h2l-2 6v49q0 12 -4 19zM96 598q41 -233 84 -350q31 -59 90 -115q63 -68 148 -67 q0 -4 69 -11q80 0 205 107q68 76 84 137l8 4q-4 6 -4 10q14 45 19 49l-2 9q12 0 28 133q14 0 29 235l4 52q0 4 -4 12q4 25 4 41v41q0 4 4 4l-8 29l4 8q-4 33 -6 39l2 8l-2 22q2 0 2 4q-6 0 -6 7v16l4 6q-6 0 -31 105q-2 0 -59 102q-10 2 -19 22q-47 49 -170 78q-8 0 -8 8 l-6 -4q-23 2 -22 7q-4 0 -5 -3l-45 3h-24q-19 -11 -31 -11l-6 4q-164 -43 -164 -55q-12 0 -69 -72q-51 -125 -87 -276l5 -8q-2 -27 -7 -27q0 -2 2 -2q-2 -41 -6 -41q0 -4 4 -4l-4 -18v-60q0 -8 -4 -14q4 -6 4 -10l-4 -27q0 -4 4 -4l-4 -19v-84l4 -20h-4zM319 1501v15 q31 55 74 174q10 0 31 59q25 14 45 14h2q4 0 4 -2l8 2q66 -39 140 -143q53 -70 53 -78t6 -18v-27q-14 -20 -33 -29q-4 0 -4 5l-6 -5h-8q-4 0 -4 5l-6 -5q-4 0 -5 5l-8 -5q-10 0 -10 19l-8 -4q-47 88 -111 147q-10 -14 -49 -133q-14 -31 -37 -47l-6 2l-10 -6q-57 6 -58 55z " />
<glyph unicode="&#xd5;" horiz-adv-x="1067" d="M0 670l4 22q0 106 6 180q0 4 -4 5l4 18v27q0 4 4 4q0 2 -4 2q25 164 68 246l-4 6q35 109 104 163q51 63 92 66q2 0 23 8v-4q25 14 96 14q6 -4 10 -4q0 6 15 17q4 0 4 -4q14 2 14 8q4 0 12 -4q61 4 97 4h20q59 0 98 -31v4q55 -10 111 -51q66 -33 137 -178q29 -70 29 -76 q-4 -6 -4 -10q6 0 18 -60h-4q12 -35 17 -73h-5l5 -6v-9q0 -4 -5 -4l5 -8v-6q0 -4 -5 -4q4 -4 9 -41h-4l4 -6v-4l-4 -9q6 0 6 -8v-10h-6l4 -18q0 -4 -4 -5l4 -6v-12q0 -2 -4 -2l4 -8v-4q0 -4 -4 -4l4 -7v-4q0 -12 -4 -12l4 -18v-56h-9q0 -12 5 -18q-20 -137 -33 -197 q0 -2 2 -2q-6 -41 -10 -41q0 -4 4 -4q-37 -150 -64 -207q-47 -84 -69 -106q-109 -109 -211 -137q-29 -12 -78 -17q-16 4 -17 8q-2 0 -2 -4q-215 33 -215 56q-158 115 -202 270q-53 201 -64 297h2l-2 6v49q0 12 -4 19zM96 598q41 -233 84 -350q31 -59 90 -115q63 -68 148 -67 q0 -4 69 -11q80 0 205 107q68 76 84 137l8 4q-4 6 -4 10q14 45 19 49l-2 9q12 0 28 133q14 0 29 235l4 52q0 4 -4 12q4 25 4 41v41q0 4 4 4l-8 29l4 8q-4 33 -6 39l2 8l-2 22q2 0 2 4q-6 0 -6 7v16l4 6q-6 0 -31 105q-2 0 -59 102q-10 2 -19 22q-47 49 -170 78q-8 0 -8 8 l-6 -4q-23 2 -22 7q-4 0 -5 -3l-45 3h-24q-19 -11 -31 -11l-6 4q-164 -43 -164 -55q-12 0 -69 -72q-51 -125 -87 -276l5 -8q-2 -27 -7 -27q0 -2 2 -2q-2 -41 -6 -41q0 -4 4 -4l-4 -18v-60q0 -8 -4 -14q4 -6 4 -10l-4 -27q0 -4 4 -4l-4 -19v-84l4 -20h-4zM209 1538h4l-4 8v39 q4 14 12 57q41 76 86 99q31 16 43 16q4 0 4 -4l8 4h19q76 0 213 -168q37 -20 47 -20h10q47 23 47 30q8 23 15 23l-4 6v4q0 4 4 4q-2 8 -8 45q4 0 4 5q-6 0 -7 8h3l-3 6v4l39 49q6 4 11 4q47 -6 47 -24q4 -8 4 -11q-4 -8 -4 -12q4 0 10 -10v-2q0 -10 -6 -23l4 -18 q0 -111 -109 -178v4q-31 -18 -47 -19q-6 4 -14 4q-6 -4 -10 -4v4l-9 -4q-102 45 -116 82q-10 0 -82 90q-31 27 -76 27q-61 -39 -61 -113q4 -14 4 -32q-2 0 -23 -23h-31l-8 4q0 -4 -4 -4q0 4 -2 4l2 8q-12 16 -12 31z" />
<glyph unicode="&#xd6;" horiz-adv-x="1075" d="M0 670l4 22q0 106 6 180q0 4 -4 5l4 18v27q0 4 4 4q0 2 -4 2q25 164 68 246l-4 6q35 109 104 163q51 63 92 66q2 0 23 8v-4q25 14 96 14q6 -4 10 -4q0 6 15 17q4 0 4 -4q14 2 14 8q4 0 12 -4q61 4 97 4h20q59 0 98 -31v4q55 -10 111 -51q66 -33 137 -178q29 -70 29 -76 q-4 -6 -4 -10q6 0 18 -60h-4q12 -35 17 -73h-5l5 -6v-9q0 -4 -5 -4l5 -8v-6q0 -4 -5 -4q4 -4 9 -41h-4l4 -6v-4l-4 -9q6 0 6 -8v-10h-6l4 -18q0 -4 -4 -5l4 -6v-12q0 -2 -4 -2l4 -8v-4q0 -4 -4 -4l4 -7v-4q0 -12 -4 -12l4 -18v-56h-9q0 -12 5 -18q-20 -137 -33 -197 q0 -2 2 -2q-6 -41 -10 -41q0 -4 4 -4q-37 -150 -64 -207q-47 -84 -69 -106q-109 -109 -211 -137q-29 -12 -78 -17q-16 4 -17 8q-2 0 -2 -4q-215 33 -215 56q-158 115 -202 270q-53 201 -64 297h2l-2 6v49q0 12 -4 19zM96 598q41 -233 84 -350q31 -59 90 -115q63 -68 148 -67 q0 -4 69 -11q80 0 205 107q68 76 84 137l8 4q-4 6 -4 10q14 45 19 49l-2 9q12 0 28 133q14 0 29 235l4 52q0 4 -4 12q4 25 4 41v41q0 4 4 4l-8 29l4 8q-4 33 -6 39l2 8l-2 22q2 0 2 4q-6 0 -6 7v16l4 6q-6 0 -31 105q-2 0 -59 102q-10 2 -19 22q-47 49 -170 78q-8 0 -8 8 l-6 -4q-23 2 -22 7q-4 0 -5 -3l-45 3h-24q-19 -11 -31 -11l-6 4q-164 -43 -164 -55q-12 0 -69 -72q-51 -125 -87 -276l5 -8q-2 -27 -7 -27q0 -2 2 -2q-2 -41 -6 -41q0 -4 4 -4l-4 -18v-60q0 -8 -4 -14q4 -6 4 -10l-4 -27q0 -4 4 -4l-4 -19v-84l4 -20h-4zM274 1550l5 6 q-4 6 -5 17q49 57 86 57h15q59 -16 59 -47q8 0 8 -33h-4l4 -8q0 -31 -67 -59h-15q-41 0 -81 53q-1 6 -5 14zM578 1569q0 41 61 61h31q35 -16 59 -59l-4 -19v-24q-31 -49 -68 -49q-76 10 -75 73q-4 1 -4 17z" />
<glyph unicode="&#xd7;" horiz-adv-x="587" d="M0 805v16q27 53 55 53q25 -16 88 -77q45 -29 90 -68h5q0 8 61 76l72 74h10q4 0 4 -5l6 5h4q23 -16 33 -58q-16 -29 -51 -57q-8 -16 -78 -92q53 -55 201 -160q14 -33 14 -35q-2 -47 -41 -47l-6 4q-6 -4 -16 -4q-66 31 -213 170v4h-5q0 -12 -26 -31q0 -4 -60 -65l-43 -59 q-16 -12 -34 -13h-11q-41 6 -41 27v4q4 0 5 4q-8 0 -9 6q84 111 156 182q-106 74 -170 146z" />
<glyph unicode="&#xd8;" horiz-adv-x="1081" d="M0 670l4 22q0 106 6 180q0 4 -4 5l4 18v27q0 4 4 4q0 2 -4 2q25 164 68 246l-4 6q35 109 104 163q51 63 92 66q2 0 23 8v-4q25 14 96 14q6 -4 10 -4q0 6 15 17q4 0 4 -4q14 2 14 8q4 0 12 -4q61 4 97 4h20q12 0 23 -2l16 51q35 18 35 31h29q6 0 6 -6l8 6h4q37 -29 37 -66 q0 -8 -14 -53q33 -14 65 -39q66 -33 137 -178q29 -70 29 -76q-4 -6 -4 -10q6 0 18 -60h-4q12 -35 17 -73h-5l5 -6v-9q0 -4 -5 -4l5 -8v-6q0 -4 -5 -4q4 -4 9 -41h-4l4 -6v-4l-4 -9q6 0 6 -8v-10h-6l4 -18q0 -4 -4 -5l4 -6v-12q0 -2 -4 -2l4 -8v-4q0 -4 -4 -4l4 -7v-4 q0 -12 -4 -12l4 -18v-56h-9q0 -12 5 -18q-20 -137 -33 -197q0 -2 2 -2q-6 -41 -10 -41q0 -4 4 -4q-37 -150 -64 -207q-47 -84 -69 -106q-109 -109 -211 -137q-29 -12 -78 -17q-16 4 -17 8q-2 0 -2 -4q-135 23 -186 37q-6 -23 -10 -22l4 -23q-16 -51 -55 -51v4l-9 -4h-4 q-51 29 -51 70q14 37 23 36q0 4 -4 5q8 28 14 55q-104 96 -139 219q-53 201 -64 297h2l-2 6v49q0 12 -4 19zM96 598q41 -233 84 -350q20 -39 53 -78q66 231 91 285q0 4 -7 4q31 96 31 102q-4 0 -4 4q6 0 16 60q8 16 13 16l-4 8q14 55 20 56l-4 8q27 74 82 274q25 57 72 303 q6 0 16 49q-18 2 -18 7q-4 0 -5 -3l-45 3h-24q-18 -10 -31 -11l-6 4q-164 -43 -164 -55q-12 0 -69 -72q-51 -125 -87 -276l5 -8q-2 -27 -7 -27q0 -2 2 -2q-2 -41 -6 -41q0 -4 4 -4l-4 -18v-60q0 -8 -4 -14q4 -6 4 -10l-4 -27q0 -4 4 -4l-4 -19v-84l4 -20h-4zM322 92 q43 -27 96 -26q0 -4 69 -11q80 0 205 107q68 76 84 137l8 4q-4 6 -4 10q14 45 19 49l-2 9q12 0 28 133q14 0 29 235l4 52q0 4 -4 12q4 25 4 41v41q0 4 4 4l-8 29l4 8q-4 33 -6 39l2 8l-2 22q2 0 2 4q-6 0 -6 7v16l4 6q-6 0 -31 105q-2 0 -59 102q-10 2 -19 22q-24 28 -73 48 q-6 -18 -15 -39q-25 -74 -51 -203z" />
<glyph unicode="&#xd9;" horiz-adv-x="1099" d="M0 625q4 8 4 12q-4 6 -4 10h4q0 4 -4 4l4 19v14q0 8 -4 14q4 8 4 17v18q0 8 -4 15q4 6 4 14v22l-4 27q6 0 6 6q-2 8 -2 12h2q0 4 -2 5l2 24v45q0 8 -2 15q2 10 6 51q-4 8 -4 12l8 2l-8 21q8 16 8 32q-4 6 -4 11q4 0 13 12l-9 14q6 16 13 47l-4 8q0 4 4 5q0 4 -4 10 q4 41 4 71h4q-4 6 -4 11q6 70 10 69q0 4 -4 4q0 49 55 74h4q35 0 49 -41l-4 -6l4 -18q-8 -29 -8 -33t4 -4q-6 -68 -10 -68l2 -8v-10q0 -47 -6 -68q4 -10 6 -10q-4 -43 -10 -43q0 -4 4 -4l-4 -19q0 -18 -4 -114h-4l4 -8q0 -4 -4 -5l4 -6q0 -4 -4 -4l4 -8q0 -4 -4 -10 q4 -20 4 -33v-23q0 -4 -4 -4l4 -8q0 -4 -4 -4q0 -2 4 -2l-4 -14q0 -4 4 -13q-4 -20 -4 -32l4 -19h-4l4 -8q0 -2 -4 -2l4 -27v-8l-4 -22q0 -4 4 -4q0 -4 -4 -11q4 -51 8 -69l-4 -9q4 -74 14 -159h-2l14 -47l-4 -9q18 -88 51 -141q88 -113 170 -113q0 -6 45 -8q4 0 5 4l18 -4 h37q100 10 139 37q18 0 117 92q16 18 33 54q-4 0 -4 2q33 55 32 77l-4 9q4 14 8 14l-4 8q16 25 23 107q6 0 10 41q0 4 -2 4q10 57 18 129q-4 8 -4 12h4l-8 25l4 8q-4 6 -4 14h4q0 4 -4 4q4 25 8 33l-8 4q8 41 8 51l-4 8q0 4 4 5l-4 18v84q0 14 -4 41q4 6 4 10l-8 17 q0 4 4 10q-4 20 -4 28q0 4 4 13l-14 133l4 6q-4 8 -4 16q0 4 4 4q-18 72 -18 129v19q12 0 20 27q20 6 27 6q0 -4 4 -4q0 12 4 12q29 -16 47 -35v-2l-2 -8q6 0 6 -6v-4q0 -4 -4 -5q8 -66 14 -65l-2 -8v-27q0 -8 2 -14l-2 -8q2 -6 2 -15q-2 0 -2 -4q6 0 11 -28l-5 -21 q12 -139 17 -166h-4q4 -6 4 -10q-4 -6 -4 -10l6 -4l-2 -9v-10l2 -22q-2 -8 -2 -13l2 -6q-2 -8 -2 -14l6 -4q-8 -74 -14 -78q8 -2 8 -8v-37q0 -25 2 -47l-6 -60l4 -8l-17 -74q0 -4 5 -4q-14 -96 -29 -151q4 -6 4 -10q0 -39 -41 -138q0 -47 -109 -159q-137 -100 -225 -101 q-4 0 -10 -4q-4 0 -4 4q-31 -4 -55 -10l-9 4q-8 -4 -12 -4q-2 0 -2 4l-18 -4l-19 4q-8 -4 -12 -4v4q-2 0 -2 -4q-102 0 -211 78q-104 94 -141 293q0 31 -13 80h4l-4 8v28q0 20 -6 21q0 6 2 6q-2 43 -2 64v24zM219 1706v4q0 31 45 64q0 4 4 4h27q84 -88 231 -207 q16 -29 17 -35q0 -37 -54 -47q0 4 -4 4q0 -8 -6 -8h-8q-20 0 -33 26q-8 0 -100 78q-82 55 -119 117z" />
<glyph unicode="&#xda;" horiz-adv-x="1120" d="M0 625q4 8 4 12q-4 6 -4 10h4q0 4 -4 4l4 19v14q0 8 -4 14q4 8 4 17v18q0 8 -4 15q4 6 4 14v22l-4 27q6 0 6 6q-2 8 -2 12h2q0 4 -2 5l2 24v45q0 8 -2 15q2 10 6 51q-4 8 -4 12l8 2l-8 21q8 16 8 32q-4 6 -4 11q4 0 13 12l-9 14q6 16 13 47l-4 8q0 4 4 5q0 4 -4 10 q4 41 4 71h4q-4 6 -4 11q6 70 10 69q0 4 -4 4q0 49 55 74h4q35 0 49 -41l-4 -6l4 -18q-8 -29 -8 -33t4 -4q-6 -68 -10 -68l2 -8v-10q0 -47 -6 -68q4 -10 6 -10q-4 -43 -10 -43q0 -4 4 -4l-4 -19q0 -18 -4 -114h-4l4 -8q0 -4 -4 -5l4 -6q0 -4 -4 -4l4 -8q0 -4 -4 -10 q4 -20 4 -33v-23q0 -4 -4 -4l4 -8q0 -4 -4 -4q0 -2 4 -2l-4 -14q0 -4 4 -13q-4 -20 -4 -32l4 -19h-4l4 -8q0 -2 -4 -2l4 -27v-8l-4 -22q0 -4 4 -4q0 -4 -4 -11q4 -51 8 -69l-4 -9q4 -74 14 -159h-2l14 -47l-4 -9q18 -88 51 -141q88 -113 170 -113q0 -6 45 -8q4 0 5 4l18 -4 h37q100 10 139 37q18 0 117 92q16 18 33 54q-4 0 -4 2q33 55 32 77l-4 9q4 14 8 14l-4 8q16 25 23 107q6 0 10 41q0 4 -2 4q10 57 18 129q-4 8 -4 12h4l-8 25l4 8q-4 6 -4 14h4q0 4 -4 4q4 25 8 33l-8 4q8 41 8 51l-4 8q0 4 4 5l-4 18v84q0 14 -4 41q4 6 4 10l-8 17 q0 4 4 10q-4 20 -4 28q0 4 4 13l-14 133l4 6q-4 8 -4 16q0 4 4 4q-18 72 -18 129v19q12 0 20 27q20 6 27 6q0 -4 4 -4q0 12 4 12q29 -16 47 -35v-2l-2 -8q6 0 6 -6v-4q0 -4 -4 -5q8 -66 14 -65l-2 -8v-27q0 -8 2 -14l-2 -8q2 -6 2 -15q-2 0 -2 -4q6 0 11 -28l-5 -21 q12 -139 17 -166h-4q4 -6 4 -10q-4 -6 -4 -10l6 -4l-2 -9v-10l2 -22q-2 -8 -2 -13l2 -6q-2 -8 -2 -14l6 -4q-8 -74 -14 -78q8 -2 8 -8v-37q0 -25 2 -47l-6 -60l4 -8l-17 -74q0 -4 5 -4q-14 -96 -29 -151q4 -6 4 -10q0 -39 -41 -138q0 -47 -109 -159q-137 -100 -225 -101 q-4 0 -10 -4q-4 0 -4 4q-31 -4 -55 -10l-9 4q-8 -4 -12 -4q-2 0 -2 4l-18 -4l-19 4q-8 -4 -12 -4v4q-2 0 -2 -4q-102 0 -211 78q-104 94 -141 293q0 31 -13 80h4l-4 8v28q0 20 -6 21q0 6 2 6q-2 43 -2 64v24zM420 1536q0 6 14 35q150 119 234 207h26q4 0 4 -4q43 -33 43 -64 v-4q-35 -61 -116 -117q-94 -78 -101 -78q-12 -27 -35 -26h-6q-8 0 -8 8q-4 0 -4 -4q-51 10 -51 47z" />
<glyph unicode="&#xdb;" horiz-adv-x="1110" d="M0 625q4 8 4 12q-4 6 -4 10h4q0 4 -4 4l4 19v14q0 8 -4 14q4 8 4 17v18q0 8 -4 15q4 6 4 14v22l-4 27q6 0 6 6q-2 8 -2 12h2q0 4 -2 5l2 24v45q0 8 -2 15q2 10 6 51q-4 8 -4 12l8 2l-8 21q8 16 8 32q-4 6 -4 11q4 0 13 12l-9 14q6 16 13 47l-4 8q0 4 4 5q0 4 -4 10 q4 41 4 71h4q-4 6 -4 11q6 70 10 69q0 4 -4 4q0 49 55 74h4q35 0 49 -41l-4 -6l4 -18q-8 -29 -8 -33t4 -4q-6 -68 -10 -68l2 -8v-10q0 -47 -6 -68q4 -10 6 -10q-4 -43 -10 -43q0 -4 4 -4l-4 -19q0 -18 -4 -114h-4l4 -8q0 -4 -4 -5l4 -6q0 -4 -4 -4l4 -8q0 -4 -4 -10 q4 -20 4 -33v-23q0 -4 -4 -4l4 -8q0 -4 -4 -4q0 -2 4 -2l-4 -14q0 -4 4 -13q-4 -20 -4 -32l4 -19h-4l4 -8q0 -2 -4 -2l4 -27v-8l-4 -22q0 -4 4 -4q0 -4 -4 -11q4 -51 8 -69l-4 -9q4 -74 14 -159h-2l14 -47l-4 -9q18 -88 51 -141q88 -113 170 -113q0 -6 45 -8q4 0 5 4l18 -4 h37q100 10 139 37q18 0 117 92q16 18 33 54q-4 0 -4 2q33 55 32 77l-4 9q4 14 8 14l-4 8q16 25 23 107q6 0 10 41q0 4 -2 4q10 57 18 129q-4 8 -4 12h4l-8 25l4 8q-4 6 -4 14h4q0 4 -4 4q4 25 8 33l-8 4q8 41 8 51l-4 8q0 4 4 5l-4 18v84q0 14 -4 41q4 6 4 10l-8 17 q0 4 4 10q-4 20 -4 28q0 4 4 13l-14 133l4 6q-4 8 -4 16q0 4 4 4q-18 72 -18 129v19q12 0 20 27q20 6 27 6q0 -4 4 -4q0 12 4 12q29 -16 47 -35v-2l-2 -8q6 0 6 -6v-4q0 -4 -4 -5q8 -66 14 -65l-2 -8v-27q0 -8 2 -14l-2 -8q2 -6 2 -15q-2 0 -2 -4q6 0 11 -28l-5 -21 q12 -139 17 -166h-4q4 -6 4 -10q-4 -6 -4 -10l6 -4l-2 -9v-10l2 -22q-2 -8 -2 -13l2 -6q-2 -8 -2 -14l6 -4q-8 -74 -14 -78q8 -2 8 -8v-37q0 -25 2 -47l-6 -60l4 -8l-17 -74q0 -4 5 -4q-14 -96 -29 -151q4 -6 4 -10q0 -39 -41 -138q0 -47 -109 -159q-137 -100 -225 -101 q-4 0 -10 -4q-4 0 -4 4q-31 -4 -55 -10l-9 4q-8 -4 -12 -4q-2 0 -2 4l-18 -4l-19 4q-8 -4 -12 -4v4q-2 0 -2 -4q-102 0 -211 78q-104 94 -141 293q0 31 -13 80h4l-4 8v28q0 20 -6 21q0 6 2 6q-2 43 -2 64v24zM291 1501v15q29 55 74 174q10 0 28 59q27 14 45 14h4q2 0 2 -2 l9 2q66 -39 141 -143q51 -70 51 -78t8 -18v-27q-16 -20 -35 -29q-2 0 -2 5l-8 -5h-8q-2 0 -2 5l-8 -5q-4 0 -4 5l-6 -5q-10 0 -13 19l-8 -4q-47 88 -110 147q-10 -14 -48 -133q-16 -31 -36 -47l-9 2l-10 -6q-55 6 -55 55z" />
<glyph unicode="&#xdc;" horiz-adv-x="1116" d="M0 625q4 8 4 12q-4 6 -4 10h4q0 4 -4 4l4 19v14q0 8 -4 14q4 8 4 17v18q0 8 -4 15q4 6 4 14v22l-4 27q6 0 6 6q-2 8 -2 12h2q0 4 -2 5l2 24v45q0 8 -2 15q2 10 6 51q-4 8 -4 12l8 2l-8 21q8 16 8 32q-4 6 -4 11q4 0 13 12l-9 14q6 16 13 47l-4 8q0 4 4 5q0 4 -4 10 q4 41 4 71h4q-4 6 -4 11q6 70 10 69q0 4 -4 4q0 49 55 74h4q35 0 49 -41l-4 -6l4 -18q-8 -29 -8 -33t4 -4q-6 -68 -10 -68l2 -8v-10q0 -47 -6 -68q4 -10 6 -10q-4 -43 -10 -43q0 -4 4 -4l-4 -19q0 -18 -4 -114h-4l4 -8q0 -4 -4 -5l4 -6q0 -4 -4 -4l4 -8q0 -4 -4 -10 q4 -20 4 -33v-23q0 -4 -4 -4l4 -8q0 -4 -4 -4q0 -2 4 -2l-4 -14q0 -4 4 -13q-4 -20 -4 -32l4 -19h-4l4 -8q0 -2 -4 -2l4 -27v-8l-4 -22q0 -4 4 -4q0 -4 -4 -11q4 -51 8 -69l-4 -9q4 -74 14 -159h-2l14 -47l-4 -9q18 -88 51 -141q88 -113 170 -113q0 -6 45 -8q4 0 5 4l18 -4 h37q100 10 139 37q18 0 117 92q16 18 33 54q-4 0 -4 2q33 55 32 77l-4 9q4 14 8 14l-4 8q16 25 23 107q6 0 10 41q0 4 -2 4q10 57 18 129q-4 8 -4 12h4l-8 25l4 8q-4 6 -4 14h4q0 4 -4 4q4 25 8 33l-8 4q8 41 8 51l-4 8q0 4 4 5l-4 18v84q0 14 -4 41q4 6 4 10l-8 17 q0 4 4 10q-4 20 -4 28q0 4 4 13l-14 133l4 6q-4 8 -4 16q0 4 4 4q-18 72 -18 129v19q12 0 20 27q20 6 27 6q0 -4 4 -4q0 12 4 12q29 -16 47 -35v-2l-2 -8q6 0 6 -6v-4q0 -4 -4 -5q8 -66 14 -65l-2 -8v-27q0 -8 2 -14l-2 -8q2 -6 2 -15q-2 0 -2 -4q6 0 11 -28l-5 -21 q12 -139 17 -166h-4q4 -6 4 -10q-4 -6 -4 -10l6 -4l-2 -9v-10l2 -22q-2 -8 -2 -13l2 -6q-2 -8 -2 -14l6 -4q-8 -74 -14 -78q8 -2 8 -8v-37q0 -25 2 -47l-6 -60l4 -8l-17 -74q0 -4 5 -4q-14 -96 -29 -151q4 -6 4 -10q0 -39 -41 -138q0 -47 -109 -159q-137 -100 -225 -101 q-4 0 -10 -4q-4 0 -4 4q-31 -4 -55 -10l-9 4q-8 -4 -12 -4q-2 0 -2 4l-18 -4l-19 4q-8 -4 -12 -4v4q-2 0 -2 -4q-102 0 -211 78q-104 94 -141 293q0 31 -13 80h4l-4 8v28q0 20 -6 21q0 6 2 6q-2 43 -2 64v24zM256 1550l2 6q-2 6 -2 17q47 57 84 57h14q59 -16 60 -47 q8 0 8 -33h-4l4 -8q0 -31 -68 -59h-14q-41 0 -82 53q0 6 -2 14zM557 1569q0 41 64 61h28q35 -16 60 -59l-4 -19v-24q-31 -49 -66 -49q-78 10 -78 73q-4 1 -4 17z" />
<glyph unicode="&#xdd;" horiz-adv-x="1099" d="M0 1399q6 27 14 26h4q4 0 5 -4q6 4 10 4l14 -4q8 4 12 4l9 -12l6 4q31 -29 141 -207q27 -31 129 -196q47 -70 137 -221q6 0 51 77q96 137 187 304q27 25 121 202q8 0 41 64q12 22 18 22h4q4 0 4 -4l6 4h17q29 -31 28 -55q0 -8 -32 -64q0 -8 -49 -81q-104 -186 -195 -318 q-37 -74 -131 -205q-23 -43 -23 -77q0 -25 -4 -44l4 -8q-4 -14 -4 -24q0 -4 4 -4l-4 -21v-29q0 -4 -2 -4l2 -6v-14q0 -4 -2 -4q0 -4 2 -4l-2 -19v-73q0 -4 -4 -5l4 -8v-151q0 -8 2 -15q-2 -6 -2 -14v-10l2 -27h-2l2 -8q4 -70 4 -96h-4l4 -6q0 -63 -43 -64q0 -4 -4 -4 q-39 0 -41 70h4l-4 8v4q0 8 4 14q-4 6 -4 15v4q0 4 4 4q-4 8 -4 10q-8 176 -8 209v113q0 4 4 4q-4 8 -4 12q0 6 4 41l-4 6l4 23v4q0 8 -4 14l4 6l-4 25v2q0 4 4 4l-4 6q0 4 4 4l-4 8v41q0 16 4 41q-131 217 -219 340q0 12 -49 88l-121 174q-47 47 -47 105zM420 1536 q0 6 14 35q150 119 234 207h26q4 0 4 -4q43 -33 43 -64v-4q-35 -61 -116 -117q-94 -78 -101 -78q-12 -27 -35 -26h-6q-8 0 -8 8q-4 0 -4 -4q-51 10 -51 47z" />
<glyph unicode="&#xde;" horiz-adv-x="1120" />
<glyph unicode="&#xdf;" horiz-adv-x="1251" />
<glyph unicode="&#xe0;" horiz-adv-x="1071" d="M0 18v19q6 61 33 100l-2 6l28 64l-4 8q51 139 119 344q10 16 47 137q6 0 53 121q0 8 64 174q-4 0 -4 4q8 8 43 115q92 285 123 285q4 0 12 4q57 0 70 -101q61 -209 88 -372l110 -414l49 -127h-4q20 -51 29 -86l39 -82l-4 -6q12 -18 43 -123q4 0 12 -18q0 -2 -4 -2l4 -9 v-22l-4 -6q4 0 4 -4q-16 -23 -55 -27q-8 0 -8 6l-9 -2h-2q-37 23 -36 59q-4 0 -5 5q0 2 5 2q-12 23 -86 245q-55 145 -82 250h-41q-10 0 -11 -4l-18 4h-45q-8 0 -14 -4q-6 4 -15 4h-30q-12 0 -19 -4l-22 4h-39q-10 0 -17 -4q-14 4 -14 8l-6 -4q-4 0 -4 4l-9 -4q-4 0 -4 4 l-6 -4h-14q-4 0 -4 4l-8 -4q-49 8 -52 8q0 -10 -45 -124l-88 -271q-33 -90 -41 -96l4 -8q-12 -14 -12 -23q4 -6 4 -10q-10 -16 -49 -37h-10q-8 0 -14 2q-8 -2 -13 -2zM219 1706v4q0 31 45 64q0 4 4 4h27q84 -88 231 -207q16 -29 17 -35q0 -37 -54 -47q0 4 -4 4q0 -8 -6 -8 h-8q-20 0 -33 26q-8 0 -100 78q-82 55 -119 117zM307 655h4q4 0 4 4l25 -4q16 0 22 4q25 -4 41 -4h105l16 4v-4l8 4h50q4 0 4 3q37 -2 37 -7q6 4 14 4q-4 25 -23 97h4q-41 113 -63 239q-4 0 -4 4h4q-23 100 -47 179v6h-8q-35 -106 -74 -203l2 -8q-53 -133 -121 -318z" />
<glyph unicode="&#xe1;" horiz-adv-x="1050" d="M0 18v19q6 61 33 100l-2 6l28 64l-4 8q51 139 119 344q10 16 47 137q6 0 53 121q0 8 64 174q-4 0 -4 4q8 8 43 115q92 285 123 285q4 0 12 4q57 0 70 -101q61 -209 88 -372l110 -414l49 -127h-4q20 -51 29 -86l39 -82l-4 -6q12 -18 43 -123q4 0 12 -18q0 -2 -4 -2l4 -9 v-22l-4 -6q4 0 4 -4q-16 -23 -55 -27q-8 0 -8 6l-9 -2h-2q-37 23 -36 59q-4 0 -5 5q0 2 5 2q-12 23 -86 245q-55 145 -82 250h-41q-10 0 -11 -4l-18 4h-45q-8 0 -14 -4q-6 4 -15 4h-30q-12 0 -19 -4l-22 4h-39q-10 0 -17 -4q-14 4 -14 8l-6 -4q-4 0 -4 4l-9 -4q-4 0 -4 4 l-6 -4h-14q-4 0 -4 4l-8 -4q-49 8 -52 8q0 -10 -45 -124l-88 -271q-33 -90 -41 -96l4 -8q-12 -14 -12 -23q4 -6 4 -10q-10 -16 -49 -37h-10q-8 0 -14 2q-8 -2 -13 -2zM307 655h4q4 0 4 4l25 -4q16 0 22 4q25 -4 41 -4h105l16 4v-4l8 4h50q4 0 4 3q37 -2 37 -7q6 4 14 4 q-4 25 -23 97h4q-41 113 -63 239q-4 0 -4 4h4q-23 100 -47 179v6h-8q-35 -106 -74 -203l2 -8q-53 -133 -121 -318zM520 1536q0 6 15 35q150 119 233 207h27q4 0 4 -4q43 -33 43 -64v-4q-35 -61 -117 -117q-94 -78 -100 -78q-12 -27 -35 -26h-6q-8 0 -9 8q-4 0 -4 -4 q-51 10 -51 47z" />
<glyph unicode="&#xe2;" horiz-adv-x="1058" d="M0 18v19q6 61 33 100l-2 6l28 64l-4 8q51 139 119 344q10 16 47 137q6 0 53 121q0 8 64 174q-4 0 -4 4q8 8 43 115q92 285 123 285q4 0 12 4q57 0 70 -101q61 -209 88 -372l110 -414l49 -127h-4q20 -51 29 -86l39 -82l-4 -6q12 -18 43 -123q4 0 12 -18q0 -2 -4 -2l4 -9 v-22l-4 -6q4 0 4 -4q-16 -23 -55 -27q-8 0 -8 6l-9 -2h-2q-37 23 -36 59q-4 0 -5 5q0 2 5 2q-12 23 -86 245q-55 145 -82 250h-41q-10 0 -11 -4l-18 4h-45q-8 0 -14 -4q-6 4 -15 4h-30q-12 0 -19 -4l-22 4h-39q-10 0 -17 -4q-14 4 -14 8l-6 -4q-4 0 -4 4l-9 -4q-4 0 -4 4 l-6 -4h-14q-4 0 -4 4l-8 -4q-49 8 -52 8q0 -10 -45 -124l-88 -271q-33 -90 -41 -96l4 -8q-12 -14 -12 -23q4 -6 4 -10q-10 -16 -49 -37h-10q-8 0 -14 2q-8 -2 -13 -2zM307 655h4q4 0 4 4l25 -4q16 0 22 4q25 -4 41 -4h105l16 4v-4l8 4h50q4 0 4 3q37 -2 37 -7q6 4 14 4 q-4 25 -23 97h4q-41 113 -63 239q-4 0 -4 4h4q-23 100 -47 179v6h-8q-35 -106 -74 -203l2 -8q-53 -133 -121 -318zM319 1501v15q31 55 74 174q10 0 31 59q25 14 45 14h2q4 0 4 -2l8 2q66 -39 140 -143q53 -70 53 -78t6 -18v-27q-14 -20 -33 -29q-4 0 -4 5l-6 -5h-8 q-4 0 -4 5l-6 -5q-4 0 -5 5l-8 -5q-10 0 -10 19l-8 -4q-47 88 -111 147q-10 -14 -49 -133q-14 -31 -37 -47l-6 2l-10 -6q-57 6 -58 55z" />
<glyph unicode="&#xe3;" horiz-adv-x="1064" d="M0 18v19q6 61 33 100l-2 6l28 64l-4 8q51 139 119 344q10 16 47 137q6 0 53 121q0 8 64 174q-4 0 -4 4q8 8 43 115q92 285 123 285q4 0 12 4q57 0 70 -101q61 -209 88 -372l110 -414l49 -127h-4q20 -51 29 -86l39 -82l-4 -6q12 -18 43 -123q4 0 12 -18q0 -2 -4 -2l4 -9 v-22l-4 -6q4 0 4 -4q-16 -23 -55 -27q-8 0 -8 6l-9 -2h-2q-37 23 -36 59q-4 0 -5 5q0 2 5 2q-12 23 -86 245q-55 145 -82 250h-41q-10 0 -11 -4l-18 4h-45q-8 0 -14 -4q-6 4 -15 4h-30q-12 0 -19 -4l-22 4h-39q-10 0 -17 -4q-14 4 -14 8l-6 -4q-4 0 -4 4l-9 -4q-4 0 -4 4 l-6 -4h-14q-4 0 -4 4l-8 -4q-49 8 -52 8q0 -10 -45 -124l-88 -271q-33 -90 -41 -96l4 -8q-12 -14 -12 -23q4 -6 4 -10q-10 -16 -49 -37h-10q-8 0 -14 2q-8 -2 -13 -2zM238 1538h4l-4 8v39q6 14 14 57q41 76 86 99q29 16 43 16q4 0 4 -4l6 4h19q76 0 215 -168q37 -20 47 -20 h10q45 23 45 30q10 23 14 23l-2 6v4q0 4 2 4q-2 8 -6 45q4 0 4 5q-8 0 -8 8h4l-4 6v4l39 49q8 4 12 4q45 -6 45 -24q4 -8 4 -11q-4 -8 -4 -12q6 0 13 -10v-2q0 -10 -9 -23l5 -18q0 -111 -109 -178v4q-31 -18 -45 -19q-6 4 -14 4q-8 -4 -11 -4v4l-8 -4q-102 45 -119 82 q-8 0 -81 90q-29 27 -74 27q-61 -39 -62 -113q4 -14 4 -32q-2 0 -22 -23h-33l-6 4q0 -4 -4 -4q0 4 -2 4l2 8q-14 16 -14 31zM307 655h4q4 0 4 4l25 -4q16 0 22 4q25 -4 41 -4h105l16 4v-4l8 4h50q4 0 4 3q37 -2 37 -7q6 4 14 4q-4 25 -23 97h4q-41 113 -63 239q-4 0 -4 4h4 q-23 100 -47 179v6h-8q-35 -106 -74 -203l2 -8q-53 -133 -121 -318z" />
<glyph unicode="&#xe4;" horiz-adv-x="1024" d="M0 18v19q6 61 33 100l-2 6l28 64l-4 8q51 139 119 344q10 16 47 137q6 0 53 121q0 8 64 174q-4 0 -4 4q8 8 43 115q92 285 123 285q4 0 12 4q57 0 70 -101q61 -209 88 -372l110 -414l49 -127h-4q20 -51 29 -86l39 -82l-4 -6q12 -18 43 -123q4 0 12 -18q0 -2 -4 -2l4 -9 v-22l-4 -6q4 0 4 -4q-16 -23 -55 -27q-8 0 -8 6l-9 -2h-2q-37 23 -36 59q-4 0 -5 5q0 2 5 2q-12 23 -86 245q-55 145 -82 250h-41q-10 0 -11 -4l-18 4h-45q-8 0 -14 -4q-6 4 -15 4h-30q-12 0 -19 -4l-22 4h-39q-10 0 -17 -4q-14 4 -14 8l-6 -4q-4 0 -4 4l-9 -4q-4 0 -4 4 l-6 -4h-14q-4 0 -4 4l-8 -4q-49 8 -52 8q0 -10 -45 -124l-88 -271q-33 -90 -41 -96l4 -8q-12 -14 -12 -23q4 -6 4 -10q-10 -16 -49 -37h-10q-8 0 -14 2q-8 -2 -13 -2zM274 1550l5 6q-4 6 -5 17q49 57 86 57h15q59 -16 59 -47q8 0 8 -33h-4l4 -8q0 -31 -67 -59h-15 q-41 0 -81 53q-1 6 -5 14zM307 655h4q4 0 4 4l25 -4q16 0 22 4q25 -4 41 -4h105l16 4v-4l8 4h50q4 0 4 3q37 -2 37 -7q6 4 14 4q-4 25 -23 97h4q-41 113 -63 239q-4 0 -4 4h4q-23 100 -47 179v6h-8q-35 -106 -74 -203l2 -8q-53 -133 -121 -318zM578 1569q0 41 61 61h31 q35 -16 59 -59l-4 -19v-24q-31 -49 -68 -49q-76 10 -75 73q-4 1 -4 17z" />
<glyph unicode="&#xe5;" horiz-adv-x="1077" d="M0 18v19q6 61 33 100l-2 6l28 64l-4 8q51 139 119 344q10 16 47 137q6 0 53 121q0 8 64 174q-4 0 -4 4q8 8 43 115q92 285 123 285q4 0 12 4q57 0 70 -101q61 -209 88 -372l110 -414l49 -127h-4q20 -51 29 -86l39 -82l-4 -6q12 -18 43 -123q4 0 12 -18q0 -2 -4 -2l4 -9 v-22l-4 -6q4 0 4 -4q-16 -23 -55 -27q-8 0 -8 6l-9 -2h-2q-37 23 -36 59q-4 0 -5 5q0 2 5 2q-12 23 -86 245q-55 145 -82 250h-41q-10 0 -11 -4l-18 4h-45q-8 0 -14 -4q-6 4 -15 4h-30q-12 0 -19 -4l-22 4h-39q-10 0 -17 -4q-14 4 -14 8l-6 -4q-4 0 -4 4l-9 -4q-4 0 -4 4 l-6 -4h-14q-4 0 -4 4l-8 -4q-49 8 -52 8q0 -10 -45 -124l-88 -271q-33 -90 -41 -96l4 -8q-12 -14 -12 -23q4 -6 4 -10q-10 -16 -49 -37h-10q-8 0 -14 2q-8 -2 -13 -2zM307 655h4q4 0 4 4l25 -4q16 0 22 4q25 -4 41 -4h105l16 4v-4l8 4h50q4 0 4 3q37 -2 37 -7q6 4 14 4 q-4 25 -23 97h4q-41 113 -63 239q-4 0 -4 4h4q-23 100 -47 179v6h-8q-35 -106 -74 -203l2 -8q-53 -133 -121 -318zM356 1587v15q16 61 35 71q70 78 131 78q0 6 2 6q53 0 111 -94q0 -14 4 -37q0 -92 -72 -156q-14 -8 -24 -8l-15 4l-6 -4q-4 0 -4 4l-16 -4h-13l-6 4 q0 -8 -8 -8h-6q-113 41 -113 129zM451 1583q33 -29 47 -29q37 0 41 72q0 23 -17 35q-10 0 -24 -14q0 6 -4 6q-39 -51 -43 -51v-19z" />
<glyph unicode="&#xe6;" horiz-adv-x="1351" d="M0 35v14q78 197 184 526q10 12 113 291q172 403 195 441l-5 8q10 29 41 41q16 18 60 18h4q6 -2 6 -8l39 8l6 -4l8 4q6 -4 11 -4l8 4q4 0 4 -4q49 8 139 8h45q4 0 4 -4l8 4q2 0 2 -4l9 4h37q12 0 12 2l16 -2h45l23 2q37 -2 37 -6l8 4h37q51 -20 51 -37v-18l-47 -45l-21 2 l-16 -2q-39 2 -39 6l-6 -4h-60q-8 0 -14 4q-6 -4 -14 -4q-4 0 -4 4l-8 -4q-4 0 -5 4l-18 -4h-66l-18 -2v2l-8 -2h-31q-66 0 -129 -8l-6 4q-8 -4 -12 -4q14 -106 14 -185l4 -8l-4 -8q0 -14 4 -20q-4 -49 -4 -78v-115q0 -14 4 -31q-4 -14 -4 -28v-29q0 -16 4 -31 q-4 -14 -4 -28v-41q0 -8 4 -17q-4 -6 -4 -12q14 -8 31 -8h8q6 0 14 4l6 -4q8 4 17 4v-4l8 4q6 0 12 -4l8 4l19 -4l26 4l15 -4l22 4q2 0 15 -4q6 4 14 4v-4l8 4q2 0 23 -4l8 4q4 -4 14 -4q18 0 19 8l18 -4q20 0 25 4q20 -4 35 -4h28l8 -4q0 4 2 4q37 -25 37 -45v-8 q-25 -43 -75 -43h-31q-8 0 -15 -4q-37 4 -36 6l-9 -2h-6q-4 0 -4 2l-8 -2h-18q-8 0 -15 2q-6 -2 -14 -2h-4q-4 0 -4 2l-6 -2h-68q-8 0 -14 -4q-6 4 -17 4h-24l-37 -4v4q-31 -6 -31 -17v-10q0 -18 4 -37l-4 -22q0 -4 4 -4l-4 -19v-37q0 -8 4 -14q-4 -6 -4 -14v-5q2 -8 8 -8 l-4 -8q0 -6 4 -14q-4 -6 -4 -11l8 -4q0 -8 -4 -8l8 -88q-4 -12 -4 -33l4 -8l-4 -8q4 -6 4 -10l-4 -6q6 -16 7 -41l-3 -9l80 -14l9 4l14 -4q4 0 10 4q20 -4 35 -4h14q12 0 13 4l18 -4h51q8 0 15 4l8 -4q6 4 14 4q4 0 4 -4l6 4h33l21 2v-2l6 2h4q70 0 123 13l4 -9l6 4h22 q39 -31 41 -45q-23 -43 -41 -43q0 -8 -22 -8q-63 0 -170 -14q-6 4 -10 4t-31 -4q-4 0 -4 4l-25 -4h-100q-8 0 -14 -4q-8 4 -17 4h-6l-18 -4v4q-4 0 -4 -4l-142 14l-8 -4q-39 20 -39 35q-4 0 -4 4v14q0 27 -6 41q0 43 12 43v21q0 72 -6 96q0 2 4 2l-4 37v72l-4 24h4l-4 8v11 q0 4 4 4l-4 8v10q0 4 4 4l-4 6v35q0 14 -2 39q2 8 2 12q-8 6 -33 13l-6 -4h-12q-14 0 -33 4q-8 -4 -12 -4l-6 4q-8 -4 -17 -4q-4 0 -4 4q-166 -10 -166 -21q0 -14 -55 -162q-4 0 -23 -55l-92 -270q-4 -4 -18 -33q-14 0 -15 -4q-59 0 -59 41zM307 627h4q39 0 117 8l8 -4 q27 4 41 4h55q4 0 5 -4q8 4 12 4v6q0 8 -4 14q4 6 4 17q0 10 -4 10l4 27v88l-4 26h4l-4 6v19q0 4 4 4l-4 8v6q0 39 4 82l-4 27l4 18q0 2 -4 2l4 27v27q0 18 -4 55h4l-4 6v23q0 16 -4 41q4 6 4 16l-8 4q-43 -113 -152 -356q-78 -205 -78 -211z" />
<glyph unicode="&#xe7;" horiz-adv-x="905" />
<glyph unicode="&#xe8;" horiz-adv-x="956" d="M-10 1040l4 23q0 8 -4 14q4 6 4 17v10q0 8 -4 14q4 6 4 15q0 16 -4 41l4 20q-4 6 -4 10h4q0 2 -4 2q4 45 8 45q0 4 -4 4l4 25v25q0 6 -8 6l4 18l-4 14q25 45 33 46l40 14q33 -14 33 -19l27 5q125 4 145 4v-4l6 4q4 0 5 -4l8 4l6 -4q8 4 12 4v-4q2 0 2 4q8 0 8 -4l23 4 q88 -4 139 -4h21l20 4q16 -8 41 -9h53l19 5v-5q6 4 10 5l8 -5q6 4 15 5l8 -5l6 5l8 -5l23 5q37 -12 36 -37q10 0 11 -9q-12 -8 -23 -38q-10 0 -10 -9h-27l-8 -4l-2 8l-8 -4h-37q-2 0 -2 4l-8 -4l-19 4l-8 -4l-6 4l-23 -4q-4 0 -4 4l-18 -8q-33 4 -109 8l-6 -4q-4 0 -4 4 l-18 -4q-4 0 -13 4q-2 0 -2 -4l-90 9q-45 -4 -88 -5q-4 0 -10 -4q-6 4 -16 4q-2 0 -2 -4l-21 4h-6q-8 0 -14 -4l-9 4q-8 0 -24 -8q-8 4 -17 4h-4q-6 0 -10 -36l4 -9q0 -4 -4 -4q0 -4 4 -4l-4 -16v-33l-4 -25q0 -2 4 -2l-4 -18v-12q0 -8 4 -15l-4 -8q4 -6 4 -14q0 -4 -4 -4 l4 -6v-37q0 -12 4 -21l-4 -12q4 -100 4 -160v-8q0 -8 2 -14q-2 -6 -2 -15q0 -23 6 -22l-4 -19v-53h82q8 0 17 -4q14 8 38 8h23q4 0 4 -4l8 4h37q2 0 2 -4q23 8 96 8h17q8 0 14 4l23 -8l20 4q4 0 4 -4l21 4h2q20 0 35 -4q49 4 59 8q4 -4 14 -4l19 4q27 -14 41 -41v-4 q0 -4 -17 -10l4 -8q0 -8 -24 -27q-4 0 -12 4q-37 -2 -37 -6l-19 2h-12q-14 0 -41 -2q-6 2 -10 2q-6 -2 -19 -2v2l-8 -2h-20q-4 0 -4 2q-6 -2 -45 -6l-7 4l-18 -4q-4 0 -12 4q-88 -10 -156 -10q-8 0 -14 -4l-6 4q-8 -4 -13 -4v4l-8 -4q-4 0 -4 4q-51 -8 -70 -8v-4 q6 -119 17 -119v-4h-8v-88l4 -27h-4l4 -6v-31l4 -18h-4l4 -6q0 -4 -4 -4l4 -19v-4q0 -4 -4 -4l4 -6q0 -4 -4 -4l4 -8v-15q0 -16 4 -41q-4 -8 -4 -10l4 -18l-4 -9q0 -4 4 -12q-4 -18 -4 -33v-10q0 -8 4 -14q-4 -8 -4 -17v-6q0 -8 6 -8l8 4l6 -4q8 4 13 4v-4l8 4q2 0 2 -4l8 4 q10 0 10 -4q41 8 86 8q47 0 78 -8q25 4 41 4h37q8 0 14 -4l6 4q8 0 41 -4l33 4l8 -4q4 0 4 4q37 -4 37 -6q20 6 64 6v-4l8 4h41q2 0 2 -4l8 4h23q4 0 4 -4l6 4q6 -4 10 -4t4 4l19 -4h8q12 0 33 4q14 0 36 -31q0 -25 -18 -32q0 -27 -29 -27l-8 4l-18 -6q-25 2 -41 2h-33 q-4 0 -4 4l-6 -4q-23 0 -54 4q-66 -4 -106 -4q-4 0 -10 -2q-37 2 -37 6l-27 -4h-127q-4 0 -4 4l-6 -4h-68q-18 0 -55 -2v2q-18 -6 -24 -6v4l-9 -4h-4q-8 0 -14 4q-6 -4 -37 -8v4l-6 -4q-27 4 -64 55l3 12q-2 6 -3 11h3q0 4 -3 4l3 24v164q0 8 4 14q-6 18 -7 33h3l-7 41 q4 6 4 19l-4 22l4 19q-4 20 -4 22q0 4 4 4l-8 43l4 17l-4 20h4l-4 8v4q0 66 -8 133h4l-4 9q0 4 4 4l-4 6v37q0 4 4 4l-4 6q0 4 4 4q-8 16 -8 23l4 8q-4 6 -4 14t4 8q-6 51 -6 70q2 6 2 10q-2 12 -6 12l4 25v57q0 8 -4 15q4 6 4 14t-4 14q0 4 4 5q-4 29 -8 36zM139 1706v4 q0 31 45 64q0 4 4 4h25q86 -88 233 -207q16 -29 17 -35q0 -37 -53 -47q0 4 -4 4q0 -8 -7 -8h-8q-20 0 -33 26q-8 0 -100 78q-82 55 -119 117z" />
<glyph unicode="&#xe9;" horiz-adv-x="948" d="M-10 1040l4 23q0 8 -4 14q4 6 4 17v10q0 8 -4 14q4 6 4 15q0 16 -4 41l4 20q-4 6 -4 10h4q0 2 -4 2q4 45 8 45q0 4 -4 4l4 25v25q0 6 -8 6l4 18l-4 14q25 45 33 46l40 14q33 -14 33 -19l27 5q125 4 145 4v-4l6 4q4 0 5 -4l8 4l6 -4q8 4 12 4v-4q2 0 2 4q8 0 8 -4l23 4 q88 -4 139 -4h21l20 4q16 -8 41 -9h53l19 5v-5q6 4 10 5l8 -5q6 4 15 5l8 -5l6 5l8 -5l23 5q37 -12 36 -37q10 0 11 -9q-12 -8 -23 -38q-10 0 -10 -9h-27l-8 -4l-2 8l-8 -4h-37q-2 0 -2 4l-8 -4l-19 4l-8 -4l-6 4l-23 -4q-4 0 -4 4l-18 -8q-33 4 -109 8l-6 -4q-4 0 -4 4 l-18 -4q-4 0 -13 4q-2 0 -2 -4l-90 9q-45 -4 -88 -5q-4 0 -10 -4q-6 4 -16 4q-2 0 -2 -4l-21 4h-6q-8 0 -14 -4l-9 4q-8 0 -24 -8q-8 4 -17 4h-4q-6 0 -10 -36l4 -9q0 -4 -4 -4q0 -4 4 -4l-4 -16v-33l-4 -25q0 -2 4 -2l-4 -18v-12q0 -8 4 -15l-4 -8q4 -6 4 -14q0 -4 -4 -4 l4 -6v-37q0 -12 4 -21l-4 -12q4 -100 4 -160v-8q0 -8 2 -14q-2 -6 -2 -15q0 -23 6 -22l-4 -19v-53h82q8 0 17 -4q14 8 38 8h23q4 0 4 -4l8 4h37q2 0 2 -4q23 8 96 8h17q8 0 14 4l23 -8l20 4q4 0 4 -4l21 4h2q20 0 35 -4q49 4 59 8q4 -4 14 -4l19 4q27 -14 41 -41v-4 q0 -4 -17 -10l4 -8q0 -8 -24 -27q-4 0 -12 4q-37 -2 -37 -6l-19 2h-12q-14 0 -41 -2q-6 2 -10 2q-6 -2 -19 -2v2l-8 -2h-20q-4 0 -4 2q-6 -2 -45 -6l-7 4l-18 -4q-4 0 -12 4q-88 -10 -156 -10q-8 0 -14 -4l-6 4q-8 -4 -13 -4v4l-8 -4q-4 0 -4 4q-51 -8 -70 -8v-4 q6 -119 17 -119v-4h-8v-88l4 -27h-4l4 -6v-31l4 -18h-4l4 -6q0 -4 -4 -4l4 -19v-4q0 -4 -4 -4l4 -6q0 -4 -4 -4l4 -8v-15q0 -16 4 -41q-4 -8 -4 -10l4 -18l-4 -9q0 -4 4 -12q-4 -18 -4 -33v-10q0 -8 4 -14q-4 -8 -4 -17v-6q0 -8 6 -8l8 4l6 -4q8 4 13 4v-4l8 4q2 0 2 -4l8 4 q10 0 10 -4q41 8 86 8q47 0 78 -8q25 4 41 4h37q8 0 14 -4l6 4q8 0 41 -4l33 4l8 -4q4 0 4 4q37 -4 37 -6q20 6 64 6v-4l8 4h41q2 0 2 -4l8 4h23q4 0 4 -4l6 4q6 -4 10 -4t4 4l19 -4h8q12 0 33 4q14 0 36 -31q0 -25 -18 -32q0 -27 -29 -27l-8 4l-18 -6q-25 2 -41 2h-33 q-4 0 -4 4l-6 -4q-23 0 -54 4q-66 -4 -106 -4q-4 0 -10 -2q-37 2 -37 6l-27 -4h-127q-4 0 -4 4l-6 -4h-68q-18 0 -55 -2v2q-18 -6 -24 -6v4l-9 -4h-4q-8 0 -14 4q-6 -4 -37 -8v4l-6 -4q-27 4 -64 55l3 12q-2 6 -3 11h3q0 4 -3 4l3 24v164q0 8 4 14q-6 18 -7 33h3l-7 41 q4 6 4 19l-4 22l4 19q-4 20 -4 22q0 4 4 4l-8 43l4 17l-4 20h4l-4 8v4q0 66 -8 133h4l-4 9q0 4 4 4l-4 6v37q0 4 4 4l-4 6q0 4 4 4q-8 16 -8 23l4 8q-4 6 -4 14t4 8q-6 51 -6 70q2 6 2 10q-2 12 -6 12l4 25v57q0 8 -4 15q4 6 4 14t-4 14q0 4 4 5q-4 29 -8 36zM360 1536 q0 6 15 35q150 119 233 207h27q4 0 4 -4q43 -33 43 -64v-4q-37 -61 -119 -117q-92 -78 -98 -78q-12 -27 -35 -26h-6q-8 0 -8 8q-4 0 -4 -4q-51 10 -52 47z" />
<glyph unicode="&#xea;" horiz-adv-x="929" d="M-10 1040l4 23q0 8 -4 14q4 6 4 17v10q0 8 -4 14q4 6 4 15q0 16 -4 41l4 20q-4 6 -4 10h4q0 2 -4 2q4 45 8 45q0 4 -4 4l4 25v25q0 6 -8 6l4 18l-4 14q25 45 33 46l40 14q33 -14 33 -19l27 5q125 4 145 4v-4l6 4q4 0 5 -4l8 4l6 -4q8 4 12 4v-4q2 0 2 4q8 0 8 -4l23 4 q88 -4 139 -4h21l20 4q16 -8 41 -9h53l19 5v-5q6 4 10 5l8 -5q6 4 15 5l8 -5l6 5l8 -5l23 5q37 -12 36 -37q10 0 11 -9q-12 -8 -23 -38q-10 0 -10 -9h-27l-8 -4l-2 8l-8 -4h-37q-2 0 -2 4l-8 -4l-19 4l-8 -4l-6 4l-23 -4q-4 0 -4 4l-18 -8q-33 4 -109 8l-6 -4q-4 0 -4 4 l-18 -4q-4 0 -13 4q-2 0 -2 -4l-90 9q-45 -4 -88 -5q-4 0 -10 -4q-6 4 -16 4q-2 0 -2 -4l-21 4h-6q-8 0 -14 -4l-9 4q-8 0 -24 -8q-8 4 -17 4h-4q-6 0 -10 -36l4 -9q0 -4 -4 -4q0 -4 4 -4l-4 -16v-33l-4 -25q0 -2 4 -2l-4 -18v-12q0 -8 4 -15l-4 -8q4 -6 4 -14q0 -4 -4 -4 l4 -6v-37q0 -12 4 -21l-4 -12q4 -100 4 -160v-8q0 -8 2 -14q-2 -6 -2 -15q0 -23 6 -22l-4 -19v-53h82q8 0 17 -4q14 8 38 8h23q4 0 4 -4l8 4h37q2 0 2 -4q23 8 96 8h17q8 0 14 4l23 -8l20 4q4 0 4 -4l21 4h2q20 0 35 -4q49 4 59 8q4 -4 14 -4l19 4q27 -14 41 -41v-4 q0 -4 -17 -10l4 -8q0 -8 -24 -27q-4 0 -12 4q-37 -2 -37 -6l-19 2h-12q-14 0 -41 -2q-6 2 -10 2q-6 -2 -19 -2v2l-8 -2h-20q-4 0 -4 2q-6 -2 -45 -6l-7 4l-18 -4q-4 0 -12 4q-88 -10 -156 -10q-8 0 -14 -4l-6 4q-8 -4 -13 -4v4l-8 -4q-4 0 -4 4q-51 -8 -70 -8v-4 q6 -119 17 -119v-4h-8v-88l4 -27h-4l4 -6v-31l4 -18h-4l4 -6q0 -4 -4 -4l4 -19v-4q0 -4 -4 -4l4 -6q0 -4 -4 -4l4 -8v-15q0 -16 4 -41q-4 -8 -4 -10l4 -18l-4 -9q0 -4 4 -12q-4 -18 -4 -33v-10q0 -8 4 -14q-4 -8 -4 -17v-6q0 -8 6 -8l8 4l6 -4q8 4 13 4v-4l8 4q2 0 2 -4l8 4 q10 0 10 -4q41 8 86 8q47 0 78 -8q25 4 41 4h37q8 0 14 -4l6 4q8 0 41 -4l33 4l8 -4q4 0 4 4q37 -4 37 -6q20 6 64 6v-4l8 4h41q2 0 2 -4l8 4h23q4 0 4 -4l6 4q6 -4 10 -4t4 4l19 -4h8q12 0 33 4q14 0 36 -31q0 -25 -18 -32q0 -27 -29 -27l-8 4l-18 -6q-25 2 -41 2h-33 q-4 0 -4 4l-6 -4q-23 0 -54 4q-66 -4 -106 -4q-4 0 -10 -2q-37 2 -37 6l-27 -4h-127q-4 0 -4 4l-6 -4h-68q-18 0 -55 -2v2q-18 -6 -24 -6v4l-9 -4h-4q-8 0 -14 4q-6 -4 -37 -8v4l-6 -4q-27 4 -64 55l3 12q-2 6 -3 11h3q0 4 -3 4l3 24v164q0 8 4 14q-6 18 -7 33h3l-7 41 q4 6 4 19l-4 22l4 19q-4 20 -4 22q0 4 4 4l-8 43l4 17l-4 20h4l-4 8v4q0 66 -8 133h4l-4 9q0 4 4 4l-4 6v37q0 4 4 4l-4 6q0 4 4 4q-8 16 -8 23l4 8q-4 6 -4 14t4 8q-6 51 -6 70q2 6 2 10q-2 12 -6 12l4 25v57q0 8 -4 15q4 6 4 14t-4 14q0 4 4 5q-4 29 -8 36zM211 1501v15 q29 55 74 174q10 0 28 59q27 14 45 14h4q2 0 3 -2l8 2q66 -39 139 -143q53 -70 53 -78t8 -18v-27q-16 -20 -34 -29q-2 0 -2 5l-9 -5h-8q-4 0 -4 5l-6 -5q-4 0 -4 5l-6 -5q-10 0 -13 19l-8 -4q-47 88 -110 147q-10 -14 -47 -133q-16 -31 -37 -47l-9 2l-10 -6q-55 6 -55 55z " />
<glyph unicode="&#xeb;" horiz-adv-x="954" d="M-10 1040l4 23q0 8 -4 14q4 6 4 17v10q0 8 -4 14q4 6 4 15q0 16 -4 41l4 20q-4 6 -4 10h4q0 2 -4 2q4 45 8 45q0 4 -4 4l4 25v25q0 6 -8 6l4 18l-4 14q25 45 33 46l40 14q33 -14 33 -19l27 5q125 4 145 4v-4l6 4q4 0 5 -4l8 4l6 -4q8 4 12 4v-4q2 0 2 4q8 0 8 -4l23 4 q88 -4 139 -4h21l20 4q16 -8 41 -9h53l19 5v-5q6 4 10 5l8 -5q6 4 15 5l8 -5l6 5l8 -5l23 5q37 -12 36 -37q10 0 11 -9q-12 -8 -23 -38q-10 0 -10 -9h-27l-8 -4l-2 8l-8 -4h-37q-2 0 -2 4l-8 -4l-19 4l-8 -4l-6 4l-23 -4q-4 0 -4 4l-18 -8q-33 4 -109 8l-6 -4q-4 0 -4 4 l-18 -4q-4 0 -13 4q-2 0 -2 -4l-90 9q-45 -4 -88 -5q-4 0 -10 -4q-6 4 -16 4q-2 0 -2 -4l-21 4h-6q-8 0 -14 -4l-9 4q-8 0 -24 -8q-8 4 -17 4h-4q-6 0 -10 -36l4 -9q0 -4 -4 -4q0 -4 4 -4l-4 -16v-33l-4 -25q0 -2 4 -2l-4 -18v-12q0 -8 4 -15l-4 -8q4 -6 4 -14q0 -4 -4 -4 l4 -6v-37q0 -12 4 -21l-4 -12q4 -100 4 -160v-8q0 -8 2 -14q-2 -6 -2 -15q0 -23 6 -22l-4 -19v-53h82q8 0 17 -4q14 8 38 8h23q4 0 4 -4l8 4h37q2 0 2 -4q23 8 96 8h17q8 0 14 4l23 -8l20 4q4 0 4 -4l21 4h2q20 0 35 -4q49 4 59 8q4 -4 14 -4l19 4q27 -14 41 -41v-4 q0 -4 -17 -10l4 -8q0 -8 -24 -27q-4 0 -12 4q-37 -2 -37 -6l-19 2h-12q-14 0 -41 -2q-6 2 -10 2q-6 -2 -19 -2v2l-8 -2h-20q-4 0 -4 2q-6 -2 -45 -6l-7 4l-18 -4q-4 0 -12 4q-88 -10 -156 -10q-8 0 -14 -4l-6 4q-8 -4 -13 -4v4l-8 -4q-4 0 -4 4q-51 -8 -70 -8v-4 q6 -119 17 -119v-4h-8v-88l4 -27h-4l4 -6v-31l4 -18h-4l4 -6q0 -4 -4 -4l4 -19v-4q0 -4 -4 -4l4 -6q0 -4 -4 -4l4 -8v-15q0 -16 4 -41q-4 -8 -4 -10l4 -18l-4 -9q0 -4 4 -12q-4 -18 -4 -33v-10q0 -8 4 -14q-4 -8 -4 -17v-6q0 -8 6 -8l8 4l6 -4q8 4 13 4v-4l8 4q2 0 2 -4l8 4 q10 0 10 -4q41 8 86 8q47 0 78 -8q25 4 41 4h37q8 0 14 -4l6 4q8 0 41 -4l33 4l8 -4q4 0 4 4q37 -4 37 -6q20 6 64 6v-4l8 4h41q2 0 2 -4l8 4h23q4 0 4 -4l6 4q6 -4 10 -4t4 4l19 -4h8q12 0 33 4q14 0 36 -31q0 -25 -18 -32q0 -27 -29 -27l-8 4l-18 -6q-25 2 -41 2h-33 q-4 0 -4 4l-6 -4q-23 0 -54 4q-66 -4 -106 -4q-4 0 -10 -2q-37 2 -37 6l-27 -4h-127q-4 0 -4 4l-6 -4h-68q-18 0 -55 -2v2q-18 -6 -24 -6v4l-9 -4h-4q-8 0 -14 4q-6 -4 -37 -8v4l-6 -4q-27 4 -64 55l3 12q-2 6 -3 11h3q0 4 -3 4l3 24v164q0 8 4 14q-6 18 -7 33h3l-7 41 q4 6 4 19l-4 22l4 19q-4 20 -4 22q0 4 4 4l-8 43l4 17l-4 20h4l-4 8v4q0 66 -8 133h4l-4 9q0 4 4 4l-4 6v37q0 4 4 4l-4 6q0 4 4 4q-8 16 -8 23l4 8q-4 6 -4 14t4 8q-6 51 -6 70q2 6 2 10q-2 12 -6 12l4 25v57q0 8 -4 15q4 6 4 14t-4 14q0 4 4 5q-4 29 -8 36zM166 1550l4 6 q-4 6 -4 17q47 57 84 57h14q59 -16 60 -47q8 0 8 -33h-4l4 -8q0 -31 -68 -59h-14q-39 0 -80 53q0 6 -4 14zM467 1569q0 41 63 61h29q35 -16 59 -59l-4 -19v-24q-31 -49 -65 -49q-78 10 -78 73q-4 1 -4 17z" />
<glyph unicode="&#xec;" horiz-adv-x="294" d="M-201 1706v4q0 31 45 64q0 4 4 4h25q84 -88 233 -207q16 -29 17 -35q0 -37 -53 -47q0 4 -4 4q0 -8 -7 -8h-8q-20 0 -33 26q-8 0 -100 78q-82 55 -119 117zM0 74l4 6l-4 108q0 4 2 5q-4 39 0 108q2 -2 4 2q-8 0 -6 8l2 6q-2 8 -2 13l4 6q-4 6 -4 10l4 8q-4 6 -2 15h4l-4 6 l4 69q0 14 -2 27q4 14 4 31l2 20q0 8 -2 15l4 8q0 4 -4 4l4 16l-2 19h4l-4 6q0 4 4 4l-4 6l2 23q0 4 4 4q-4 6 -4 10q0 135 2 162l-2 18l4 6q-2 45 -6 51q2 4 4 3q0 51 2 73l4 101l-2 20q4 6 5 19l-3 18h5l-5 6q0 4 5 4l-2 8v11q2 45 -9 71q4 6 6 15l-4 14h4q-6 14 -6 41 l2 10q0 6 4 12q-2 10 -4 56l4 6l-2 22l41 17l23 -2q16 0 29 -78l-2 -25l8 -10v-4q-2 -8 -6 -14l4 -8q0 -2 -4 -3l10 -155l-4 -6l2 -23v-6q0 -4 -4 -4l4 -6l-2 -37q0 -4 -4 -4l2 -6v-11q0 -4 -4 -4l4 -8l-2 -35q-6 -98 -2 -233h-5l5 -6l-2 -8q0 -4 -3 -5l3 -8l-3 -30l3 -25 h-3l3 -8q0 -4 -5 -4l5 -7q0 -4 -5 -4l5 -8l-13 -207l2 -43h-4l2 -8l-2 -47q0 -10 2 -31l-4 -8q4 -135 10 -213q-4 -6 -4 -8l4 -8q-10 -25 -28 -35l-31 2q-2 0 -2 4l-8 -4q-14 0 -31 35v24q2 8 -2 15z" />
<glyph unicode="&#xed;" horiz-adv-x="276" d="M0 74l4 6l-4 108q0 4 2 5q-4 39 0 108q2 -2 4 2q-8 0 -6 8l2 6q-2 8 -2 13l4 6q-4 6 -4 10l4 8q-4 6 -2 15h4l-4 6l4 69q0 14 -2 27q4 14 4 31l2 20q0 8 -2 15l4 8q0 4 -4 4l4 16l-2 19h4l-4 6q0 4 4 4l-4 6l2 23q0 4 4 4q-4 6 -4 10q0 135 2 162l-2 18l4 6q-2 45 -6 51 q2 4 4 3q0 51 2 73l4 101l-2 20q4 6 5 19l-3 18h5l-5 6q0 4 5 4l-2 8v11q2 45 -9 71q4 6 6 15l-4 14h4q-6 14 -6 41l2 10q0 6 4 12q-2 10 -4 56l4 6l-2 22l41 17l23 -2q16 0 29 -78l-2 -25l8 -10v-4q-2 -8 -6 -14l4 -8q0 -2 -4 -3l10 -155l-4 -6l2 -23v-6q0 -4 -4 -4l4 -6 l-2 -37q0 -4 -4 -4l2 -6v-11q0 -4 -4 -4l4 -8l-2 -35q-6 -98 -2 -233h-5l5 -6l-2 -8q0 -4 -3 -5l3 -8l-3 -30l3 -25h-3l3 -8q0 -4 -5 -4l5 -7q0 -4 -5 -4l5 -8l-13 -207l2 -43h-4l2 -8l-2 -47q0 -10 2 -31l-4 -8q4 -135 10 -213q-4 -6 -4 -8l4 -8q-10 -25 -28 -35l-31 2 q-2 0 -2 4l-8 -4q-14 0 -31 35v24q2 8 -2 15zM31 1536q0 6 14 35q150 119 234 207h24q4 0 4 -4q45 -33 45 -64v-4q-37 -61 -119 -117q-92 -78 -100 -78q-10 -27 -33 -26h-8q-6 0 -6 8q-4 0 -4 -4q-51 10 -51 47z" />
<glyph unicode="&#xee;" horiz-adv-x="333" d="M-80 1501v15q31 55 74 174q10 0 31 59q25 14 43 14h4q4 0 4 -2l8 2q63 -39 139 -143q51 -70 51 -78t9 -18v-27q-16 -20 -33 -29q-4 0 -4 5l-8 -5h-7q-4 0 -4 5l-8 -5q-4 0 -4 5l-6 -5q-10 0 -10 19l-9 -4q-47 88 -110 147q-12 -14 -49 -133q-16 -31 -37 -47l-6 2l-13 -6 q-55 6 -55 55zM39 188q2 4 4 5q-4 39 0 108q2 -2 2 2q-6 0 -6 8l4 6q-4 8 -2 13l2 6q-2 6 -2 10l4 8q-4 6 -2 15h2l-2 6l2 69q2 14 -2 27q4 14 6 31v20q2 8 -2 15l4 8q0 4 -4 4l6 16l-4 19h4l-2 6q0 4 2 4l-2 6v23q2 4 4 4q-2 6 -2 10q0 135 2 162l-4 18l4 6q-2 45 -4 51 q0 4 4 3q-2 51 0 73l6 101l-2 20q4 6 4 19l-2 18h2l-2 6q0 4 5 4l-5 8v11q4 45 -6 71q4 6 4 15l-2 14h4q-8 14 -6 41v10q0 6 4 12q-2 10 -4 56l4 6l-2 22l41 17l23 -2q18 0 29 -78v-25l6 -10v-4q0 -8 -4 -14l2 -8q0 -2 -2 -3l8 -155l-4 -6l4 -23v-6q-2 -4 -4 -4l2 -6l-2 -37 q0 -4 -4 -4l4 -6v-11q0 -4 -4 -4l2 -8l-2 -35q-4 -98 -2 -233h-3l3 -6v-8q0 -4 -5 -5l5 -8l-3 -30l3 -25h-5l5 -8q0 -4 -5 -4l2 -7q0 -4 -4 -4l4 -8l-12 -207l2 -43h-4l4 -8l-2 -47q-2 -10 0 -31l-4 -8q4 -135 12 -213q-4 -6 -4 -8l2 -8q-8 -25 -26 -35l-31 2q-2 0 -2 4 l-8 -4q-14 0 -31 35v24q0 8 -2 15l2 6z" />
<glyph unicode="&#xef;" horiz-adv-x="325" d="M-135 1550l4 6q-4 6 -4 17q49 57 86 57h14q59 -16 60 -47q8 0 8 -33h-4l4 -8q0 -31 -68 -59h-14q-41 0 -82 53q0 6 -4 14zM39 188q2 4 4 5q-4 39 0 108q2 -2 2 2q-6 0 -6 8l4 6q-4 8 -2 13l2 6q-2 6 -2 10l4 8q-4 6 -2 15h2l-2 6l2 69q2 14 -2 27q4 14 6 31v20q2 8 -2 15 l4 8q0 4 -4 4l6 16l-4 19h4l-2 6q0 4 2 4l-2 6v23q2 4 4 4q-2 6 -2 10q0 135 2 162l-4 18l4 6q-2 45 -4 51q0 4 4 3q-2 51 0 73l6 101l-2 20q4 6 4 19l-2 18h2l-2 6q0 4 5 4l-5 8v11q4 45 -6 71q4 6 4 15l-2 14h4q-8 14 -6 41v10q0 6 4 12q-2 10 -4 56l4 6l-2 22l41 17 l23 -2q18 0 29 -78v-25l6 -10v-4q0 -8 -4 -14l2 -8q0 -2 -2 -3l8 -155l-4 -6l4 -23v-6q-2 -4 -4 -4l2 -6l-2 -37q0 -4 -4 -4l4 -6v-11q0 -4 -4 -4l2 -8l-2 -35q-4 -98 -2 -233h-3l3 -6v-8q0 -4 -5 -5l5 -8l-3 -30l3 -25h-5l5 -8q0 -4 -5 -4l2 -7q0 -4 -4 -4l4 -8l-12 -207 l2 -43h-4l4 -8l-2 -47q-2 -10 0 -31l-4 -8q4 -135 12 -213q-4 -6 -4 -8l2 -8q-8 -25 -26 -35l-31 2q-2 0 -2 4l-8 -4q-14 0 -31 35v24q0 8 -2 15l2 6zM168 1569q0 41 61 61h29q37 -16 61 -59l-4 -19v-24q-31 -49 -67 -49q-78 10 -78 73q-2 1 -2 17z" />
<glyph unicode="&#xf0;" horiz-adv-x="1024" d="M-193 664q0 47 46 55q8 0 24 14l8 -4q12 8 19 8l4 -8l6 4h12q4 0 4 -4l7 4q8 0 16 -4l6 4q8 0 41 -6v160q0 12 4 31l-4 8l4 6l-4 22h4q0 2 -4 2l4 37v25q0 4 2 4q0 2 -2 2l6 113q-4 14 -4 24l4 15l-4 8q0 2 4 10q-4 31 -4 49v10q0 8 -6 9l4 18v6q0 16 -4 37q0 49 37 49 q0 16 43 25l16 -4q4 0 4 4l25 -4h43q12 0 33 4l6 -4q6 4 14 4v-4l8 4l15 -4l6 4l6 -4q4 0 4 4q57 -6 57 -11l9 5q4 0 4 -5q2 0 2 5q152 -18 262 -68q195 -125 250 -252q57 -139 57 -215q2 0 2 -6h-2q10 -57 10 -96v-58q0 -90 -8 -90q0 -4 4 -4l-4 -24q0 -8 4 -15 q-35 -262 -78 -356q-66 -113 -190 -164q-147 -76 -242 -76v4q-18 -4 -18 -8l-19 4q-47 -8 -61 -8h-8l-12 8q0 -8 -7 -8h-16q-6 0 -12 4q-4 0 -4 -4l-27 4h-35q-4 0 -4 4l-6 -4h-18q-6 0 -7 8l-8 -4h-6q-4 0 -4 4q-2 0 -2 -4q-59 4 -60 15l-6 -5q-25 0 -32 95q4 6 4 10l-4 6 l4 8l-4 21h8v24l-4 19h4q-2 14 -13 14l9 10v13q0 6 -9 6l5 8v10h-7v4h7q-4 68 -7 82h2q-2 39 -10 39l4 6v4h-4v-6q-6 0 -6 6q4 0 10 13v2h-8v8h8v35h-10v12l6 -4h4l-4 6h4q-6 25 -10 25l2 8v8q0 2 -6 39q0 14 6 29q-6 0 -6 10l4 35l-4 24l4 19q0 4 -4 4l2 12l-6 -2h-19 q-8 0 -14 2q-6 -2 -10 -2q-10 0 -31 2l-69 -6q-41 23 -41 29h-5zM88 602l8 -2l-4 -6q0 -12 4 -12l-4 -19v-12l4 -37h-4q0 -4 4 -4l-4 -16q0 -8 8 -56h-4l4 -6q4 -135 6 -158h-2q6 -18 7 -28h-5l5 -6q8 -113 8 -148l4 -14h-4l4 -6l-4 -9q0 -10 184 -20q80 6 86 6l8 -4 q6 4 15 4q4 0 4 -4q47 0 221 82q96 68 121 156q23 100 28 100l-4 6l33 205l-4 6q0 16 8 96l-4 9l4 20q0 139 -71 317q-25 47 -72 95q-123 119 -211 129q-43 18 -105 30q-4 0 -4 -4q-57 12 -131 13h-63q-4 0 -4 4l-8 -4h-25l-25 4l4 -27v-33q0 -8 2 -12q-2 -8 -2 -12l2 -6 q0 -4 -2 -5l2 -14l-2 -35q0 -4 2 -4l-2 -18v-35q0 -4 -4 -4l4 -6v-51q0 -4 -4 -5q6 -20 6 -26q-6 -2 -6 -8v-9q0 -8 4 -14l-8 -31l4 -22q0 -4 -4 -10q0 -4 4 -11q-8 -55 -8 -125l4 -8q-4 -6 -4 -14v-37q4 -2 10 -2q8 4 13 4v-4q6 4 59 8l37 -4q6 4 14 4v-4l8 4h25q8 0 16 4 q6 -4 15 -4h24l21 4v-4l6 4q16 -10 41 -14v-10q-8 -74 -37 -74l-6 2q-8 -2 -12 -2q-12 6 -23 6h-22l-37 -4v4l-6 -4h-17q-4 0 -4 4l-6 -4h-92q-4 0 -4 4q-11 -6 -23 -6v-2q0 -8 4 -16z" />
<glyph unicode="&#xf1;" horiz-adv-x="952" d="M-20 47q12 113 32 215v86q0 8 4 14q-4 6 -4 15v4q8 8 13 47q0 4 -5 4l5 19v4q0 8 -5 14l13 23q4 141 10 163q-4 20 -4 29h4l-4 8v4q0 2 4 2l-4 9v4q0 4 4 4l-4 8v2q2 8 8 8q0 2 -4 2q6 109 6 201v74q0 8 4 14l-4 8q4 6 4 15l-4 8q12 37 12 119q0 4 5 4q0 2 -5 2 q8 41 9 86v51q0 4 4 4l-4 6v16q0 16 32 41h9q2 0 2 -4l8 4q100 -20 100 -49q6 0 92 -98q70 -96 166 -215q70 -111 189 -242v4q0 4 -2 4l2 19l-2 14h2l-2 8q-12 236 -13 351l4 18q-4 6 -4 19v45q0 8 -4 16l4 6q0 2 -4 23q0 4 4 10q-4 20 -4 35v6q22 59 49 59q59 -10 60 -51 l-4 -8q2 -23 8 -23l-4 -18v-23l4 -37h-4l4 -6l-4 -18q0 -4 4 -4l-4 -27v-24q0 -10 4 -17q-4 -6 -4 -14t4 -14l-4 -9q0 -4 4 -4l-4 -24q10 -174 10 -197q4 -6 4 -10h-4l4 -8q0 -4 -4 -4l4 -19v-55l4 -37h-4q10 -35 23 -170q0 -4 -4 -4l4 -19v-41l4 -36h-4l4 -9q0 -2 -4 -2 l4 -8q0 -4 -4 -4l14 -135l-4 -8l8 -88h-4q0 -4 4 -4l-4 -21q4 -6 4 -10h-4q4 -6 4 -10q2 -61 2 -68h-2q2 -6 6 -33h-4q8 -14 8 -22h-4l4 -6l-8 -13l4 -8q-8 -47 -20 -47h-82q-8 2 -15 18q6 27 7 52v8q0 111 -11 143l7 4q0 4 -3 4l3 19l-3 14h3q-2 10 -7 45l4 8q-8 29 -8 62 h4l-12 63l4 19q0 147 -24 147q-78 119 -78 123q-59 51 -109 129l-233 299q-72 100 -80 100q-8 -131 -19 -194q0 -4 3 -4l-3 -37v-45q0 -4 -4 -4l4 -6v-64q0 -8 3 -14q-10 -84 -11 -160q0 -4 -4 -10q4 -8 4 -17v-20q0 -4 -4 -4l4 -8v-11q0 -119 -14 -178q0 -4 2 -4l-2 -18 l2 -8q-2 -8 -14 -80l8 -4l-4 -19v-51l-4 -45q4 0 4 -4q-6 0 -27 -133q4 -14 4 -27l-4 -6l4 -8l-4 -6q4 -8 4 -13q-29 -45 -57 -45v4l-8 -4h-9q-35 20 -40 37zM109 1538h4l-4 8v39q6 14 14 57q41 76 86 99q29 16 43 16q4 0 4 -4l6 4h19q76 0 213 -168q37 -20 47 -20h12 q45 23 45 30q8 23 14 23l-4 6v4q0 4 4 4q-2 8 -8 45q4 0 4 5q-6 0 -6 8h2l-2 6v4l39 49q6 4 10 4q47 -6 47 -24q4 -8 4 -11q-4 -8 -4 -12q4 0 11 -10v-2q0 -10 -7 -23l5 -18q0 -111 -109 -178v4q-31 -18 -45 -19q-8 4 -16 4q-6 -4 -11 -4v4l-8 -4q-100 45 -117 82 q-10 0 -82 90q-31 27 -75 27q-61 -39 -62 -113q4 -14 4 -32q-2 0 -20 -23h-33l-6 4q0 -4 -4 -4q0 4 -4 4l4 8q-14 16 -14 31z" />
<glyph unicode="&#xf2;" horiz-adv-x="1064" d="M0 670l4 22q0 106 6 180q0 4 -4 5l4 18v27q0 4 4 4q0 2 -4 2q25 164 68 246l-4 6q35 109 104 163q51 63 92 66q2 0 23 8v-4q25 14 96 14q6 -4 10 -4q0 6 15 17q4 0 4 -4q14 2 14 8q4 0 12 -4q61 4 97 4h20q59 0 98 -31v4q55 -10 111 -51q66 -33 137 -178q29 -70 29 -76 q-4 -6 -4 -10q6 0 18 -60h-4q12 -35 17 -73h-5l5 -6v-9q0 -4 -5 -4l5 -8v-6q0 -4 -5 -4q4 -4 9 -41h-4l4 -6v-4l-4 -9q6 0 6 -8v-10h-6l4 -18q0 -4 -4 -5l4 -6v-12q0 -2 -4 -2l4 -8v-4q0 -4 -4 -4l4 -7v-4q0 -12 -4 -12l4 -18v-56h-9q0 -12 5 -18q-20 -137 -33 -197 q0 -2 2 -2q-6 -41 -10 -41q0 -4 4 -4q-37 -150 -64 -207q-47 -84 -69 -106q-109 -109 -211 -137q-29 -12 -78 -17q-16 4 -17 8q-2 0 -2 -4q-215 33 -215 56q-158 115 -202 270q-53 201 -64 297h2l-2 6v49q0 12 -4 19zM96 598q41 -233 84 -350q31 -59 90 -115q63 -68 148 -67 q0 -4 69 -11q80 0 205 107q68 76 84 137l8 4q-4 6 -4 10q14 45 19 49l-2 9q12 0 28 133q14 0 29 235l4 52q0 4 -4 12q4 25 4 41v41q0 4 4 4l-8 29l4 8q-4 33 -6 39l2 8l-2 22q2 0 2 4q-6 0 -6 7v16l4 6q-6 0 -31 105q-2 0 -59 102q-10 2 -19 22q-47 49 -170 78q-8 0 -8 8 l-6 -4q-23 2 -22 7q-4 0 -5 -3l-45 3h-24q-19 -11 -31 -11l-6 4q-164 -43 -164 -55q-12 0 -69 -72q-51 -125 -87 -276l5 -8q-2 -27 -7 -27q0 -2 2 -2q-2 -41 -6 -41q0 -4 4 -4l-4 -18v-60q0 -8 -4 -14q4 -6 4 -10l-4 -27q0 -4 4 -4l-4 -19v-84l4 -20h-4zM219 1706v4 q0 31 45 64q0 4 4 4h27q84 -88 231 -207q16 -29 17 -35q0 -37 -54 -47q0 4 -4 4q0 -8 -6 -8h-8q-20 0 -33 26q-8 0 -100 78q-82 55 -119 117z" />
<glyph unicode="&#xf3;" horiz-adv-x="1056" d="M0 670l4 22q0 106 6 180q0 4 -4 5l4 18v27q0 4 4 4q0 2 -4 2q25 164 68 246l-4 6q35 109 104 163q51 63 92 66q2 0 23 8v-4q25 14 96 14q6 -4 10 -4q0 6 15 17q4 0 4 -4q14 2 14 8q4 0 12 -4q61 4 97 4h20q59 0 98 -31v4q55 -10 111 -51q66 -33 137 -178q29 -70 29 -76 q-4 -6 -4 -10q6 0 18 -60h-4q12 -35 17 -73h-5l5 -6v-9q0 -4 -5 -4l5 -8v-6q0 -4 -5 -4q4 -4 9 -41h-4l4 -6v-4l-4 -9q6 0 6 -8v-10h-6l4 -18q0 -4 -4 -5l4 -6v-12q0 -2 -4 -2l4 -8v-4q0 -4 -4 -4l4 -7v-4q0 -12 -4 -12l4 -18v-56h-9q0 -12 5 -18q-20 -137 -33 -197 q0 -2 2 -2q-6 -41 -10 -41q0 -4 4 -4q-37 -150 -64 -207q-47 -84 -69 -106q-109 -109 -211 -137q-29 -12 -78 -17q-16 4 -17 8q-2 0 -2 -4q-215 33 -215 56q-158 115 -202 270q-53 201 -64 297h2l-2 6v49q0 12 -4 19zM96 598q41 -233 84 -350q31 -59 90 -115q63 -68 148 -67 q0 -4 69 -11q80 0 205 107q68 76 84 137l8 4q-4 6 -4 10q14 45 19 49l-2 9q12 0 28 133q14 0 29 235l4 52q0 4 -4 12q4 25 4 41v41q0 4 4 4l-8 29l4 8q-4 33 -6 39l2 8l-2 22q2 0 2 4q-6 0 -6 7v16l4 6q-6 0 -31 105q-2 0 -59 102q-10 2 -19 22q-47 49 -170 78q-8 0 -8 8 l-6 -4q-23 2 -22 7q-4 0 -5 -3l-45 3h-24q-19 -11 -31 -11l-6 4q-164 -43 -164 -55q-12 0 -69 -72q-51 -125 -87 -276l5 -8q-2 -27 -7 -27q0 -2 2 -2q-2 -41 -6 -41q0 -4 4 -4l-4 -18v-60q0 -8 -4 -14q4 -6 4 -10l-4 -27q0 -4 4 -4l-4 -19v-84l4 -20h-4zM430 1536q0 6 14 35 q150 119 234 207h27q4 0 4 -4q43 -33 43 -64v-4q-35 -61 -117 -117q-94 -78 -100 -78q-12 -27 -35 -26h-6q-8 0 -9 8q-4 0 -4 -4q-51 10 -51 47z" />
<glyph unicode="&#xf4;" horiz-adv-x="1067" d="M0 670l4 22q0 106 6 180q0 4 -4 5l4 18v27q0 4 4 4q0 2 -4 2q25 164 68 246l-4 6q35 109 104 163q51 63 92 66q2 0 23 8v-4q25 14 96 14q6 -4 10 -4q0 6 15 17q4 0 4 -4q14 2 14 8q4 0 12 -4q61 4 97 4h20q59 0 98 -31v4q55 -10 111 -51q66 -33 137 -178q29 -70 29 -76 q-4 -6 -4 -10q6 0 18 -60h-4q12 -35 17 -73h-5l5 -6v-9q0 -4 -5 -4l5 -8v-6q0 -4 -5 -4q4 -4 9 -41h-4l4 -6v-4l-4 -9q6 0 6 -8v-10h-6l4 -18q0 -4 -4 -5l4 -6v-12q0 -2 -4 -2l4 -8v-4q0 -4 -4 -4l4 -7v-4q0 -12 -4 -12l4 -18v-56h-9q0 -12 5 -18q-20 -137 -33 -197 q0 -2 2 -2q-6 -41 -10 -41q0 -4 4 -4q-37 -150 -64 -207q-47 -84 -69 -106q-109 -109 -211 -137q-29 -12 -78 -17q-16 4 -17 8q-2 0 -2 -4q-215 33 -215 56q-158 115 -202 270q-53 201 -64 297h2l-2 6v49q0 12 -4 19zM96 598q41 -233 84 -350q31 -59 90 -115q63 -68 148 -67 q0 -4 69 -11q80 0 205 107q68 76 84 137l8 4q-4 6 -4 10q14 45 19 49l-2 9q12 0 28 133q14 0 29 235l4 52q0 4 -4 12q4 25 4 41v41q0 4 4 4l-8 29l4 8q-4 33 -6 39l2 8l-2 22q2 0 2 4q-6 0 -6 7v16l4 6q-6 0 -31 105q-2 0 -59 102q-10 2 -19 22q-47 49 -170 78q-8 0 -8 8 l-6 -4q-23 2 -22 7q-4 0 -5 -3l-45 3h-24q-19 -11 -31 -11l-6 4q-164 -43 -164 -55q-12 0 -69 -72q-51 -125 -87 -276l5 -8q-2 -27 -7 -27q0 -2 2 -2q-2 -41 -6 -41q0 -4 4 -4l-4 -18v-60q0 -8 -4 -14q4 -6 4 -10l-4 -27q0 -4 4 -4l-4 -19v-84l4 -20h-4zM319 1501v15 q31 55 74 174q10 0 31 59q25 14 45 14h2q4 0 4 -2l8 2q66 -39 140 -143q53 -70 53 -78t6 -18v-27q-14 -20 -33 -29q-4 0 -4 5l-6 -5h-8q-4 0 -4 5l-6 -5q-4 0 -5 5l-8 -5q-10 0 -10 19l-8 -4q-47 88 -111 147q-10 -14 -49 -133q-14 -31 -37 -47l-6 2l-10 -6q-57 6 -58 55z " />
</font>
</defs>
</svg>
