<?xml version="1.0" standalone="no"?>
<!DOCTYPE svg PUBLIC "-//W3C//DTD SVG 1.1//EN" "http://www.w3.org/Graphics/SVG/1.1/DTD/svg11.dtd" >
<svg xmlns="http://www.w3.org/2000/svg">
<metadata></metadata>
<defs>
<font id="creamy_scriptregular" horiz-adv-x="1024" >
<font-face units-per-em="2048" ascent="1434" descent="-614" />
<missing-glyph horiz-adv-x="378" />
<glyph horiz-adv-x="0" />
<glyph horiz-adv-x="682" />
<glyph unicode=" "  horiz-adv-x="378" />
<glyph unicode="&#x09;" horiz-adv-x="378" />
<glyph unicode="&#xa0;" horiz-adv-x="378" />
<glyph unicode="!" horiz-adv-x="493" d="M123 100q6 63 47 105.5t88 36.5q35 -3 59 -25t23 -63q0 -61 -36.5 -111t-94.5 -43q-41 4 -65 32.5t-21 67.5zM215 397q-3 31 70.5 362t64.5 347q58 -4 102 -41.5t46 -79.5q0 -3 -66 -329t-55 -363q-55 5 -106.5 37t-55.5 67z" />
<glyph unicode="&#x22;" horiz-adv-x="665" d="M123 774q89 67 131.5 169.5t30.5 182.5l12 13q52 -14 92.5 -52.5t40.5 -78.5q0 -41 -37.5 -91.5t-85.5 -88t-91.5 -62.5t-57.5 -23q-17 2 -35 31zM420 774q89 67 130.5 169t31.5 183l12 13q52 -14 92.5 -52.5t40.5 -78.5q0 -41 -37.5 -91.5t-85.5 -88t-91.5 -62.5 t-57.5 -23q-17 2 -35 31z" />
<glyph unicode="#" horiz-adv-x="952" d="M-4 250q-9 9 0 26q36 78 55 84q19 7 205 7l61 163q-33 0 -65.5 0.5t-54 1t-25.5 0.5q-71 0 -98 -10l-4 4q-8 11 0 29q32 77 55 84q20 7 237 4q82 217 91 258q82 -46 82 -110q0 -12 -52 -150l174 -2q87 233 93 262q81 -45 81 -110q0 -10 -53 -154q191 0 226 4 q-16 -94 -78 -117q-14 -3 -191 0q-24 -65 -61 -164q206 -3 256 2q-7 -43 -24.5 -70t-27 -32.5t-24.5 -11.5q-14 -5 -225 -2q-14 -36 -28 -73t-23 -60.5t-11 -28.5q-24 -71 -24 -96l-6 -2q-13 -3 -27 8q-59 63 -59 82q0 17 57 172q-30 0 -88.5 1t-85.5 1q-39 -98 -64 -166 q-24 -71 -24 -96l-6 -2q-13 -3 -27 8q-59 63 -59 82q0 21 59 176q-59 2 -115 2q-69 0 -96 -10zM377 365l174 -5q52 137 63 164q-29 1 -87.5 2t-86.5 2q-52 -137 -63 -163z" />
<glyph unicode="$" horiz-adv-x="741" d="M-45 119q0 20 10.5 50.5t22.5 54.5t37 71q22 0 33.5 -1t15.5 -5t4 -6.5t-2 -10.5q-29 -153 100 -178q18 75 111 420q-140 163 -140 272q0 81 48.5 146.5t124 102.5t165.5 46q41 154 39 160q41 -10 64.5 -30t23.5 -37q0 -6 -20 -91q98 -7 135 -37.5t37 -82.5 q0 -38 -57 -139q-4 -9 -7 -13q-26 0 -36.5 2t-10.5 6.5t2 11.5q13 71 -8.5 108t-79.5 48q-19 -76 -52 -209t-40 -162q5 -5 36.5 -41.5t38.5 -45.5t31.5 -39.5t31.5 -45t20.5 -40t17.5 -46.5t4 -43q0 -130 -101.5 -219t-270.5 -106q-24 -131 -17 -144q-56 18 -83 38t-36 53 l7 51q-108 4 -153.5 35.5t-45.5 95.5zM305 96q152 28 152 154q0 35 -12 65.5t-26 48t-42 48.5q-5 -23 -31 -134t-41 -182zM319 856q0 -58 74 -143q9 35 32 129.5t36 146.5q-62 -11 -102 -47t-40 -86z" />
<glyph unicode="%" horiz-adv-x="1126" d="M27 690q0 66 23.5 138.5t63.5 135t102 103.5t132 41q94 0 142.5 -60t48.5 -157q0 -93 -37.5 -187.5t-114.5 -163.5t-174 -69q-95 0 -140.5 60t-45.5 159zM61 94q0 23 137 172.5t303.5 319t311 327.5t156.5 193q28 -14 49.5 -42t21.5 -56q0 -27 -138.5 -179.5t-305 -323.5 t-306.5 -330t-143 -198q-33 16 -59.5 50t-26.5 67zM190 688q0 -18 2 -37t7.5 -42t18 -37.5t30.5 -14.5q36 0 65.5 43.5t44.5 106t23 117t8 89.5q0 119 -55 119q-36 0 -65.5 -42t-45.5 -101.5t-24.5 -113t-8.5 -87.5zM571 205q0 66 23.5 139t64 136t103 104t133.5 41 q94 0 142 -60.5t48 -156.5q0 -68 -23 -141t-63 -135.5t-103 -103t-136 -40.5q-96 0 -142.5 60t-46.5 157zM733 205q0 -19 2 -38t8 -41.5t18.5 -37t31.5 -14.5q37 0 67 43.5t46 105.5t24 117t8 90q0 119 -59 119q-36 0 -66 -42t-46.5 -101.5t-25 -113t-8.5 -87.5z" />
<glyph unicode="&#x26;" horiz-adv-x="1021" d="M0 219q0 115 84 220t233 177q-7 22 -10 41q-12 53 -12 103q1 141 82.5 234t189.5 93q69 0 119.5 -49.5t50.5 -126.5q0 -96 -71 -169.5t-185 -120.5q52 -130 158 -277q46 70 101.5 170t62.5 109q40 54 129 4q-8 -13 -44 -81.5t-82.5 -145.5t-96.5 -142q146 -165 272 -174 q-20 -27 -36.5 -44.5t-45 -34.5t-57.5 -17q-130 0 -264 141q-153 -143 -314 -143q-117 0 -190.5 61.5t-73.5 171.5zM188 289q0 -85 39 -137t107 -52q79 0 182 103q-114 149 -176 340q-69 -43 -110.5 -112.5t-41.5 -141.5zM438 801q0 -45 17 -101q0 -6 2 -10q97 54 129 159 q24 79 -2 127q-14 25 -39 25q-45 0 -76 -59.5t-31 -140.5z" />
<glyph unicode="'" horiz-adv-x="352" d="M123 774q89 67 131.5 169.5t30.5 182.5l12 13q52 -14 92.5 -52.5t40.5 -78.5q0 -41 -37.5 -91.5t-85.5 -88t-91.5 -62.5t-57.5 -23q-17 2 -35 31z" />
<glyph unicode="(" horiz-adv-x="497" d="M31 403q0 215 117 401.5t298 285.5q37 27 144 -13q-156 -90 -258 -232.5t-135 -293t-9 -299.5t105 -260q-74 -10 -97.5 -6.5t-45.5 32.5q-54 72 -86.5 177.5t-32.5 207.5z" />
<glyph unicode=")" horiz-adv-x="589" d="M-92 -2q156 90 258 232.5t135 293t9 299.5t-105 260q74 10 97.5 6.5t45.5 -32.5q54 -72 86.5 -177.5t32.5 -207.5q0 -215 -117.5 -401t-298.5 -285q-38 -27 -143 12z" />
<glyph unicode="*" horiz-adv-x="753" d="M173 701.5q-3 42.5 9 56.5q3 3 26 11t63 21.5t69 24.5q-45 42 -94.5 81t-67.5 46q20 26 56.5 48t54.5 16q3 -1 18.5 -17.5t43 -45t48.5 -48.5q11 63 16 125.5t1 69.5q32 -2 70 -21t42 -39q1 -3 -4 -25t-13.5 -62t-14.5 -69q59 23 115.5 51.5t62.5 37.5q13 -30 16 -71 t-10 -58q-2 -2 -25 -9.5t-62.5 -21.5t-68.5 -25q52 -48 102 -87.5t60 -39.5q-19 -26 -56 -47.5t-55 -15.5q-3 1 -18.5 16.5t-44.5 45.5t-47 48q-10 -55 -14.5 -115t-1.5 -81q-33 3 -71 22t-42 37q-1 3 4 26t13.5 62.5t13.5 69.5q-53 -21 -107.5 -48.5t-69.5 -39.5 q-14 28 -17 70.5z" />
<glyph unicode="+" horiz-adv-x="727" d="M33 313q-8 11 0 31q35 83 55 92q8 3 21 3.5t30 -0.5t60 -2t94 -1h16q65 287 60 295q41 -3 79 -29t39 -55q0 -3 -5.5 -28.5t-17 -82.5t-20.5 -100q259 0 271 2q-16 -105 -76 -127q-11 -4 -219 0q-56 -300 -39 -325q-41 3 -88 26t-53 47q-5 32 43 256q-132 4 -148 4 q-72 0 -96 -12z" />
<glyph unicode="," horiz-adv-x="444" d="M53 -172q69 93 101.5 220t29.5 183q55 -11 98.5 -52t43.5 -83q0 -41 -31.5 -95t-72 -96.5t-78 -72t-50.5 -29.5q-18 0 -41 25z" />
<glyph unicode="-" horiz-adv-x="788" d="M154 258q-8 11 0 31q4 7 12 25t13 28t12.5 23t14 19.5t13.5 8.5q9 2 18 3t28 1t40 -0.5t66 -1t94 -0.5q215 0 227 2q-12 -68 -40 -101t-52 -40q-30 -3 -74.5 -1.5t-128 5.5t-121.5 4q-86 0 -116 -12z" />
<glyph unicode="." horiz-adv-x="462" d="M131 92q0 53 37 102.5t88 49.5q40 0 66 -24.5t26 -65.5q0 -57 -33 -105.5t-86 -48.5q-41 0 -69.5 26t-28.5 66z" />
<glyph unicode="/" horiz-adv-x="628" d="M-33 94q0 29 312.5 505t318.5 509q34 -14 60 -54t16 -63q-13 -28 -114 -184t-211.5 -324.5t-200.5 -321.5t-89 -184q-33 14 -62.5 50t-29.5 67z" />
<glyph unicode="0" horiz-adv-x="778" d="M0 313q-6 184 60 365t181.5 297.5t241.5 116.5q118 0 189 -88t76 -232q6 -192 -59.5 -374t-181.5 -297t-247 -115q-120 0 -187 85t-73 242zM205 324q2 -98 29 -155.5t75 -57.5q75 0 139 116.5t95.5 274.5t27.5 297q-3 92 -30 141t-74 49q-70 0 -133.5 -104.5 t-98.5 -259.5t-30 -301z" />
<glyph unicode="1" horiz-adv-x="548" d="M33 774q21 8 129 115t186 201q72 -6 125 -47t55 -89q1 -7 -47.5 -238.5t-88.5 -466.5t-23 -263q-54 5 -110.5 38.5t-65.5 67.5q-7 27 20.5 169.5t78 369.5t66.5 305q-118 -153 -159 -182q-28 -20 -84.5 -12.5t-81.5 32.5z" />
<glyph unicode="2" horiz-adv-x="706" d="M-61.5 117.5q2.5 30.5 53.5 70.5q543 442 543 654q0 67 -37.5 106t-102.5 39q-73 0 -116 -42.5t-43 -127.5q0 -13 -10 -17.5t-46 -4.5q-3 22 -8 53t-7 45t-3.5 33t-1.5 37q0 127 237 127q140 0 225 -63t85 -187q0 -279 -584 -719q94 -3 260 1t225 21q-27 -77 -57.5 -114 t-61.5 -35q-441 6 -522 6q-31 87 -28.5 117.5z" />
<glyph unicode="3" horiz-adv-x="686" d="M-82 76q4 18 11.5 25.5t12.5 6.5l5 -2q49 -22 143 -22q48 -1 99 12t102 41.5t84 83.5t33 127q0 71 -45.5 116t-115 52.5t-153.5 -14.5q5 108 47 119q342 89 342 243q0 56 -37 89.5t-102 33.5q-160 0 -160 -123q0 -13 -9.5 -18.5t-43.5 -5.5q-22 84 -22 123q0 127 239 127 q138 0 222.5 -66t84.5 -162q0 -82 -75.5 -154t-223.5 -118q121 -9 189.5 -76t68.5 -154q0 -162 -138 -268t-351 -106q-49 0 -99.5 8t-70.5 22z" />
<glyph unicode="4" horiz-adv-x="794" d="M-21.5 400q4.5 30 37.5 77q79 111 229 292t287 321q72 -6 124.5 -47t54.5 -89q0 -6 -17.5 -84t-47.5 -213t-52 -241q139 7 180 18q-54 -151 -121 -151q-23 2 -84 2q-51 -268 -32 -299q-54 5 -111 39t-64 67q-8 25 27 195q-312 4 -397 4q-18 79 -13.5 109zM133 412 q51 -4 285 0q20 90 64 273.5t59 250.5q-161 -178 -408 -524z" />
<glyph unicode="5" horiz-adv-x="722" d="M-61 78q4 17 11 25t12 7l5 -1q42 -20 137 -25q37 -1 77.5 7.5t85.5 29.5t81 53t59 83.5t23 115.5q0 108 -88 157.5t-209 16.5q-31 33 -45.5 67t-13.5 52l2 18q19 102 117 401q456 6 520 25q-26 -76 -55.5 -113.5t-59.5 -35.5q-43 1 -140.5 2t-148.5 2q-1 -6 -34 -117 t-48 -172q181 22 294.5 -55t113.5 -234q0 -113 -66.5 -205t-180.5 -143t-251 -51q-46 0 -95 8t-69 22z" />
<glyph unicode="6" horiz-adv-x="749" d="M10 313q-1 196 72 376t197.5 290.5t263.5 110.5q65 0 110 -29l35 -60q-4 -18 -11.5 -25.5t-12.5 -5.5l-5 1q-46 22 -100 22q-94 0 -180 -109t-141 -280q41 30 97.5 49t113.5 19q97 0 166 -65t69 -179q0 -63 -15.5 -125.5t-48.5 -119.5t-79 -101t-113 -70t-145 -26 q-125 0 -198.5 87.5t-74.5 239.5zM215 240q0 -78 24.5 -112t71.5 -32q49 2 93.5 57t69 134t22.5 151q-3 58 -30.5 88.5t-72.5 28.5q-54 -2 -95.5 -51t-62 -119t-20.5 -145z" />
<glyph unicode="7" horiz-adv-x="665" d="M-25 76q-3 15 0 28t13 39q40 106 225 387.5t309 423.5h-442q44 136 108 136q33 -2 85.5 -4t202.5 -5t237 4q9 -61 -3.5 -102.5t-58.5 -103.5q-1 -1 -25 -33.5t-51 -71t-68 -96.5t-79.5 -117.5t-81 -126t-77.5 -130t-64 -122.5t-45.5 -110t-16.5 -86q-37 3 -80 21t-71 42 q-14 12 -17 27z" />
<glyph unicode="8" horiz-adv-x="735" d="M-33 231q12 187 287 363q-30 40 -42.5 57.5t-29.5 49.5t-22 62t-2 66q6 102 98.5 181.5t224.5 79.5q117 0 183 -55t59 -152q-6 -81 -64.5 -149t-162.5 -134q65 -77 107 -168.5t36 -171.5q-8 -125 -108.5 -199.5t-274.5 -74.5q-144 0 -219.5 70.5t-69.5 174.5zM145 233 q-5 -63 30.5 -104t98.5 -41q79 0 121 41t45 109q10 127 -123 280q-74 -56 -121 -131t-51 -154zM334 893q-6 -88 96 -215q51 38 84 91t37 105q3 58 -23.5 90.5t-74.5 32.5q-52 0 -84 -30t-35 -74z" />
<glyph unicode="9" horiz-adv-x="735" d="M16 74q4 18 11.5 25.5t12.5 6.5l5 -2q46 -22 102 -22q118 0 193 97t137 292q-92 -68 -211 -68q-97 0 -166 65t-69 179q0 80 25.5 157t73.5 141.5t127 104.5t175 40q118 0 195.5 -81.5t77.5 -230.5q2 -210 -67 -391t-195.5 -291t-280.5 -110q-68 0 -109 28zM221 637 q1 -58 28.5 -88.5t72.5 -28.5q54 2 95.5 51t62 119.5t20.5 145.5q0 78 -25 111.5t-72 31.5q-49 -2 -93 -57t-68 -134t-21 -151z" />
<glyph unicode=":" horiz-adv-x="477" d="M45 100q6 63 47 105.5t88 36.5q35 -3 59 -25t23 -63q0 -61 -36.5 -111t-94.5 -43q-41 4 -65 32.5t-21 67.5zM125 428q6 62 46.5 105t88.5 38q35 -5 59 -27t23 -63q0 -60 -36 -109.5t-95 -43.5q-41 4 -65 33.5t-21 66.5z" />
<glyph unicode=";" horiz-adv-x="575" d="M82 -172q69 93 101.5 220t29.5 183q54 -11 97.5 -52t43.5 -83q0 -54 -51.5 -126.5t-106.5 -119.5t-73 -47t-41 25zM223 428q4 62 45 105t88 38q36 -5 60 -27t24 -63q0 -60 -37 -109.5t-94 -43.5q-41 4 -65 33.5t-21 66.5z" />
<glyph unicode="&#x3c;" />
<glyph unicode="=" horiz-adv-x="788" d="M63 156q-8 11 0 30q31 83 56 93q24 8 288.5 1t337.5 1q-16 -107 -77 -127q-38 -3 -128 -1.5t-223 5.5t-151 4q-71 0 -98 -12zM63 414q-8 11 0 30q31 83 56 93q24 8 288.5 1t337.5 1q-16 -107 -77 -127q-38 -3 -128 -1.5t-223 5.5t-151 4q-71 0 -98 -12z" />
<glyph unicode="&#x3e;" />
<glyph unicode="?" horiz-adv-x="794" d="M123 100q6 63 47 105.5t88 36.5q35 -3 59 -25t23 -63q0 -61 -36.5 -111t-94.5 -43q-41 4 -65 32.5t-21 67.5zM182 440q11 63 56 80q207 74 298 153.5t91 172.5q0 68 -43 109.5t-117 41.5q-93 0 -142 -51t-49 -135q0 -19 -11 -26t-52 -7q-3 15 -9.5 43t-8 37.5t-4.5 27 t-4 30t-1 28.5q0 75 60.5 117.5t218.5 42.5q167 0 269 -78.5t102 -194.5q0 -206 -355 -319q-84 -26 -105.5 -42t-21.5 -52q0 -17 2 -28.5t7 -33.5t10 -47q-30 -4 -55 -5t-42.5 2.5t-29.5 7t-21.5 10.5t-12.5 10t-9 10q-32 33 -21 96z" />
<glyph unicode="@" horiz-adv-x="1456" d="M10 115q-4 92 26 196.5t87.5 204.5t142.5 192t184 161.5t219 111t242 41.5q228 0 346.5 -125t112.5 -344t-123.5 -377t-261.5 -160q-73 0 -136.5 39.5t-86.5 114.5q-106 -154 -225 -154q-81 0 -131 50.5t-46 164.5q2 83 41 174.5t101 168.5t151.5 127.5t182.5 50.5 q77 0 124.5 -37.5t47.5 -91.5q0 -19 -18.5 -100.5t-35 -160t-13.5 -148.5t38 -81q47 -14 95.5 36t84 145.5t47.5 209.5q19 186 -69 286.5t-269 100.5q-171 0 -333 -114.5t-259.5 -294t-93.5 -361.5q2 -83 32.5 -147.5t78.5 -102t108 -59t122.5 -23t122 11.5t106.5 40 q1 0 2.5 1t5.5 1t7 -2t5.5 -8.5t1.5 -16.5l-47 -65q-36 -25 -91 -42t-120.5 -21.5t-133.5 3t-132.5 36.5t-116 74.5t-85 121t-38.5 172.5zM551 213q0 -34 12 -54t33 -20q50 0 105.5 100t89 213t34.5 171q2 18 -9.5 30.5t-29.5 12.5q-46 0 -90.5 -50.5t-75 -122.5 t-49.5 -148.5t-20 -131.5z" />
<glyph unicode="A" horiz-adv-x="790" d="M-123 -2q38 30 209.5 410t286.5 679q93 0 136 -13t56 -50q1 -2 38.5 -256.5t84 -504.5t72.5 -269q-32 -9 -70 -9q-28 1 -58 5q-74 10 -91 37q-18 26 -54 272q-11 -28 -38 -35q-3 -1 -50 -1h-121t-122 -1q-87 -204 -113 -242q-23 -26 -79 -33q-16 -2 -30 -2q-35 0 -57 13z M199 365l278 4q-15 95 -38 274t-29 219q-28 -65 -104.5 -246t-106.5 -251z" />
<glyph unicode="B" horiz-adv-x="831" d="M2 184q14 96 63.5 321t86.5 396q31 144 31 174q0 6 -1 8h297q167 0 249.5 -61t82.5 -176q0 -86 -65 -156.5t-162 -97.5q93 -13 144 -84q46 -65 46 -144v-16q-9 -159 -137 -261.5t-313 -102.5q-172 0 -254 54q-71 46 -70 120q0 13 2 26zM195 213q-2 -13 -2 -24 q-1 -43 29 -67q35 -29 100 -28h8q92 0 161.5 81t69.5 196q-1 80 -53 124q-44 37 -110 37q-14 0 -29 -2q-2 0 -6 1.5t-16.5 16.5t-24.5 42l6 24q14 -1 28 -1q106 1 180 61q84 68 85 170q0 74 -71 114q-51 29 -136 30q-34 0 -72 -5q-5 -46 -32.5 -189.5t-64.5 -328.5t-50 -252 z" />
<glyph unicode="C" horiz-adv-x="684" d="M0 319q-1 17 -1 34q0 135 43 265q48 146 130 252.5t192.5 171t225.5 64.5q92 0 149.5 -31t57.5 -86q0 -24 -11 -56t-22.5 -56.5t-36.5 -71.5q-35 0 -46 5.5t-9 16.5q8 40 8 71q0 116 -109 116q-96 0 -181.5 -100t-133.5 -259q-43 -141 -44 -289q0 -18 1 -36 q4 -103 51.5 -157t126.5 -54q52 0 116 29t114 77l1 1q1 1 3.5 2.5t4.5 2t5.5 0t6 -3t6 -7.5t5.5 -13l-26 -76q-116 -145 -322 -145q-141 0 -220 86.5t-85 246.5z" />
<glyph unicode="D" horiz-adv-x="956" d="M6 215q18 105 65.5 324.5t80.5 375.5q29 135 29 162q0 4 -1 6l256 -2q242 0 366 -106.5t124 -294.5q0 -133 -53 -260t-141.5 -222.5t-213 -153.5t-260.5 -58q-156 0 -214 58q-43 42 -44 115q0 26 6 56zM203 248q-7 -39 -8 -67q0 -33 11 -51q19 -32 93 -32t147.5 44.5 t130.5 118.5t94.5 177t43.5 213q1 15 1 30q0 157 -98 233q-83 65 -209 64q-35 0 -73 -5q-4 -39 -26.5 -160.5t-58 -307t-48.5 -257.5z" />
<glyph unicode="E" horiz-adv-x="673" d="M18 197q14 97 64 319t86 389q31 140 30 170q0 6 -1 8h565q-16 -49 -31 -76t-22 -31.5t-21 -10.5q-10 -1 -29 -1t-46 1q-54 1 -141 5q-68 3 -103 3h-17q-9 -83 -63 -346h311q-14 -45 -27 -69t-19.5 -29.5t-18.5 -10.5q-21 -1 -49 -0.5t-102 3t-114 3.5q-20 -99 -57 -299 q-2 -13 -3 -25q0 -42 31 -66q39 -30 134 -30q108 0 237 52h1q1 1 2.5 1t3 -0.5t3.5 -1.5t3.5 -3.5t2.5 -7.5t1 -11l-29 -98q-125 -49 -338 -49q-59 0 -104 10.5t-81 33.5q-35 24 -51 66q-10 28 -11 63q0 18 3 38z" />
<glyph unicode="F" horiz-adv-x="669" d="M2 92q-2 6 -2 17q0 57 42 259q50 242 102 472q46 207 47 238q0 4 -1 5h568q-5 -17 -10 -31.5t-10.5 -25t-9 -18.5t-8.5 -14.5t-7.5 -10t-8 -7t-7 -4.5t-7 -4t-6.5 -3q-17 -1 -42 -1h-26q-42 1 -136 4.5t-134 4.5q-3 -17 -13 -69.5t-28 -139t-31 -156.5h336 q-14 -44 -28 -68.5t-19 -27.5t-18 -10q-25 -2 -56 -1.5t-113.5 3.5t-121.5 4q-73 -385 -73 -488q0 -27 5 -34q-56 5 -115.5 39t-68.5 67z" />
<glyph unicode="G" horiz-adv-x="802" d="M0 317q-1 16 -1 32q0 100 22 199q25 115 76.5 214.5t122 176.5t163 121t192.5 44q94 0 158 -31t64 -86q0 -24 -11 -56.5t-22 -54t-37 -71.5q-35 0 -46 5.5t-9 16.5q6 32 6 59q0 47 -18 78q-30 50 -103 50q-98 0 -180.5 -102t-126.5 -260q-38 -140 -38 -284q0 -20 1 -40 q3 -91 42.5 -147t102.5 -56q84 0 134.5 83t87.5 261q6 37 14 104q50 -3 100 -38t47 -66q-63 -335 -63 -440q0 -33 6 -43q-57 3 -103 24t-55 53q0 1 3 32t3 36q-114 -145 -256 -145q-127 0 -198.5 85.5t-77.5 245.5z" />
<glyph unicode="H" horiz-adv-x="931" d="M2 92q-1 5 -1 15q-1 81 91 507q96 444 97 488q0 3 -1 4q58 -4 105 -41.5t49 -79.5q1 -4 -8.5 -53.5t-31.5 -161.5t-34 -176q338 0 402 6q107 493 100 506q57 -4 103.5 -42t48.5 -79q0 -7 -48 -247q-46 -240 -86 -482q-27 -167 -27 -231q0 -30 5 -39q-56 5 -115.5 39 t-68.5 67q-2 7 -2 21q0 78 65 372q-81 2 -149 2q-159 0 -250 -10q-66 -346 -66 -450q0 -31 6 -41q-56 5 -115.5 39t-68.5 67z" />
<glyph unicode="I" horiz-adv-x="356" d="M2 92q-2 6 -2 17q0 59 44 265q52 248 103 484q47 212 47 243q0 4 -1 5q57 -4 104 -42t49 -79q0 -5 -49 -246t-89 -483q-28 -167 -28 -232q0 -29 6 -38q-56 5 -115.5 39t-68.5 67z" />
<glyph unicode="J" horiz-adv-x="395" d="M-211 -291q50 27 89.5 66t69 76.5t57 112t45 126t41.5 168t37 188.5t42 233q27 155 43 241q8 46 -3.5 60.5t-55.5 14.5q-38 0 -71.5 -8t-45.5 -16l-19 12q10 62 38 91.5t63 29.5q104 0 181 -58q75 -55 75 -126v-5q-3 -144 -92 -593q-27 -138 -64.5 -246t-76 -175.5 t-85 -115.5t-86 -70.5t-84.5 -36.5q-5 -2 -13 -3h-2q-9 0 -32 7q-26 7 -51 27z" />
<glyph unicode="K" horiz-adv-x="770" d="M2 92q-1 5 -1 15q0 81 95 507q100 445 100 488q0 3 -1 4q57 -4 104 -42t49 -79q0 -4 -11.5 -60t-32 -156t-36.5 -183q130 98 301.5 268.5t190.5 232.5q40 -29 56 -87q7 -26 7 -45q0 -25 -12 -40q-35 -51 -379 -321q69 -188 162 -363.5t151 -216.5q-80 -27 -134 -27 q-28 0 -48 7q-32 11 -62.5 41.5t-51.5 62t-47.5 90.5t-40 93.5t-39.5 107.5t-35 98q-19 -16 -43 -30q-63 -339 -63 -436q0 -27 5 -35q-56 5 -115.5 39t-68.5 67z" />
<glyph unicode="L" horiz-adv-x="653" d="M2 197q14 98 64 325q52 227 90 400q33 150 33 178q0 4 -1 6q58 -5 108 -43q46 -35 46 -72v-6q-7 -58 -69 -370t-76 -390q-2 -14 -2 -26q-1 -42 29 -65q38 -30 134 -30q109 0 238 52q2 1 4.5 1.5t7 -5t4.5 -19.5l-28 -98q-125 -49 -338 -49q-59 0 -104 10.5t-81 33.5 q-35 24 -51 66q-10 28 -11 63q0 18 3 38z" />
<glyph unicode="M" horiz-adv-x="1200" d="M-98 -2q22 13 78 174.5t110.5 346t101 346t48.5 165.5q19 42 72 60q42 15 90 15q13 0 26 -1q68 -511 127 -836q209 377 426 836q181 -10 199 -131q0 -5 -36 -241t-64 -474q-16 -138 -15 -205q0 -49 8 -61q-54 -6 -95 -8q-3 0 -6 -1q-37 0 -61 17q-26 18 -30 57 q-1 12 -1 27q0 85 32 291q38 244 87 471q-37 -68 -133.5 -256t-168.5 -323t-89 -156q-33 -40 -79 -48q-13 -2 -29 -2q-43 0 -111 15q-19 164 -94 715q-19 -69 -51 -189t-55.5 -206.5t-49 -177t-44 -144t-27.5 -64.5q-23 -26 -69 -29h-12q-41 0 -85 17z" />
<glyph unicode="N" horiz-adv-x="997" d="M-37 -2q27 17 89 267t116 505t55 258q30 77 147 77q10 0 21 -1q148 -450 324 -905q130 638 194 850q10 34 71 50q28 7 53 7q29 0 54 -10q-33 -28 -92 -255.5t-121.5 -517.5t-70.5 -319q-55 -13 -96 -14h-8q-35 0 -61 8q-28 9 -50 30.5t-36 48.5t-28 68q-92 244 -225 646 q-12 -62 -36.5 -188t-40.5 -208.5t-36 -175.5t-34 -145.5t-23 -63.5q-22 -26 -68 -29h-12q-41 0 -86 17z" />
<glyph unicode="O" horiz-adv-x="907" d="M0 319v28q0 125 40 253q46 142 123.5 253.5t185 182t218.5 70.5q138 0 221 -88t89 -236q1 -18 1 -36q0 -98 -24 -198q-28 -118 -81 -217t-124.5 -177.5t-161 -123t-182.5 -44.5q-141 0 -220 86.5t-85 246.5zM213 330q5 -101 40.5 -159t98.5 -58q98 0 180.5 118.5 t123.5 278.5q37 143 37 270q0 16 -1 31q-4 94 -39.5 143.5t-97.5 49.5q-91 0 -173 -106q-82 -108 -128 -264q-41 -141 -41 -275v-29z" />
<glyph unicode="P" horiz-adv-x="780" d="M2 92q-2 6 -2 17q0 57 42 261q50 244 100 478q44 205 45 240q0 5 -1 6h232q185 0 286 -77t101 -210q0 -123 -78.5 -217t-208.5 -133q-76 -23 -156 -23q-58 0 -118 12q-26 -134 -48 -282q-14 -95 -15 -141q0 -26 5 -37q-56 5 -115.5 39t-68.5 67zM264 553q30 -4 58 -4 q100 0 172 53q94 68 104 209v16q0 88 -62 129q-57 38 -154 38q-17 0 -36 -1q-5 -48 -17 -111.5t-34 -174t-31 -154.5z" />
<glyph unicode="Q" horiz-adv-x="909" d="M0 315v28q0 125 40 255q46 143 123.5 254t185 181.5t218.5 70.5q138 0 221 -88t89 -236q1 -16 1 -33q0 -145 -48 -287q-53 -157 -150.5 -275.5t-218.5 -168.5q80 -189 180 -247q14 -15 -23 -35q-201 2 -329 250q-133 6 -208 91.5t-81 239.5zM213 326q5 -100 40.5 -158.5 t98.5 -58.5q98 0 180.5 118.5t123.5 278.5q37 144 37 272q0 16 -1 31q-4 93 -39.5 142.5t-97.5 49.5q-91 0 -173.5 -106.5t-127.5 -262.5q-41 -142 -41 -276v-30z" />
<glyph unicode="R" horiz-adv-x="839" d="M2 92q-2 6 -2 17q0 57 42 256q50 239 100 468q44 201 45 236q0 5 -1 6h232q185 0 286 -76.5t101 -210.5q0 -119 -73 -209.5t-193 -132.5h-4q68 -164 143.5 -297t124.5 -167q-82 -28 -136 -28q-27 0 -46 7q-23 8 -45 25.5t-39 37t-36.5 53t-32 58t-31 69.5t-28 69.5 t-27.5 74.5t-26 70q-70 4 -112 10q-62 -307 -63 -405q0 -26 5 -37q-56 5 -115.5 39t-68.5 67zM264 535q29 -4 56 -4q102 0 177 54q94 68 101 208v11q0 92 -63 134q-57 39 -154 38q-17 0 -35 -1q-5 -47 -17 -112t-33.5 -171t-31.5 -157z" />
<glyph unicode="S" horiz-adv-x="671" d="M-82 119q0 48 64 176q37 0 47 -5t8 -18q-6 -29 -6 -54q1 -52 25 -82q36 -46 110 -46q84 0 134 53t50 133q0 51 -24 107.5t-58 108t-68.5 103t-58.5 108t-24 106.5q0 133 102 216t240 83q118 0 165.5 -33t47.5 -90q0 -9 -2.5 -20.5t-5 -20t-9.5 -24.5t-11 -24.5 t-14.5 -30.5t-15.5 -31q-34 0 -43 4.5t-6 17.5q5 27 5 49q0 47 -23 73q-34 38 -98 38q-67 0 -109.5 -38.5t-42.5 -98.5q0 -45 27.5 -101t66.5 -110t78 -109.5t66.5 -117.5t27.5 -117q0 -145 -112.5 -241.5t-292.5 -96.5q-129 0 -184.5 31.5t-55.5 101.5z" />
<glyph unicode="T" horiz-adv-x="772" d="M20 973q22 69 46 95q22 24 52 24h5q34 -2 95.5 -4t269.5 -6q92 -2 184 -2q116 0 233 3q-16 -50 -29.5 -76.5t-22 -32t-22.5 -9.5q-5 -2 -56 0t-124 5t-112 3q-2 -14 -56 -277q-53 -264 -87 -474q-22 -139 -23 -198q0 -30 6 -38q-56 5 -115.5 39t-68.5 67q-2 6 -2 17 q0 44 25 171q31 160 81.5 388t65.5 305h-345z" />
<glyph unicode="U" horiz-adv-x="950" d="M2 279q5 67 52 273q46 206 86 378q36 154 37 176q0 3 -1 4q58 -5 109.5 -42.5t54.5 -78.5q0 -5 -28.5 -134t-62.5 -296t-44 -250q-2 -19 -2 -37q-1 -62 25 -104q32 -52 112 -57h14q102 -1 176 93q80 100 117 275q20 96 59 266q40 169 58 259q15 74 15 93q0 4 -1 5 q57 -4 109 -42q53 -39 53 -79q0 -11 -49 -246q-50 -239 -92 -481q-30 -172 -30 -236q0 -26 5 -34q-87 3 -129 31t-53 106q-114 -135 -309 -135q-143 0 -217 82q-65 71 -65 178q0 16 1 33z" />
<glyph unicode="V" horiz-adv-x="841" d="M20 1079q33 10 73 10q27 -1 57 -5q76 -10 96 -37q4 -6 8 -18t9 -33.5t8.5 -41t8.5 -53.5t8.5 -57.5t10 -67.5t10.5 -69q25 -168 66 -496q28 64 99.5 242.5t103.5 255.5q114 270 148 329q15 25 26 37q28 28 88 37q17 3 32 3q40 0 72 -17q-41 -32 -233 -433t-297 -679 q-93 0 -139.5 13.5t-59.5 49.5q-2 5 -40 257.5t-84 503t-71 269.5z" />
<glyph unicode="W" horiz-adv-x="1343" d="M20 1079q30 10 71 10q27 -1 60 -5q82 -10 99 -37q4 -6 8 -18.5t8.5 -33t8 -40.5t8 -53.5t8 -58t9 -67.5t9.5 -69q14 -101 37 -292t25 -204q34 82 115.5 298t121.5 331q27 69 207 78q19 -139 27 -211q8 -60 63 -496q23 57 88 232t101 266q10 26 28.5 74t28 71.5t24 60.5 t23 57t19 43t18.5 36.5t14 21.5q10 12 40.5 24.5t74.5 17.5q8 1 14 1q35 0 68 -20q-37 -31 -211.5 -429.5t-273.5 -680.5q-193 0 -216 63q-2 5 -13 87.5t-30.5 226t-37.5 258.5q-140 -337 -246 -635q-196 0 -217 63q-1 4 -36.5 257.5t-78.5 503.5t-66 269z" />
<glyph unicode="X" horiz-adv-x="843" d="M-113 6q28 18 156.5 191.5t251.5 363.5q-7 20 -22 61q-40 110 -60.5 166.5t-50.5 133t-48 112.5t-28 41q54 9 98 9q42 0 77 -8q71 -16 81 -46q3 -7 20 -56t46.5 -132.5t58.5 -161.5q78 124 162 251.5t96 139.5q26 25 89 29q8 0 16 1q52 0 85 -20q-24 -15 -144 -180 t-253 -364q71 -191 156.5 -358t116.5 -173q-48 -16 -89 -18q-8 0 -15 -1q-33 0 -61 9q-34 11 -63.5 31.5t-56 55.5t-49.5 77t-47 98q-21 49 -62 160q-72 -120 -163.5 -254t-106.5 -148q-26 -26 -90 -30h-16q-52 0 -85 20z" />
<glyph unicode="Y" horiz-adv-x="722" d="M12 1079q48 10 91 10q39 0 73 -9q72 -17 82 -46q19 -47 111 -420q44 70 111.5 183.5t113 190t51.5 83.5q21 27 58 35q19 3 37 3t34 -3q34 -7 62 -23q-15 -10 -76.5 -100t-183.5 -275.5t-168 -254.5q-63 -334 -63 -431q0 -28 5 -36q-55 5 -115 39t-69 67q-1 5 -1 13 q0 64 62 348q-33 91 -84 255.5t-84 264.5t-47 106z" />
<glyph unicode="Z" horiz-adv-x="735" d="M-117 0q-1 8 -1 15q0 60 48 130q30 42 296.5 369.5t363.5 443.5h-443q22 68 47 94q23 25 53 25h5q32 -2 84 -4q52 -3 206 -5q41 -1 78 0q104 0 181 5q4 -29 4 -53q1 -28 -5 -51q-10 -42 -55 -103q-7 -10 -160.5 -194t-296.5 -360t-147 -193q110 -2 193 -2q62 0 110 1 q110 3 149 9l40 6q-50 -141 -119 -141q-286 6 -631 8z" />
<glyph unicode="[" horiz-adv-x="432" d="M29 117q0 97 61 412t121 513q13 49 71.5 60.5t163.5 -4.5l-12 -68q-61 -4 -80.5 -24.5t-36.5 -98.5q-8 -35 -31 -149.5t-57 -303t-49 -304.5q-6 -43 13.5 -66t74.5 -29q3 0 6.5 -1t10 -5.5t-1.5 -13.5l-37 -49q-122 0 -169.5 29.5t-47.5 101.5z" />
<glyph unicode="\" horiz-adv-x="628" d="M-37 1073q30 21 76.5 22t60.5 -20q19 -29 139.5 -290.5t241 -505t154.5 -263.5q-30 -20 -74 -26t-74 10q-26 16 -263.5 533t-260.5 540z" />
<glyph unicode="]" horiz-adv-x="446" d="M-31 -6l13 67q61 4 80 24.5t36 98.5q8 37 31 150t57.5 302.5t49.5 305.5q6 43 -14 65.5t-75 28.5q-3 0 -6.5 1.5t-9.5 6.5t2 13l37 49q122 0 169.5 -29.5t47.5 -101.5q0 -97 -61 -412.5t-121 -513.5q-13 -48 -72 -59.5t-164 4.5z" />
<glyph unicode="^" horiz-adv-x="759" d="M223 819q51 24 120 110t87 142q21 0 62 -13.5t45 -23.5q17 -90 45.5 -158.5t44.5 -82.5q-16 -9 -29 -14t-18 -6l-5 -1q-27 0 -65 38.5t-68 94.5q-35 -42 -94.5 -80.5t-87.5 -38.5q-13 0 -20 7t-17 26z" />
<glyph unicode="_" d="M86 -203q20 36 36.5 55t35.5 19h536q223 0 248 2q-4 -20 -10 -36t-14.5 -27t-15.5 -18t-17.5 -11.5t-15.5 -6.5t-15.5 -4.5t-11.5 -2.5q-53 -3 -148 -3t-263 2.5t-198 2.5q-121 0 -141 -7l-6 7q-10 10 0 28z" />
<glyph unicode="`" horiz-adv-x="663" d="M274 995q0 24 39 53.5t84 36.5q0 -17 9 -52t27 -79.5t53 -80t79 -42.5q-4 -11 -10 -18t-10 -9l-4 -1q-27 -6 -61.5 -3t-70.5 20.5t-66 41.5t-49.5 59.5t-19.5 73.5z" />
<glyph unicode="a" horiz-adv-x="755" d="M0 193q0 81 34.5 169.5t92.5 162.5t143 122.5t176 48.5q76 0 122 -36q49 -38 48 -92q0 -18 -10 -70l-25.5 -119t-24.5 -125q-9 -52 -9 -89v-13q2 -42 22 -43h6q51 1 110 65q62 68 103 170q1 2 3.5 5t12.5 6.5t25 -5.5l19 -59q-14 -37 -31 -72.5t-46.5 -81.5t-62 -78.5 t-78.5 -53.5q-39 -18 -79 -18q-8 0 -16 1q-86 6 -144 145q-97 -149 -213 -149q-79 0 -128.5 48.5t-49.5 160.5zM186 174q0 -33 12 -52.5t33 -19.5q48 0 99 97t80.5 206.5t29.5 165.5q0 17 -11 29t-28 12q-59 0 -111 -82q-54 -81 -80 -182q-25 -94 -24 -164v-10z" />
<glyph unicode="b" horiz-adv-x="659" d="M2 182q15 98 81 385.5t83 372.5q21 106 21 134q0 7 -1 9q56 -5 101 -41q41 -33 41 -69v-6q-19 -142 -62 -355q80 84 176 84q176 0 176 -211q0 -82 -34.5 -170.5t-92.5 -161.5t-142 -120t-175 -47q-96 0 -140 55q-35 43 -35 106q0 17 3 35zM178 127q0 -18 11.5 -29.5 t29.5 -11.5q57 0 109 77t78 175q26 94 26 167v5q0 82 -39 82q-49 0 -101.5 -95.5t-83 -204.5t-30.5 -165z" />
<glyph unicode="c" horiz-adv-x="548" d="M0 215q17 200 133.5 339.5t259.5 139.5q75 0 115.5 -28.5t40.5 -69.5q0 -42 -53 -143q-5 -9 -7 -13q-30 0 -39.5 4.5t-7.5 14.5q7 37 7 65q0 86 -66 86q-52 0 -96 -63t-67 -151t-23 -171q0 -114 84 -114q82 0 192 98q2 2 5.5 4t10.5 -1.5t11 -18.5l-25 -76 q-47 -56 -124.5 -93.5t-160.5 -37.5q-92 0 -144 64q-47 58 -47 145q0 10 1 20z" />
<glyph unicode="d" horiz-adv-x="761" d="M0 197q0 65 21.5 135.5t62.5 135t95 116t123.5 82t143.5 30.5q23 0 33 -2q79 342 79 384q0 4 -1 5q55 -5 99 -41q40 -33 41 -69q0 -3 -1 -6q-12 -106 -67.5 -389.5t-67.5 -352.5q-6 -39 -6 -65q0 -51 23 -51h6q53 0 112 65q62 69 103 174q1 2 3 4.5t11.5 5t22.5 -7.5 l18 -65q-15 -39 -30.5 -73t-44 -79.5t-60 -77t-76.5 -51.5q-39 -18 -82 -18h-12q-42 3 -85.5 39t-72.5 100q-88 -139 -213 -139q-178 0 -178 211zM186 178q0 -74 39 -74t80 58t69.5 136.5t47 154.5t18.5 116q0 19 -11 31t-28 12q-58 0 -109.5 -76.5t-78.5 -176t-27 -181.5z " />
<glyph unicode="e" horiz-adv-x="559" d="M0 215q10 125 67 237t139.5 178t166.5 66q75 0 116 -36.5t43 -94.5q0 -7 1 -15q0 -122 -96 -206t-223 -84h-15v-27q0 -124 82 -124t192 98q1 1 2 1.5t5 1.5t7 0t7 -6t6 -14l-25 -75q-44 -56 -122 -92.5t-163 -36.5q-92 0 -144 64q-46 57 -47 144q0 10 1 21zM209 332 q107 26 169 121q38 58 38 104q0 10 -2 20q-7 37 -41 37q-51 0 -97 -87t-67 -195z" />
<glyph unicode="f" horiz-adv-x="372" d="M-131 -311q68 213 141 673q16 107 43 218q-130 -4 -135 -5q12 71 45 93q5 4 46 4q28 0 71 -2q36 122 80 205t94.5 127.5t101 62.5t111.5 18q71 0 111 -27t40 -77q0 -33 -45 -139q-33 3 -40 6t-7 12q3 22 3 41q0 41 -12 69q-17 42 -60 42q-37 0 -63 -22.5t-57.5 -98 t-68.5 -219.5q195 5 201 6q-5 -27 -9 -45t-10.5 -28t-8 -13t-10.5 -8l-9 -4q-4 -2 -48 -2t-128 2q-28 -105 -43 -177q-67 -286 -135.5 -469t-108.5 -223q-9 -7 -35 -14q-24 -6 -48 -6h-7z" />
<glyph unicode="g" horiz-adv-x="669" d="M-92 -428q0 76 37.5 143t98 111.5t131.5 73t144 37.5q18 53 50 159l-11 2q-81 -112 -180 -112q-92 0 -135 56.5t-43 152.5q0 84 36.5 173.5t96 162t144 119t172.5 46.5q64 0 116.5 -36t52.5 -97q0 -75 -16.5 -184.5t-47.5 -237.5t-80.5 -254t-109.5 -229t-141.5 -167 t-169.5 -64q-66 0 -105.5 39.5t-39.5 105.5zM23 -430q0 -53 36 -53q41 0 82 39.5t73 101t52.5 112t34.5 95.5q-94 -11 -186 -106t-92 -189zM186 184q0 -80 45 -80q42 0 83.5 57t68 135t43 151t16.5 112q0 21 -10 37t-31 16q-48 0 -91 -51.5t-68.5 -123.5t-40.5 -141 t-15 -112z" />
<glyph unicode="h" horiz-adv-x="765" d="M6 98q-1 5 -1 15q0 81 93 491q98 429 98 471q0 3 -1 4q57 -3 101 -39q41 -33 41 -69q0 -3 -1 -6q-10 -88 -68 -394q102 124 220 123h20q58 -4 98 -42.5t43 -90.5q1 -6 1 -14q0 -35 -12 -101q-14 -80 -34.5 -175.5t-21.5 -100.5q-2 -16 -2 -28q0 -34 18 -36h6q50 0 109 66 q63 70 106 172q1 3 3.5 5.5t11.5 6t20 -7.5l8 -78q-52 -132 -134 -208t-169 -76q-56 0 -110 60t-54 112q0 27 34 188t34 195q0 41 -27 41q-21 0 -59 -25q-72 -47 -123.5 -178.5t-71.5 -272.5q-6 -59 -6 -88q0 -17 2 -24q-55 3 -109 36.5t-63 67.5z" />
<glyph unicode="i" horiz-adv-x="374" d="M0 158q0 58 59.5 269.5t63.5 266.5q51 -3 96.5 -30.5t54.5 -61.5q3 -14 -2 -48.5t-15 -78.5t-22.5 -94t-23 -97.5t-17 -86.5t-4.5 -63t15 -25h6q52 1 110 67q62 70 105 174q1 3 3.5 6t11 3t18.5 -11l8 -78q-53 -133 -132 -209.5t-165 -76.5q-56 0 -113 60t-57 114z M166 903q4 56 42 95q34 35 71 34h10q32 -3 54 -23.5t22 -58.5q1 -55 -33 -100q-30 -40 -76 -40q-6 0 -12 1q-37 5 -59 31q-19 23 -19 53v8z" />
<glyph unicode="j" horiz-adv-x="294" d="M-479 -428q3 135 122 238t298 118q48 189 108 468q51 237 51 288q0 9 -2 12q59 -5 114 -38q50 -32 50 -65q0 -10 -11 -85q-6 -39 -15 -83t-15.5 -75t-19 -81t-18 -73.5t-20.5 -81t-20 -75.5q-38 -145 -96.5 -264t-124 -193.5t-133 -114.5t-129.5 -40q-63 0 -102 42 q-37 40 -37 97v6zM-360 -457q6 -26 30 -26q61 0 128.5 91.5t121.5 248.5q-73 -6 -145 -62.5t-109 -128.5q-29 -55 -29 -97q0 -14 3 -26zM127 903q4 57 42 96q33 34 70 34q5 0 11 -1q32 -3 54 -23t22 -59q0 -55 -34 -100q-29 -40 -75 -40q-6 0 -12 1q-38 4 -59 30 q-19 23 -19 53v9z" />
<glyph unicode="k" horiz-adv-x="618" d="M2 106q-2 6 -2 16q0 56 44 256q52 238 103 464q47 204 47 236q0 4 -1 5q55 -5 99 -41q40 -33 41 -69q0 -3 -1 -6q-5 -48 -14 -101.5t-26.5 -146t-27.5 -146.5l-18 -98q33 25 98 85t115 101t76 48q22 6 55.5 -11.5t58.5 -48.5q-52 -27 -151.5 -95.5t-145.5 -104.5 q5 -10 26.5 -49.5t31 -57.5t31 -57t34.5 -60.5t33 -54.5t34.5 -53t31.5 -42.5t31.5 -36t27.5 -20.5q-73 -33 -126 -33q-17 0 -32 3q-36 9 -66 34.5t-54 65.5t-43 79t-44.5 93t-46.5 90q-49 -261 -49 -330q0 -13 2 -20q-55 4 -109 38t-63 68z" />
<glyph unicode="l" horiz-adv-x="434" d="M6 236q0 115 40 262.5t101 277t143.5 218.5t158.5 89q55 0 89.5 -36t34.5 -99q0 -110 -41 -223t-128 -208.5t-201 -129.5q-14 -86 -14 -144q0 -33 5 -59q13 -66 56 -67q60 0 152.5 72.5t125.5 150.5q1 3 3.5 6t11.5 3t20 -13l8 -60q-33 -84 -102 -152.5t-142 -103 t-132 -34.5q-87 0 -138 65t-51 185zM217 461q68 35 126.5 131t88 195.5t29.5 168.5q0 45 -27 45q-55 0 -104 -133.5t-113 -406.5z" />
<glyph unicode="m" horiz-adv-x="1155" d="M2 106q-2 7 -2 19q0 67 51 297q54 244 54 279q0 4 -1 6q56 -5 100 -41q40 -33 40 -68v-6q0 -13 -1 -27t-1 -20q111 156 244 155h16q57 -4 96 -43t45 -92v-4q111 140 233 140q8 0 17 -1q59 -4 98.5 -42.5t44.5 -92.5v-6q0 -27 -8 -81q-8 -61 -19 -116l-23.5 -117.5 l-14.5 -72.5q-2 -15 -2 -26q0 -34 18 -37h4q48 0 107 65q61 68 106 168q1 3 3.5 6.5t12 4.5t21.5 -11l6 -70q-51 -134 -130 -210t-167 -76q-56 0 -113 60t-57 114q0 28 35 190.5t35 194.5q0 33 -21 39q-3 1 -7 1q-21 0 -60 -24q-62 -40 -109 -140t-73 -220 q-26 -135 -26 -176v-5q1 -12 3 -22q-56 5 -112.5 37.5t-65.5 66.5q-1 4 -1 11q0 43 36 201q42 184 43 231q2 33 -19 39q-3 1 -7 1q-21 0 -60 -24q-67 -43 -119.5 -157t-71.5 -232q-10 -76 -11 -124q0 -30 5 -48q-54 5 -108.5 38t-63.5 68z" />
<glyph unicode="n" horiz-adv-x="757" d="M2 106q-2 8 -2 22q0 44 22 154q30 142 60 274q24 106 23 135q0 7 -1 9q56 -4 100 -40q40 -33 40 -68v-6q0 -25 -2 -33q50 67 117 107q58 35 119 35q9 0 18 -1q59 -4 99.5 -42.5t43.5 -90.5v-9q-1 -35 -13 -109q-14 -84 -32.5 -172t-20.5 -103q-4 -19 -4 -32q0 -30 19 -30 h6q50 0 108 66q62 70 105 172q1 3 4 5.5t12 6t19 -9.5l8 -78q-52 -133 -131 -207.5t-166 -74.5q-56 0 -113 58.5t-57 111.5q0 27 35 189t35 196q0 35 -22 41q-4 1 -8 1q-21 0 -58 -26q-64 -50 -114.5 -155t-68.5 -218q-12 -87 -12 -137q0 -30 4 -47q-54 3 -108.5 37 t-63.5 69z" />
<glyph unicode="o" horiz-adv-x="610" d="M0 213q0 75 27.5 159t75 156.5t120 120t152.5 47.5q100 0 147 -61.5t47 -165.5q0 -62 -13.5 -127.5t-42 -129.5t-69 -114t-99 -81t-126.5 -31q-97 0 -158 64t-61 163zM195 203q0 -16 2 -31t6.5 -33.5t15.5 -29.5t27 -11q42 0 80.5 51.5t62 122.5t37.5 137t14 103 q0 102 -61 102q-46 0 -83.5 -50.5t-58 -121.5t-31.5 -135t-11 -104z" />
<glyph unicode="p" horiz-adv-x="667" d="M-92 -336q0 22 3.5 50.5t10.5 66t12 60.5t15 66.5t12 51.5q21 98 63 275.5t56 238.5q1 3 15 63t21 98t7 62v6q46 -3 95.5 -34.5t53.5 -73.5q33 44 80.5 73t98.5 29q176 0 176 -213q0 -103 -45.5 -207t-129 -182.5t-184.5 -101.5q-28 -4 -47 -4q-43 0 -71 22 q-5 -20 -28 -117.5t-34 -150.5q-2 -11 -8 -40.5t-8.5 -46t-5.5 -41t-3 -44.5v-21q-48 4 -101.5 37t-53.5 78zM186 127q0 -19 11 -30t30 -11q49 0 92 51.5t69 123.5t41 141.5t15 113.5q0 76 -43 76q-41 0 -82.5 -58.5t-69.5 -137.5t-45.5 -154.5t-17.5 -114.5z" />
<glyph unicode="q" horiz-adv-x="669" d="M0 197q0 85 36 174.5t95 161t143 117.5t172 46q77 0 124.5 -41.5t47.5 -117.5t-112 -522q-104 -416 -104 -468q0 -4 1 -6q-47 3 -94 37t-47 78q0 20 4 41.5t12.5 53t10.5 40.5q10 47 30.5 141.5t30.5 141.5q-84 -88 -174 -88q-176 0 -176 211zM190 172q0 -74 39 -74 q40 0 81.5 59t69.5 138t46 154t18 112q0 18 -10.5 29.5t-27.5 11.5q-49 0 -92 -51.5t-68.5 -123.5t-40.5 -141.5t-15 -113.5z" />
<glyph unicode="r" horiz-adv-x="491" d="M2 100q-2 8 -2 22q0 46 22 155q30 143 60 275q24 107 23 135q0 7 -1 9q56 -4 99 -40q39 -32 39 -68v-6q-1 -7 -21 -95h8q133 209 226 209q38 0 57.5 -23t19.5 -63q0 -41 -49 -131q-21 0 -29.5 3t-9 5.5t-0.5 12.5q0 16 -2 22q-3 23 -28 24h-2q-24 0 -58 -28 q-56 -47 -106 -141t-66 -199q-12 -87 -12 -137q0 -30 4 -47q-54 5 -108.5 38t-63.5 68z" />
<glyph unicode="s" horiz-adv-x="528" d="M-37 98q0 38 53 142q23 0 34 -2.5t13 -7t0 -11.5q-5 -26 -5 -48q0 -45 20 -67q28 -34 78 -34q44 0 72 26.5t28 69.5q0 35 -25 79t-55 80.5t-55 85.5t-25 93q0 85 67.5 138.5t174.5 53.5q170 0 170 -106q0 -12 -3 -24.5t-12.5 -34t-14 -30.5t-21.5 -42q-29 0 -37 4t-6 14 q6 32 6 56q0 35 -12 53q-20 32 -66 32q-34 0 -54 -20t-20 -49q0 -33 27 -77.5t59 -82.5t59 -87.5t27 -90.5q0 -99 -78 -162t-212 -63q-100 0 -143.5 28.5t-43.5 83.5z" />
<glyph unicode="t" horiz-adv-x="417" d="M0 160q0 58 82 384.5t86 381.5q51 -3 95.5 -30.5t53.5 -61.5q1 -4 1 -12q0 -36 -25 -152q31 2 96.5 5.5t79.5 4.5q-5 -22 -10 -38.5t-8.5 -25.5t-9 -15.5t-7 -8.5t-7.5 -5t-7 -3q-10 -5 -46 -5t-100 5q-79 -344 -79 -438q0 -32 15.5 -36t37.5 7q55 18 120.5 85.5 t100.5 145.5q1 3 3.5 6.5t11 3.5t18.5 -12l8 -74q-50 -128 -149.5 -207t-190.5 -79q-56 0 -113 60t-57 114z" />
<glyph unicode="u" horiz-adv-x="772" d="M0 160q0 47 27 157q6 24 32 113.5t41 153t19 112.5q49 -4 100 -33.5t51 -74.5q0 -14 -16 -107q-6 -27 -24.5 -101.5t-29 -132t-10.5 -100.5q0 -12 1 -18.5t6 -13t16 -6.5q49 0 96 48t81.5 119t62.5 154t43.5 152t19.5 114q49 -4 100.5 -33.5t51.5 -74.5q0 -37 -17 -107 q-5 -26 -23.5 -101.5t-29 -132.5t-10.5 -100q0 -38 20 -38q34 0 69 26t64 68.5t48.5 77t35.5 69.5q3 10 13 10q11 0 20 -14l6 -74q-18 -49 -45 -96t-64 -91.5t-85.5 -71.5t-100.5 -27q-50 0 -107 52.5t-63 102.5q-107 -155 -229 -155q-55 0 -112.5 59t-57.5 115z" />
<glyph unicode="v" horiz-adv-x="579" d="M0 166q0 46 17 254q14 177 14 251v23h9q47 0 92 -20q49 -22 61 -53q9 -33 9 -95q0 -28 -2 -64q-6 -112 -13 -230q-4 -63 -4 -93q0 -26 3 -26q4 -1 9 -1q21 0 51 29q36 36 72 103.5t66 147.5t44 169q8 52 8 97q0 32 -4 61q54 -1 95.5 -40t41.5 -81q0 -96 -41.5 -206.5 t-104 -199t-141 -147.5t-147.5 -59q-55 0 -95 60t-40 120z" />
<glyph unicode="w" horiz-adv-x="993" d="M0 162q0 38 18 252q13 154 13 232q0 31 -2 50q7 1 15 1l85 -21q50 -24 66 -55q8 -21 8 -67v-11q-1 -55 -5.5 -129t-9.5 -140q-4 -55 -4 -97v-17q1 -46 11 -47h2q49 -1 119 97q72 100 96 224q28 143 28 234q53 0 102 -23.5t56 -56.5q2 -12 2 -32t-2 -46q-5 -52 -12 -121 t-13 -131q-5 -46 -5 -82q0 -12 1 -22q2 -42 15 -43q41 0 92.5 62t93 151.5t64.5 199.5q15 71 15 132q0 34 -5 65q54 -1 96.5 -40.5t42.5 -80.5q0 -127 -68.5 -272.5t-171.5 -243.5t-194 -98q-40 0 -101.5 53t-72.5 92q-57 -58 -128 -101.5t-116 -43.5q-50 0 -90.5 59 t-40.5 117z" />
<glyph unicode="x" horiz-adv-x="616" d="M-78 0q21 6 61 44.5t83 94.5q43 53 95.5 135t57.5 88q-44 109 -89.5 204.5t-66.5 125.5q33 9 80 9q23 -1 50 -3q80 -6 92 -34q6 -13 35.5 -82.5t48.5 -110.5q11 15 47.5 69t64.5 92.5t45 53.5q17 16 68 16h2q50 0 92 -20q-25 -9 -76.5 -67t-90 -110.5t-91.5 -126.5 q-9 -14 -14 -20l14 -34q43 -105 97 -200t85 -118q-49 -13 -90 -13q-66 0 -110 34q-72 54 -144 227q-12 -17 -55 -82t-77 -113.5t-50 -62.5q-17 -15 -68 -16h-5q-48 0 -91 20z" />
<glyph unicode="y" horiz-adv-x="696" d="M-92 -428q3 135 122.5 237t297.5 115q7 16 59 170l-8 4q-42 -49 -97 -78.5t-108 -29.5q-56 0 -112 56t-56 110q0 57 55.5 271t59.5 269q52 -5 96 -32t53 -60q4 -14 -0.5 -49t-14 -79.5t-21 -95.5t-21.5 -99t-15 -87q-4 -28 -4 -48v-16q3 -25 15 -26h5q61 0 124 85 q67 89 100 214q28 103 42 189q9 58 9 82q0 12 -2 16q58 -5 110 -38q48 -31 48 -65v-5q-5 -40 -11 -79.5t-15 -83t-15.5 -74.5t-19 -80.5t-18 -72.5t-20.5 -80t-20 -75q-37 -144 -95 -262.5t-123 -192t-132.5 -113.5t-128.5 -40q-63 0 -102 41q-37 39 -37 96v6zM25 -455 q6 -28 32 -28q61 0 128.5 91t121.5 247q-72 -6 -144 -61.5t-111 -127.5q-29 -55 -29 -98q0 -12 2 -23z" />
<glyph unicode="z" horiz-adv-x="524" d="M-72 0q-1 8 -1 15q0 60 48 130q50 71 377 451q-258 -5 -276 -8q2 14 5.5 26.5t6.5 21.5t7 17t7.5 13t8 9.5t7.5 6.5t7.5 4t6.5 3t6 2l5 1h13q34 0 154 -2q160 -3 231 -6q3 -26 3 -48q0 -30 -6 -54q-11 -40 -55 -99q-10 -13 -91 -105t-153.5 -178.5t-76.5 -103.5 q25 -2 57.5 -2t71.5 2q47 3 75 39q27 35 27 100q0 6 0.5 7.5t2.5 5t6 6.5t13 5t21 1q35 -77 35 -137v-12q-4 -113 -162 -115h-22q-53 0 -177 3q-88 2 -135 2q-35 0 -47 -1z" />
<glyph unicode="{" horiz-adv-x="434" d="M31 535l4 20q5 27 13.5 38t31.5 15q45 6 72.5 37t38 78t16 96t14 105.5t23.5 91.5q50 116 258 88l-6 -43q-63 -5 -83.5 -25.5t-35.5 -97.5q-5 -28 -14 -77t-12.5 -68t-10 -48t-13.5 -46.5t-16 -32.5q-24 -39 -66.5 -66t-88.5 -35q64 -18 96.5 -55t32.5 -82 q0 -44 -44 -159t-44 -154q0 -82 77 -76q3 0 6 -0.5t9.5 -5t-0.5 -15.5l-45 -30q-22 -3 -53 2t-64 19.5t-55.5 46t-22.5 73.5q0 45 44 160t44 160q0 79 -106 86z" />
<glyph unicode="|" horiz-adv-x="358" d="M20 1094q35 11 81 -2t53 -37q9 -33 43.5 -294.5t74 -505.5t66.5 -273q-31 -10 -79 -2.5t-69 30.5q-19 22 -86 539t-84 545z" />
<glyph unicode="}" horiz-adv-x="471" d="M-63 -12l4 43q63 5 84 26t34 97q5 28 14 77t12.5 68t10 48t13.5 46.5t16 32.5q24 40 66 66t90 34q-63 18 -95 55.5t-32 82.5q0 44 44 159t44 154q0 82 -78 76q-3 0 -6.5 0.5t-9.5 5t2 16.5l45 29q21 3 51.5 -2.5t63 -19.5t55 -45.5t22.5 -73.5q0 -45 -43 -160t-43 -160 q0 -79 105 -86l-5 -20q-5 -27 -13.5 -38t-31.5 -14q-45 -7 -72 -38t-38 -78t-16 -96t-13.5 -105t-23.5 -92q-49 -113 -256 -88z" />
<glyph unicode="~" d="M182 545q20 44 65.5 73t94.5 29q48 0 181.5 -62.5t189.5 -62.5q42 0 82 25q12 9 17.5 10.5t16.5 -2.5l13 -47q-33 -37 -51.5 -55t-53.5 -36t-73 -18q-54 0 -122.5 33t-132 66t-104.5 34q-73 0 -104 -40q-27 34 -19 53z" />
<glyph unicode="&#xa1;" horiz-adv-x="493" d="M82 -289q0 3 66 329t55 363q55 -5 106.5 -37t55.5 -67q3 -31 -71 -362t-65 -347q-57 4 -101 41.5t-46 79.5zM240 543q0 61 36 110.5t95 42.5q41 -4 65 -32.5t21 -67.5q-6 -63 -46.5 -105t-88.5 -36q-35 3 -59 25t-23 63z" />
<glyph unicode="&#xa2;" horiz-adv-x="548" d="M0 215q15 185 117.5 320.5t234.5 156.5q19 76 33 156q26 -3 53 -28.5t23 -49.5q-2 -15 -8.5 -44t-8.5 -36q51 -9 78 -35t27 -59q0 -42 -53 -143q-5 -9 -7 -13q-30 0 -39.5 4.5t-7.5 14.5q21 110 -18 139q-18 -82 -121 -485q78 11 170 96q2 2 5.5 4t10.5 -1.5t11 -18.5 l-25 -76q-77 -91 -203 -121q-30 -132 -28 -156q-30 9 -58 37t-28 62q0 4 1 10t3 17.5t4 21.5q-81 9 -126.5 72t-39.5 155zM178 225q0 -55 31 -80q70 254 119 445q-60 -41 -105 -152t-45 -213z" />
<glyph unicode="&#xa3;" horiz-adv-x="806" d="M-53.5 101.5q4.5 26.5 41.5 33.5q125 26 185 81t60 165q0 63 -2 98q-137 0 -165 -8l-7 6q-11 11 0 27q16 25 24.5 37.5t22.5 27t27 17.5q30 5 96 2q-2 43 -2 129q0 66 30.5 131.5t82.5 117.5t127.5 84.5t157.5 32.5q91 0 145 -29t53 -83q-2 -56 -73 -180q-33 0 -44.5 5.5 t-9.5 16.5q20 90 -1 136t-91 46q-83 0 -137.5 -57t-54.5 -143q0 -57 10 -209q23 0 97.5 -1.5t131.5 -1t97 4.5q-8 -32 -21.5 -55t-31 -34.5t-27 -15.5t-23.5 -8q-10 -3 -219 2v-2q0 -123 -51.5 -212t-151.5 -130q6 0 52 -1t71 -1.5t77.5 -0.5t86 1t80 3t77.5 6t60 10t45 14 q-13 -73 -51 -118.5t-72 -45.5q-257 6 -694 0q-13 75 -8.5 101.5z" />
<glyph unicode="&#xa5;" horiz-adv-x="722" d="M-70 432q-10 13 0 27q44 75 74 82q6 2 193 2q-26 77 -73 227.5t-73.5 227t-38.5 81.5q93 19 164.5 1.5t81.5 -46.5q19 -47 111 -420q44 70 111.5 183.5t113 190t51.5 83.5q21 27 58 34.5t71 0.5t62 -23q-8 -6 -32 -38t-66.5 -95t-77.5 -116t-98 -149t-95 -144 q221 -4 301 2q-20 -92 -102 -113q-11 -3 -263 2q-77 -406 -53 -446q-55 5 -115 39t-69 67q-9 39 57 340q-260 0 -284 -4z" />
<glyph unicode="&#xa6;" />
<glyph unicode="&#xa7;" horiz-adv-x="675" d="M-106 -199q-1 11 1 23t8 28t10.5 26.5t15.5 34.5t16 36q34 0 43.5 -4.5t7.5 -16.5q-12 -84 23.5 -119.5t91.5 -35.5q48 0 76.5 27t25.5 71q-1 30 -23 65.5t-53 69t-62.5 68t-53.5 74.5t-23 77q-3 86 74 139.5t198 53.5h19q-62 79 -64 141q-5 87 62 140t186 53 q189 0 193 -109q2 -33 -46 -124q-4 -7 -6 -11q-23 0 -34 2t-13.5 5.5t-1.5 10.5q23 146 -84 146q-38 0 -60 -21t-20 -51q1 -28 23 -63t52.5 -69t61.5 -69t53 -74.5t23 -74.5q3 -90 -67.5 -151.5t-194.5 -73.5q47 -61 47 -109q5 -101 -78.5 -165t-224.5 -64q-106 0 -153 29 t-49 85zM166 266q3 -66 61 -111.5t117 -45.5q42 0 68.5 25.5t23.5 72.5q-1 50 -56.5 91.5t-117.5 41.5q-44 0 -71 -21.5t-25 -52.5z" />
<glyph unicode="&#xa8;" horiz-adv-x="727" d="M166 903q4 56 42 95t81 34q32 -3 54 -23.5t22 -58.5q0 -55 -33.5 -100t-87.5 -39q-37 4 -59 30.5t-19 61.5zM418 903q4 56 42 95t81 34q31 -3 53 -23.5t22 -58.5q0 -55 -33.5 -100t-86.5 -39q-38 4 -59.5 30t-18.5 62z" />
<glyph unicode="&#xa9;" horiz-adv-x="1171" d="M41 530q0 163 65 293t189.5 205.5t288.5 75.5q253 0 399.5 -146.5t146.5 -398.5q0 -163 -64.5 -292.5t-189.5 -205t-290 -75.5q-252 0 -398.5 146t-146.5 398zM164 555q0 -102 30 -191.5t85.5 -157t141 -106.5t189.5 -39q78 0 143.5 26t111.5 71t78 105.5t47.5 129 t15.5 142.5q0 97 -27.5 184.5t-79.5 157t-133.5 110.5t-181.5 41q-134 0 -230.5 -64.5t-143 -170t-46.5 -238.5zM293 549q0 154 98 247t252 93q26 0 52 -3.5t56.5 -12t50 -28t19.5 -46.5q0 -23 -24 -88q-1 0 -7.5 -0.5t-9.5 0t-8 1.5t-7 4.5t-3 8.5q-8 56 -35 82.5t-84 26.5 q-55 0 -94.5 -23.5t-59.5 -64.5t-29 -85.5t-9 -97.5q0 -50 10.5 -94.5t32.5 -84t61.5 -62.5t91.5 -23q37 0 76 16.5t63 32.5l23 17q9 0 18 -13l-4 -39q-65 -86 -219 -86q-138 0 -224.5 92t-86.5 230z" />
<glyph unicode="&#xaa;" d="M258 766q0 43 17.5 90.5t49 89t81.5 69t108 27.5q44 0 77 -19.5t34 -47.5q0 -10 -6.5 -41t-14 -66t-13.5 -69t-5 -56.5t12 -23.5q30 -1 64.5 36.5t56.5 94.5l1 1q0 1 2 2t4.5 1.5t6.5 0t8 -2.5l11 -33q-70 -174 -172 -168q-26 3 -52.5 24t-42.5 58q-51 -82 -125 -82 q-102 0 -102 115zM373 758q0 -39 24 -39q27 0 55.5 52t45 111t16.5 89q0 9 -6.5 15.5t-15.5 6.5q-33 0 -62 -43.5t-43.5 -97.5t-13.5 -94z" />
<glyph unicode="&#xab;" horiz-adv-x="833" d="M133 330q106 75 214 165t163 160q41 -77 16 -129q-15 -36 -207 -178q26 -37 74.5 -129t52.5 -121q1 -17 -16 -41t-39 -41l-14 -2q-35 57 -108 151t-136 165zM428 330q280 202 377 325q41 -77 16 -129q-15 -36 -207 -178q26 -37 74.5 -129t52.5 -121q1 -17 -16 -41 t-39 -41l-16 -2q-33 56 -105.5 150t-136.5 166z" />
<glyph unicode="&#xac;" d="M123 270q-8 11 0 33q21 44 35.5 65t31.5 21q118 0 286 1t204 1q204 0 227 2q-3 -26 -10 -47q-60 -266 -57 -280l-6 -7q-15 -6 -35 4q-29 17 -43 27t-26.5 23.5t-10.5 25.5q13 61 29 123q-74 0 -266.5 3t-223.5 3q-114 0 -129 -6z" />
<glyph unicode="&#xad;" horiz-adv-x="788" d="M154 258q-8 11 0 31q4 7 12 25t13 28t12.5 23t14 19.5t13.5 8.5q9 2 18 3t28 1t40 -0.5t66 -1t94 -0.5q215 0 227 2q-12 -68 -40 -101t-52 -40q-30 -3 -74.5 -1.5t-128 5.5t-121.5 4q-86 0 -116 -12z" />
<glyph unicode="&#xae;" horiz-adv-x="1193" d="M41 530q0 163 65 293t189.5 205.5t288.5 75.5q253 0 399.5 -146.5t146.5 -398.5q0 -163 -64.5 -292.5t-189.5 -205t-290 -75.5q-252 0 -398.5 146t-146.5 398zM164 555q0 -102 30 -191.5t85.5 -157t141 -106.5t189.5 -39q78 0 143.5 26t111.5 71t78 105.5t47.5 129 t15.5 142.5q0 97 -27.5 184.5t-79.5 157t-133.5 110.5t-181.5 41q-134 0 -230.5 -64.5t-143 -170t-46.5 -238.5zM377 854q170 10 201 10q231 0 231 -174q0 -52 -35.5 -92.5t-87.5 -62.5q154 -217 213 -248q-61 -21 -102 -21q-28 0 -56 16.5t-56 50t-45.5 58t-44 67.5 t-32.5 52h-53q0 -208 20 -240h-16.5h-22t-23 0.5t-24.5 2.5t-21 5t-18.5 8.5t-11.5 12.5q-12 20 -12 172v68q0 8 0.5 46.5t1 79t0.5 83.5t-1.5 72.5t-4.5 33.5zM500 807q3 -39 8 -240h14q66 -2 109 29.5t43 95.5q0 60 -37 89.5t-98 29.5q-15 0 -39 -4z" />
<glyph unicode="&#xaf;" horiz-adv-x="788" d="M184 848q-8 8 0 24q3 7 10.5 22t12 23.5t11 19t12 16.5t10.5 8q10 3 40 3t99.5 -1.5t128.5 -1.5q170 0 190 2q-11 -57 -34 -85t-43 -32q-29 -3 -78.5 -2t-137.5 4.5t-118 3.5q-70 0 -97 -10z" />
<glyph unicode="&#xb0;" d="M328 834q-3 78 63 143t154 65q60 0 89.5 -27t31.5 -71q1 -46 -19.5 -92.5t-69 -81.5t-114.5 -35q-59 0 -96 28t-39 71zM442 834q0 -39 29 -39q31 0 56 32.5t35.5 67t10.5 55.5q-6 39 -34 39q-48 0 -73.5 -57.5t-23.5 -97.5z" />
<glyph unicode="&#xb1;" horiz-adv-x="729" d="M-2 -2q-8 11 0 31q32 81 53 88q7 3 14.5 4t22.5 1t32.5 -1t54 -1.5t77.5 -0.5q37 0 128 -1.5t161 -1t125 4.5q-14 -102 -76 -125q-37 -3 -125 -1.5t-218.5 5.5t-148.5 4q-69 0 -96 -10zM80 483q-8 11 0 31q32 81 53 88q7 2 14.5 3t22.5 1t32.5 -0.5t54.5 -1t77 -0.5h16 q58 254 53 262q40 -3 78 -28.5t39 -53.5q0 -1 -37 -180q253 0 265 2q-16 -103 -76 -125q-10 -4 -213 0q-52 -267 -37 -291q-39 3 -85 26.5t-52 45.5q-5 21 32 192q5 20 7 31q-126 4 -144 4q-69 0 -96 -10z" />
<glyph unicode="&#xb2;" />
<glyph unicode="&#xb3;" />
<glyph unicode="&#xb4;" horiz-adv-x="724" d="M307 793q58 72 86 170.5t25 140.5q47 -8 87 -40t40 -65q0 -42 -45 -97.5t-94 -91.5t-66 -36q-15 1 -33 19z" />
<glyph unicode="&#xb6;" horiz-adv-x="776" d="M41 295q0 116 59.5 231t164.5 192t222 77q57 0 133.5 -14.5t133.5 -35.5q-243 -1055 -238 -1105q-58 7 -135.5 40t-77.5 74q0 30 15 103.5t43 189.5t30 127q-82 -90 -174 -90q-176 0 -176 211zM231 272q0 -75 39 -75q41 0 83.5 62t74.5 154t51.5 162t30.5 121 q-21 6 -43 6q-61 0 -109.5 -47.5t-74.5 -118t-39 -139.5t-13 -125zM381 -223q0 -8 4.5 -14t17.5 -11.5t20.5 -8t27.5 -7.5q12 74 48 240t90.5 406.5t63.5 283.5q-17 7 -65 16q-24 -101 -115.5 -495.5t-91.5 -409.5z" />
<glyph unicode="&#xb7;" horiz-adv-x="462" d="M123 348q6 61 46.5 103.5t88.5 37.5q35 -3 59 -25.5t23 -64.5q0 -60 -36 -109t-95 -42q-41 4 -65 32.5t-21 67.5z" />
<glyph unicode="&#xb8;" horiz-adv-x="544" d="M74 -301q1 6 3.5 8.5t4.5 2.5l2 -1q20 -8 49 -8q41 0 79 24.5t38 77.5q0 38 -36 54.5t-77 5.5q-11 8 -17.5 23.5t-7.5 26.5l-1 11q81 27 138 15t87.5 -46t30.5 -79q0 -71 -63 -122.5t-144 -51.5q-46 0 -64 14q-12 10 -22 45z" />
<glyph unicode="&#xb9;" />
<glyph unicode="&#xba;" d="M319 774q0 100 69 184t157 84q60 0 88.5 -34.5t28.5 -92.5q0 -43 -13.5 -88t-38.5 -85.5t-67 -66.5t-92 -26q-58 0 -95 35.5t-37 89.5zM442 770q0 -55 29 -55q23 0 44 27.5t34.5 66t21 74t7.5 55.5q0 55 -33 55q-26 0 -47 -27t-32.5 -65.5t-17.5 -73.5t-6 -57z" />
<glyph unicode="&#xbb;" horiz-adv-x="845" d="M115 145q16 37 207 179q-26 37 -74.5 128.5t-52.5 120.5q-1 17 16 41t39 41l16 2q33 -55 105 -148.5t137 -166.5q-278 -200 -377 -326q-41 77 -16 129zM410 145q16 38 206 179q-26 37 -74.5 128.5t-52.5 120.5q-1 17 16.5 40.5t39.5 41.5l14 2q35 -56 107.5 -150 t136.5 -165q-105 -74 -213.5 -165t-163.5 -161q-41 77 -16 129z" />
<glyph unicode="&#xbc;" />
<glyph unicode="&#xbd;" />
<glyph unicode="&#xbe;" />
<glyph unicode="&#xbf;" horiz-adv-x="788" d="M-6 -135q0 207 354 319q84 26 105.5 42.5t21.5 52.5q0 18 -1.5 28.5t-7 33t-9.5 46.5q30 4 55 5t42.5 -2.5t29.5 -7t21.5 -10.5t12.5 -10t9 -10q32 -33 21 -96t-56 -80q-207 -74 -298 -153.5t-91 -172.5q0 -68 42.5 -109.5t116.5 -41.5q93 0 142 51t49 135q0 19 11 26 t52 7q3 -15 9.5 -43t8 -37.5t4.5 -27t4 -30t1 -28.5q0 -36 -12 -62.5t-41.5 -50t-86 -35.5t-138.5 -12q-167 0 -269 78.5t-102 194.5zM489 543q0 60 36.5 110t95.5 43q41 -4 65 -32.5t21 -67.5q-6 -63 -47 -105t-89 -36q-35 3 -59 25t-23 63z" />
<glyph unicode="&#xc0;" horiz-adv-x="790" d="M-123 -2q38 30 209.5 410t286.5 679q93 0 136 -13t56 -50q1 -2 38.5 -256.5t84 -504.5t72.5 -269q-54 -15 -127.5 -4.5t-91.5 37.5q-18 26 -54 272q-11 -28 -38 -35q-3 -1 -50 -1h-121t-122 -1q-87 -204 -113 -242q-23 -26 -79.5 -33t-86.5 11zM199 365l278 4 q-15 95 -38 274t-29 219q-28 -65 -104.5 -246t-106.5 -251zM340 1356q0 24 39 53.5t84 36.5q0 -17 9 -52t27 -79.5t53 -80t79 -42.5q-4 -11 -10.5 -18.5t-10.5 -9.5l-4 -1q-45 -14 -107 7t-110.5 72.5t-48.5 113.5z" />
<glyph unicode="&#xc1;" horiz-adv-x="790" d="M-123 -2q38 30 209.5 410t286.5 679q93 0 136 -13t56 -50q1 -2 38.5 -256.5t84 -504.5t72.5 -269q-54 -15 -127.5 -4.5t-91.5 37.5q-18 26 -54 272q-11 -28 -38 -35q-3 -1 -50 -1h-121t-122 -1q-87 -204 -113 -242q-23 -26 -79.5 -33t-86.5 11zM199 365l278 4 q-15 95 -38 274t-29 219q-28 -65 -104.5 -246t-106.5 -251zM408 1171q58 72 85.5 170.5t24.5 141.5q47 -8 87 -40t40 -65q0 -42 -45 -97.5t-94 -91.5t-66 -36q-14 0 -32 18z" />
<glyph unicode="&#xc2;" horiz-adv-x="790" d="M-123 -2q38 30 209.5 410t286.5 679q93 0 136 -13t56 -50q1 -2 38.5 -256.5t84 -504.5t72.5 -269q-54 -15 -127.5 -4.5t-91.5 37.5q-18 26 -54 272q-11 -28 -38 -35q-3 -1 -50 -1h-121t-122 -1q-87 -204 -113 -242q-23 -26 -79.5 -33t-86.5 11zM199 365l278 4 q-15 95 -38 274t-29 219q-28 -65 -104.5 -246t-106.5 -251zM268 1194q51 24 120 110t87 142q21 0 62 -13.5t45 -23.5q17 -90 45.5 -159t44.5 -83q-16 -9 -29 -14t-17 -5l-5 -1q-27 0 -65.5 39t-68.5 94q-35 -42 -94.5 -80.5t-87.5 -38.5q-13 0 -20 7t-17 26z" />
<glyph unicode="&#xc3;" horiz-adv-x="790" d="M-123 -2q38 30 209.5 410t286.5 679q93 0 136 -13t56 -50q1 -2 38.5 -256.5t84 -504.5t72.5 -269q-54 -15 -127.5 -4.5t-91.5 37.5q-18 26 -54 272q-11 -28 -38 -35q-3 -1 -50 -1h-121t-122 -1q-87 -204 -113 -242q-23 -26 -79.5 -33t-86.5 11zM199 365l278 4 q-15 95 -38 274t-29 219q-28 -65 -104.5 -246t-106.5 -251zM287 1286q13 45 45.5 74t66.5 29q30 0 70.5 -29.5t82.5 -59.5t75 -30q32 0 59 24q13 16 25 9l8 -48q-24 -37 -36.5 -54.5t-37.5 -35.5t-53 -18q-30 0 -61.5 19.5t-53.5 43t-50 43.5t-52 21q-54 0 -74 -41 q-21 30 -14 53z" />
<glyph unicode="&#xc4;" horiz-adv-x="790" d="M-123 -2q38 30 209.5 410t286.5 679q93 0 136 -13t56 -50q1 -2 38.5 -256.5t84 -504.5t72.5 -269q-54 -15 -127.5 -4.5t-91.5 37.5q-18 26 -54 272q-11 -28 -38 -35q-3 -1 -50 -1h-121t-122 -1q-87 -204 -113 -242q-23 -26 -79.5 -33t-86.5 11zM199 365l278 4 q-15 95 -38 274t-29 219q-28 -65 -104.5 -246t-106.5 -251zM260 1270q4 56 42 95t81 34q32 -3 54 -23.5t22 -58.5q0 -55 -33.5 -100t-87.5 -39q-37 4 -59 30.5t-19 61.5zM512 1270q4 56 42 95t81 34q32 -3 54 -23.5t22 -58.5q0 -55 -34 -100t-87 -39q-38 4 -59.5 30 t-18.5 62z" />
<glyph unicode="&#xc5;" horiz-adv-x="790" d="M-123 -2q38 30 209.5 410t286.5 679q93 0 136 -13t56 -50q1 -2 38.5 -256.5t84 -504.5t72.5 -269q-54 -15 -127.5 -4.5t-91.5 37.5q-18 26 -54 272q-11 -28 -38 -35q-3 -1 -50 -1h-121t-122 -1q-87 -204 -113 -242q-23 -26 -79.5 -33t-86.5 11zM199 365l278 4 q-15 95 -38 274t-29 219q-28 -65 -104.5 -246t-106.5 -251zM346 1231q-2 62 50.5 115t138.5 53q105 0 112 -82q3 -64 -44 -121t-136 -57q-52 0 -85.5 27t-35.5 65zM455 1225q7 -33 28 -33q36 0 60 51t22 82q-5 33 -30 33q-29 0 -48.5 -28t-25.5 -56t-6 -49z" />
<glyph unicode="&#xc6;" horiz-adv-x="1230" d="M-123 -2q64 41 731 1083h613q-6 -19 -12.5 -35t-11.5 -26.5t-11 -19.5l-9 -13.5t-9.5 -9.5t-8.5 -6t-8.5 -4.5t-7.5 -3.5q-22 -2 -80.5 0t-152.5 5.5t-128 2.5q-3 -23 -6.5 -71.5t-9.5 -128t-12 -146.5h344q-9 -44 -21 -68.5t-17.5 -28.5t-19.5 -10q-8 -4 -288 6 q-10 -168 -15 -299q-2 -61 42 -91t143 -30q112 0 241 52q1 -1 5 0.5t10 -4.5t8 -19l-21 -98q-125 -49 -348 -49q-278 0 -270 211q1 12 3 47t3 47q-4 -13 -14.5 -20t-16.5 -7q-10 -2 -293 -2q-145 -222 -168 -242q-29 -27 -92 -34t-92 12zM293 362l266 5q6 86 22.5 266 t18.5 209q-39 -60 -146 -228.5t-161 -251.5z" />
<glyph unicode="&#xc7;" horiz-adv-x="722" d="M0 324q-6 155 42.5 302.5t131 254.5t194.5 172t228 65q94 0 151.5 -31t57.5 -88q0 -24 -11 -56t-22.5 -56.5t-36.5 -71.5q-37 0 -47.5 5t-7.5 18q18 93 -5.5 140.5t-96.5 47.5q-97 0 -184 -101t-135.5 -262t-41.5 -329q3 -103 51 -158t129 -55q51 0 116 29.5t114 76.5 l1 1q1 1 3.5 2.5t4.5 2t5.5 0t6 -3t6 -7.5t5.5 -13l-24 -76q-122 -147 -326 -147h-6q-4 -8 -8.5 -17.5t-10 -20.5t-8.5 -16q73 9 125 -22t52 -94q0 -72 -64 -124t-147 -52q-49 0 -66 14q-10 8 -22 45q2 6 4.5 8.5t3.5 2.5l2 -1q20 -8 51 -8q25 0 50 8t47 33t22 63 t-36.5 55.5t-78.5 4.5q-15 25 -23 45t-9 28l-1 7q0 14 27 53q-98 26 -152.5 110t-60.5 216z" />
<glyph unicode="&#xc8;" horiz-adv-x="673" d="M18 197q14 97 63.5 319t86 389t29.5 178h565q-16 -49 -31 -76t-22 -31.5t-21 -10.5q-21 -2 -75 0t-141 5.5t-120 2.5q-9 -83 -63 -346h311q-14 -45 -27 -69t-19.5 -29.5t-18.5 -10.5q-21 -1 -49 -0.5t-102 3t-114 3.5q-20 -99 -57 -299q-11 -61 28 -91t134 -30 q108 0 237 52h1q1 1 2.5 1t3 -0.5t3.5 -1.5t3.5 -3.5t2.5 -7.5t1 -11l-29 -98q-125 -49 -338 -49q-59 0 -104 10.5t-81 33.5t-51.5 65.5t-7.5 101.5zM336 1356q0 24 39 53.5t84 36.5q0 -17 9 -52t27 -79.5t53 -80t79 -42.5q-4 -11 -10.5 -18.5t-10.5 -9.5l-4 -1 q-45 -14 -107 7t-110.5 72.5t-48.5 113.5z" />
<glyph unicode="&#xc9;" horiz-adv-x="673" d="M18 197q14 97 63.5 319t86 389t29.5 178h565q-16 -49 -31 -76t-22 -31.5t-21 -10.5q-21 -2 -75 0t-141 5.5t-120 2.5q-9 -83 -63 -346h311q-14 -45 -27 -69t-19.5 -29.5t-18.5 -10.5q-21 -1 -49 -0.5t-102 3t-114 3.5q-20 -99 -57 -299q-11 -61 28 -91t134 -30 q108 0 237 52h1q1 1 2.5 1t3 -0.5t3.5 -1.5t3.5 -3.5t2.5 -7.5t1 -11l-29 -98q-125 -49 -338 -49q-59 0 -104 10.5t-81 33.5t-51.5 65.5t-7.5 101.5zM397 1171q58 72 86 171t25 141q47 -8 87 -40t40 -65q0 -42 -45 -97.5t-94 -91.5t-66 -36q-15 0 -33 18z" />
<glyph unicode="&#xca;" horiz-adv-x="673" d="M18 197q14 97 63.5 319t86 389t29.5 178h565q-16 -49 -31 -76t-22 -31.5t-21 -10.5q-21 -2 -75 0t-141 5.5t-120 2.5q-9 -83 -63 -346h311q-14 -45 -27 -69t-19.5 -29.5t-18.5 -10.5q-21 -1 -49 -0.5t-102 3t-114 3.5q-20 -99 -57 -299q-11 -61 28 -91t134 -30 q108 0 237 52h1q1 1 2.5 1t3 -0.5t3.5 -1.5t3.5 -3.5t2.5 -7.5t1 -11l-29 -98q-125 -49 -338 -49q-59 0 -104 10.5t-81 33.5t-51.5 65.5t-7.5 101.5zM274 1194q51 24 120 110t87 142q21 0 62 -13.5t45 -23.5q17 -90 45.5 -159t44.5 -83q-16 -9 -29 -14t-17 -5l-5 -1 q-27 0 -65 38.5t-68 94.5q-35 -42 -95 -80.5t-88 -38.5q-13 0 -20 7t-17 26z" />
<glyph unicode="&#xcb;" horiz-adv-x="673" d="M18 197q14 97 63.5 319t86 389t29.5 178h565q-16 -49 -31 -76t-22 -31.5t-21 -10.5q-21 -2 -75 0t-141 5.5t-120 2.5q-9 -83 -63 -346h311q-14 -45 -27 -69t-19.5 -29.5t-18.5 -10.5q-21 -1 -49 -0.5t-102 3t-114 3.5q-20 -99 -57 -299q-11 -61 28 -91t134 -30 q108 0 237 52h1q1 1 2.5 1t3 -0.5t3.5 -1.5t3.5 -3.5t2.5 -7.5t1 -11l-29 -98q-125 -49 -338 -49q-59 0 -104 10.5t-81 33.5t-51.5 65.5t-7.5 101.5zM266 1270q4 56 42 95t81 34q32 -3 54 -23.5t22 -58.5q0 -55 -33.5 -100t-87.5 -39q-37 4 -59 30.5t-19 61.5zM518 1270 q4 56 42 95t81 34q32 -3 54 -23.5t22 -58.5q0 -55 -34 -100t-87 -39q-38 4 -59.5 30t-18.5 62z" />
<glyph unicode="&#xcc;" horiz-adv-x="356" d="M2 92q-10 34 41.5 281.5t103.5 484t46 248.5q57 -4 104 -42t49 -79q0 -5 -49 -246t-89 -483t-22 -270q-56 5 -115.5 39t-68.5 67zM188 1356q0 24 39 53.5t84 36.5q0 -17 9 -52t27 -79.5t53 -80t79 -42.5q-4 -11 -10 -18.5t-10 -9.5l-4 -1q-45 -14 -107.5 7t-111 72.5 t-48.5 113.5z" />
<glyph unicode="&#xcd;" horiz-adv-x="356" d="M2 92q-10 34 41.5 281.5t103.5 484t46 248.5q57 -4 104 -42t49 -79q0 -5 -49 -246t-89 -483t-22 -270q-56 5 -115.5 39t-68.5 67zM201 1171q58 72 85.5 170.5t24.5 141.5q47 -8 87 -40t40 -65q0 -42 -45 -97.5t-94 -91.5t-66 -36q-14 0 -32 18z" />
<glyph unicode="&#xce;" horiz-adv-x="356" d="M2 92q-10 34 41.5 281.5t103.5 484t46 248.5q57 -4 104 -42t49 -79q0 -5 -49 -246t-89 -483t-22 -270q-56 5 -115.5 39t-68.5 67zM88 1196q51 24 120 110t87 142q21 0 61.5 -13.5t44.5 -23.5q17 -90 46 -159t45 -83q-16 -9 -29 -14t-18 -5l-5 -1q-27 0 -65 38.5t-68 94.5 q-35 -42 -94.5 -80.5t-87.5 -38.5q-13 0 -20 7t-17 26z" />
<glyph unicode="&#xcf;" horiz-adv-x="356" d="M2 92q-10 34 41.5 281.5t103.5 484t46 248.5q57 -4 104 -42t49 -79q0 -5 -49 -246t-89 -483t-22 -270q-56 5 -115.5 39t-68.5 67zM94 1268q4 56 42 95t81 34q32 -3 54 -23.5t22 -58.5q0 -55 -33.5 -100t-87.5 -39q-37 4 -59 30.5t-19 61.5zM346 1268q4 56 42 95t81 34 q32 -3 54 -23.5t22 -58.5q0 -55 -34 -100t-87 -39q-38 4 -59.5 30t-18.5 62z" />
<glyph unicode="&#xd0;" horiz-adv-x="956" d="M-66 553q18 27 26 38t22 25.5t26 18.5q12 2 84 2q95 432 88 446l256 -2q242 0 366 -106.5t124 -294.5q0 -133 -53 -260t-141.5 -222.5t-213 -153.5t-260.5 -58q-156 0 -214.5 57.5t-37.5 171.5q21 125 64 313q-114 -5 -127 -8l-6 6q-13 10 -3 27zM203 248 q-16 -85 3 -117.5t93 -32.5t147.5 44.5t130.5 118.5t94.5 177t43.5 213q10 180 -96.5 262.5t-282.5 59.5q-10 -78 -62 -340q196 0 238 4q-25 -100 -102 -113q-10 -4 -156 0q-9 -52 -26.5 -145.5t-24.5 -130.5z" />
<glyph unicode="&#xd1;" horiz-adv-x="997" d="M-37 -2q27 17 89 267t116 505t55 258q32 83 168 76q148 -450 324 -905q130 638 194 850q10 34 71 50t107 -3q-33 -28 -92 -255.5t-121.5 -517.5t-70.5 -319q-55 -13 -96 -14t-69.5 8t-50 30.5t-35.5 48.5t-28 68q-92 244 -225 646q-12 -62 -36.5 -188t-40.5 -208.5 t-36 -175.5t-34 -145.5t-23 -63.5q-22 -26 -68 -29t-98 17zM475 1294q13 45 46 74t67 29q30 0 70.5 -29.5t82 -59.5t74.5 -30q31 0 59 25q13 15 25 8l8 -47q-18 -29 -27 -41.5t-26.5 -32t-35 -27.5t-38.5 -8q-30 0 -61.5 19.5t-53.5 43t-50 43.5t-52 21q-54 0 -74 -41 q-21 30 -14 53z" />
<glyph unicode="&#xd2;" horiz-adv-x="907" d="M0 319q-5 139 40.5 281.5t123 253.5t185 181.5t218.5 70.5q138 0 221 -88t89 -236q5 -116 -22.5 -233.5t-81 -217t-125 -178t-161 -123t-182.5 -44.5q-141 0 -220 86.5t-85 246.5zM213 330q5 -101 40.5 -159t98.5 -58q98 0 180.5 118.5t123.5 278.5t36 301 q-4 94 -39.5 143.5t-97.5 49.5q-91 0 -173.5 -106.5t-128 -263t-40.5 -304.5zM520 1356q0 24 39 53.5t84 36.5q0 -17 9 -52t27 -79.5t53 -80t79 -42.5q-4 -11 -10.5 -18.5t-10.5 -9.5l-4 -1q-45 -14 -107 7t-110.5 72.5t-48.5 113.5z" />
<glyph unicode="&#xd3;" horiz-adv-x="907" d="M0 319q-5 139 40.5 281.5t123 253.5t185 181.5t218.5 70.5q138 0 221 -88t89 -236q5 -116 -22.5 -233.5t-81 -217t-125 -178t-161 -123t-182.5 -44.5q-141 0 -220 86.5t-85 246.5zM213 330q5 -101 40.5 -159t98.5 -58q98 0 180.5 118.5t123.5 278.5t36 301 q-4 94 -39.5 143.5t-97.5 49.5q-91 0 -173.5 -106.5t-128 -263t-40.5 -304.5zM586 1171q58 72 85.5 170.5t24.5 141.5q47 -8 87 -40t40 -65q0 -42 -45 -97.5t-94 -91.5t-66 -36q-14 0 -32 18z" />
<glyph unicode="&#xd4;" horiz-adv-x="907" d="M0 319q-5 139 40.5 281.5t123 253.5t185 181.5t218.5 70.5q138 0 221 -88t89 -236q5 -116 -22.5 -233.5t-81 -217t-125 -178t-161 -123t-182.5 -44.5q-141 0 -220 86.5t-85 246.5zM213 330q5 -101 40.5 -159t98.5 -58q98 0 180.5 118.5t123.5 278.5t36 301 q-4 94 -39.5 143.5t-97.5 49.5q-91 0 -173.5 -106.5t-128 -263t-40.5 -304.5zM410 1194q51 24 119.5 110t86.5 142q21 0 62 -13.5t45 -23.5q17 -90 45.5 -159t44.5 -83q-16 -9 -29 -14t-18 -5l-4 -1q-27 0 -65 38.5t-68 94.5q-35 -42 -95 -80.5t-88 -38.5q-13 0 -19.5 7 t-16.5 26z" />
<glyph unicode="&#xd5;" horiz-adv-x="907" d="M0 319q-5 139 40.5 281.5t123 253.5t185 181.5t218.5 70.5q138 0 221 -88t89 -236q5 -116 -22.5 -233.5t-81 -217t-125 -178t-161 -123t-182.5 -44.5q-141 0 -220 86.5t-85 246.5zM213 330q5 -101 40.5 -159t98.5 -58q98 0 180.5 118.5t123.5 278.5t36 301 q-4 94 -39.5 143.5t-97.5 49.5q-91 0 -173.5 -106.5t-128 -263t-40.5 -304.5zM436 1292q13 45 46 74t67 29q30 0 70.5 -29.5t82 -59.5t74.5 -30t60 24q13 16 24 9l8 -47q-18 -29 -27 -41.5t-26.5 -32t-35 -27.5t-38.5 -8q-30 0 -61.5 19.5t-53.5 43t-50 43.5t-52 21 q-53 0 -73 -41q-21 31 -15 53z" />
<glyph unicode="&#xd6;" horiz-adv-x="907" d="M0 319q-5 139 40.5 281.5t123 253.5t185 181.5t218.5 70.5q138 0 221 -88t89 -236q5 -116 -22.5 -233.5t-81 -217t-125 -178t-161 -123t-182.5 -44.5q-141 0 -220 86.5t-85 246.5zM213 330q5 -101 40.5 -159t98.5 -58q98 0 180.5 118.5t123.5 278.5t36 301 q-4 94 -39.5 143.5t-97.5 49.5q-91 0 -173.5 -106.5t-128 -263t-40.5 -304.5zM414 1270q4 56 42 95t81 34q31 -3 53 -23.5t22 -58.5q0 -55 -33 -100t-87 -39q-37 4 -59 30.5t-19 61.5zM666 1270q4 56 41.5 95t80.5 34q32 -3 54 -23.5t22 -58.5q0 -55 -34 -100t-87 -39 q-38 4 -59 30t-18 62z" />
<glyph unicode="&#xd7;" />
<glyph unicode="&#xd8;" horiz-adv-x="907" d="M-23 1.5q-15 41.5 0 82.5q2 7 33 47l23 27q-30 75 -33 161q-5 139 40.5 281.5t123 253.5t185 181.5t218.5 70.5q124 0 203 -70q28 32 45.5 55t36 50.5t25.5 36.5q26 -16 42.5 -57.5t0.5 -63.5q-68 -92 -82 -111q36 -70 39 -164q5 -116 -22.5 -233.5t-81 -217t-125 -178 t-161 -123t-182.5 -44.5q-125 0 -203 69l-6 -8q-67 -82 -76 -110q-28 23 -43 64.5zM213 375q74 86 236 279t223 264q-35 86 -117 86q-86 0 -165.5 -97t-126.5 -242t-50 -290zM233 213q37 -100 119 -100q71 0 135.5 64t107.5 162t69 212.5t28 218.5q-34 -41 -208.5 -252.5 t-250.5 -304.5z" />
<glyph unicode="&#xd9;" horiz-adv-x="950" d="M2 279q5 67 51.5 272.5t87 378t35.5 180.5q58 -5 109.5 -42.5t54.5 -78.5q0 -5 -28.5 -134t-62.5 -296t-44 -250q-9 -89 23.5 -141.5t111.5 -56.5q110 -7 189.5 93.5t117.5 274.5q20 96 59 266t57.5 259.5t14.5 97.5q57 -3 109 -41.5t53 -79.5q1 -7 -49 -246t-92 -481 t-25 -270q-87 3 -129 31t-53 106q-114 -135 -309 -135q-143 0 -217.5 81.5t-63.5 211.5zM440 1354q0 24 39 53.5t84 36.5q0 -17 9 -52t27 -79.5t53 -80t79 -42.5q-4 -11 -10 -18.5t-10 -9.5l-4 -1q-45 -14 -107.5 7t-111 72.5t-48.5 113.5z" />
<glyph unicode="&#xda;" horiz-adv-x="950" d="M2 279q5 67 51.5 272.5t87 378t35.5 180.5q58 -5 109.5 -42.5t54.5 -78.5q0 -5 -28.5 -134t-62.5 -296t-44 -250q-9 -89 23.5 -141.5t111.5 -56.5q110 -7 189.5 93.5t117.5 274.5q20 96 59 266t57.5 259.5t14.5 97.5q57 -3 109 -41.5t53 -79.5q1 -7 -49 -246t-92 -481 t-25 -270q-87 3 -129 31t-53 106q-114 -135 -309 -135q-143 0 -217.5 81.5t-63.5 211.5zM492 1174q58 72 85.5 170t24.5 141q47 -8 87 -40t40 -65q0 -42 -45 -97.5t-94 -91.5t-66 -36q-14 1 -32 19z" />
<glyph unicode="&#xdb;" horiz-adv-x="950" d="M2 279q5 67 51.5 272.5t87 378t35.5 180.5q58 -5 109.5 -42.5t54.5 -78.5q0 -5 -28.5 -134t-62.5 -296t-44 -250q-9 -89 23.5 -141.5t111.5 -56.5q110 -7 189.5 93.5t117.5 274.5q20 96 59 266t57.5 259.5t14.5 97.5q57 -3 109 -41.5t53 -79.5q1 -7 -49 -246t-92 -481 t-25 -270q-87 3 -129 31t-53 106q-114 -135 -309 -135q-143 0 -217.5 81.5t-63.5 211.5zM362 1196q51 24 120 110t87 142q21 0 62 -13.5t45 -23.5q17 -90 45.5 -159t44.5 -83q-16 -9 -29 -14t-17 -5l-5 -1q-27 0 -65 38.5t-68 94.5q-35 -42 -95 -80.5t-88 -38.5q-13 0 -20 7 t-17 26z" />
<glyph unicode="&#xdc;" horiz-adv-x="950" d="M2 279q5 67 51.5 272.5t87 378t35.5 180.5q58 -5 109.5 -42.5t54.5 -78.5q0 -5 -28.5 -134t-62.5 -296t-44 -250q-9 -89 23.5 -141.5t111.5 -56.5q110 -7 189.5 93.5t117.5 274.5q20 96 59 266t57.5 259.5t14.5 97.5q57 -3 109 -41.5t53 -79.5q1 -7 -49 -246t-92 -481 t-25 -270q-87 3 -129 31t-53 106q-114 -135 -309 -135q-143 0 -217.5 81.5t-63.5 211.5zM358 1268q4 56 42 95t81 34q32 -3 54 -23.5t22 -58.5q0 -55 -33.5 -100t-87.5 -39q-37 4 -59 30.5t-19 61.5zM610 1268q4 56 42 95t81 34q32 -3 54 -23.5t22 -58.5q0 -55 -34 -100 t-87 -39q-38 4 -59.5 30t-18.5 62z" />
<glyph unicode="&#xdd;" horiz-adv-x="722" d="M12 1079q93 19 164.5 1.5t81.5 -46.5q19 -47 111 -420q44 70 111.5 183.5t113 190t51.5 83.5q21 27 58 34.5t71 0.5t62 -23q-15 -10 -76.5 -100t-183.5 -275.5t-168 -254.5q-81 -429 -58 -467q-55 5 -115 39t-69 67q-9 40 61 361q-33 91 -84 255.5t-84 264.5t-47 106z M385 1171q58 72 86 171t25 141q47 -8 87 -40t40 -65q0 -42 -45 -97.5t-94 -91.5t-66 -36q-15 0 -33 18z" />
<glyph unicode="&#xde;" horiz-adv-x="735" d="M2 92q-10 34 41.5 281.5t103.5 484t46 248.5q57 -4 104 -42t49 -79q0 -5 -6 -39h41q184 0 284.5 -76.5t100.5 -210.5q0 -122 -77 -215t-204.5 -132t-269.5 -13q-48 -282 -29 -313q-56 5 -115.5 39t-68.5 67zM233 403q136 -14 226.5 55t99.5 206q7 96 -57 141.5t-183 40.5 q-61 -304 -86 -443z" />
<glyph unicode="&#xdf;" horiz-adv-x="710" d="M-131 -299q67 210 141 676q26 164 69.5 293.5t107.5 228t152.5 151t197.5 52.5q89 0 150 -52t61 -139q0 -34 -16 -65t-40 -53t-52 -45.5t-52 -44t-40 -47.5t-16 -56q0 -41 33 -113t66 -148t33 -128q0 -99 -77.5 -162t-211.5 -63q-91 0 -131.5 31t-40.5 81q0 58 53 142 q33 0 42 -4.5t7 -16.5q-30 -151 76 -151q44 0 72 27.5t28 70.5q0 52 -56 178t-56 182q0 34 21 68t51.5 65t61 65.5t51.5 81t21 97.5q0 60 -27 91.5t-73 31.5q-82 0 -141 -140q-41 -96 -109 -378q-18 -77 -22 -92q-67 -287 -135.5 -471t-108.5 -224q-9 -7 -35.5 -14t-54.5 -6 z" />
<glyph unicode="&#xe0;" horiz-adv-x="755" d="M0 193q0 81 34.5 169.5t92.5 162.5t143 122.5t176 48.5q75 0 121.5 -36t48.5 -89q1 -18 -10.5 -73.5t-25 -118.5t-24.5 -124.5t-9 -103t22 -42.5q54 -4 116 64.5t103 170.5q1 2 3.5 5t12.5 6.5t25 -5.5l19 -59q-14 -37 -31 -72.5t-46.5 -81.5t-62 -78.5t-78.5 -53.5 t-95 -17q-86 6 -144 145q-97 -149 -213 -149q-79 0 -128.5 48.5t-49.5 160.5zM186 174q0 -33 12 -52.5t33 -19.5q48 0 99 97t80.5 206.5t29.5 165.5q0 17 -11 29t-28 12q-59 0 -111.5 -81.5t-79 -182.5t-24.5 -174zM365 995q0 24 38.5 53.5t83.5 36.5q0 -17 9 -52t27 -79.5 t53 -80t79 -42.5q-4 -11 -10 -18t-10 -9l-4 -1q-27 -6 -61 -3t-70.5 20.5t-66.5 41.5t-49 59.5t-19 73.5z" />
<glyph unicode="&#xe1;" horiz-adv-x="755" d="M0 193q0 81 34.5 169.5t92.5 162.5t143 122.5t176 48.5q75 0 121.5 -36t48.5 -89q1 -18 -10.5 -73.5t-25 -118.5t-24.5 -124.5t-9 -103t22 -42.5q54 -4 116 64.5t103 170.5q1 2 3.5 5t12.5 6.5t25 -5.5l19 -59q-14 -37 -31 -72.5t-46.5 -81.5t-62 -78.5t-78.5 -53.5 t-95 -17q-86 6 -144 145q-97 -149 -213 -149q-79 0 -128.5 48.5t-49.5 160.5zM186 174q0 -33 12 -52.5t33 -19.5q48 0 99 97t80.5 206.5t29.5 165.5q0 17 -11 29t-28 12q-59 0 -111.5 -81.5t-79 -182.5t-24.5 -174zM406 793q58 72 85.5 170t24.5 141q47 -8 87 -40t40 -65 q0 -42 -45 -97.5t-94 -91.5t-66 -36q-14 1 -32 19z" />
<glyph unicode="&#xe2;" horiz-adv-x="755" d="M0 193q0 81 34.5 169.5t92.5 162.5t143 122.5t176 48.5q75 0 121.5 -36t48.5 -89q1 -18 -10.5 -73.5t-25 -118.5t-24.5 -124.5t-9 -103t22 -42.5q54 -4 116 64.5t103 170.5q1 2 3.5 5t12.5 6.5t25 -5.5l19 -59q-14 -37 -31 -72.5t-46.5 -81.5t-62 -78.5t-78.5 -53.5 t-95 -17q-86 6 -144 145q-97 -149 -213 -149q-79 0 -128.5 48.5t-49.5 160.5zM186 174q0 -33 12 -52.5t33 -19.5q48 0 99 97t80.5 206.5t29.5 165.5q0 17 -11 29t-28 12q-59 0 -111.5 -81.5t-79 -182.5t-24.5 -174zM260 819q51 24 120 110t87 142q21 0 61.5 -13.5 t44.5 -23.5q17 -90 46 -158.5t45 -82.5q-16 -9 -29 -14t-18 -6l-5 -1q-27 0 -65 38.5t-68 94.5q-35 -42 -94.5 -80.5t-87.5 -38.5q-13 0 -20 7t-17 26z" />
<glyph unicode="&#xe3;" horiz-adv-x="755" d="M0 193q0 81 34.5 169.5t92.5 162.5t143 122.5t176 48.5q75 0 121.5 -36t48.5 -89q1 -18 -10.5 -73.5t-25 -118.5t-24.5 -124.5t-9 -103t22 -42.5q54 -4 116 64.5t103 170.5q1 2 3.5 5t12.5 6.5t25 -5.5l19 -59q-14 -37 -31 -72.5t-46.5 -81.5t-62 -78.5t-78.5 -53.5 t-95 -17q-86 6 -144 145q-97 -149 -213 -149q-79 0 -128.5 48.5t-49.5 160.5zM186 174q0 -33 12 -52.5t33 -19.5q48 0 99 97t80.5 206.5t29.5 165.5q0 17 -11 29t-28 12q-59 0 -111.5 -81.5t-79 -182.5t-24.5 -174zM313 934q13 45 45.5 73.5t67.5 28.5q30 0 70.5 -29.5 t82 -59t74.5 -29.5t60 24q12 15 24 8l8 -47q-24 -37 -36.5 -54.5t-37.5 -35.5t-53 -18q-30 0 -61.5 19.5t-53.5 43t-50 43.5t-52 21q-53 0 -73 -41q-21 31 -15 53z" />
<glyph unicode="&#xe4;" horiz-adv-x="755" d="M0 193q0 81 34.5 169.5t92.5 162.5t143 122.5t176 48.5q75 0 121.5 -36t48.5 -89q1 -18 -10.5 -73.5t-25 -118.5t-24.5 -124.5t-9 -103t22 -42.5q54 -4 116 64.5t103 170.5q1 2 3.5 5t12.5 6.5t25 -5.5l19 -59q-14 -37 -31 -72.5t-46.5 -81.5t-62 -78.5t-78.5 -53.5 t-95 -17q-86 6 -144 145q-97 -149 -213 -149q-79 0 -128.5 48.5t-49.5 160.5zM186 174q0 -33 12 -52.5t33 -19.5q48 0 99 97t80.5 206.5t29.5 165.5q0 17 -11 29t-28 12q-59 0 -111.5 -81.5t-79 -182.5t-24.5 -174zM266 903q4 56 42 95t81 34q32 -3 54 -23.5t22 -58.5 q0 -55 -33.5 -100t-87.5 -39q-37 4 -59 30.5t-19 61.5zM518 903q4 56 42 95t81 34q32 -3 54 -23.5t22 -58.5q0 -55 -34 -100t-87 -39q-38 4 -59.5 30t-18.5 62z" />
<glyph unicode="&#xe5;" horiz-adv-x="755" d="M0 193q0 81 34.5 169.5t92.5 162.5t143 122.5t176 48.5q75 0 121.5 -36t48.5 -89q1 -18 -10.5 -73.5t-25 -118.5t-24.5 -124.5t-9 -103t22 -42.5q54 -4 116 64.5t103 170.5q1 2 3.5 5t12.5 6.5t25 -5.5l19 -59q-14 -37 -31 -72.5t-46.5 -81.5t-62 -78.5t-78.5 -53.5 t-95 -17q-86 6 -144 145q-97 -149 -213 -149q-79 0 -128.5 48.5t-49.5 160.5zM186 174q0 -33 12 -52.5t33 -19.5q48 0 99 97t80.5 206.5t29.5 165.5q0 17 -11 29t-28 12q-59 0 -111.5 -81.5t-79 -182.5t-24.5 -174zM346 848q-2 62 50.5 115t138.5 53q105 0 112 -82 q3 -64 -44 -121t-136 -57q-52 0 -85.5 27t-35.5 65zM455 842q7 -33 28 -33q36 0 60 51t22 82q-5 33 -30 33q-29 0 -48.5 -28t-25.5 -56t-6 -49z" />
<glyph unicode="&#xe6;" horiz-adv-x="927" d="M0 193q0 81 34.5 169.5t92.5 162.5t143 122.5t176 48.5q89 0 142 -53q71 53 155 53q74 0 116 -36.5t44 -94.5q6 -133 -95.5 -221.5t-238.5 -83.5v-27q0 -124 82 -124q83 0 193 98q1 1 2 1.5t4.5 1.5t7 0t7 -6t5.5 -14l-24 -75q-44 -56 -122 -92.5t-163 -36.5 q-67 0 -107 33t-63 114q-97 -149 -213 -149q-79 0 -128.5 48.5t-49.5 160.5zM186 174q0 -33 12 -52.5t33 -19.5q48 0 99 97t80.5 206.5t29.5 165.5q0 17 -11 29t-28 12q-59 0 -111.5 -81.5t-79 -182.5t-24.5 -174zM580 332q107 26 169 121q45 71 35 124q-7 37 -41 37 q-35 0 -69.5 -45t-58 -107.5t-35.5 -129.5z" />
<glyph unicode="&#xe7;" horiz-adv-x="544" d="M0 219q15 198 131 336.5t258 138.5q75 0 115.5 -28.5t40.5 -69.5q0 -20 -9.5 -47.5t-19.5 -47.5t-31 -59q-29 0 -38 4.5t-7 14.5q13 77 -1.5 113t-59.5 36q-50 0 -94 -62.5t-67 -150t-23 -170.5q3 -112 84 -112q86 0 190 96q19 17 29 -14l-25 -76q-42 -48 -109 -84 t-139 -45l-32 -64q71 9 122.5 -21.5t51.5 -92.5q0 -71 -63 -122.5t-144 -51.5q-46 0 -64 14q-12 10 -22 45q1 6 3.5 8.5t4.5 2.5l2 -1q20 -8 49 -8q41 0 79 24.5t38 77.5q0 38 -36 54.5t-77 5.5q-15 25 -23 44.5t-9 26.5l-1 7q0 9 31 57q-68 19 -104.5 78.5t-30.5 142.5z " />
<glyph unicode="&#xe8;" horiz-adv-x="559" d="M0 215q10 125 67 237t139.5 178t166.5 66q75 0 116 -36.5t43 -94.5q6 -133 -95 -221.5t-238 -83.5v-27q0 -124 82 -124t192 98q1 1 2 1.5t5 1.5t7 0t7 -6t6 -14l-25 -75q-44 -56 -122 -92.5t-163 -36.5q-93 0 -144.5 64t-45.5 165zM209 332q107 26 169 121q46 71 36 124 q-7 37 -41 37q-51 0 -97 -87t-67 -195zM274 995q0 24 39 53.5t84 36.5q0 -17 9 -52t27 -79.5t53 -80t79 -42.5q-4 -11 -10 -18t-10 -9l-4 -1q-27 -6 -61.5 -3t-70.5 20.5t-66 41.5t-49.5 59.5t-19.5 73.5z" />
<glyph unicode="&#xe9;" horiz-adv-x="559" d="M0 215q10 125 67 237t139.5 178t166.5 66q75 0 116 -36.5t43 -94.5q6 -133 -95 -221.5t-238 -83.5v-27q0 -124 82 -124t192 98q1 1 2 1.5t5 1.5t7 0t7 -6t6 -14l-25 -75q-44 -56 -122 -92.5t-163 -36.5q-93 0 -144.5 64t-45.5 165zM209 332q107 26 169 121q46 71 36 124 q-7 37 -41 37q-51 0 -97 -87t-67 -195zM307 793q58 72 86 170.5t25 140.5q47 -8 87 -40t40 -65q0 -42 -45 -97.5t-94 -91.5t-66 -36q-15 1 -33 19z" />
<glyph unicode="&#xea;" horiz-adv-x="559" d="M0 215q10 125 67 237t139.5 178t166.5 66q75 0 116 -36.5t43 -94.5q6 -133 -95 -221.5t-238 -83.5v-27q0 -124 82 -124t192 98q1 1 2 1.5t5 1.5t7 0t7 -6t6 -14l-25 -75q-44 -56 -122 -92.5t-163 -36.5q-93 0 -144.5 64t-45.5 165zM209 332q107 26 169 121q46 71 36 124 q-7 37 -41 37q-51 0 -97 -87t-67 -195zM223 819q51 24 120 110t87 142q21 0 62 -13.5t45 -23.5q17 -90 45.5 -158.5t44.5 -82.5q-16 -9 -29 -14t-18 -6l-5 -1q-27 0 -65 38.5t-68 94.5q-35 -42 -94.5 -80.5t-87.5 -38.5q-13 0 -20 7t-17 26z" />
<glyph unicode="&#xeb;" horiz-adv-x="559" d="M0 215q10 125 67 237t139.5 178t166.5 66q75 0 116 -36.5t43 -94.5q6 -133 -95 -221.5t-238 -83.5v-27q0 -124 82 -124t192 98q1 1 2 1.5t5 1.5t7 0t7 -6t6 -14l-25 -75q-44 -56 -122 -92.5t-163 -36.5q-93 0 -144.5 64t-45.5 165zM184 903q4 56 42 95t81 34 q32 -3 54 -23.5t22 -58.5q0 -55 -33.5 -100t-87.5 -39q-37 4 -59 30.5t-19 61.5zM209 332q107 26 169 121q46 71 36 124q-7 37 -41 37q-51 0 -97 -87t-67 -195zM436 903q4 56 42 95t81 34q32 -3 54 -23.5t22 -58.5q0 -55 -34 -100t-87 -39q-38 4 -59.5 30t-18.5 62z" />
<glyph unicode="&#xec;" horiz-adv-x="374" d="M0 158q0 58 59.5 269.5t63.5 266.5q51 -3 96.5 -30.5t54.5 -61.5q3 -14 -2 -48.5t-15 -78.5t-22.5 -94t-23 -97.5t-17 -86.5t-4 -63t14.5 -25q54 -4 116 66.5t105 174.5q1 3 3.5 6t11 3t18.5 -11l8 -78q-53 -133 -132 -209.5t-165 -76.5q-56 0 -113 60t-57 114zM129 995 q0 24 39 53.5t84 36.5q0 -17 9 -52t27 -79.5t53 -80t79 -42.5q-4 -11 -10.5 -18t-10.5 -9l-4 -1q-27 -6 -61 -3t-70.5 20.5t-66.5 41.5t-49 59.5t-19 73.5z" />
<glyph unicode="&#xed;" horiz-adv-x="374" d="M-4 158q0 58 59.5 269.5t63.5 266.5q51 -3 96.5 -30.5t54.5 -61.5q3 -14 -2 -48.5t-15 -78.5t-22.5 -94t-23 -97.5t-17 -86.5t-4 -63t14.5 -25q54 -4 116 66.5t105 174.5q1 3 3.5 6t11 3t18.5 -11l8 -78q-53 -133 -132 -209.5t-165 -76.5q-56 0 -113 60t-57 114zM123 793 q58 72 85.5 170t24.5 141q47 -8 87 -40t40 -65q0 -42 -45 -97.5t-93.5 -91.5t-65.5 -36q-15 1 -33 19z" />
<glyph unicode="&#xee;" horiz-adv-x="374" d="M-4 158q0 58 59.5 269.5t63.5 266.5q51 -3 96.5 -30.5t54.5 -61.5q3 -14 -2 -48.5t-15 -78.5t-22.5 -94t-23 -97.5t-17 -86.5t-4 -63t14.5 -25q54 -4 116 66.5t105 174.5q1 3 3.5 6t11 3t18.5 -11l8 -78q-53 -133 -132 -209.5t-165 -76.5q-56 0 -113 60t-57 114zM18 819 q51 24 120 110t87 142q21 0 62 -13.5t45 -23.5q17 -90 45.5 -158.5t44.5 -82.5q-16 -9 -29 -14t-17 -6l-5 -1q-27 0 -65 38.5t-68 94.5q-35 -42 -95 -80.5t-88 -38.5q-13 0 -20 7t-17 26z" />
<glyph unicode="&#xef;" horiz-adv-x="374" d="M0 158q0 58 59.5 269.5t63.5 266.5q51 -3 96.5 -30.5t54.5 -61.5q3 -14 -2 -48.5t-15 -78.5t-22.5 -94t-23 -97.5t-17 -86.5t-4 -63t14.5 -25q54 -4 116 66.5t105 174.5q1 3 3.5 6t11 3t18.5 -11l8 -78q-53 -133 -132 -209.5t-165 -76.5q-56 0 -113 60t-57 114zM25 903 q4 56 41.5 95t80.5 34q32 -3 54 -23.5t22 -58.5q0 -55 -33.5 -100t-87.5 -39q-37 4 -58.5 30.5t-18.5 61.5zM276 903q4 56 42 95t81 34q32 -3 54 -23.5t22 -58.5q0 -55 -34 -100t-87 -39q-38 4 -59.5 30t-18.5 62z" />
<glyph unicode="&#xf0;" horiz-adv-x="700" d="M0 190q0 81 35 170t93 163.5t143.5 123.5t177.5 49q52 0 81 -18q34 233 -88 299l-28 -80q-10 -27 -19.5 -65.5t-9.5 -45.5l-6 -4q-13 -6 -23 6q-51 59 -49 86q0 6 41 123q-85 -3 -164 -47q-2 -1 -5 -2t-8.5 4t-6.5 19l37 55q76 52 176 55q45 138 53 176q34 -19 51 -46 t18 -38.5t1 -31.5q-1 -2 -23 -66q108 -24 168 -115.5t60 -248.5q0 -136 -49.5 -272.5t-125.5 -235.5t-168.5 -161t-175.5 -62q-85 0 -135.5 57.5t-50.5 152.5zM186 172q2 -28 14 -50t33 -22q62 0 140.5 126t118.5 288q-1 48 -22.5 73t-53.5 25q-64 0 -120 -78.5t-84 -179.5 t-26 -182z" />
<glyph unicode="&#xf1;" horiz-adv-x="757" d="M2 106q-9 34 20.5 176.5t59 274t22.5 143.5q56 -5 100 -40.5t40 -73.5q0 -25 -2 -33q50 66 117 106.5t137 34.5q59 -4 99.5 -42.5t43.5 -90.5q2 -34 -12.5 -118t-33 -172t-20.5 -103q-12 -62 15 -62q53 -4 114.5 65.5t104.5 172.5q1 3 4 5.5t12 6t19 -9.5l8 -78 q-52 -133 -131 -207.5t-166 -74.5q-56 0 -113 58.5t-57 111.5q0 27 35 189t35 196q0 35 -22 41t-66 -25q-64 -50 -114.5 -155t-68.5 -218q-20 -139 -8 -184q-54 3 -108.5 37t-63.5 69zM233 934q13 45 45.5 73.5t67.5 28.5q30 0 70.5 -29.5t82 -59t74.5 -29.5t60 24 q12 15 24 8l9 -47q-24 -37 -36.5 -54.5t-37.5 -35.5t-53 -18q-30 0 -61.5 19.5t-53.5 43t-50 43.5t-52 21q-54 0 -74 -41q-21 31 -15 53z" />
<glyph unicode="&#xf2;" horiz-adv-x="610" d="M0 213q0 75 27.5 159t75 156.5t120 120t152.5 47.5q100 0 147 -61.5t47 -165.5q0 -62 -13.5 -127.5t-42 -129.5t-69 -114t-99 -81t-126.5 -31q-97 0 -158 64t-61 163zM195 203q0 -16 2 -31t6.5 -33.5t15.5 -29.5t27 -11q42 0 80.5 51.5t62 122.5t37.5 137t14 103 q0 102 -61 102q-46 0 -83.5 -50.5t-58 -121.5t-31.5 -135t-11 -104zM274 995q0 24 39 53.5t84 36.5q0 -17 9 -52t27 -79.5t53 -80t79 -42.5q-4 -11 -10 -18t-10 -9l-4 -1q-27 -6 -61.5 -3t-70.5 20.5t-66 41.5t-49.5 59.5t-19.5 73.5z" />
<glyph unicode="&#xf3;" horiz-adv-x="610" d="M0 213q0 75 27.5 159t75 156.5t120 120t152.5 47.5q100 0 147 -61.5t47 -165.5q0 -62 -13.5 -127.5t-42 -129.5t-69 -114t-99 -81t-126.5 -31q-97 0 -158 64t-61 163zM195 203q0 -16 2 -31t6.5 -33.5t15.5 -29.5t27 -11q42 0 80.5 51.5t62 122.5t37.5 137t14 103 q0 102 -61 102q-46 0 -83.5 -50.5t-58 -121.5t-31.5 -135t-11 -104zM307 793q58 72 86 170.5t25 140.5q47 -8 87 -40t40 -65q0 -42 -45 -97.5t-94 -91.5t-66 -36q-15 1 -33 19z" />
<glyph unicode="&#xf4;" horiz-adv-x="610" d="M0 213q0 75 27.5 159t75 156.5t120 120t152.5 47.5q100 0 147 -61.5t47 -165.5q0 -62 -13.5 -127.5t-42 -129.5t-69 -114t-99 -81t-126.5 -31q-97 0 -158 64t-61 163zM195 203q0 -16 2 -31t6.5 -33.5t15.5 -29.5t27 -11q42 0 80.5 51.5t62 122.5t37.5 137t14 103 q0 102 -61 102q-46 0 -83.5 -50.5t-58 -121.5t-31.5 -135t-11 -104zM223 819q51 24 120 110t87 142q21 0 62 -13.5t45 -23.5q17 -90 45.5 -158.5t44.5 -82.5q-16 -9 -29 -14t-18 -6l-5 -1q-27 0 -65 38.5t-68 94.5q-35 -42 -94.5 -80.5t-87.5 -38.5q-13 0 -20 7t-17 26z" />
<glyph unicode="&#xf5;" horiz-adv-x="610" d="M0 213q0 75 27.5 159t75 156.5t120 120t152.5 47.5q100 0 147 -61.5t47 -165.5q0 -62 -13.5 -127.5t-42 -129.5t-69 -114t-99 -81t-126.5 -31q-97 0 -158 64t-61 163zM195 203q0 -16 2 -31t6.5 -33.5t15.5 -29.5t27 -11q42 0 80.5 51.5t62 122.5t37.5 137t14 103 q0 102 -61 102q-46 0 -83.5 -50.5t-58 -121.5t-31.5 -135t-11 -104zM231 934q13 45 45.5 73.5t67.5 28.5q30 0 70.5 -29.5t82 -59t74.5 -29.5t60 24q12 15 24 8l9 -47q-24 -37 -36.5 -54.5t-37.5 -35.5t-53 -18q-30 0 -61.5 19.5t-54 43t-50.5 43.5t-52 21q-53 0 -73 -41 q-21 31 -15 53z" />
<glyph unicode="&#xf6;" horiz-adv-x="610" d="M0 213q0 75 27.5 159t75 156.5t120 120t152.5 47.5q100 0 147 -61.5t47 -165.5q0 -62 -13.5 -127.5t-42 -129.5t-69 -114t-99 -81t-126.5 -31q-97 0 -158 64t-61 163zM190 903q4 56 42 95t81 34q32 -3 54 -23.5t22 -58.5q0 -55 -33.5 -100t-87.5 -39q-37 4 -59 30.5 t-19 61.5zM195 203q0 -16 2 -31t6.5 -33.5t15.5 -29.5t27 -11q42 0 80.5 51.5t62 122.5t37.5 137t14 103q0 102 -61 102q-46 0 -83.5 -50.5t-58 -121.5t-31.5 -135t-11 -104zM442 903q4 56 42 95t81 34q32 -3 54 -23.5t22 -58.5q0 -55 -34 -100t-87 -39q-38 4 -59.5 30 t-18.5 62z" />
<glyph unicode="&#xf7;" d="M123 270q-8 11 0 33q21 44 35.5 65t31.5 21q118 0 286 1t204 1q204 0 227 2q-4 -28 -12 -49.5t-15 -33.5t-18.5 -21.5t-17.5 -12t-17 -6.5t-12 -4q-48 -3 -134.5 -3t-240.5 2.5t-182 2.5q-114 0 -129 -6zM369 72q0 43 29.5 82t70.5 39q34 0 55 -19.5t21 -52.5 q0 -46 -26.5 -85.5t-69.5 -39.5q-33 0 -56.5 21.5t-23.5 54.5zM449 532q0 43 29 83t71 40q33 0 54.5 -20t21.5 -53q0 -45 -27.5 -85t-71.5 -40q-33 0 -55 21t-22 54z" />
<glyph unicode="&#xf8;" horiz-adv-x="610" d="M-2 -18.5q-14 37.5 0 67.5q2 3 6 8.5t10.5 15t12.5 17.5l2 2q-29 56 -29 121q0 75 27.5 159t75 156.5t120 120t152.5 47.5q77 0 125 -39q20 25 51 67t39 52q21 -13 34.5 -48t0.5 -54q-6 -9 -22 -31.5t-25 -34.5l-25 -30q16 -41 16 -109q0 -62 -13.5 -127.5t-42 -129.5 t-69 -114t-99 -81t-126.5 -31q-66 0 -119 32q-57 -74 -65 -94q-23 20 -37 57.5zM152 238q47 55 146 174.5t134 160.5q-14 41 -53 41q-53 0 -104 -67.5t-81.5 -151t-41.5 -157.5zM180 117q19 -19 53 -19q40 0 77.5 35t63.5 87.5t43.5 110.5t22.5 109q-40 -50 -132.5 -165 t-127.5 -158z" />
<glyph unicode="&#xf9;" horiz-adv-x="772" d="M0 160q0 47 27 157q6 24 32 113.5t41 153t19 112.5q49 -4 100 -33.5t51 -74.5q0 -14 -16 -107q-6 -27 -24.5 -101.5t-29 -132t-10.5 -100.5q0 -12 1 -18.5t6 -13t16 -6.5q49 0 96 48t81.5 119t62.5 154t43.5 152t19.5 114q49 -4 100.5 -33.5t51.5 -74.5q0 -37 -17 -107 q-5 -26 -23.5 -101.5t-29 -132.5t-10.5 -100q0 -38 20 -38q34 0 69 26t64 68.5t48.5 77t35.5 69.5q3 10 13 10q11 0 20 -14l6 -74q-18 -49 -45 -96t-64 -91.5t-85.5 -71.5t-100.5 -27q-50 0 -107 52.5t-63 102.5q-107 -155 -229 -155q-55 0 -112.5 59t-57.5 115zM301 995 q0 24 39 53.5t84 36.5q0 -17 9 -52t27 -79.5t53 -80t79 -42.5q-4 -11 -10.5 -18t-10.5 -9l-4 -1q-27 -6 -61 -3t-70.5 20.5t-66.5 41.5t-49 59.5t-19 73.5z" />
<glyph unicode="&#xfa;" horiz-adv-x="772" d="M0 160q0 47 27 157q6 24 32 113.5t41 153t19 112.5q49 -4 100 -33.5t51 -74.5q0 -14 -16 -107q-6 -27 -24.5 -101.5t-29 -132t-10.5 -100.5q0 -12 1 -18.5t6 -13t16 -6.5q49 0 96 48t81.5 119t62.5 154t43.5 152t19.5 114q49 -4 100.5 -33.5t51.5 -74.5q0 -37 -17 -107 q-5 -26 -23.5 -101.5t-29 -132.5t-10.5 -100q0 -38 20 -38q34 0 69 26t64 68.5t48.5 77t35.5 69.5q3 10 13 10q11 0 20 -14l6 -74q-18 -49 -45 -96t-64 -91.5t-85.5 -71.5t-100.5 -27q-50 0 -107 52.5t-63 102.5q-107 -155 -229 -155q-55 0 -112.5 59t-57.5 115zM330 793 q58 72 85.5 170t24.5 141q47 -8 87 -40t40 -65q0 -42 -45 -97.5t-94 -91.5t-66 -36q-14 1 -32 19z" />
<glyph unicode="&#xfb;" horiz-adv-x="772" d="M0 160q0 47 27 157q6 24 32 113.5t41 153t19 112.5q49 -4 100 -33.5t51 -74.5q0 -14 -16 -107q-6 -27 -24.5 -101.5t-29 -132t-10.5 -100.5q0 -12 1 -18.5t6 -13t16 -6.5q49 0 96 48t81.5 119t62.5 154t43.5 152t19.5 114q49 -4 100.5 -33.5t51.5 -74.5q0 -37 -17 -107 q-5 -26 -23.5 -101.5t-29 -132.5t-10.5 -100q0 -38 20 -38q34 0 69 26t64 68.5t48.5 77t35.5 69.5q3 10 13 10q11 0 20 -14l6 -74q-18 -49 -45 -96t-64 -91.5t-85.5 -71.5t-100.5 -27q-50 0 -107 52.5t-63 102.5q-107 -155 -229 -155q-55 0 -112.5 59t-57.5 115zM223 819 q51 24 120 110t87 142q21 0 62 -13.5t45 -23.5q17 -90 45.5 -158.5t44.5 -82.5q-16 -9 -29 -14t-18 -6l-5 -1q-27 0 -65 38.5t-68 94.5q-35 -42 -94.5 -80.5t-87.5 -38.5q-13 0 -20 7t-17 26z" />
<glyph unicode="&#xfc;" horiz-adv-x="772" d="M0 160q0 47 27 157q6 24 32 113.5t41 153t19 112.5q49 -4 100 -33.5t51 -74.5q0 -14 -16 -107q-6 -27 -24.5 -101.5t-29 -132t-10.5 -100.5q0 -12 1 -18.5t6 -13t16 -6.5q49 0 96 48t81.5 119t62.5 154t43.5 152t19.5 114q49 -4 100.5 -33.5t51.5 -74.5q0 -37 -17 -107 q-5 -26 -23.5 -101.5t-29 -132.5t-10.5 -100q0 -38 20 -38q34 0 69 26t64 68.5t48.5 77t35.5 69.5q3 10 13 10q11 0 20 -14l6 -74q-18 -49 -45 -96t-64 -91.5t-85.5 -71.5t-100.5 -27q-50 0 -107 52.5t-63 102.5q-107 -155 -229 -155q-55 0 -112.5 59t-57.5 115zM217 903 q4 56 42 95t81 34q32 -3 54 -23.5t22 -58.5q0 -55 -33.5 -100t-87.5 -39q-37 4 -59 30.5t-19 61.5zM469 903q4 56 42 95t81 34q32 -3 54 -23.5t22 -58.5q0 -55 -34 -100t-87 -39q-38 4 -59.5 30t-18.5 62z" />
<glyph unicode="&#xfd;" horiz-adv-x="686" d="M-94 -428q3 135 122.5 237t297.5 115q7 16 59 170l-8 4q-42 -49 -97 -78.5t-108 -29.5q-56 0 -112 56t-56 110q0 57 55.5 271t59.5 269q52 -5 96 -32t53 -60q4 -14 -0.5 -49t-14 -79.5t-21 -95.5t-21.5 -99t-15.5 -87.5t-3 -64t14.5 -25.5q63 -4 129.5 85t99.5 214 q28 103 42 189.5t7 97.5q58 -5 110 -38t48 -70q-5 -40 -11 -79.5t-15 -83t-15.5 -74.5t-19 -80.5t-18 -72.5t-20.5 -80t-20 -75q-37 -144 -95 -262.5t-123 -192t-132.5 -113.5t-128.5 -40q-63 0 -102 41t-37 102zM23 -455q6 -28 32 -28q61 0 128.5 91t121.5 247 q-72 -6 -144 -61.5t-110.5 -127t-27.5 -121.5zM322 793q58 72 85.5 170t24.5 141q47 -8 87 -40t40 -65q0 -42 -45 -97.5t-94 -91.5t-66 -36q-14 1 -32 19z" />
<glyph unicode="&#xfe;" horiz-adv-x="657" d="M-92 -336q0 22 3.5 50.5t10.5 66t12 60.5t15 66.5t12 51.5q4 20 35.5 162.5t57.5 265.5t58 274t52.5 262t25.5 156q58 -3 103 -37t39 -77q-6 -46 -31 -178t-39 -193q33 45 80 73.5t98 28.5q176 0 176 -213q0 -103 -45 -207t-128.5 -182.5t-184.5 -101.5q-28 -4 -47 -4 q-44 0 -72 22q-7 -30 -19.5 -84t-23 -99t-18.5 -85q-2 -11 -8 -40.5t-8.5 -46t-5.5 -41t-3 -44.5v-21q-47 4 -96 37t-49 78zM176 127q0 -19 11 -30t30 -11q49 0 92 51.5t69 123.5t41 141.5t15 113.5q0 76 -43 76q-41 0 -82.5 -58.5t-69.5 -137.5t-45.5 -154.5t-17.5 -114.5z " />
<glyph unicode="&#xff;" horiz-adv-x="686" d="M-92 -428q3 135 122.5 237t297.5 115q7 16 59 170l-8 4q-42 -49 -97 -78.5t-108 -29.5q-56 0 -112 56t-56 110q0 57 55.5 271t59.5 269q52 -5 96 -32t53 -60q4 -14 -0.5 -49t-14 -79.5t-21 -95.5t-21.5 -99t-15.5 -87.5t-3 -64t14.5 -25.5q63 -4 129.5 85t99.5 214 q28 103 42 189.5t7 97.5q58 -5 110 -38t48 -70q-5 -40 -11 -79.5t-15 -83t-15.5 -74.5t-19 -80.5t-18 -72.5t-20.5 -80t-20 -75q-37 -144 -95 -262.5t-123 -192t-132.5 -113.5t-128.5 -40q-63 0 -102 41t-37 102zM25 -455q6 -28 32 -28q61 0 128.5 91t121.5 247 q-72 -6 -144 -61.5t-110.5 -127t-27.5 -121.5zM207 903q4 56 42 95t81 34q32 -3 54 -23.5t22 -58.5q0 -55 -33.5 -100t-87.5 -39q-37 4 -59 30.5t-19 61.5zM459 903q4 56 42 95t81 34q31 -3 53 -23.5t22 -58.5q0 -55 -33.5 -100t-86.5 -39q-38 4 -59.5 30t-18.5 62z" />
<glyph unicode="&#x152;" horiz-adv-x="1247" d="M0 315q-4 111 23.5 226.5t81.5 214.5t124.5 178t158.5 124.5t177 45.5q142 0 217 -131q18 101 15 108h530q-15 -49 -30 -76t-22 -31.5t-22 -10.5q-20 -2 -73.5 0t-140 5.5t-119.5 2.5q-9 -80 -60 -326q0 -14 -2 -22h309q-14 -45 -28 -69t-19.5 -28t-19.5 -10 q-21 -1 -48 -0.5t-101 3t-115 3.5q-2 -11 -25.5 -134.5t-30.5 -164.5q-11 -61 27.5 -91t132.5 -30q109 0 238 52q2 1 4.5 1.5t7.5 -5t6 -19.5l-29 -98q-61 -23 -155.5 -36t-182.5 -13q-203 4 -227 178q-44 -75 -128 -126.5t-169 -51.5q-141 0 -220 86t-85 245zM213 326 q5 -99 40 -157t97 -58q98 0 180.5 118.5t123.5 278.5t36 301q-4 93 -39.5 142.5t-97.5 49.5q-90 0 -172.5 -106t-128 -263.5t-39.5 -305.5z" />
<glyph unicode="&#x153;" horiz-adv-x="905" d="M0 213q0 75 27.5 159t75 156.5t120 120t152.5 47.5q123 0 170 -96q93 96 176 96q74 0 115.5 -36.5t44.5 -94.5q4 -88 -43 -160t-125 -110t-166 -35q0 -5 -1 -14t-1 -13q3 -124 84 -124q84 0 190 98q1 1 2 1.5t5 1.5t7.5 0t7.5 -6t7 -14l-25 -75q-44 -56 -122 -92.5 t-162 -36.5q-91 0 -144 63q-76 -63 -176 -63q-97 0 -158 64t-61 163zM195 203q0 -16 2 -31t6.5 -33.5t15.5 -29.5t27 -11q42 0 80.5 51.5t62 122.5t37.5 137t14 103q0 102 -61 102q-46 0 -83.5 -50.5t-58 -121.5t-31.5 -135t-11 -104zM555 332q109 26 172 123q45 70 35 123 q-7 36 -41 36q-36 0 -71 -45t-58.5 -107t-36.5 -130z" />
<glyph unicode="&#x178;" horiz-adv-x="722" d="M12 1079q93 19 164.5 1.5t81.5 -46.5q19 -47 111 -420q44 70 111.5 183.5t113 190t51.5 83.5q21 27 58 34.5t71 0.5t62 -23q-15 -10 -76.5 -100t-183.5 -275.5t-168 -254.5q-81 -429 -58 -467q-55 5 -115 39t-69 67q-9 40 61 361q-33 91 -84 255.5t-84 264.5t-47 106z M244 1270q4 56 42 95t81 34q31 -3 53 -23.5t22 -58.5q0 -55 -33 -100t-87 -39q-37 4 -59 30.5t-19 61.5zM496 1270q4 56 41.5 95t80.5 34q32 -3 54 -23.5t22 -58.5q0 -55 -34 -100t-87 -39q-38 4 -59 30t-18 62z" />
<glyph unicode="&#x2c6;" horiz-adv-x="759" d="M223 819q51 24 120 110t87 142q21 0 62 -13.5t45 -23.5q17 -90 45.5 -158.5t44.5 -82.5q-16 -9 -29 -14t-18 -6l-5 -1q-27 0 -65 38.5t-68 94.5q-35 -42 -94.5 -80.5t-87.5 -38.5q-13 0 -20 7t-17 26z" />
<glyph unicode="&#x2dc;" horiz-adv-x="811" d="M221 934q13 45 45.5 73.5t67.5 28.5q30 0 70.5 -29.5t82 -59t74.5 -29.5t60 24q12 15 24 8l8 -47q-24 -37 -36.5 -54.5t-37.5 -35.5t-53 -18q-30 0 -61.5 19.5t-53.5 43t-50 43.5t-52 21q-53 0 -73 -41q-21 31 -15 53z" />
<glyph unicode="&#x2000;" horiz-adv-x="742" />
<glyph unicode="&#x2001;" horiz-adv-x="1485" />
<glyph unicode="&#x2002;" horiz-adv-x="742" />
<glyph unicode="&#x2003;" horiz-adv-x="1485" />
<glyph unicode="&#x2004;" horiz-adv-x="495" />
<glyph unicode="&#x2005;" horiz-adv-x="371" />
<glyph unicode="&#x2006;" horiz-adv-x="247" />
<glyph unicode="&#x2007;" horiz-adv-x="247" />
<glyph unicode="&#x2008;" horiz-adv-x="185" />
<glyph unicode="&#x2009;" horiz-adv-x="297" />
<glyph unicode="&#x200a;" horiz-adv-x="82" />
<glyph unicode="&#x2010;" horiz-adv-x="788" d="M154 258q-8 11 0 31q4 7 12 25t13 28t12.5 23t14 19.5t13.5 8.5q9 2 18 3t28 1t40 -0.5t66 -1t94 -0.5q215 0 227 2q-12 -68 -40 -101t-52 -40q-30 -3 -74.5 -1.5t-128 5.5t-121.5 4q-86 0 -116 -12z" />
<glyph unicode="&#x2011;" horiz-adv-x="788" d="M154 258q-8 11 0 31q4 7 12 25t13 28t12.5 23t14 19.5t13.5 8.5q9 2 18 3t28 1t40 -0.5t66 -1t94 -0.5q215 0 227 2q-12 -68 -40 -101t-52 -40q-30 -3 -74.5 -1.5t-128 5.5t-121.5 4q-86 0 -116 -12z" />
<glyph unicode="&#x2012;" horiz-adv-x="788" d="M154 258q-8 11 0 31q4 7 12 25t13 28t12.5 23t14 19.5t13.5 8.5q9 2 18 3t28 1t40 -0.5t66 -1t94 -0.5q215 0 227 2q-12 -68 -40 -101t-52 -40q-30 -3 -74.5 -1.5t-128 5.5t-121.5 4q-86 0 -116 -12z" />
<glyph unicode="&#x2013;" d="M123 270q-8 11 0 33q21 44 35.5 65t31.5 21q118 0 286 1t204 1q204 0 227 2q-4 -28 -12 -49.5t-15 -33.5t-18.5 -21.5t-17.5 -12t-17 -6.5t-12 -4q-48 -3 -134.5 -3t-240.5 2.5t-182 2.5q-114 0 -129 -6z" />
<glyph unicode="&#x2014;" horiz-adv-x="2048" d="M152 266q-10 16 0 35q38 98 65 98h1473q204 0 229 4q-6 -41 -17 -69.5t-26 -42t-24 -18.5t-21 -8q-3 -1 -4 -1q-8 -3 -159.5 -3.5t-370 0t-432.5 2t-386.5 2.5t-191.5 1q-114 0 -129 -6z" />
<glyph unicode="&#x2018;" horiz-adv-x="368" d="M123 874q0 41 37.5 91.5t85.5 88t91.5 62.5t57.5 23q17 -2 35 -31q-89 -67 -131.5 -169.5t-30.5 -182.5l-12 -13q-52 14 -92.5 52.5t-40.5 78.5z" />
<glyph unicode="&#x2019;" horiz-adv-x="368" d="M123 774q89 67 131.5 169.5t30.5 182.5l12 13q52 -14 92.5 -52.5t40.5 -78.5q0 -41 -37.5 -91.5t-85.5 -88t-91.5 -62.5t-57.5 -23q-17 2 -35 31z" />
<glyph unicode="&#x201a;" horiz-adv-x="352" />
<glyph unicode="&#x201c;" horiz-adv-x="665" d="M123 874q0 41 37.5 91.5t85.5 88t91.5 62.5t57.5 23q17 -2 35 -31q-89 -67 -130.5 -169t-31.5 -183l-12 -13q-52 14 -92.5 52.5t-40.5 78.5zM420 874q0 41 37.5 91.5t85.5 88t91.5 62.5t57.5 23q17 -2 35 -31q-89 -67 -131.5 -169.5t-30.5 -182.5l-12 -13 q-52 14 -92.5 52.5t-40.5 78.5z" />
<glyph unicode="&#x201d;" horiz-adv-x="665" d="M123 774q89 67 131.5 169.5t30.5 182.5l12 13q52 -14 92.5 -52.5t40.5 -78.5q0 -41 -37.5 -91.5t-85.5 -88t-91.5 -62.5t-57.5 -23q-17 2 -35 31zM420 774q89 67 130.5 169t31.5 183l12 13q52 -14 92.5 -52.5t40.5 -78.5q0 -41 -37.5 -91.5t-85.5 -88t-91.5 -62.5 t-57.5 -23q-17 2 -35 31z" />
<glyph unicode="&#x201e;" horiz-adv-x="665" d="M123 -25q89 67 131.5 170t30.5 183l12 12q52 -14 92.5 -52.5t40.5 -78.5q0 -41 -37.5 -91.5t-85.5 -88t-91.5 -62t-57.5 -22.5q-17 1 -35 30zM420 -25q89 67 130.5 169.5t31.5 183.5l12 12q52 -14 92.5 -52.5t40.5 -78.5q0 -41 -37.5 -91.5t-85.5 -88t-91.5 -62 t-57.5 -22.5q-17 1 -35 30z" />
<glyph unicode="&#x2022;" d="M313 311q0 88 69 159t161 71q80 0 123 -42.5t43 -123.5q0 -86 -62.5 -152.5t-148.5 -66.5q-76 0 -130.5 40.5t-54.5 114.5z" />
<glyph unicode="&#x2026;" horiz-adv-x="1142" d="M135 100q6 63 47 105.5t88 36.5q35 -3 59 -25t23 -63q0 -61 -36.5 -111t-94.5 -43q-41 4 -65 32.5t-21 67.5zM469 100q6 63 47 105.5t88 36.5q35 -3 59 -25t23 -63q0 -61 -36.5 -111t-94.5 -43q-41 4 -65 32.5t-21 67.5zM803 100q4 62 45.5 105t87.5 37q36 -3 60 -25 t24 -63q0 -60 -37 -110.5t-94 -43.5q-41 4 -65 32.5t-21 67.5z" />
<glyph unicode="&#x202f;" horiz-adv-x="297" />
<glyph unicode="&#x2039;" horiz-adv-x="538" d="M133 330q106 75 214 165t163 160q41 -77 16 -129q-15 -36 -207 -178q26 -37 74.5 -129t52.5 -121q1 -17 -16 -41t-39 -41l-14 -2q-35 57 -108 151t-136 165z" />
<glyph unicode="&#x203a;" horiz-adv-x="550" d="M115 145q16 37 207 179q-26 37 -74.5 128.5t-52.5 120.5q-1 17 16 41t39 41l14 2q35 -56 107.5 -150t136.5 -165q-105 -74 -213.5 -165t-163.5 -161q-41 77 -16 129z" />
<glyph unicode="&#x205f;" horiz-adv-x="371" />
<glyph unicode="&#x20ac;" horiz-adv-x="890" d="M-27 358q-11 11 0 27q44 75 74 82q18 5 105 2q6 46 18 94q-83 0 -129 -8l-6 4q-11 11 0 27q44 75 74 82q18 5 94 2q73 184 209.5 298.5t292.5 114.5q89 0 145.5 -30t56.5 -84q0 -24 -10.5 -55t-22 -53.5t-36.5 -69.5q-24 0 -36.5 2t-16 6.5t-1.5 11.5q16 90 -6.5 136 t-91.5 46q-90 0 -170 -90.5t-127 -234.5h148q226 0 251 2q-7 -32 -20 -55t-30 -34.5t-26.5 -15.5t-23.5 -8q-38 -8 -328 2q-6 -33 -14 -92h129q227 0 252 2q-7 -32 -20 -55t-30 -34.5t-26.5 -15.5t-23.5 -8q-22 -6 -287 0q0 -22 2 -32q3 -102 47 -154.5t121 -52.5 q50 0 112 28.5t111 75.5q1 1 2.5 2t5.5 2t8 0t9 -6.5t8 -15.5l-25 -76q-119 -141 -315 -141q-270 0 -283 327v49h-34q-83 0 -129 -8z" />
<glyph unicode="&#x2122;" horiz-adv-x="1177" d="M31 993q10 32 30.5 59t47.5 27q51 0 155 -3t156 -3q100 0 151 2l7 -6q-28 -80 -66 -80q-25 0 -77.5 2t-78.5 2q-59 -281 -67 -323q-1 -5 -6.5 -31.5t-9 -47t-8.5 -52t-4.5 -45t3.5 -27.5q-52 -5 -90.5 10.5t-38.5 46.5q0 24 4.5 51.5t13.5 64.5t11 50q38 150 72 303h-205 zM399 463q1 1 4.5 4t4.5 4q23 26 76.5 188t82.5 263q3 10 9.5 33.5t13 42.5t12.5 32q27 55 113 55h18q33 -244 72 -444q85 142 166 293q59 123 69 137q2 2 7.5 7t7.5 7q25 -1 51 -8t49 -25.5t23 -43.5q0 -13 -21 -131q-1 -5 -11 -67.5t-13 -84t-9.5 -70t-9 -84t-2.5 -67.5 q0 -33 6 -45q-76 -12 -103 -3q-34 12 -34 54q0 121 61 375q-45 -78 -131 -234q-3 -5 -14 -25t-15.5 -28t-15.5 -25.5t-17.5 -25.5t-18.5 -20.5t-21.5 -18t-22.5 -10t-26 -4.5q-22 0 -68 8q-8 60 -25.5 178.5t-25.5 177.5q-101 -354 -121 -379q-25 -28 -59 -28q-32 0 -62 12z " />
<glyph unicode="&#x25fc;" horiz-adv-x="706" d="M0 0v707h707v-707h-707z" />
<glyph unicode="&#xfb01;" horiz-adv-x="727" d="M-131 -293q70 221 139 666q17 111 43 213q-23 -1 -56 -1.5t-52 -1t-25 -1.5q7 46 17.5 66t27.5 30q4 2 113 2q29 96 65 168t73.5 116t81.5 71.5t85.5 37.5t89.5 10q38 0 75.5 -7t73.5 -21.5t58 -42t22 -64.5q0 -12 -3.5 -27.5t-14.5 -34t-28.5 -30.5t-49.5 -12t-72 18 q8 69 -12.5 108.5t-66.5 39.5q-40 0 -67 -23.5t-57 -96t-67 -212.5q25 1 97.5 3t97.5 3q57 3 110.5 -27t61.5 -61q3 -14 -2 -48t-15 -77.5t-22 -93t-22.5 -96.5t-17 -85.5t-4 -62t14.5 -24.5q52 -4 114 66.5t103 172.5q1 3 3.5 6t11 2.5t18.5 -12.5l8 -76 q-53 -131 -131 -206.5t-162 -75.5q-56 0 -112 59t-56 113q0 37 17 107.5t46 172.5t40 146h-221q-15 -64 -43 -174q-66 -283 -133.5 -464t-106.5 -216q-8 -8 -33.5 -15.5t-54.5 -7.5z" />
<glyph unicode="&#xfb02;" horiz-adv-x="821" d="M-131 -291q65 201 137 664q13 87 45 213q-105 0 -133 -4q7 46 17.5 66t27.5 30q4 2 113 2q54 176 142 264t220 88q135 0 195 -69q101 122 194 122q53 0 89.5 -32.5t39.5 -89.5q3 -80 -25 -174t-78 -179.5t-127.5 -149.5t-164.5 -79q-22 -133 -9 -199.5t56 -66.5 q60 0 151 71t124 148q1 3 3.5 6.5t11.5 3.5t20 -12l6 -60q-48 -124 -163 -205t-208 -81q-85 0 -134.5 63.5t-49.5 183.5q0 119 42 273t111 287v-2q23 80 -2 123.5t-78 43.5q-62 0 -100.5 -61t-79.5 -223q135 3 158 6q-5 -26 -9.5 -44t-10 -27t-8 -13t-9.5 -7.5t-8 -4.5 q-7 -3 -135 0q-7 -25 -43 -174q-66 -282 -133.5 -462t-106.5 -218q-10 -8 -35 -15t-53 -6zM575 453q59 14 126 115.5t109 216.5t42 182q0 21 -10 34t-27 13q-111 0 -240 -561z" />
</font>
</defs>
</svg>
