<?xml version="1.0" standalone="no"?>
<!DOCTYPE svg PUBLIC "-//W3C//DTD SVG 1.1//EN" "http://www.w3.org/Graphics/SVG/1.1/DTD/svg11.dtd" >
<svg xmlns="http://www.w3.org/2000/svg">
<metadata>Generated by IcoMoon</metadata>
<defs>
<font id="icon-mix" horiz-adv-x="512">
<font-face units-per-em="512" ascent="480" descent="-32" />
<missing-glyph horiz-adv-x="512" />
<glyph unicode="&#x20;" d="" horiz-adv-x="256" />
<glyph unicode="&#xe71c;" d="M354.61 267.29h-46.952l-0.022 6.567c0 0.311-0.545 31.616-16.736 31.616h-66.755c-1.112-0.389-10.935-4.423-10.935-31.605v-6.523l-53.63-0.378c-2.056-0.133-13.713-1.411-13.713-13.657l-0.022-99.737c0 0-0.322-4.945 2.545-8.034 1.845-2 4.934-3.012 9.179-3.012h196.552c2.556 0.344 12.046 2.223 12.046 11.69v101.216c-0.223 2.334-1.812 11.858-11.558 11.858zM254.939 153.695c-29.494 0-53.475 24.003-53.475 53.486 0 29.494 23.993 53.475 53.475 53.475 29.504 0 53.486-23.981 53.486-53.475 0-29.483-23.981-53.486-53.486-53.486zM335.485 228.817c-5.878 0-10.635 4.768-10.635 10.635 0 5.857 4.757 10.635 10.635 10.635 5.856 0 10.613-4.768 10.613-10.635 0.011-5.857-4.745-10.635-10.613-10.635zM254.939 246.576c-21.715 0-39.395-17.669-39.395-39.384s17.68-39.384 39.395-39.384c21.715 0 39.373 17.669 39.373 39.384s-17.658 39.384-39.373 39.384zM346.275 480h-180.549c-91.147 0-165.725-74.578-165.725-165.725v-180.572c0-91.136 74.578-165.714 165.725-165.714h346.286v346.286c0 91.147-74.578 165.725-165.736 165.725zM379.313 255.721v-101.505c0-17.769-15.825-23.993-24.204-24.804l-0.3-0.034h-197.252c-8.135 0-14.524 2.5-18.959 7.379-6.167 6.79-6.023 15.569-5.879 17.714v98.849c0 20.292 17.347 26.404 26.526 26.804l40.984 0.3c2.034 34.983 20.447 37.962 22.648 38.183l0.689 0.044h67.332c20.681 0 28.082-21.647 29.582-38.183h34.117c18.147 0 24.092-15.858 24.704-24.248v-0.5z" />
<glyph unicode="&#xe71d;" d="M366.082 102.51l-27.781 41.833 16.329 10.844 27.781-41.833-16.329-10.844zM241.278 290.499l-28.143 42.37 16.311 10.834 28.143-42.37-16.311-10.834zM346.283 480h-180.554c-91.149 0-165.729-74.579-165.729-165.717v-180.565c0-91.138 74.579-165.717 165.729-165.717h346.293v346.283c0 91.138-74.579 165.717-165.74 165.717zM166.44 225.2l-6.89-5.168 2.512-8.202c0.089-0.311-0.011-0.656-0.289-0.844-0.133-0.089-0.3-0.156-0.466-0.156-0.155 0-0.289 0.067-0.434 0.156l-7.113 4.868-7.113-4.868c-0.267-0.2-0.633-0.2-0.9 0-0.278 0.2-0.4 0.534-0.289 0.844l2.5 8.202-6.89 5.167c-0.267 0.2-0.367 0.544-0.278 0.867 0.111 0.311 0.4 0.523 0.722 0.534l8.646 0.167 2.845 8.101c0.111 0.3 0.4 0.523 0.733 0.523 0.322 0 0.623-0.222 0.733-0.523l2.834-8.101 8.646-0.167c0.333-0.011 0.633-0.222 0.733-0.534 0.133-0.322 0.034-0.667-0.244-0.867zM178.52 236.213c-0.567-0.4-1.333-0.4-1.878 0.034-0.567 0.389-0.8 1.123-0.589 1.778l5.212 17.059-14.358 10.768c-0.555 0.411-0.778 1.134-0.567 1.8 0.222 0.667 0.833 1.123 1.512 1.133l18.025 0.367 5.923 16.825c0.233 0.655 0.833 1.089 1.523 1.089s1.311-0.434 1.544-1.089l5.912-16.825 18.025-0.367c0.689-0.011 1.311-0.466 1.512-1.133 0.211-0.678-0.011-1.389-0.555-1.8l-14.358-10.768 5.212-17.059c0.211-0.667-0.022-1.389-0.589-1.778-0.289-0.222-0.623-0.322-0.956-0.322s-0.644 0.111-0.923 0.289l-14.814 10.191-14.814-10.19zM232.573 203.363l-9.613-7.202 3.489-11.413c0.122-0.433-0.022-0.933-0.4-1.189-0.2-0.156-0.423-0.223-0.655-0.223-0.211 0-0.434 0.067-0.611 0.2l-9.913 6.824-9.913-6.824c-0.378-0.255-0.889-0.255-1.267 0.022-0.367 0.255-0.534 0.755-0.4 1.189l3.489 11.413-9.601 7.202c-0.367 0.278-0.523 0.733-0.378 1.189s0.544 0.755 1.012 0.755l12.069 0.245 3.968 11.279c0.155 0.433 0.555 0.711 1.023 0.711 0.456 0 0.878-0.278 1.023-0.711l3.956-11.279 12.069-0.245c0.466 0 0.878-0.3 1.023-0.755 0.155-0.445-0.011-0.9-0.367-1.189zM391.212 108.736l-24.271-16.125c-0.822-0.567-1.8-0.867-2.8-0.867-1.478 0-2.8 0.689-3.601 1.889l-32.539 49.019c-0.022 0.022-0.022 0.022-0.045 0.034l-92.216 138.891c0 0 0 0.022 0 0.034s-0.022 0.011-0.022 0.034l-32.939 49.597c-1.356 2.045-0.667 4.801 1.556 6.268l24.271 16.114c2.145 1.433 5.101 0.955 6.401-1.034l32.962-49.642c0 0 0-0.011 0.011-0.022h0.011l92.183-138.802c0-0.011 0-0.022 0.022-0.034l32.584-49.087c1.344-2.078 0.644-4.812-1.567-6.268z" />
<glyph unicode="&#xe71e;" d="M346.283 480h-180.554c-91.149 0-165.729-74.579-165.729-165.717v-180.565c0-91.138 74.579-165.717 165.729-165.717h346.293v346.283c0 91.138-74.579 165.717-165.74 165.717zM172.441 318.45c0 4.468 3.634 8.101 8.101 8.101h161.684c4.467 0 8.101-3.623 8.101-8.101v-9.090c-1.067 0.389-2.167 0.633-3.323 0.633h-170.852c-1.289 0-2.545-0.278-3.712-0.733v9.19zM350.317 126.817c0-4.467-3.623-8.101-8.101-8.101h-161.673c-4.478 0-8.101 3.623-8.101 8.101v99.195c6.101 0.956 11.668 3.534 16.203 7.334v-52.809h145.481v53.176c4.49-3.912 10.068-6.624 16.192-7.657v-99.239zM355.851 241.847c-1.889 0-3.756 0.233-5.534 0.678-0.911 0.222-1.778 0.5-2.645 0.8-0.022 0.022-0.045 0.022-0.067 0.044-2.601 0.956-4.967 2.367-7.034 4.123-0.045 0.022-0.067 0.066-0.111 0.089-0.589 0.544-1.167 1.089-1.733 1.667-0.134 0.155-0.255 0.278-0.366 0.411-0.455 0.5-0.867 1.023-1.278 1.567-0.134 0.178-0.278 0.345-0.411 0.523-0.389 0.567-0.755 1.156-1.111 1.733-0.111 0.155-0.2 0.3-0.278 0.456-1.889 3.412-3 7.312-3 11.458 0-13.002-10.546-23.548-23.548-23.548-13.046 0-23.593 10.547-23.593 23.548 0-13.002-10.546-23.548-23.571-23.548s-23.582 10.547-23.582 23.548c0-13.002-10.547-23.548-23.571-23.548s-23.582 10.547-23.582 23.548c0-3.534-0.8-6.879-2.201-9.901v0c-0.378-0.8-0.789-1.589-1.256-2.345-0.011-0.022-0.022-0.044-0.034-0.066-1.867-3.012-4.389-5.601-7.39-7.535-0.022-0.022-0.066-0.022-0.089-0.066-0.689-0.434-1.411-0.822-2.145-1.167-0.1-0.066-0.2-0.133-0.289-0.178-0.711-0.322-1.423-0.633-2.167-0.889-0.1-0.022-0.2-0.089-0.289-0.111-2.411-0.845-5.001-1.3-7.69-1.3-13.024 0-23.582 10.547-23.582 23.548l32.45 34.862h170.852l32.45-34.862c0-12.98-10.579-23.537-23.604-23.537z" />
<glyph unicode="&#xe71f;" d="M217.949 261.451c-0.722 0.022-1.4 0.044-2.167 0.044-38.418 0-69.901-22.026-70.19-49.12l-0.011-0.711c-0.034-16.303 11.28-31.861 30.283-41.651 3.423-1.589 4.69-5.49 4.478-7.724-0.178-3.411-1.456-5.779-2.811-8.291l-0.478-0.911c-1.534-2.756-3.434-5.735-5.312-8.591 1.978 1.189 4 2.434 6.012 3.668 4.868 3 9.735 5.967 13.858 8.268l2.233 1.167c3.456 1.867 6.19 3.323 10.035 3.579 0.256 0 1.1 0 1.644-0.134 3.19-0.411 6.734-0.678 10.235-0.733 0.778-0.022 1.534-0.022 2.278-0.022 38.418 0 69.901 21.971 70.201 48.964v0.844c0.334 27.027-31.872 50.531-70.29 51.353zM346.283 480h-180.554c-91.149 0-165.729-74.579-165.729-165.717v-180.565c0-91.138 74.579-165.717 165.729-165.717h346.293v346.283c0 91.138-74.579 165.717-165.74 165.717zM302.353 208.897c-1.067-35.161-38.106-62.744-84.303-62.767l-2.567 0.022c-3.812 0.089-7.468 0.366-11.147 0.8-0.066-0.022-0.122-0.045-0.189-0.067-0.689-0.255-1.733-0.733-2.967-1.344-2.29-1.189-5.512-3.056-9.268-5.323-2.345-1.411-4.812-2.934-7.279-4.423-5.090-3.101-10.335-6.312-14.769-8.768l-1.923-1c-3.69-1.956-6.601-3.49-10.547-3.756h-0.155c-0.722 0-1.367 0.089-2.078 0.233l-0.489 0.111c-3.612 0.778-6.29 5.378-5.723 8.446 0.144 3.101 1.356 5.378 2.645 7.79l0.589 1.111c1.644 2.889 3.645 6.034 5.712 9.18 3.045 4.556 5.401 8.313 6.857 10.88-20.848 12.325-33.25 31.472-33.306 51.631 0 0.366 0 0.8 0.022 1.189 1.078 35.161 38.118 62.744 84.315 62.744l1.167 0.022c0.489 0 0.989-0.022 1.478-0.045 46.73-1.045 83.636-29.805 83.948-65.467 0-0.411 0-0.8-0.022-1.2zM358.14 218.666c1.756-2.69 3.467-5.356 4.823-7.724l0.522-1c1.134-2.089 2.167-4.057 2.345-7.057 0.478-2.389-1.933-6.534-5.334-7.29l-0.511-0.089c-0.366-0.111-0.955-0.178-1.589-0.178h-0.178c-3.389 0.223-5.856 1.522-8.99 3.167l-1.623 0.844c-3.823 2.101-8.246 4.823-12.524 7.423-2.101 1.3-4.19 2.578-6.19 3.779-2.978 1.8-5.757 3.411-7.879 4.49-0.978 0.5-1.822 0.889-2.434 1.134v0.022c-1.278-0.156-2.556-0.255-3.823-0.344l-2.779-0.233 0.156 5.19-0.223 1.167c-0.067 0.955-0.223 1.889-0.366 2.8l-0.545 3.645 4.168 0.3c0.867 0.044 1.756 0.089 2.601 0.2 0.067 0 0.522 0.066 1.045 0.066 3.49-0.222 5.834-1.478 8.813-3.078l1.822-0.956c3.456-1.933 7.445-4.368 11.435-6.813 1.322-0.822 2.667-1.623 3.99-2.434-1.322 2.045-2.556 4.012-3.579 5.834l-0.455 0.867c-1.156 2.145-2.233 4.19-2.389 7.202-0.2 1.889 0.911 5.379 4.079 6.834 15.847 8.157 25.327 21.203 25.305 34.839l0.011 0.611c-0.233 22.66-26.694 41.107-58.954 41.107-0.611 0-1.189 0-1.733-0.045-25.594-0.545-48.142-12.613-56.188-30.017l-0.822-1.8-1.945 0.411c-2.512 0.5-5.056 0.911-7.646 1.256l-3.179 0.411 1.189 2.978c9.157 22.915 36.54 38.785 68.167 39.485 0.389 0.022 0.867 0.022 1.322 0.022h0.822c39.262 0 70.757-23.459 71.668-53.442 0.022-0.278 0.022-0.678 0.022-0.978-0.045-17.081-10.457-33.294-28.016-43.797 1.245-2.123 3.156-5.167 5.59-8.813z" />
<glyph unicode="&#xe720;" d="M199.491 148.157c-10.441-4.519-17.341-9.606-18.933-14.002-1.892-5.198-1.781-10.763 0.323-15.649 2.059-4.764 5.766-8.348 10.452-10.039 4.308-1.591 9.083-1.413 13.446 0.478 5.198 2.237 9.339 6.7 11.364 12.243 2.371 6.5-3.25 20.157-8.971 29.93-2.115-0.745-4.797-1.748-7.68-2.961zM164.252 241.308c-5.41 2.327-11.498 2.371-16.696 0.133-4.363-1.892-7.758-5.243-9.561-9.461-1.981-4.585-1.915-9.739 0.144-14.503 2.103-4.887 6.089-8.804 11.164-10.974 4.285-1.848 12.722-0.3 23.162 4.219 2.871 1.236 5.443 2.505 7.435 3.539-3.195 10.875-9.283 24.309-15.649 27.047zM343.218 483.061h-180.836c-91.292 0-163.005-75.542-163.005-166.823v-180.848c0-91.281 71.703-164.329 163.005-164.329h349.006v345.177c0 91.281-76.867 166.823-168.17 166.823zM335.683 171.565c-44.466 4.519-98.827 16.651-98.827 16.651l-19.634-28.695c4.797-7.847 16.206-28.739 11.086-42.786-3.239-8.871-9.94-16.039-18.387-19.701-7.401-3.195-15.583-3.462-23.017-0.757-8.070 2.961-14.436 9.027-17.909 17.085-3.428 7.959-3.639 16.896-0.601 25.221 2.939 8.048 11.676 15.26 25.978 21.437 3.54 1.547 6.79 2.716 9.272 3.562l12.878 29.017-29.952 10.519c-2.315-1.236-5.399-2.783-8.949-4.329-14.303-6.178-25.544-7.591-33.424-4.219-8.125 3.495-14.503 9.806-17.942 17.742-3.495 8.070-3.55 16.874-0.156 24.765 3.117 7.257 8.916 13.045 16.328 16.239 8.448 3.629 18.265 3.607 26.935-0.133 13.746-5.888 21.125-28.516 23.552-37.387l34.349-5.365c0 0 28.439 47.872 55.63 83.344 27.192 35.484 49.219 17.308 49.219 17.308l-74.452-100.719 124.361-14.848c0 0-1.87-28.471-46.336-23.952z" />
<glyph unicode="&#xe721;" d="M346.268 480h-180.536c-91.157 0-165.732-74.575-165.732-165.721v-180.569c0-91.135 74.575-165.721 165.732-165.721h346.279v346.29c-0.011 91.146-74.575 165.721-165.743 165.721zM239.451 311.589c0-0.123-0.022-0.244-0.034-0.344 0-0.123 0.034-0.211 0.034-0.322v-20.972c0-10.158-12.003-25.929-22.061-27.34v-191.817c0-9.069-7.346-16.426-16.393-16.426-9.080 0-16.427 7.346-16.427 16.426v191.817c-10.047 1.411-22.039 17.183-22.039 27.34v20.961c0 0.133 0.022 0.223 0.022 0.356 0 0.089-0.022 0.2-0.022 0.322v69.996c0 3.923 3.19 7.113 7.113 7.113s7.113-3.189 7.113-7.113v-56.892c0.055 0.022 0.089 0.044 0.155 0.055 0.733-3.312 4.224-5.813 8.413-5.813 4.434 0 8.013 2.8 8.469 6.368h0.089v56.282c0 3.923 3.19 7.113 7.124 7.113 3.923 0 7.102-3.189 7.102-7.113v-56.282h0.078c0.467-3.567 4.067-6.368 8.491-6.368 4.201 0 7.68 2.5 8.402 5.813 0.066-0.011 0.123-0.034 0.178-0.055v56.904c0 3.923 3.19 7.113 7.124 7.113 3.923 0 7.102-3.19 7.102-7.113v-70.007zM337.154 279.659v-206.498c0-10.88-7.702-19.683-17.216-19.683-9.524 0-17.238 8.813-17.238 19.683v207.609c-17.427 7.313-29.675 24.551-29.675 44.645 0 26.718 21.683 72.541 48.401 72.541s48.391-45.823 48.391-72.541c0-21.239-13.648-39.233-32.664-45.757z" />
<glyph unicode="&#xe722;" d="M163.373 315.149h195.634v-140.913h-195.634v140.913zM346.283 480h-180.554c-91.149 0-165.729-74.579-165.729-165.717v-180.565c0-91.138 74.579-165.717 165.729-165.717h346.293v346.283c0 91.138-74.579 165.717-165.74 165.717zM290.195 122.649h-57.276c-2.378 0-4.29 1.567-4.29 3.49l8.702 26.572h48.453l8.724-26.572c0.011-1.933-1.923-3.49-4.312-3.49zM371.009 174.714c0-8.613-7.012-15.625-15.625-15.625h-187.621c-8.635 0-15.625 7.012-15.625 15.625v135.035c0 8.612 6.99 15.625 15.625 15.625h187.611c8.613 0 15.625-7.013 15.625-15.625v-135.035z" />
<glyph unicode="&#xe723;" d="M237.873 314.219h-80.989v53.144c0 19.924 13.225 24.6 22.542 24.6s57.191 0 57.191 0v87.724l-78.79 0.314c-87.374 0-107.299-65.427-107.299-107.299v-58.483h-50.526v-90.411h50.526c0-116.022 0-255.808 0-255.808h106.357c0 0 0 141.181 0 255.808h71.742l9.247 90.411z" horiz-adv-x="238" />
<glyph unicode="&#xe724;" d="M346.283 480h-180.554c-91.149 0-165.729-74.579-165.729-165.717v-180.565c0-91.138 74.579-165.717 165.729-165.717h346.293v346.283c0 91.138-74.579 165.717-165.74 165.717zM243.343 175.803c0 0.089 0.022 0.2 0.022 0.278s-0.022 0.156-0.022 0.233v16.103c0 7.813 9.235 19.925 16.958 21.015v147.448c0 6.968 5.646 12.614 12.602 12.614 6.979 0 12.613-5.646 12.613-12.614v-147.448c7.724-1.089 16.947-13.202 16.947-21.015v-16.103c0-0.111-0.022-0.178-0.022-0.278 0-0.067 0.022-0.156 0.022-0.233v-53.81c0-3-2.456-5.445-5.467-5.445-3 0-5.445 2.456-5.445 5.445v43.741c-0.045-0.022-0.067-0.022-0.134-0.045-0.567 2.545-3.234 4.467-6.468 4.467-3.411 0-6.156-2.145-6.501-4.878h-0.078v-43.286c0-3-2.456-5.445-5.467-5.445s-5.445 2.456-5.445 5.445v43.286h-0.067c-0.356 2.734-3.134 4.878-6.524 4.878-3.245 0-5.912-1.933-6.457-4.467-0.044 0.022-0.089 0.022-0.144 0.045v-43.741c0-3-2.445-5.445-5.468-5.445-3.012 0-5.457 2.456-5.457 5.445v53.81zM272.903 74.529c-43.108 0-116.076 7.012-116.076 33.361 0 17.214 31.716 25.505 58.321 29.45 3.712 0.522 7.202-2.022 7.757-5.757 0.544-3.734-2.023-7.202-5.756-7.746-36.995-5.49-46.331-14.125-46.663-15.981 0.967-5.378 33.928-19.704 102.418-19.704 68.501 0 101.473 14.325 102.429 19.748-0.322 1.845-9.858 10.613-47.642 16.058-3.734 0.545-6.312 3.99-5.79 7.746 0.545 3.734 3.99 6.334 7.746 5.779 27.072-3.912 59.344-12.224 59.344-29.583-0.011-26.36-72.957-33.373-116.087-33.373z" />
<glyph unicode="&#xe725;" d="M346.267 480h-180.546c-91.145 0-165.721-74.587-165.721-165.721v-180.557c0-91.134 74.576-165.721 165.721-165.721h346.279v346.279c0 91.134-74.577 165.721-165.732 165.721zM264.112 66.424c0-5.279-4.312-9.568-9.568-9.568h-3.378c-5.245 0-9.557 4.3-9.557 9.568l-0.011 172.423c0 5.256 4.311 9.557 9.568 9.557h3.378c5.256 0 9.568-4.3 9.568-9.557v-172.423zM296.194 306.122c0-20.070-19.68-36.404-43.906-36.404-24.192 0-43.894 16.325-43.883 36.404l-0.011 79.788c0 0 1.289 4.723 7.423 4.723 6.123 0 7.412-4.723 7.412-4.723v-68.898c0.322-4.845 0.466-14.447 10.724-14.447 0 0 8.724-1.856 8.724 17.714l0.089-0.055v65.364c0 0 1.1 5.557 9.524 5.557s9.545-5.557 9.545-5.557v-67.597c0.7-17.747 10.457-15.424 10.457-15.424 11.524-1.434 8.968 17.158 8.968 17.158l0.111-0.545v66.731c0 0 0.455 4.723 7.201 4.723 6.723 0 7.623-4.723 7.623-4.723v-79.788z" />
<glyph unicode="&#xe726;" d="M558.111 272.116h-85.942v85.913c0 6.575-5.307 11.882-11.852 11.882h-24.471c-6.575 0-11.911-5.337-11.911-11.882v-85.942h-85.913c-6.575 0-11.882-5.337-11.882-11.911v-24.471c0-6.575 5.337-11.882 11.882-11.882h85.913v-85.972c0-6.575 5.366-11.882 11.911-11.882h24.471c6.575 0 11.852 5.337 11.852 11.882v86.001h85.942c6.574 0 11.881 5.307 11.881 11.881v24.471c0 6.575-5.337 11.911-11.881 11.911zM269.327 196.788c-18.102 12.796-34.524 31.547-34.849 37.326 0 10.496 0.944 15.537 24.5 33.876 30.456 23.851 47.261 55.221 47.261 88.331 0 30.043-9.199 56.695-24.825 75.447h12.118c2.536 0 4.953 0.766 6.988 2.24l33.817 24.471c4.216 3.008 5.926 8.373 4.334 13.297-1.592 4.894-6.162 8.226-11.292 8.226h-151.189c-16.57 0-33.345-2.919-49.826-8.609-55.133-19.016-93.638-65.953-93.638-114.158 0-68.283 52.892-120.055 123.592-121.676-1.386-5.395-2.064-10.732-2.064-15.95 0-10.526 2.683-20.49 8.137-30.132-0.619 0-1.268 0-1.946 0-67.368 0-128.25-33.080-151.335-82.287-6.044-12.796-9.11-25.738-9.11-38.505 0-12.442 3.184-24.412 9.464-35.645 14.476-25.974 45.699-46.111 87.829-56.755 21.758-5.514 45.109-8.284 69.402-8.284 21.817 0 42.603 2.83 61.826 8.373 59.939 17.395 98.679 61.531 98.679 112.448-0.029 48.882-15.744 78.13-57.875 107.966zM78.336 84.929c0 35.527 45.139 66.75 96.616 66.75l1.386-0.029c11.203-0.147 22.112-1.798 32.46-4.923 3.508-2.447 6.928-4.776 10.201-6.988 23.852-16.245 39.595-26.977 43.959-44.195 1.032-4.305 1.563-8.639 1.563-12.854 0-44.284-33.021-66.75-98.119-66.75-49.384 0-88.066 30.279-88.066 68.99zM125.155 420.769c8.049 9.198 18.603 14.034 30.427 14.034l1.327-0.029c33.434-0.973 65.423-38.21 71.29-82.995 3.302-25.090-2.27-48.677-14.889-63.034-8.049-9.199-18.457-14.034-30.78-14.034v0h-0.53c-32.756 0.973-65.393 39.625-71.231 84.38-3.272 25.001 1.946 47.497 14.388 61.678z" horiz-adv-x="570" />
<glyph unicode="&#xe727;" d="M512.023 314.283c0 91.138-74.579 165.717-165.74 165.717h-180.554c-91.149 0-165.729-74.579-165.729-165.717v-180.565c0-91.138 74.579-165.717 165.729-165.717h88.349l-0.011 146.726c0 8.313 6.813 15.125 15.136 15.125h5.323c8.335 0 15.147-6.813 15.147-15.125v-146.726h222.35v346.283zM340.404 214.154c0-31.728-31.15-57.588-69.423-57.588-38.262 0-69.423 25.827-69.401 57.588l-0.022 126.155c0 0 2.045 7.468 11.725 7.468 9.691 0 11.736-7.468 11.736-7.468v-108.941c0.511-7.646 0.733-22.837 16.97-22.837 0 0 13.791-2.934 13.791 28.016l0.144-0.111v103.362c0 0 1.733 8.791 15.058 8.791 13.313 0 15.091-8.791 15.091-8.791v-106.897c0.022-26.671 16.536-24.371 16.536-24.371 16.947 0 14.347 26.282 14.347 26.282v105.496c0 0 0.711 7.468 11.368 7.468s12.069-7.468 12.069-7.468v-126.155z" />
<glyph unicode="&#xe728;" d="M346.301 483.061h-180.803c-91.292 0-166.111-79.271-166.111-170.541v-180.825c0-91.269 74.819-160.635 166.111-160.635h345.901v341.459c-0.011 91.281-73.817 170.541-165.097 170.541zM255.911 126.965c-52.469 0-95.154 42.685-95.154 95.143s42.685 95.143 95.154 95.143c52.457 0 95.132-42.674 95.132-95.143s-42.674-95.143-95.132-95.143zM255.911 302.581c-44.377 0-80.484-36.085-80.484-80.462s36.107-80.484 80.484-80.484c44.377 0 80.462 36.107 80.462 80.484s-36.085 80.462-80.462 80.462zM294.522 215.93h-40.849c-3.095 0-6.445-0.89-7.691 1.725-0.656 0.935-1.725-0.656-1.725 0.567v60.772c0 3.206 2.371 5.821 5.565 5.821 3.216 0 5.565-2.615 5.565-5.821v-51.946h39.135c4.285 0 7.736-1.28 7.736-5.565s-3.45-5.554-7.736-5.554z" />
<glyph unicode="&#xe729;" d="M413.051 480h-314.103c-54.553 0-98.949-44.396-98.949-98.949v-314.137c0-54.553 44.396-98.949 98.949-98.949h314.103c54.587 0 98.983 44.396 98.983 98.949v314.137c0 54.553-44.362 98.949-98.983 98.949zM441.483 420.998l11.277 0.034v-86.788l-86.483-0.272-0.305 86.788 75.511 0.238zM182.952 276.565c16.373 22.69 43.004 37.569 73.065 37.569s56.692-14.878 73.065-37.569c10.666-14.844 17.052-32.949 17.052-52.582 0-49.661-40.456-90.083-90.117-90.083-49.695 0-90.117 40.422-90.117 90.083 0 19.633 6.352 37.738 17.052 52.582zM462.135 66.949c0-27.072-22.012-49.050-49.084-49.050h-314.103c-27.038 0-49.050 21.978-49.050 49.050v209.617h76.428c-6.59-16.237-10.326-33.968-10.326-52.583 0-77.142 62.841-139.982 140.016-139.982s140.016 62.841 140.016 139.982c0 18.581-3.736 36.346-10.36 52.582h76.462v-209.616z" />
<glyph unicode="&#xe72a;" d="M159.721 131.985l19-19 8.726 15.493-12.244 12.243zM343.218 483.061h-180.836c-91.292 0-163.005-83.011-163.005-174.302v-180.859c0-91.281 71.703-156.85 163.005-156.85h349.006v337.697c0 91.303-76.867 174.313-168.17 174.313zM333.323 191.043l-105.238-52.068 23.363-23.351c3.261-3.261 3.273-8.582 0-11.843l-3.918-3.929c-1.57-1.58-3.684-2.449-5.922-2.449-2.249 0-4.352 0.868-5.933 2.46l-27.203 27.203c-0.389 0.401-0.734 0.813-1.047 1.269l-10.452-10.452-10.997-16.573c-1.403-2.103-3.684-3.473-6.2-3.74-0.279-0.022-0.556-0.034-0.846-0.034-2.226 0-4.386 0.89-5.988 2.471l-26.446 26.446c-1.792 1.803-2.683 4.308-2.427 6.812 0.256 2.526 1.625 4.808 3.751 6.211l16.328 10.841 11.52 11.509 61.829 125.017c1.213 2.438 3.529 4.151 6.211 4.597 2.704 0.445 5.421-0.445 7.346-2.371l84.48-84.48c1.914-1.914 2.805-4.652 2.36-7.346-0.423-2.693-2.126-4.998-4.575-6.2zM341.738 238.692c-0.546-0.546-1.168-1.047-1.848-1.469-3.284-2.059-6.678-1.513-7.546 1.202-4.007 12.466-10.541 23.274-19.211 31.945-8.615 8.615-19.322 15.149-31.666 19.077-2.738 0.868-3.284 4.252-1.236 7.502 2.026 3.295 5.899 5.264 8.626 4.407 13.512-4.285 25.132-11.386 34.505-20.758 9.428-9.439 16.517-21.192 20.914-34.704 0.701-2.181-0.401-5.065-2.538-7.202zM380.327 240.584c-0.712-0.713-1.558-1.335-2.471-1.837-3.406-1.758-6.556-0.802-7.057 2.126-4.118 23.429-14.169 43.097-29.062 57.978-14.87 14.87-34.526 24.91-57.956 29.040l0.022 0.022c-2.938 0.501-3.896 3.662-2.126 7.012 1.725 3.339 5.51 5.676 8.459 5.154 24.999-4.419 46.036-15.093 61.897-30.976 15.883-15.872 26.569-36.92 30.987-61.908 0.345-2.103-0.757-4.686-2.693-6.612z" />
<glyph unicode="&#xe72b;" d="M287.688 303.071l13.101 16.328-4.151 12.867c-30.587-31.989-77.056-32.245-96.823-30.686l7.881-15.371 7.035-3.584c13.557-1.436 39.302-0.579 71.691 16.896 0.034 1.28 0.445 2.538 1.269 3.55zM292.931 337.119c-57.077 19.767-85.537-15.961-93.897-29.373 18.142-1.469 64.724-1.736 93.897 29.373zM317.195 252.204c-20.346 8.56-28.305 27.614-30.286 40.748-24.921-12.989-45.791-16.64-60.594-16.918 18.232-26.813 6.957-47.182 0.323-55.541 14.314-5.699 51.422-13.824 90.557 31.71zM352.656 483.061h-180.825c-91.292 0-172.444-80.084-172.444-171.364v-180.836c0-91.269 81.152-159.799 172.444-159.799h350.687v340.636c0 91.281-78.581 171.364-169.861 171.364zM339.178 103.858c-0.546-1.058-1.67-1.725-2.938-1.625l-26.201 9.26-17.575-21.76c-0.067-0.178-0.134-0.345-0.223-0.512-0.656-1.269-2.103-1.925-3.517-1.514-1.591 0.467-2.493 2.126-2.014 3.728l17.207 21.938-24.286 8.626c-1.647 0.144-2.894 1.591-2.738 3.239 0.134 1.659 1.591 2.894 3.239 2.749l24.832-9.082-20.603 69.042c-14.625-3.45-38.79-4.797-58.903 1.425-1.87 0.579-3.339 2.026-3.94 3.885l-8.326 25.778c-0.757 2.304-0.034 4.841 1.792 6.411 1.97 1.737 18.354 17.363 2.526 42.251l-17.018 8.704c-1.147 0.579-2.037 1.481-2.605 2.604l-12.255 23.875c-0.857 1.67-0.88 3.628-0.089 5.332 0.389 0.69 34.537 70.578 116.803 38.267 1.67-0.656 2.972-2.048 3.517-3.74l7.324-22.75c0.656-1.925 0.233-4.018-1.002-5.61l-13.68-17.040c0.646-6.823 4.474-28.761 27.403-35.573 1.892-0.567 3.417-2.026 4.018-3.918l7.346-22.739c0.478-1.525 0.345-3.161-0.389-4.575-0.022-0.078-0.067-0.144-0.111-0.222-0.223-0.4-15.238-26.357-45.423-39.079l19.767-68.909 15.238 19c0.478 1.603 2.148 2.493 3.762 2.026 1.591-0.467 2.482-2.148 2.026-3.74l-18.109-22.517 22.717-8.871c1.647-0.134 2.872-1.603 2.738-3.25-0.034-0.401-0.144-0.779-0.312-1.113zM324.998 234.051l-4.263 13.123c-38.267-43.632-75.843-38.901-93.296-33.191l4.53-14.013c56.453-15.76 86.461 24.041 93.028 34.082z" horiz-adv-x="523" />
<glyph unicode="&#xe72c;" d="M210.178 480c-139.699 0-210.178-100.188-210.178-183.707 0-50.573 19.156-95.571 60.227-112.359 6.715-2.758 12.771-0.090 14.719 7.344 1.349 5.156 4.587 18.167 5.995 23.623 1.978 7.344 1.199 9.953-4.197 16.398-11.871 13.94-19.426 32.047-19.426 57.648 0 74.317 55.58 140.838 144.796 140.838 78.963 0 122.341-48.265 122.341-112.688 0-84.808-37.503-156.397-93.233-156.397-30.728 0-53.781 25.452-46.406 56.689 8.844 37.263 25.961 77.464 25.961 104.385 0 24.043-12.921 44.128-39.661 44.128-31.447 0-56.749-32.526-56.749-76.115 0-27.76 9.383-46.557 9.383-46.557s-32.167-136.371-37.832-160.264c-11.242-47.546-1.709-105.853-0.87-111.73 0.48-3.508 4.947-4.347 6.985-1.709 2.908 3.777 40.351 50.004 53.091 96.26 3.627 13.070 20.685 80.791 20.685 80.791 10.222-19.486 40.081-36.663 71.828-36.663 94.522 0 158.675 86.188 158.675 201.575 0.060 87.267-73.807 168.508-186.136 168.508z" horiz-adv-x="397" />
<glyph unicode="&#xe72d;" d="M600.937-32h-533.648c-22.008 0-39.297 6.735-51.293 19.964-16.687 18.341-16.296 42.093-15.905 47.926v267.41c0 54.901 46.934 71.438 71.769 72.52l110.885 0.812c5.502 94.649 55.322 102.707 61.275 103.308l1.894 0.060h182.142c55.983 0 75.978-58.57 80.036-103.308h92.303c49.098 0 65.184-42.904 66.837-65.605l0.030-1.263v-274.656c0-48.076-42.845-64.913-65.485-67.108l-0.842-0.060zM35.599 33.454c0 0-0.872-13.38 6.885-21.768 4.991-5.412 13.349-8.148 24.835-8.148h531.784c6.946 0.902 32.622 5.983 32.622 31.599v273.875c-0.631 6.314-4.901 32.111-31.269 32.111h-127l-0.060 17.769c0 0.842-1.474 85.539-45.31 85.539h-180.638c-3.006-1.053-29.585-11.966-29.585-85.508v-17.649l-145.101-1.023c-5.563-0.361-37.072-3.818-37.072-36.952l-0.090-269.846zM330.76 33.755c-79.796 0-144.679 64.943-144.679 144.74 0 79.766 64.913 144.679 144.679 144.679 79.796 0 144.709-64.883 144.709-144.679s-64.913-144.74-144.709-144.74v0zM330.76 285.080c-58.75 0-106.585-47.806-106.585-106.555 0-58.779 47.836-106.585 106.585-106.585s106.555 47.805 106.555 106.585c0 58.75-47.805 106.555-106.555 106.555v0zM577.455 265.808c0-15.891-12.883-28.774-28.774-28.774s-28.774 12.882-28.774 28.774c0 15.891 12.883 28.774 28.774 28.774s28.774-12.882 28.774-28.774z" horiz-adv-x="668" />
<glyph unicode="&#xe72e;" d="M491.123 13.351l-63.521 95.661c0 0.022 0 0.043-0.043 0.065l-243.905 367.286c-2.512 3.877-8.294 4.808-12.475 2.014l-47.299-31.403c-4.31-2.88-5.674-8.251-3.010-12.236l64.192-96.656c0-0.043 0.043-0.043 0.043-0.065s0-0.065 0-0.065l179.734-270.673c0.022-0.022 0.043-0.022 0.043-0.065l63.456-95.531c1.516-2.317 4.115-3.682 7.017-3.682 1.928 0 3.834 0.584 5.457 1.69l47.278 31.425c4.31 2.859 5.674 8.187 3.032 12.236zM195.89 355.341l-54.837 82.579 31.836 21.116 54.815-82.558-31.815-21.137zM439.101-10.971l-54.1 81.539 31.793 21.116 54.121-81.496-31.815-21.159zM133.084 249.004c0.649 0 1.321 0.216 1.863 0.628 1.105 0.758 1.537 2.188 1.148 3.465l-10.157 33.265 27.981 20.986c1.061 0.802 1.494 2.209 1.083 3.509-0.368 1.278-1.581 2.166-2.923 2.188l-35.128 0.714-11.522 32.789c-0.455 1.256-1.646 2.123-3.010 2.123s-2.534-0.866-2.967-2.123l-11.543-32.789-35.128-0.714c-1.343-0.022-2.534-0.909-2.967-2.209-0.39-1.3 0.022-2.707 1.126-3.508l27.981-20.986-10.157-33.244c-0.412-1.299 0.043-2.707 1.148-3.465 1.061-0.845 2.555-0.845 3.66-0.065l28.847 19.859 28.869-19.859c0.542-0.346 1.148-0.563 1.798-0.563zM177.655 189.359l-23.52 0.476-7.71 21.982c-0.281 0.844-1.105 1.386-1.993 1.386-0.91 0-1.69-0.541-1.993-1.386l-7.732-21.961-23.52-0.498c-0.909 0-1.689-0.584-1.971-1.473s0.022-1.776 0.737-2.317l18.712-14.034-6.8-22.242c-0.26-0.844 0.065-1.819 0.779-2.317 0.737-0.541 1.733-0.541 2.469-0.043l19.318 13.298 19.319-13.298c0.346-0.26 0.78-0.39 1.191-0.39 0.455 0 0.888 0.13 1.278 0.433 0.737 0.498 1.018 1.473 0.78 2.317l-6.8 22.242 18.733 14.034c0.714 0.541 1.018 1.43 0.737 2.317-0.303 0.888-1.083 1.473-2.014 1.473zM49.141 230.833l-16.849 0.325-5.523 15.788c-0.238 0.584-0.802 1.018-1.43 1.018-0.649 0-1.213-0.433-1.43-1.018l-5.566-15.788-16.849-0.325c-0.628-0.022-1.213-0.433-1.407-1.040-0.173-0.628 0.021-1.321 0.541-1.69l13.428-10.070-4.873-15.983c-0.216-0.606 0.021-1.278 0.563-1.646 0.52-0.39 1.213-0.39 1.754 0l13.861 9.486 13.861-9.486c0.282-0.173 0.541-0.303 0.845-0.303 0.325 0 0.65 0.13 0.91 0.303 0.52 0.39 0.736 1.039 0.563 1.646l-4.938 15.983 13.428 10.071c0.541 0.39 0.736 1.061 0.541 1.69s-0.779 1.018-1.429 1.040z" horiz-adv-x="493" />
<glyph unicode="&#xe72f;" d="M469.125 120.277h-358.408v130.101c-11.171-9.363-24.887-15.715-39.917-18.070v-244.378c0-11.006 8.953-19.959 19.959-19.959h398.325c11.006 0 19.959 8.925 19.959 19.959v244.488c-15.14 2.573-28.829 9.254-39.945 18.863v-131.005zM500.857 439.207c2.848 0 5.585-0.575 8.214-1.56v22.395c0 11.034-8.952 19.959-19.986 19.959h-398.325c-11.006 0-19.959-8.925-19.959-19.959v-22.669c2.874 1.123 5.969 1.834 9.145 1.834h420.913zM500.857 415.25h-420.913l-79.945-85.885c0-32.033 26.009-58.014 58.096-58.014 6.625 0 13.005 1.123 18.946 3.203 0.246 0.055 0.493 0.219 0.712 0.274 1.835 0.63 3.587 1.397 5.339 2.191 0.219 0.11 0.493 0.274 0.712 0.438 1.807 0.849 3.587 1.807 5.284 2.875 0.082 0.11 0.165 0.11 0.246 0.164 7.392 4.764 13.607 11.115 18.206 18.563 0.028 0.055 0.055 0.11 0.082 0.137 1.15 1.889 2.163 3.805 3.094 5.777v0c3.45 7.447 5.448 15.688 5.448 24.394 0-32.032 26.010-58.014 58.096-58.014s58.069 25.982 58.069 58.014c0-32.032 26.010-58.014 58.096-58.014s58.096 25.982 58.096 58.014c0-32.032 25.982-58.014 58.069-58.014s58.069 25.982 58.069 58.014c0-10.212 2.683-19.849 7.365-28.227 0.247-0.384 0.466-0.739 0.657-1.123 0.904-1.451 1.779-2.875 2.793-4.271 0.301-0.438 0.657-0.848 0.986-1.287 0.986-1.341 2.053-2.628 3.149-3.861 0.301-0.329 0.603-0.63 0.931-1.013 1.397-1.451 2.793-2.793 4.271-4.107 0.082-0.055 0.164-0.165 0.219-0.219 5.12-4.326 10.952-7.803 17.358-10.158 0.082-0.055 0.137-0.055 0.192-0.109 2.108-0.739 4.271-1.451 6.488-1.971h0.027c4.381-1.068 8.925-1.67 13.634-1.67 32.060 0 58.096 25.982 58.096 58.014l-79.972 85.886z" horiz-adv-x="581" />
<glyph unicode="&#xe730;" d="M218.953 353.853c-1.231 0.056-2.489 0.112-3.748 0.112l-2.937-0.056c-116.273 0-209.499-69.423-212.212-157.922-0.056-0.979-0.056-2.098-0.056-3.021 0.112-50.738 31.327-98.931 83.828-129.951-3.636-6.433-9.566-15.887-17.258-27.383-5.203-7.916-10.237-15.832-14.377-23.103l-1.483-2.797c-3.245-6.070-6.294-11.803-6.657-19.608-1.426-7.692 5.315-19.272 14.405-21.257l1.23-0.279c1.79-0.392 3.413-0.587 5.23-0.587h0.391c9.93 0.644 17.258 4.531 26.544 9.454l4.839 2.517c11.16 6.182 24.391 14.265 37.173 22.068 6.238 3.776 12.419 7.58 18.321 11.132 9.454 5.678 17.565 10.377 23.327 13.398 3.105 1.538 5.734 2.741 7.468 3.385 0.168 0.056 0.308 0.112 0.476 0.168 9.286-1.091 18.46-1.79 28.054-2.014l6.461-0.056c116.301 0.056 209.499 69.478 212.184 157.977 0.084 0.979 0.084 1.958 0.084 3.049-0.783 89.786-93.673 162.145-211.289 164.774zM114.791 45.534l1.203 2.293c3.441 6.349 6.657 12.279 7.076 20.866 0.531 5.622-2.657 15.467-11.272 19.44-47.801 24.642-76.303 63.8-76.219 104.834l0.028 1.79c0.727 68.192 79.968 123.63 176.661 123.63 1.93 0 3.636-0.056 5.454-0.112 96.722-2.070 177.725-61.227 176.97-129.251v-2.126c-0.811-67.969-80.024-123.238-176.718-123.238-1.874 0-3.776 0-5.734 0.056-8.81 0.168-17.762 0.811-25.761 1.846-1.37 0.336-3.496 0.336-4.139 0.336-9.706-0.644-16.559-4.308-25.257-9.007l-5.622-2.937c-10.377-5.79-22.628-13.286-34.879-20.81-5.063-3.104-10.153-6.238-15.132-9.231 4.671 7.188 9.482 14.685 13.342 21.621zM584.052 188.659l-1.37 2.517c-3.385 5.957-7.664 12.671-12.139 19.44-6.125 9.175-10.937 16.838-14.013 22.18 44.165 26.432 70.402 67.241 70.514 110.231 0 0.755 0 1.734-0.056 2.462-2.293 75.464-81.506 134.51-180.354 134.51h-2.070c-1.175 0-2.377 0-3.356-0.056-79.576-1.734-148.495-41.676-171.543-99.379l-3.021-7.468 8-1.035c6.517-0.867 12.923-1.902 19.243-3.161l4.895-1.035 2.070 4.531c20.25 43.802 76.975 74.178 141.391 75.549 1.37 0.112 2.853 0.112 4.392 0.112 81.199 0 147.74-46.431 148.383-103.463l0.028-1.538c0.084-34.32-23.831-67.129-63.689-87.688-7.915-3.664-10.74-12.447-10.237-17.202 0.419-7.58 3.105-12.726 5.986-18.125l1.202-2.182c2.545-4.587 5.65-9.566 8.951-14.685-3.328 2.014-6.657 4.055-10.042 6.125-10.042 6.182-20.055 12.279-28.781 17.146l-4.643 2.377c-7.468 4.055-13.37 7.216-22.18 7.748-1.286 0-2.433-0.168-2.601-0.168-2.126-0.28-4.363-0.392-6.573-0.504l-10.489-0.755 1.399-9.174c0.392-2.293 0.755-4.643 0.923-7.048l0.56-2.937-0.392-13.062 6.964 0.587c3.216 0.224 6.405 0.503 9.65 0.867v-0.056c1.538-0.587 3.692-1.594 6.154-2.853 5.315-2.741 12.279-6.769 19.775-11.3 5.034-2.993 10.321-6.238 15.636-9.51 10.74-6.545 21.845-13.398 31.467-18.685l4.139-2.126c7.86-4.139 14.069-7.44 22.6-7.971h0.419c1.65 0 3.049 0.168 4 0.447l1.259 0.224c8.643 1.902 14.629 12.335 13.426 18.349-0.447 7.552-3.105 12.503-5.874 17.762z" horiz-adv-x="627" />
<glyph unicode="&#xe731;" d="M482.413 469.236c0 0-50.961 42.051-113.87-40.042-62.883-82.067-128.702-192.821-128.702-192.821l-79.44 12.412c-5.588 20.523-22.686 72.874-54.489 86.496-20.060 8.652-42.772 8.704-62.316 0.309-17.15-7.391-30.592-20.755-37.776-37.545-7.854-18.257-7.725-38.626 0.361-57.295 7.957-18.36 22.712-32.935 41.51-41.046 18.232-7.803 44.239-4.532 77.329 9.76 8.189 3.579 15.347 7.133 20.703 10.017l69.295-24.334-29.819-67.157c-5.743-1.957-13.262-4.687-21.451-8.24-33.089-14.291-53.304-30.978-60.102-49.596-7.004-19.262-6.54-39.939 1.391-58.351 8.034-18.669 22.763-32.704 41.433-39.527 17.175-6.232 36.128-5.64 53.252 1.751 19.571 8.446 35.047 25.055 42.54 45.579 11.845 32.498-14.549 80.832-25.648 98.986l45.424 66.385c0 0 125.74-28.068 228.64-38.523 102.874-10.455 107.2 55.416 107.2 55.416l-287.712 34.351 172.246 233.017zM130.298 245.232c-4.609-2.421-10.558-5.331-17.201-8.214-24.154-10.455-43.673-14.008-53.587-9.733-11.742 5.022-20.961 14.060-25.828 25.39-4.79 11.022-4.919 22.918-0.361 33.553 4.172 9.76 12.026 17.511 22.12 21.888 12.025 5.176 26.111 5.073 38.626-0.309 14.755-6.361 28.815-37.442 36.231-62.574zM214.143 29.879c-4.686-12.824-14.266-23.124-26.292-28.325-10.095-4.377-21.142-4.789-31.107-1.108-10.841 3.914-19.416 12.231-24.18 23.227-4.867 11.305-5.15 24.18-0.747 36.206 3.683 10.171 19.648 21.94 43.802 32.394 6.643 2.807 12.875 5.125 17.768 6.849 13.236-22.635 26.24-54.205 20.755-69.243z" horiz-adv-x="598" />
<glyph unicode="&#xe732;" d="M103.778 466.241c-5.847 0-10.588-4.724-10.588-10.554v-84.568c-0.066 0.033-0.148 0.066-0.248 0.083-1.073-4.922-6.227-8.639-12.487-8.639-6.558 0-11.909 4.163-12.603 9.464h-0.115v83.66c0 5.83-4.724 10.554-10.555 10.554s-10.571-4.724-10.571-10.554v-83.66h-0.165c-0.66-5.302-5.979-9.464-12.586-9.464-6.227 0-11.397 3.733-12.487 8.639-0.099 0-0.148-0.050-0.231-0.066v84.568c0 5.831-4.741 10.555-10.571 10.555-5.83-0.017-10.571-4.74-10.571-10.571v-104.042c0-0.165 0.033-0.331 0.033-0.462 0-0.215-0.033-0.347-0.033-0.545v-31.151c0-15.096 17.838-38.534 32.77-40.632v-285.103c0-13.478 10.918-24.413 24.413-24.413 13.445 0 24.363 10.918 24.363 24.413v285.12c14.948 2.081 32.786 25.536 32.786 40.632v31.135c0 0.165-0.049 0.314-0.049 0.479 0 0.149 0.049 0.347 0.049 0.512v104.058c0 5.83-4.724 10.554-10.555 10.554zM308.111 372.176c0 39.724-32.192 107.824-71.916 107.824s-71.949-68.101-71.949-107.824c0-29.863 18.202-55.481 44.084-66.349v-308.574c0-16.171 11.447-29.252 25.618-29.252 14.138 0 25.601 13.098 25.601 29.252v306.939c28.245 9.696 48.56 36.437 48.56 67.985z" horiz-adv-x="308" />
<glyph unicode="&#xe733;" d="M215.19 43.921l-21.976-67.108c0-4.884 4.827-8.813 10.834-8.813h144.658c6.034 0 10.918 3.957 10.918 8.813l-22.033 67.108h-122.4zM513.291 480h-473.829c-21.808 0-39.462-17.711-39.462-39.462v-341.015c0-21.752 17.654-39.462 39.462-39.462h473.829c21.78 0 39.462 17.711 39.462 39.462v341.015c0 21.752-17.683 39.462-39.462 39.462zM522.441 98.288h-494.065v355.891h494.093v-355.891z" horiz-adv-x="553" />
<glyph unicode="&#xe734;" d="M157.509 39.96c5.177 0 9.364 4.206 9.364 9.325v74.91c0.076-0.038 0.153-0.038 0.248-0.076 0.933 4.358 5.519 7.651 11.058 7.651 5.805 0 10.563-3.673 11.153-8.355h0.114v-74.13c0-5.139 4.168-9.325 9.345-9.325 5.157 0 9.364 4.206 9.364 9.325v74.13h0.133c0.59 4.682 5.31 8.355 11.133 8.355 5.519 0 10.106-3.312 11.077-7.651 0.095 0.038 0.153 0.038 0.209 0.076v-74.91c0-5.139 4.225-9.325 9.345-9.325 5.157 0 9.364 4.206 9.364 9.325v92.153c0 0.152-0.038 0.305-0.038 0.399 0 0.19 0.038 0.305 0.038 0.476v27.577c0 13.38-15.797 34.125-29.024 35.99v252.517c0 11.933-9.668 21.601-21.601 21.601-11.914 0-21.583-9.668-21.583-21.601v-252.517c-13.227-1.846-29.043-22.591-29.043-35.971v-27.577c0-0.152 0.038-0.267 0.038-0.399s-0.038-0.342-0.038-0.476v-92.153c0-5.139 4.187-9.344 9.345-9.344zM198.79-32c-73.826 0-198.79 12.009-198.79 57.134 0 29.481 54.318 43.678 99.88 50.435 6.356 0.894 12.333-3.464 13.284-9.858 0.933-6.395-3.464-12.333-9.859-13.265-63.358-9.402-79.344-24.19-79.915-27.368 1.656-9.212 58.105-33.744 175.418-33.744s173.781 24.533 175.418 33.82c-0.552 3.159-16.901 18.175-81.61 27.502-6.375 0.933-10.81 6.832-9.916 13.265 0.933 6.395 6.813 10.849 13.247 9.897 46.381-6.7 101.65-20.935 101.65-50.663 0-45.144-124.964-57.153-198.809-57.153z" horiz-adv-x="398" />
<glyph unicode="&#xe735;" d="M65.508-32c-8.033 0-14.637 6.603-14.637 14.671l-0.017 264.076c0 8.050 6.604 14.637 14.654 14.637h5.174c8.050 0 14.654-6.587 14.654-14.637v-264.076c0-8.084-6.603-14.671-14.654-14.671h-5.174zM111.751 471.967v-102.185l-0.17 0.834c0 0 3.915-28.491-13.718-26.278 0 0-14.943-3.557-16.016 23.623v103.53c0 0-1.719 8.51-14.62 8.51s-14.586-8.51-14.586-8.51v-100.109l-0.136 0.085c0-29.971-13.361-27.129-13.361-27.129-15.726 0-15.931 14.705-16.424 22.126v105.522c0 0-1.974 7.233-11.352 7.233-9.395 0-11.369-7.25-11.369-7.25l0.017-122.201c-0.017-30.755 30.159-55.756 67.21-55.756 37.086 0 67.245 25.019 67.245 55.756v122.2c0 0-1.362 7.234-11.692 7.234s-11.028-7.234-11.028-7.234z" horiz-adv-x="135" />
<glyph unicode="&#xe736;" d="M256.015 480c-141.183 0-256.015-114.832-256.015-255.985 0-141.183 114.832-256.015 256.015-256.015 141.153 0 255.985 114.832 255.985 256.015 0 141.153-114.832 255.985-255.985 255.985zM256.015 7.495c-119.414 0-216.52 97.136-216.52 216.52s97.136 216.49 216.52 216.49c119.384 0 216.46-97.106 216.46-216.49s-97.076-216.52-216.46-216.52zM359.918 234.435h-100.25v142.649c0 8.623-7.006 15.63-15.631 15.63s-15.661-7.007-15.661-15.63v-163.52c0-3.294 1.048-6.348 2.785-8.863 3.323-7.067 10.48-11.978 18.804-11.978h109.892c11.528 0 20.841 9.342 20.841 20.87s-9.283 20.84-20.781 20.84z" />
<glyph unicode="&#xe737;" d="M225.73 372.206c-4.061 4.061-9.789 5.939-15.493 5-5.657-0.939-10.54-4.554-13.099-9.695l-130.4-263.641-24.296-24.272-34.437-22.864c-4.46-2.958-7.371-7.77-7.911-13.099-0.516-5.305 1.361-10.563 5.117-14.366l55.775-55.775c3.381-3.334 7.911-5.212 12.629-5.212 0.587 0 1.197 0.024 1.784 0.070 5.329 0.54 10.117 3.428 13.075 7.887l23.192 34.954 22.042 22.043c0.634-0.962 1.385-1.831 2.207-2.676l57.371-57.372c3.357-3.357 7.77-5.188 12.512-5.188 4.719 0 9.179 1.831 12.488 5.164l8.263 8.286c6.878 6.878 6.878 18.099 0 24.977l-49.32 49.25 221.951 109.813c5.164 2.535 8.756 7.394 9.695 13.075 0.916 5.681-0.939 11.456-5 15.493l-178.147 178.147zM73.1 0.864l-40.071 40.071 32.677 18.404 25.822-25.822-18.427-32.653zM503.972 283.966c-9.32 52.676-31.855 97.066-65.376 130.564-33.428 33.498-77.794 56.010-130.518 65.329-6.221 1.103-14.178-3.827-17.864-10.868-3.685-7.066-1.666-13.733 4.507-14.789l-0.070-0.047c49.437-8.709 90.893-29.883 122.255-61.245 31.409-31.409 52.606-72.864 61.268-122.278 1.080-6.174 7.723-8.216 14.906-4.483 1.925 1.057 3.685 2.371 5.212 3.874 4.061 4.014 6.432 9.46 5.681 13.944zM378.173 354.341c-19.765 19.765-44.272 34.742-72.77 43.779-5.751 1.808-13.944-2.347-18.192-9.296-4.32-6.854-3.169-14.014 2.606-15.822 26.010-8.286 48.568-22.066 66.784-40.235 18.24-18.287 32.043-41.080 40.517-67.372 1.831-5.728 8.99-6.878 15.916-2.535 1.432 0.892 2.747 1.949 3.897 3.099 4.483 4.507 6.831 10.587 5.375 15.164-9.272 28.522-24.249 53.334-44.132 73.216z" horiz-adv-x="504" />
<glyph unicode="&#xe738;" d="M1.108 390.38c-1.534-3.217-1.492-6.989 0.171-10.185l23.439-45.705c1.087-2.152 2.813-3.878 5.008-4.986l32.579-16.684c30.299-47.644-1.066-77.56-4.837-80.884-3.495-3.005-4.88-7.863-3.431-12.273l15.938-49.349c1.172-3.579 3.963-6.349 7.543-7.457 38.524-11.889 84.783-9.332 112.781-2.706l39.44-132.192-47.537 17.387c-3.154 0.255-5.945-2.088-6.222-5.263-0.277-3.154 2.088-5.923 5.242-6.222l46.514-16.492-32.941-42.019c-0.916-3.047 0.81-6.222 3.857-7.138 2.706-0.789 5.498 0.447 6.733 2.919 0.149 0.298 0.298 0.618 0.426 0.98l33.644 41.656 50.179-17.728c2.387-0.213 4.581 1.087 5.604 3.111 0.341 0.639 0.533 1.342 0.596 2.131 0.298 3.154-2.088 5.945-5.241 6.222l-43.446 16.961 34.646 43.127c0.895 3.047-0.853 6.264-3.878 7.138-3.068 0.916-6.286-0.788-7.18-3.878l-29.191-36.351-37.843 131.958c57.808 24.355 86.551 74.044 86.978 74.811 0.085 0.128 0.149 0.256 0.213 0.405 1.385 2.706 1.64 5.859 0.703 8.779l-14.063 43.553c-1.172 3.601-4.027 6.413-7.649 7.479-43.915 13.040-51.266 55.037-52.481 68.099l26.187 32.622c2.387 3.047 3.175 7.074 1.96 10.739l-14.042 43.553c-1.065 3.26-3.537 5.923-6.733 7.159-157.548 61.856-222.92-71.935-223.666-73.277zM206.705 445.738c-55.89-59.534-145.041-59.044-179.772-56.252 16.002 25.697 70.486 94.094 179.772 56.252zM268.092 248.429c-12.55-19.241-70.017-95.436-178.11-65.244l-8.672 26.848c33.389-10.952 105.345-20.008 178.621 63.539l8.161-25.143zM253.155 283.182c-74.939-87.17-145.978-71.636-173.401-60.727 12.7 16.002 34.305 55.016-0.597 106.346 28.361 0.532 68.312 7.5 116.020 32.387 3.793-25.143 19.028-61.621 57.978-78.007zM221.727 411.794l-25.079-31.237c-1.555-1.939-2.344-4.326-2.451-6.797-62.005-33.453-111.29-35.093-137.242-32.345l-13.445 6.861-15.107 29.426c37.843-3.005 126.823-2.493 185.355 58.745l7.969-24.653z" horiz-adv-x="296" />
<glyph unicode="&#xe739;" d="M517.347 436.849c-24.945 22.627-68.621 35.609-119.839 35.609-38.175 0-79.841-6.831-123.796-20.308-1.082-0.34-2.163-0.68-3.029-0.989l-3.276-0.897c-125.094-38.452-182.217-104.447-193.159-149.514-0.186-1.051-4.513-25.532 6.12-38.267 4.173-5.008 9.953-7.542 17.217-7.542 14.745 0 35.021 10.417 62.068 31.869 0.68 0.062 1.36 0.34 1.917 0.773 0.865 0.649 1.36 1.7 1.422 2.782 0.928 20.927 10.324 40.277 28.066 57.648-4.111-15.208-10.232-41.389-10.447-63.026-0.031-1.854 1.268-3.431 3.091-3.74 9.675-1.608 21.699-3.617 33.878-3.617 34.373 0 58.483 16.661 73.598 50.941 0.248 0.525 0.34 1.082 0.309 1.669l-2.226 59.348 28.87-48.313c0.34-0.494 0.742-0.928 1.267-1.237 16.568-10.386 32.95-15.671 48.745-15.671 29.087 0 51.528 17.619 69.61 34.836 1.329 1.298 1.577 3.308 0.495 4.822-12.334 17.773-32.085 36.041-44.017 46.304 24.419-4.451 43.089-15.177 55.577-31.962 0.649-0.897 1.885-1.236 2.967-1.298 0.495-0.031 0.989 0.062 1.483 0.248 8.315-0.649 16.197-1.205 23.029-0.958 31.622 0 49.673 6.337 55.114 19.319 7.542 17.959-14.003 40.091-15.053 41.173zM283.726 467.697c-2.813 9.18-12.55 14.343-21.73 11.529-9.149-2.813-14.311-12.549-11.499-21.761l33.229 10.231zM335.502 290.612c-2.38 7.882-10.788 12.303-18.639 9.892-7.882-2.442-12.272-10.757-9.892-18.639l93.041-303.293c1.947-6.43 7.851-10.572 14.281-10.572 1.453 0 2.906 0.216 4.358 0.649 7.882 2.411 12.303 10.788 9.892 18.67l-93.041 303.293zM336.367 78.226c-5.44 6.213-14.806 6.893-21.081 1.483-0.062-0.123-1.978-1.7-5.255-4.111l-62.532-18.67-216.837 167.38c-0.494 1.113-0.989 2.163-1.483 3.308-2.782 6.893-10.232 10.447-17.248 8.748-3.617 0.216-7.233-1.298-9.613-4.358-2.318-2.999-2.874-6.831-1.793-10.2 0.031-1.885 0.371-3.771 1.143-5.595 40.771-98.388 91.155-161.353 150.008-187.935l-115.852-34.62c-5.904-1.793-9.273-8.036-7.511-13.94 1.483-4.822 5.873-7.975 10.726-7.975 1.082 0 2.163 0.154 3.215 0.495l147.442 44.078c9.613-1.762 18.948-2.565 28.005-2.565 15.053 0 29.118 2.195 42.038 5.533l58.575-45.16c2.009-1.577 4.451-2.349 6.831-2.349 3.308 0 6.646 1.514 8.841 4.358 3.771 4.884 2.875 11.932-2.009 15.702l-46.705 36.041c29.457 12.209 48.22 28.067 49.642 29.334 6.182 5.378 6.862 14.806 1.453 21.019zM188.368 46.945c-51.96 12.24-97.986 57.060-137.212 133.255l169.946-131.184-15.733-4.699c-5.595 0.526-11.22 1.298-17 2.627z" horiz-adv-x="534" />
<glyph unicode="&#xe73a;" d="M227.595 157.963c2.082-0.49 4.107-0.757 6.111-0.957l5.666 1.692-61.184 47.238c14.136-27.425 30.709-43.565 49.408-47.972zM346.301 483.061h-180.803c-91.281 0-166.111-79.671-166.111-170.941v-180.825c0-91.269 74.83-160.233 166.111-160.233h345.901v341.059c-0.011 91.269-73.795 170.941-165.097 170.941zM254.119 313.611c3.306 1.024 6.812-0.846 7.824-4.151l-11.965-3.673c-1.024 3.305 0.835 6.8 4.141 7.825zM279.285 138.106c1.759-1.369 2.092-3.896 0.735-5.654-0.801-1.035-2.003-1.57-3.195-1.57-0.846 0-1.714 0.267-2.46 0.835l-21.081 16.272c-4.642-1.191-9.717-2.003-15.137-2.003-3.25 0-6.612 0.3-10.073 0.924l-53.092-15.872c-0.379-0.123-0.768-0.167-1.157-0.167-1.737 0-3.328 1.135-3.863 2.872-0.645 2.126 0.579 4.375 2.704 5.009l41.706 12.466c-21.192 9.572-39.335 32.245-54.016 67.673-0.279 0.656-0.4 1.347-0.412 2.014-0.379 1.213-0.189 2.582 0.656 3.673 0.857 1.113 2.148 1.648 3.462 1.57 2.526 0.624 5.209-0.679 6.222-3.139 0.178-0.412 0.356-0.791 0.523-1.202l78.080-60.26 22.517 6.723c1.168 0.868 1.87 1.436 1.892 1.481 2.237 1.948 5.632 1.692 7.591-0.534 1.937-2.237 1.692-5.632-0.546-7.58-0.523-0.467-7.257-6.188-17.875-10.574l16.818-12.956zM310.495 129.781c-0.512-0.178-1.046-0.233-1.57-0.233-2.304 0-4.419 1.481-5.131 3.796l-33.502 109.212c-0.868 2.827 0.712 5.833 3.539 6.701 2.849 0.868 5.865-0.724 6.723-3.55l33.514-109.212c0.868-2.839-0.724-5.844-3.573-6.712zM351.477 283.536c-1.959-4.675-8.459-6.957-19.846-6.957-2.46-0.078-5.309 0.123-8.303 0.345-0.178-0.067-0.345-0.111-0.523-0.1-0.389 0.034-0.835 0.156-1.068 0.468-4.497 6.044-11.219 9.917-20.012 11.52 4.296-3.696 11.397-10.274 15.849-16.685 0.389-0.535 0.3-1.269-0.178-1.737-6.512-6.188-14.603-12.533-25.077-12.533-5.676 0-11.565 1.892-17.541 5.643-0.2 0.112-0.323 0.256-0.457 0.434l-10.396 17.397 0.801-21.381c0.011-0.201-0.022-0.401-0.111-0.59-5.454-12.344-14.136-18.343-26.501-18.343-4.397 0-8.715 0.713-12.199 1.303-0.668 0.112-1.124 0.679-1.124 1.347 0.078 7.792 2.281 17.219 3.762 22.684-6.377-6.255-9.762-13.223-10.095-20.747-0.011-0.389-0.212-0.757-0.512-0.99-0.212-0.167-0.457-0.256-0.69-0.279-9.739-7.714-17.041-11.476-22.35-11.476-2.605 0-4.697 0.912-6.2 2.716-3.829 4.597-2.26 13.412-2.204 13.78 3.94 16.217 24.52 39.992 69.554 53.827l1.18 0.334c0.3 0.1 0.69 0.233 1.091 0.367 15.817 4.853 30.82 7.313 44.555 7.313 18.454 0 34.171-4.675 43.153-12.822 0.401-0.4 8.137-8.381 5.443-14.837z" />
<glyph unicode="&#xe73b;" d="M629.966 419.365c-23.137-10.31-48.083-17.235-74.211-20.343 26.678 15.976 47.178 41.315 56.819 71.496-25.025-14.834-52.648-25.576-82.081-31.4-23.57 25.183-57.173 40.883-94.318 40.883-71.378 0-129.259-57.881-129.259-129.259 0-10.152 1.141-19.989 3.384-29.472-107.421 5.391-202.683 56.819-266.428 135.043-11.136-19.084-17.51-41.276-17.51-64.964 0-44.857 22.822-84.402 57.527-107.578-21.209 0.669-41.158 6.493-58.55 16.172 0-0.551 0-1.063 0-1.652 0-62.603 44.542-114.819 103.683-126.741-10.86-2.912-22.271-4.525-34.115-4.525-8.302 0-16.408 0.827-24.317 2.322 16.487-51.349 64.216-88.731 120.76-89.753-44.227-34.666-99.945-55.324-160.541-55.324-10.428 0-20.697 0.63-30.809 1.849 57.212-36.712 125.127-58.118 198.119-58.118 237.743 0 367.749 196.938 367.749 367.749 0 5.588-0.118 11.175-0.394 16.723 25.261 18.218 47.178 41.001 64.492 66.892z" horiz-adv-x="630" />
</font>
</defs>
</svg>
